<svg width="101" height="100" viewBox="0 0 101 100" fill="none" xmlns="http://www.w3.org/2000/svg">
<rect x="0.400024" width="100" height="100" rx="50" fill="#37E1A0" fill-opacity="0.25"/>
<rect x="15.4" y="15" width="70" height="70" rx="35" fill="white"/>
<path d="M49.812 81.7996C67.4634 81.7996 81.7726 73.8768 81.7726 64.1036C81.7726 54.3304 67.4634 46.4076 49.812 46.4076C32.1607 46.4076 17.8514 54.3304 17.8514 64.1036C17.8514 73.8768 32.1607 81.7996 49.812 81.7996Z" fill="#F0F0F0"/>
<path d="M52.6513 74.6596C58.5562 74.6596 63.3431 72.0095 63.3431 68.7404C63.3431 65.4713 58.5562 62.8212 52.6513 62.8212C46.7464 62.8212 41.9595 65.4713 41.9595 68.7404C41.9595 72.0095 46.7464 74.6596 52.6513 74.6596Z" fill="#E0E0E0"/>
<path d="M71.8788 68.1524C74.8494 68.1524 77.2576 66.8192 77.2576 65.1746C77.2576 63.53 74.8494 62.1968 71.8788 62.1968C68.9082 62.1968 66.5 63.53 66.5 65.1746C66.5 66.8192 68.9082 68.1524 71.8788 68.1524Z" fill="#E0E0E0"/>
<path d="M30.0076 71.8596C35.6311 71.8596 40.1898 69.3355 40.1898 66.2218C40.1898 63.1081 35.6311 60.584 30.0076 60.584C24.3842 60.584 19.8254 63.1081 19.8254 66.2218C19.8254 69.3355 24.3842 71.8596 30.0076 71.8596Z" fill="#E0E0E0"/>
<path d="M69.1697 65.8466C67.7291 64.378 66.8835 58.3958 68.2877 57.2296H75.4361C76.8361 58.3958 75.9961 64.3696 74.5569 65.8452L74.5177 65.8858L74.4673 65.9348C74.4267 65.974 74.3833 66.0132 74.3371 66.051L74.3035 66.0776L74.1943 66.1602C74.1344 66.2032 74.0723 66.2429 74.0081 66.2792C72.8237 66.9624 70.9015 66.9624 69.7171 66.2792C69.6541 66.2428 69.5911 66.2022 69.5295 66.1588C69.4945 66.1336 69.4609 66.1084 69.4287 66.0818L69.3853 66.0482C69.3419 66.0118 69.2999 65.9754 69.2607 65.9376L69.2033 65.8816L69.1697 65.8466Z" fill="#37474F"/>
<path d="M74.816 56.7606C76.447 57.7028 76.447 59.2288 74.816 60.171C73.185 61.1132 70.5404 61.1132 68.9094 60.171C67.2784 59.2288 67.2784 57.7028 68.9094 56.7606C70.5404 55.8184 73.185 55.8184 74.816 56.7606Z" fill="#455A64"/>
<path d="M74.032 57.2143C75.229 57.9059 75.229 59.0259 74.032 59.7175C72.835 60.4091 70.8918 60.4091 69.692 59.7175C68.4922 59.0259 68.495 57.9059 69.692 57.2143C70.889 56.5227 72.8336 56.5227 74.032 57.2143Z" fill="#263238"/>
<path d="M69.6934 58.4C70.8918 57.7084 72.8336 57.7084 74.0334 58.4C74.323 58.5562 74.5693 58.7818 74.7502 59.0566C74.5697 59.3322 74.3234 59.5584 74.0334 59.7146C72.835 60.4062 70.8932 60.4062 69.6934 59.7146C69.4036 59.558 69.1573 59.3319 68.9766 59.0566C69.1578 58.7821 69.404 58.5566 69.6934 58.4Z" fill="#F5F5F5"/>
<path d="M72.5592 56.5128L71.54 55.7834C71.54 55.7834 70.7 51.3776 71.4266 49.4834C72.1532 47.5892 73.4874 47.5962 74.1244 48.1044C74.7614 48.6126 74.4128 50.2044 74.1524 51.1228C73.8374 52.2302 72.8364 57.1918 73.542 58.9516L72.5592 56.5128Z" fill="#BA68C8"/>
<g opacity="0.2">
<path d="M72.5592 56.5128L71.54 55.7834C71.54 55.7834 70.7 51.3776 71.4266 49.4834C72.1532 47.5892 73.4874 47.5962 74.1244 48.1044C74.7614 48.6126 74.4128 50.2044 74.1524 51.1228C73.8374 52.2302 72.8364 57.1918 73.542 58.9516L72.5592 56.5128Z" fill="black"/>
</g>
<path d="M72.3548 56.0004C72.3735 55.9927 72.389 55.9787 72.3984 55.9608C72.4079 55.9429 72.4108 55.9222 72.4066 55.9024C71.575 52.135 73.2914 48.6336 73.3082 48.5986C73.3184 48.5784 73.3202 48.5549 73.3131 48.5334C73.306 48.5119 73.2907 48.494 73.2704 48.4838C73.2502 48.4736 73.2267 48.4719 73.2052 48.479C73.1837 48.486 73.1658 48.5014 73.1556 48.5216C73.1374 48.5566 71.3944 52.1112 72.2386 55.9416C72.2437 55.9638 72.2572 55.9831 72.2763 55.9954C72.2954 56.0077 72.3186 56.012 72.3408 56.0074L72.3548 56.0004Z" fill="white"/>
<path d="M72.1196 55.3662C72.1196 55.3662 72.0048 55.0204 72.5144 54.9322C73.024 54.844 73.2144 54.4198 73.2676 53.7086C73.3208 52.9974 73.5308 52.4878 74.1692 52.3828C74.8076 52.2778 75.3228 52.5998 75.7386 52.2792C76.1544 51.9586 77.2282 51.1858 78.1186 51.5386C79.009 51.8914 78.7192 52.6586 78.2586 53.1486C77.798 53.6386 77.6594 53.8108 78.015 54.6158C78.3706 55.4208 78.1116 56.1726 77.2898 56.3616C76.468 56.5506 76.0074 56.4526 75.9948 57.3556C75.9822 58.162 75.8184 58.9166 74.977 59.2218C74.3111 59.4629 73.5954 59.5336 72.8952 59.4276C72.6596 59.407 72.4362 59.3141 72.2554 59.1616C72.0846 58.9894 72.1154 58.7976 72.1154 58.5736V55.3662H72.1196Z" fill="#BA68C8"/>
<g opacity="0.1">
<path d="M72.1196 55.3662C72.1196 55.3662 72.0048 55.0204 72.5144 54.9322C73.024 54.844 73.2144 54.4198 73.2676 53.7086C73.3208 52.9974 73.5308 52.4878 74.1692 52.3828C74.8076 52.2778 75.3228 52.5998 75.7386 52.2792C76.1544 51.9586 77.2282 51.1858 78.1186 51.5386C79.009 51.8914 78.7192 52.6586 78.2586 53.1486C77.798 53.6386 77.6594 53.8108 78.015 54.6158C78.3706 55.4208 78.1116 56.1726 77.2898 56.3616C76.468 56.5506 76.0074 56.4526 75.9948 57.3556C75.9822 58.162 75.8184 58.9166 74.977 59.2218C74.3111 59.4629 73.5954 59.5336 72.8952 59.4276C72.6596 59.407 72.4362 59.3141 72.2554 59.1616C72.0846 58.9894 72.1154 58.7976 72.1154 58.5736V55.3662H72.1196Z" fill="black"/>
</g>
<path d="M72.1197 59.0846C72.1346 59.0847 72.1492 59.08 72.1613 59.0712C72.1734 59.0624 72.1824 59.0499 72.1868 59.0356C73.6834 54.5906 77.0728 52.7944 77.1064 52.7776C77.123 52.769 77.1356 52.7541 77.1413 52.7363C77.1471 52.7185 77.1456 52.6992 77.1372 52.6824C77.1331 52.6741 77.1273 52.6667 77.1203 52.6606C77.1132 52.6545 77.105 52.6499 77.0961 52.647C77.0873 52.6441 77.0779 52.6431 77.0686 52.6439C77.0593 52.6447 77.0503 52.6473 77.042 52.6516C77.007 52.6698 73.5686 54.4884 72.0524 58.9908C72.0494 58.9997 72.0481 59.009 72.0487 59.0183C72.0493 59.0276 72.0518 59.0367 72.056 59.0451C72.0602 59.0534 72.0659 59.0608 72.073 59.0669C72.0801 59.073 72.0884 59.0776 72.0972 59.0804C72.1044 59.0833 72.112 59.0847 72.1197 59.0846Z" fill="white"/>
<path d="M74.2672 55.2094H74.2826C75.2626 54.9868 76.825 55.1072 76.8404 55.1086C76.8591 55.1102 76.8777 55.1043 76.8922 55.0922C76.9066 55.0802 76.9156 55.0629 76.9174 55.0442C76.9182 55.0348 76.9171 55.0254 76.9142 55.0164C76.9113 55.0075 76.9067 54.9992 76.9005 54.992C76.8944 54.9849 76.887 54.979 76.8786 54.9747C76.8702 54.9705 76.861 54.9679 76.8516 54.9672C76.7872 54.9672 75.25 54.844 74.2518 55.0722C74.2356 55.0768 74.2215 55.087 74.212 55.101C74.2026 55.115 74.1984 55.132 74.2003 55.1487C74.2021 55.1655 74.2098 55.1811 74.2221 55.1928C74.2344 55.2044 74.2504 55.2113 74.2672 55.2122V55.2094Z" fill="white"/>
<path d="M73.4706 57.3458C73.9172 57.3458 74.3904 57.3164 74.4212 57.315C74.4305 57.3145 74.4396 57.3121 74.448 57.308C74.4564 57.3039 74.4639 57.2981 74.47 57.2911C74.4761 57.284 74.4808 57.2758 74.4837 57.267C74.4866 57.2581 74.4877 57.2487 74.487 57.2394C74.4866 57.23 74.4844 57.2208 74.4803 57.2123C74.4763 57.2038 74.4705 57.1963 74.4634 57.1901C74.4563 57.1839 74.4481 57.1793 74.4391 57.1765C74.4301 57.1736 74.4207 57.1726 74.4114 57.1736C74.4016 57.1736 73.3096 57.2408 72.8826 57.1736C72.8641 57.1711 72.8453 57.1759 72.8302 57.1868C72.8151 57.1978 72.8048 57.2141 72.8014 57.2324C72.7985 57.251 72.8031 57.2699 72.8141 57.2851C72.8251 57.3003 72.8417 57.3105 72.8602 57.3136C73.0626 57.3385 73.2666 57.3493 73.4706 57.3458Z" fill="white"/>
<path d="M74.7264 54.6872C74.7357 54.6867 74.7448 54.6843 74.7532 54.6802C74.7616 54.6761 74.7691 54.6703 74.7752 54.6633C74.7813 54.6563 74.786 54.6481 74.7889 54.6392C74.7918 54.6303 74.7929 54.6209 74.7922 54.6116C74.7582 54.1034 74.6531 53.6025 74.48 53.1234C74.4728 53.106 74.4592 53.0921 74.442 53.0845C74.4247 53.077 74.4052 53.0763 74.3876 53.0828C74.3788 53.0862 74.3709 53.0913 74.3642 53.0978C74.3575 53.1043 74.3521 53.1121 74.3485 53.1208C74.3448 53.1294 74.3429 53.1386 74.3429 53.148C74.3429 53.1573 74.3447 53.1666 74.3484 53.1752C74.5164 53.6405 74.62 54.1266 74.6564 54.62C74.6571 54.6381 74.6648 54.6552 74.6778 54.6677C74.6909 54.6803 74.7083 54.6872 74.7264 54.6872Z" fill="white"/>
<path d="M72.1 59.5662C71.3951 59.7821 70.646 59.8096 69.9272 59.646C68.6812 59.3786 68.3802 58.617 68.3802 58.617C68.3802 58.617 69.2678 57.6944 70.0532 57.637C69.2692 57.5203 68.4711 57.5373 67.6928 57.6874C67.6928 57.6874 66.9718 57.4214 67.1076 56.216C67.1076 56.216 67.7866 55.7218 69.3476 55.915C69.3476 55.915 68.565 55.3634 67.1916 55.1996C67.0838 55.1996 67.2308 53.6316 67.361 52.9316C67.4912 52.2316 67.7516 52.3408 68.313 52.401C68.8744 52.4612 70.6412 53.045 70.8512 53.4468C71.0612 53.8486 70.8512 54.8692 70.8512 54.8692C70.8512 54.8692 71.365 54.4492 71.4784 53.934C71.8726 53.9698 72.2466 54.1246 72.5508 54.3778C73.045 54.7978 72.9022 55.0624 72.7412 55.4782C72.5823 55.8983 72.364 56.2933 72.093 56.6514C72.093 56.6514 72.6194 56.461 73.1192 55.2066C73.1192 55.2066 73.6358 56.167 73.7268 56.8544C73.8178 57.5418 73.1654 59.0048 72.1 59.5662Z" fill="#BA68C8"/>
<path d="M72.0678 59.632C72.0552 59.6273 72.0442 59.6192 72.0361 59.6086C72.0279 59.5979 72.0229 59.5852 72.0216 59.5718C71.834 57.238 69.1922 53.591 68.0246 52.8588C68.0087 52.8487 67.9974 52.8328 67.9932 52.8144C67.9891 52.7961 67.9923 52.7768 68.0022 52.7608C68.0128 52.7455 68.0287 52.7347 68.0468 52.7305C68.065 52.7264 68.0841 52.7292 68.1002 52.7384C69.2874 53.4832 71.9712 57.189 72.1602 59.5606C72.161 59.5698 72.1599 59.5791 72.1571 59.5879C72.1543 59.5967 72.1497 59.6048 72.1437 59.6118C72.1378 59.6189 72.1304 59.6246 72.1222 59.6288C72.114 59.633 72.105 59.6355 72.0958 59.6362C72.0863 59.6372 72.0766 59.6358 72.0678 59.632Z" fill="white"/>
<path d="M30.0999 71.2114C30.0431 71.2114 29.9887 71.1888 29.9485 71.1487C29.9083 71.1085 29.8857 71.054 29.8857 70.9972V57.2338C29.8857 57.177 29.9083 57.1225 29.9485 57.0823C29.9887 57.0422 30.0431 57.0196 30.0999 57.0196C30.1568 57.0196 30.2112 57.0422 30.2514 57.0823C30.2916 57.1225 30.3141 57.177 30.3141 57.2338V71C30.3134 71.0563 30.2905 71.1101 30.2504 71.1496C30.2103 71.1892 30.1563 71.2114 30.0999 71.2114Z" fill="#455A64"/>
<path d="M38.612 66.2022C38.5686 66.2018 38.5263 66.1881 38.4908 66.1631C38.4553 66.1381 38.4283 66.1029 38.4132 66.0622L34.1936 55.3802C34.1772 55.3285 34.181 55.2724 34.2044 55.2234C34.2277 55.1744 34.2687 55.136 34.3192 55.1161C34.3697 55.0962 34.4259 55.0962 34.4764 55.1161C34.5269 55.136 34.5679 55.1744 34.5912 55.2234L38.8108 65.9054C38.8217 65.9316 38.8272 65.9598 38.827 65.9882C38.8268 66.0166 38.8209 66.0447 38.8097 66.0708C38.7985 66.0969 38.7821 66.1205 38.7616 66.1402C38.7412 66.1598 38.717 66.1752 38.6904 66.1854C38.6656 66.1958 38.639 66.2015 38.612 66.2022Z" fill="#455A64"/>
<path d="M38.1051 64.9184C38.076 64.9185 38.0471 64.9126 38.0204 64.901C37.9937 64.8895 37.9696 64.8725 37.9497 64.8512L30.0999 56.5422L22.2599 64.8162C22.2411 64.8383 22.2179 64.8564 22.1919 64.8693C22.1658 64.8821 22.1374 64.8896 22.1084 64.8912C22.0794 64.8927 22.0503 64.8884 22.023 64.8783C21.9958 64.8683 21.9708 64.8528 21.9497 64.8329C21.9286 64.8129 21.9117 64.7888 21.9002 64.7622C21.8887 64.7355 21.8827 64.7067 21.8827 64.6777C21.8826 64.6486 21.8885 64.6198 21.8999 64.5931C21.9113 64.5664 21.9281 64.5422 21.9491 64.5222L29.9431 56.083C29.9637 56.0625 29.9882 56.0464 30.0151 56.0356C30.0421 56.0248 30.0709 56.0195 30.0999 56.02C30.129 56.0202 30.1578 56.0263 30.1845 56.0378C30.2111 56.0494 30.2352 56.0662 30.2553 56.0872L38.2605 64.56C38.2892 64.5904 38.3084 64.6285 38.3157 64.6697C38.3229 64.7109 38.318 64.7532 38.3015 64.7916C38.285 64.83 38.2576 64.8628 38.2227 64.8858C38.1878 64.9088 38.1469 64.9211 38.1051 64.9212V64.9184Z" fill="#455A64"/>
<path d="M21.5824 66.2022C21.5555 66.202 21.5289 66.1968 21.504 66.1868C21.4775 66.1766 21.4533 66.1613 21.4328 66.1416C21.4123 66.1219 21.396 66.0983 21.3847 66.0722C21.3735 66.0461 21.3676 66.018 21.3674 65.9896C21.3672 65.9612 21.3727 65.9331 21.3836 65.9068L25.6032 55.2248C25.624 55.1719 25.6649 55.1294 25.7171 55.1067C25.7692 55.084 25.8282 55.0829 25.8811 55.1037C25.934 55.1245 25.9765 55.1655 25.9992 55.2176C26.0219 55.2697 26.023 55.3287 26.0022 55.3816L21.7812 66.0636C21.7659 66.1041 21.7388 66.139 21.7033 66.1637C21.6678 66.1885 21.6256 66.2019 21.5824 66.2022Z" fill="#455A64"/>
<path d="M38.3208 64.5894L38.8808 66.0608C38.8822 66.0734 38.8822 66.0861 38.8808 66.0986C38.8822 66.1074 38.8822 66.1164 38.8808 66.1252C38.8659 66.1661 38.8358 66.1997 38.7968 66.219C38.7442 66.2453 38.6862 66.2589 38.6274 66.2589C38.5686 66.2589 38.5106 66.2453 38.458 66.219C38.4289 66.2037 38.4057 66.1791 38.3922 66.149V66.1294L37.8756 64.749L38.3208 64.5894Z" fill="#BA68C8"/>
<path d="M21.8735 64.5894L21.3135 66.0608C21.3122 66.0734 21.3122 66.0861 21.3135 66.0986C21.3122 66.1074 21.3122 66.1164 21.3135 66.1252C21.3285 66.1661 21.3585 66.1997 21.3975 66.219C21.4502 66.2453 21.5081 66.2589 21.5669 66.2589C21.6257 66.2589 21.6837 66.2453 21.7363 66.219C21.7655 66.2037 21.7887 66.1791 21.8021 66.149V66.1294L22.3201 64.749L21.8735 64.5894Z" fill="#BA68C8"/>
<path d="M30.3436 69.9318V71.1498C30.3417 71.1714 30.334 71.1921 30.3215 71.2098C30.3089 71.2275 30.292 71.2416 30.2722 71.2506C30.2178 71.2775 30.1579 71.2915 30.0972 71.2915C30.0365 71.2915 29.9766 71.2775 29.9222 71.2506C29.9025 71.2416 29.8855 71.2275 29.873 71.2098C29.8604 71.1921 29.8528 71.1714 29.8508 71.1498V69.9318C29.9266 69.8911 30.0112 69.8698 30.0972 69.8698C30.1832 69.8698 30.2679 69.8911 30.3436 69.9318Z" fill="#BA68C8"/>
<path d="M38.8724 55.2276C38.8724 54.8762 38.5644 54.501 37.9134 54.0796C36.7108 53.2984 34.0228 51.7318 32.34 50.7994C32.3391 50.7961 32.3373 50.793 32.3349 50.7905C32.3324 50.7881 32.3293 50.7863 32.326 50.7854C31.0296 50 29.82 46.2564 28.9254 43.4102C28.6202 42.4414 28.245 41.8926 27.8054 41.635C27.7004 41.5734 27.3126 41.355 27.2258 41.3074C26.3466 40.781 25.1916 41.4138 23.7538 42.2006C22.428 42.9258 21.3934 43.854 21.1848 46.3166C21.0588 47.8174 21.1848 50.6832 21.4844 52.8546C21.9254 56.482 22.4644 56.4946 23.2526 57.0952C24.605 58.141 27.6514 59.6152 28.9352 60.115C31.2634 61.0306 33.166 59.618 34.5842 58.918C35.8849 58.2597 37.1406 57.5161 38.3432 56.692C38.6974 56.433 38.8822 56.1726 38.878 55.8982C38.871 55.7876 38.8738 55.341 38.8724 55.2276Z" fill="#263238"/>
<path d="M34.58 58.2418C35.88 57.5846 37.1352 56.8423 38.3376 56.02C39.144 55.4348 39.0698 54.8356 37.9176 54.0852C37.0552 53.5252 37.1 53.4762 30.6054 49.9062C30.6054 49.9062 22.3244 54.7922 22.6814 55.6952C23.0384 56.5982 27.3196 58.8088 28.9338 59.4444C31.2578 60.36 33.1604 58.9418 34.58 58.2418Z" fill="#37474F"/>
<path d="M27.7508 41.6C26.8786 41.1422 25.746 41.7638 24.3446 42.531C23.4472 43.0238 22.6828 43.6062 22.218 44.6968L21.6272 44.3552C22.0906 43.2688 22.855 42.6864 23.7496 42.195C25.1874 41.4082 26.3424 40.7754 27.2216 41.3018C27.3 41.3522 27.6052 41.523 27.7508 41.6Z" fill="#455A64"/>
<path d="M24.3446 42.538C26.4964 41.3592 28.0154 40.522 28.9254 43.4102C29.8214 46.2564 31.0254 50 32.326 50.7854C32.326 50.7854 31.906 50.4298 28.686 52.8644C27.6612 53.6386 26.4166 54.2742 25.606 54.7614C24.0058 55.7148 23.0342 56.097 22.8816 55.9696C22.0346 55.2696 21.5768 49.1166 21.7854 46.654C21.994 44.1914 23.0202 43.2632 24.3446 42.538Z" fill="#37474F"/>
<g opacity="0.5">
<path d="M24.3446 42.538C26.4964 41.3592 28.0154 40.522 28.9254 43.4102C29.8214 46.2564 31.0254 50 32.326 50.7854C32.326 50.7854 30.1042 50.7854 26.8842 52.5228C23.5382 54.3302 23.0258 56.097 22.8732 55.9696C22.0262 55.2696 21.5684 49.1166 21.777 46.654C21.9856 44.1914 23.0202 43.2632 24.3446 42.538Z" fill="#455A64"/>
</g>
<path d="M65.5565 35.636C66.1263 35.5086 66.6288 35.3896 67.0153 35.2902C69.0705 34.7652 69.6893 34.0848 69.7523 33.1762C69.8545 31.7258 69.3113 31.7146 68.3747 32.3628C67.9852 32.6392 67.5586 32.8593 67.1077 33.0166C67.2644 32.8375 67.3949 32.6372 67.4954 32.4216C67.6354 32.0604 67.445 31.8294 67.3204 31.7678C67.2224 31.7202 67.1231 31.9708 66.7843 32.248C66.3475 32.6022 65.9947 32.668 65.6335 33.1622C65.4953 33.3441 65.2967 33.4707 65.0735 33.5192C64.8691 33.5654 61.5133 34.4838 59.9411 34.754C59.0185 33.5794 58.1617 32.3264 57.1859 31.079C55.6837 29.1554 54.9697 28.8866 54.1269 29.0392L53.3947 31.4528C53.3947 31.4528 58.3423 37.2796 58.4011 37.3524C58.5691 37.5794 58.8044 37.7478 59.0736 37.8335C59.3427 37.9192 59.6321 37.9179 59.9004 37.8298C62.0312 37.204 64.2867 36.2226 65.5565 35.636Z" fill="#FFA8A7"/>
<path d="M53.9309 28.5534C55.6865 28.6304 56.2073 29.6146 57.1089 30.7066C58.0105 31.7986 59.9733 34.6 59.9733 34.6L64.7655 33.5976C64.7655 33.5976 64.5681 34.9738 65.1855 35.8026C65.1855 35.8026 62.6431 37.085 61.1031 37.6744C59.1571 38.422 59.0297 38.2512 58.6783 37.9292C58.3269 37.6072 54.0583 32.7758 54.0583 32.7758L53.9309 28.5534Z" fill="#37474F"/>
<path d="M34.1209 31.8C34.5759 30.4196 35.0785 30.3622 35.6987 31.317C35.9546 31.7204 36.2656 32.0861 36.6227 32.4034C36.5436 32.1777 36.4965 31.9421 36.4827 31.7034C36.4827 31.3156 36.7543 31.1728 36.8929 31.1644C37.0021 31.1644 36.9979 31.4262 37.2079 31.8112C37.4767 32.3054 37.7777 32.5014 37.9261 33.0936C37.9821 33.3162 38.1277 33.7586 38.3139 33.8902C39.2659 34.5594 40.9963 35.384 42.7169 36.049C43.3273 34.7596 44.1323 33.151 44.7455 32.024C45.9131 29.882 46.6859 29.644 47.5357 29.7448L48.4009 32.1122C48.4009 32.1122 43.7809 38.2064 43.7333 38.282C43.3791 38.7804 42.6539 39.122 42.0897 38.891C40.4783 38.2302 39.2813 37.071 37.9135 36.1386C37.1015 35.587 36.3343 35.1586 35.8443 34.7918C34.1489 33.529 33.8353 32.6652 34.1209 31.8Z" fill="#FFA8A7"/>
<path d="M46.4255 58.4406C46.4633 56.6206 47.0107 55.2696 47.0541 54.7642C47.0541 54.7642 46.9141 43.938 46.9141 42.181L56.1457 41.8044C56.1457 41.8044 56.0169 52.6586 56.0169 54.1636C56.0169 55.6686 55.7915 62.0652 55.5535 65.0094L55.5269 65.9782L53.4661 66.6194C53.4661 66.6194 53.5053 66.3394 53.4661 64.9618C53.4269 63.5842 52.5015 58.827 52.4147 57.6188C52.3041 56.055 52.5547 55.4236 52.5225 54.3792C52.4903 53.3348 51.8813 46.5 51.8813 46.5C51.8813 46.5 50.7249 53.22 50.4365 55.495C50.1075 58.1074 49.0491 64.9548 49.0463 66.5466C49.0463 66.8266 49.0463 67.1626 49.0463 67.5196C49.0463 68.382 49.0225 68.6088 49.1611 68.942C49.4019 69.5244 47.3411 69.8912 47.2431 69.4768L47.0205 67.766V67.717V66.632C47.0233 65.0094 46.3695 61.081 46.4255 58.4406Z" fill="#FFA8A7"/>
<path d="M59.5631 68.6802C59.6192 68.8474 59.6092 69.0297 59.5351 69.1898C59.4637 69.3396 58.6853 69.7792 57.6339 69.7078C56.855 69.6529 56.1048 69.3909 55.4611 68.949C55.0607 68.683 54.6435 68.634 54.1227 68.6032C53.6019 68.5724 52.9187 68.3148 52.8053 68.0712C52.6919 67.8276 52.8221 67.409 52.8221 67.409L59.5631 68.6802Z" fill="#37474F"/>
<path d="M55.3225 65.4L55.4065 65.3818C55.4521 65.3694 55.4998 65.3671 55.5465 65.3748C55.5971 65.3909 55.6419 65.4215 55.6753 65.463C55.7788 65.5936 55.8688 65.7343 55.9441 65.883C56.1639 66.2414 56.6273 66.5396 57.1313 66.8112C57.4757 66.996 57.8117 67.1388 58.1659 67.2984C58.5201 67.458 59.0059 67.5602 59.2859 67.7506C59.6989 68.0306 59.7521 68.7306 59.2859 69.0022C58.8813 69.2402 57.8145 69.4978 56.6959 69.1814C56.0869 69.0092 55.4107 68.3582 54.6113 68.2952C54.1017 68.256 53.1399 68.1132 52.8123 67.7268C52.6919 67.5546 52.8529 67.0114 52.9859 66.5438C53.1259 66.0314 53.3037 65.2306 53.4731 65.2754C53.4801 65.3762 53.4605 65.4014 53.5263 65.47C53.5921 65.5386 53.6733 65.575 53.7419 65.6338C53.8593 65.7503 53.9542 65.8874 54.0219 66.0384C54.0484 66.1056 54.098 66.1612 54.1619 66.1952C54.2487 66.2274 54.3117 66.1728 54.3873 66.1392C54.4826 66.0955 54.5904 66.0875 54.6911 66.1168C54.6811 66.0157 54.6633 65.9155 54.6379 65.8172C54.6262 65.7864 54.6233 65.7529 54.6295 65.7206C54.643 65.6895 54.6661 65.6636 54.6953 65.6464C54.8847 65.5211 55.0984 65.4372 55.3225 65.4Z" fill="#455A64"/>
<path d="M51.1658 71.658C51.2274 71.7168 51.2092 72.1172 51.1406 72.218C51.072 72.3188 50.6436 72.694 49.8806 72.75C49.1512 72.8018 48.4988 72.7038 48.0704 72.4308C47.642 72.1578 47.4334 71.8582 47.3942 71.4424C47.355 71.0266 47.3942 70.6248 47.201 70.3056C47.0176 70.0102 46.7264 69.677 46.6634 69.516C46.5234 69.1674 46.6634 68.669 46.6634 68.669L51.1658 71.658Z" fill="#37474F"/>
<path d="M49.1667 68.0264C49.1721 68.1841 49.2004 68.3402 49.2507 68.4898C49.3632 68.8117 49.5136 69.119 49.6987 69.4054C49.7895 69.5553 49.8911 69.6985 50.0025 69.8338C50.2237 70.097 50.4981 70.3126 50.7319 70.5646C50.9811 70.8028 51.1404 71.1198 51.1827 71.462C51.2135 72.0346 50.5919 72.2292 50.1131 72.3132C49.5954 72.404 49.0639 72.3777 48.5577 72.2362C48.2921 72.1666 48.0521 72.0219 47.8664 71.8196C47.6807 71.6173 47.5571 71.3658 47.5105 71.0952C47.4839 70.9356 47.4937 70.7732 47.4755 70.6136C47.4115 70.248 47.2586 69.9038 47.0303 69.6112C46.897 69.4421 46.7824 69.259 46.6887 69.0652C46.5389 68.711 46.6579 68.312 46.7545 67.9592C46.8371 67.654 46.9295 67.3096 47.0345 67.3376C47.0345 67.4958 47.0345 67.5126 47.1479 67.6176C47.2879 67.7576 47.2963 67.9578 47.4489 68.0768C47.3995 67.945 47.3639 67.8085 47.3425 67.6694C47.3323 67.6136 47.3438 67.556 47.3747 67.5084C47.4245 67.4633 47.4846 67.4311 47.5497 67.4146C47.7768 67.3372 48.0114 67.2842 48.2497 67.2564C48.4745 67.2193 48.7039 67.2193 48.9287 67.2564C48.9954 67.2689 49.0557 67.304 49.0995 67.3558C49.1391 67.4129 49.1601 67.4809 49.1597 67.5504C49.1695 67.64 49.1625 67.8752 49.1667 68.0264Z" fill="#455A64"/>
<path d="M49.7757 69.5244C49.5615 69.3648 49.0841 69.3634 48.8223 69.3914C48.557 69.4144 48.3018 69.504 48.0803 69.6518C48.0478 69.6753 48.008 69.6865 47.968 69.6834C47.928 69.6803 47.8904 69.6632 47.8619 69.635C47.8451 69.6189 47.832 69.5993 47.8235 69.5777C47.8151 69.556 47.8115 69.5328 47.8129 69.5096C47.8144 69.4864 47.8209 69.4638 47.832 69.4434C47.8432 69.4229 47.8586 69.4052 47.8773 69.3914C48.1222 69.2106 48.4136 69.1032 48.7173 69.082C49.3613 69.0358 49.5489 69.1464 49.5489 69.1464C49.5489 69.1464 49.8401 69.3354 49.7757 69.5244Z" fill="#F5F5F5"/>
<path d="M50.2601 70.111C49.9913 69.9528 49.4663 69.971 49.2045 70.0046C48.9433 70.033 48.6942 70.1295 48.4821 70.2846C48.4495 70.3082 48.4096 70.3193 48.3695 70.316C48.3294 70.3127 48.2919 70.2951 48.2637 70.2664C48.247 70.2503 48.234 70.2308 48.2257 70.2092C48.2174 70.1876 48.2139 70.1645 48.2155 70.1414C48.2171 70.1183 48.2237 70.0958 48.235 70.0755C48.2462 70.0553 48.2617 70.0378 48.2805 70.0242C48.5282 69.8349 48.8241 69.719 49.1345 69.6896C49.7771 69.6434 49.9451 69.775 49.9451 69.775C50.0194 69.8039 50.0862 69.8491 50.1407 69.9072C50.1952 69.9654 50.236 70.035 50.2601 70.111Z" fill="#F5F5F5"/>
<path d="M48.4569 68.466C48.7279 68.4188 49.0065 68.4419 49.2661 68.5332C49.3795 68.5976 49.4537 68.7768 49.3809 68.8216C49.1537 68.7301 48.9074 68.6964 48.6641 68.7236C48.4215 68.7464 48.1847 68.8108 47.9641 68.914C47.9095 68.9392 47.8451 68.9728 47.7877 69.005C47.7695 69.0149 47.7496 69.021 47.729 69.0231C47.7085 69.0251 47.6877 69.023 47.668 69.0169C47.6483 69.0107 47.63 69.0007 47.6142 68.9873C47.5985 68.974 47.5856 68.9576 47.5763 68.9392C47.5601 68.9071 47.5569 68.87 47.5673 68.8356C47.5777 68.8012 47.601 68.7721 47.6323 68.7544C47.8832 68.6002 48.1645 68.5018 48.4569 68.466Z" fill="#F5F5F5"/>
<path d="M56.6553 66.5368C56.6188 66.4669 56.5653 66.4074 56.4997 66.3636C56.4342 66.3198 56.3587 66.2932 56.2801 66.2862C56.0491 66.2428 55.6403 66.4136 55.3855 66.6222C55.3615 66.6419 55.3427 66.6671 55.3307 66.6958C55.3186 66.7244 55.3138 66.7555 55.3166 66.7864C55.3193 66.8173 55.3296 66.8471 55.3465 66.8732C55.3634 66.8992 55.3864 66.9207 55.4135 66.9358C55.4478 66.9546 55.487 66.9624 55.5258 66.9581C55.5646 66.9538 55.6012 66.9378 55.6305 66.912C55.9099 66.6578 56.2778 66.5231 56.6553 66.5368Z" fill="#F5F5F5"/>
<path d="M57.3721 66.94C57.3221 66.8688 57.2556 66.8108 57.1783 66.7708C57.1011 66.7308 57.0153 66.7101 56.9283 66.7104C56.9283 66.7104 56.3235 66.7286 55.9483 67.0772C55.9253 67.0962 55.9073 67.1205 55.8957 67.1479C55.8841 67.1754 55.8794 67.2053 55.8819 67.235C55.8843 67.2647 55.894 67.2934 55.9099 67.3185C55.9259 67.3437 55.9477 67.3647 55.9735 67.3796C56.0063 67.3981 56.0442 67.4057 56.0816 67.4014C56.1191 67.3972 56.1542 67.3812 56.1821 67.3558C56.3365 67.2016 56.5236 67.0841 56.7297 67.0121C56.9357 66.9402 57.1552 66.9155 57.3721 66.94Z" fill="#F5F5F5"/>
<path d="M58.1645 67.3012C58.1071 67.2352 58.0361 67.1825 57.9563 67.1468C57.8765 67.111 57.7899 67.093 57.7025 67.094C57.3591 67.1149 57.0311 67.2443 56.7659 67.4636C56.7429 67.4826 56.7249 67.5068 56.7133 67.5343C56.7018 67.5618 56.697 67.5916 56.6995 67.6214C56.702 67.6511 56.7116 67.6797 56.7275 67.7049C56.7435 67.7301 56.7653 67.751 56.7911 67.766C56.824 67.7842 56.8618 67.7918 56.8992 67.7875C56.9366 67.7832 56.9718 67.7674 56.9997 67.7422C57.1459 67.5827 57.3274 67.4597 57.5297 67.3831C57.732 67.3066 57.9494 67.2785 58.1645 67.3012Z" fill="#F5F5F5"/>
<path d="M56.1512 41.8044C56.1512 41.8044 56.2744 49.4526 56.2912 50.7966C56.308 52.1406 56.2912 54.7166 56.2912 56.0298C56.2912 56.0298 55.9511 56.6038 54.0107 56.6024C52.0703 56.601 51.7902 56.0648 51.7902 56.0648L51.5033 49.8824L50.9601 56.3C50.5674 56.5671 50.1243 56.751 49.6579 56.8403C49.1915 56.9297 48.7118 56.9225 48.2483 56.8194C46.6509 56.475 46.4156 55.999 46.4156 55.999L46.7306 41.8296L56.1512 41.8044Z" fill="#37474F"/>
<path d="M51.5005 49.8824L51.7805 47.2868C51.7805 47.2868 53.1119 46.962 54.0023 46.2914C53.7155 46.6395 53.3741 46.9388 52.9915 47.1776C52.4511 47.4814 52.1907 47.606 52.1907 47.606L51.8015 50.1176L51.7329 55.0176L51.5005 49.8824Z" fill="#263238"/>
<path d="M46.6201 43.1302C47.8871 44.0528 53.6313 45.0762 56.2969 43.1302C56.2969 43.1302 56.2353 35.685 56.0253 31.744C56.0155 31.5648 56.0043 31.3912 55.9861 31.2232C55.9861 31.1672 55.9721 31.1112 55.9665 31.0552C55.9357 30.819 55.8889 30.5851 55.8265 30.3552C55.8167 30.3174 55.8041 30.2796 55.7929 30.2418C55.7663 30.1564 55.7397 30.0738 55.7047 29.9912C55.6879 29.9478 55.6697 29.9044 55.6501 29.8624C55.6305 29.8204 55.6137 29.7826 55.5913 29.7448C55.5895 29.7372 55.5862 29.7301 55.5815 29.7238C55.5619 29.686 55.5395 29.6482 55.5185 29.6118C55.4975 29.5754 55.4709 29.532 55.4429 29.4928C55.4149 29.4536 55.3911 29.4186 55.3645 29.385C55.3379 29.3514 55.3029 29.3094 55.2693 29.273C55.2389 29.2377 55.2067 29.2041 55.1727 29.1722L55.1027 29.1064L55.0327 29.049C55.0033 29.0224 54.9697 28.9986 54.9375 28.9748C54.8308 28.9 54.7185 28.8335 54.6015 28.776C54.5693 28.7606 54.5357 28.7438 54.5021 28.7312C54.4939 28.728 54.486 28.7243 54.4783 28.72L54.3579 28.6752C54.2906 28.6488 54.2219 28.6259 54.1521 28.6066C54.0812 28.587 54.007 28.5688 53.9295 28.552C53.8427 28.552 53.7475 28.552 53.6495 28.552H53.4395L53.2127 28.5604C52.2159 28.6038 50.7851 28.7648 49.6371 28.9118L49.4131 28.9426L49.2157 28.9664C48.4275 29.07 47.8437 29.1554 47.7541 29.1694H47.7401C47.4825 29.2352 47.2431 29.2968 47.0499 29.3542C46.5235 29.5096 46.9099 29.3766 46.7993 29.8862C46.4591 31.3814 46.8553 36.8204 46.8553 36.8204L46.6201 43.1302Z" fill="#455A64"/>
<path d="M48.9119 24.4626C48.9119 24.4626 49.3221 26.3876 49.4859 26.7026C49.5958 26.8974 49.7762 27.0426 49.9899 27.1086L49.9605 25.7548L48.9119 24.4626Z" fill="#263238"/>
<path d="M49.4201 21.706C49.2767 21.6898 49.1315 21.7066 48.9956 21.7551C48.8597 21.8037 48.7367 21.8826 48.6361 21.986C48.3001 22.3276 48.4919 23.4 48.9119 24.4626L49.6833 24.5522L49.4201 21.706Z" fill="#263238"/>
<path d="M49.9143 24.5522C49.7603 24.6446 49.5391 24.3478 49.3543 24.1476C49.1695 23.9474 48.5409 23.6758 48.2343 24.3296C47.9277 24.9834 48.5143 25.878 48.9987 26.032C49.8387 26.298 49.9703 25.752 49.9703 25.752L50.0179 28.86C50.9027 30.463 53.8973 29.6426 52.7745 28.58V27.7918C53.1991 27.8219 53.6253 27.8219 54.0499 27.7918C54.6715 27.6952 54.9263 27.2654 55.1153 26.592C55.4177 25.5112 55.5353 24.639 55.2763 22.5138C54.9963 20.1856 52.2859 20.1618 50.8229 21.0816C49.3599 22.0014 49.9143 24.5522 49.9143 24.5522Z" fill="#FFA8A7"/>
<path d="M49.5601 20.4334C50.0731 20.2143 50.6089 20.0528 51.1575 19.9518C52.3391 19.6956 53.5375 19.459 54.6211 18.9144C54.7461 18.8334 54.8922 18.791 55.0411 18.7926C55.3211 18.8304 55.4499 19.1748 55.4611 19.4604C55.4709 19.7266 55.4358 19.9926 55.3575 20.2472C55.4434 20.1649 55.5583 20.1197 55.6773 20.1216C55.7963 20.1234 55.9098 20.1721 55.9931 20.257C56.0723 20.3463 56.1301 20.4525 56.1621 20.5674C56.1942 20.6824 56.1996 20.8032 56.1779 20.9206C56.1079 21.4498 55.7033 21.8908 55.2231 22.126C54.7429 22.3612 54.1997 22.4186 53.6663 22.434C52.921 22.4563 52.1754 22.4005 51.4417 22.2674C51.2657 22.2231 51.0833 22.2099 50.9027 22.2282C50.8125 22.2383 50.727 22.2736 50.6559 22.33C50.5848 22.3865 50.5311 22.4618 50.5009 22.5474C50.4225 22.8414 50.3399 24.842 49.9297 24.8504C49.8527 24.8504 49.5615 24.3478 49.3697 24.1686C49.1317 23.9418 48.8909 22.2282 48.8489 21.9118C48.8437 21.8871 48.8326 21.8641 48.8167 21.8446C48.5479 21.468 48.8629 20.8338 49.1947 20.6266C49.3127 20.5552 49.4347 20.4906 49.5601 20.4334Z" fill="#263238"/>
<path d="M48.9636 21.8712C48.9157 21.9275 48.857 21.9739 48.7912 22.0076C48.7253 22.0413 48.6534 22.0617 48.5796 22.0676C48.5058 22.0735 48.4316 22.0648 48.3612 22.0421C48.2907 22.0193 48.2255 21.9829 48.1691 21.9349C48.1128 21.8869 48.0664 21.8283 48.0328 21.7624C47.9991 21.6965 47.9787 21.6246 47.9727 21.5508C47.9668 21.477 47.9755 21.4028 47.9983 21.3324C48.021 21.262 48.0575 21.1967 48.1054 21.1404L48.9636 21.8712Z" fill="#263238"/>
<path d="M52.7716 27.7946C52.7716 27.7946 51.3856 27.6546 50.8998 27.4026C50.6145 27.2541 50.3807 27.0228 50.2292 26.739C50.3026 27.0227 50.4321 27.2888 50.61 27.5216C50.9656 27.9752 52.7716 28.3098 52.7716 28.3098V27.7946Z" fill="#F28F8F"/>
<path d="M52.4385 24.205C52.4366 24.2599 52.4185 24.313 52.3866 24.3578C52.3547 24.4025 52.3103 24.4369 52.259 24.4566C52.2077 24.4763 52.1518 24.4804 52.0981 24.4685C52.0444 24.4566 51.9955 24.4292 51.9573 24.3897C51.9191 24.3502 51.8934 24.3003 51.8834 24.2463C51.8733 24.1923 51.8794 24.1365 51.9009 24.0859C51.9223 24.0353 51.9582 23.9921 52.004 23.9618C52.0498 23.9314 52.1035 23.9152 52.1585 23.9152C52.1961 23.9151 52.2333 23.9227 52.268 23.9374C52.3026 23.9521 52.3339 23.9736 52.36 24.0006C52.3862 24.0277 52.4066 24.0597 52.4201 24.0948C52.4335 24.1299 52.4398 24.1674 52.4385 24.205Z" fill="#263238"/>
<path d="M52.1444 23.1564L51.5494 23.484C51.507 23.4023 51.4979 23.3074 51.524 23.2191C51.5501 23.1309 51.6094 23.0562 51.6894 23.0108C51.7287 22.9894 51.7718 22.9763 51.8163 22.972C51.8607 22.9678 51.9056 22.9727 51.9481 22.9863C51.9906 22.9999 52.0299 23.022 52.0637 23.0512C52.0974 23.0805 52.1249 23.1162 52.1444 23.1564Z" fill="#263238"/>
<path d="M52.6471 26.1258L53.2813 26.3638C53.2675 26.4064 53.2452 26.4457 53.2158 26.4795C53.1864 26.5133 53.1505 26.5408 53.1103 26.5604C53.0701 26.58 53.0263 26.5913 52.9816 26.5936C52.9369 26.5959 52.8921 26.5892 52.8501 26.5738C52.7648 26.5399 52.696 26.4743 52.6582 26.3908C52.6203 26.3072 52.6163 26.2122 52.6471 26.1258Z" fill="#F28F8F"/>
<path d="M54.9179 23.3874L54.3761 22.9674C54.4014 22.9307 54.4339 22.8996 54.4717 22.8759C54.5094 22.8523 54.5516 22.8365 54.5956 22.8297C54.6397 22.8229 54.6846 22.8251 54.7277 22.8363C54.7709 22.8475 54.8113 22.8673 54.8465 22.8946C54.9196 22.9517 54.9679 23.0348 54.9812 23.1267C54.9945 23.2185 54.9718 23.3119 54.9179 23.3874Z" fill="#263238"/>
<path d="M54.7512 24.1266C54.7493 24.1815 54.7313 24.2347 54.6994 24.2794C54.6674 24.3241 54.6231 24.3585 54.5718 24.3782C54.5205 24.3979 54.4645 24.4021 54.4109 24.3902C54.3572 24.3783 54.3082 24.3509 54.27 24.3113C54.2319 24.2718 54.2061 24.2219 54.1961 24.1679C54.1861 24.1139 54.1922 24.0581 54.2136 24.0075C54.2351 23.9569 54.2709 23.9137 54.3167 23.8834C54.3626 23.853 54.4163 23.8368 54.4712 23.8368C54.5088 23.8368 54.5461 23.8443 54.5807 23.859C54.6153 23.8737 54.6466 23.8952 54.6728 23.9222C54.6989 23.9493 54.7193 23.9813 54.7328 24.0164C54.7463 24.0515 54.7526 24.089 54.7512 24.1266Z" fill="#263238"/>
<path d="M53.5641 23.9278L53.6565 25.5994L54.5287 25.3012L53.5641 23.9278Z" fill="#F28F8F"/>
<path d="M47.8451 29.168C45.7941 29.2002 45.2621 30.4084 44.6573 31.688C44.0525 32.9676 42.5181 35.86 42.5181 35.86L38.6569 34.1142C38.4354 34.8032 37.9752 35.3905 37.3591 35.7704C37.3591 35.7704 39.1791 37.3006 40.7499 38.422C42.0785 39.3712 42.8499 39.864 43.3609 39.5238C43.7389 39.2718 47.5077 34.3438 47.5077 34.3438C48.4681 32.8458 48.6725 30.302 47.8451 29.168Z" fill="#37474F"/>
<path d="M54.3761 24.8826L54.1563 24.7706L53.9407 24.4626C53.9755 24.4478 54.0133 24.4415 54.051 24.4442C54.0887 24.4469 54.1253 24.4585 54.1577 24.478C54.2557 24.548 54.3761 24.8826 54.3761 24.8826Z" fill="#BA68C8"/>
<path opacity="0.65" d="M54.3761 24.8826L54.1563 24.7706L53.9407 24.4626C53.9755 24.4478 54.0133 24.4415 54.051 24.4442C54.0887 24.4469 54.1253 24.4585 54.1577 24.478C54.2557 24.548 54.3761 24.8826 54.3761 24.8826Z" fill="black"/>
<path d="M56.4201 23.9208C56.4065 24.1493 56.3185 24.367 56.1696 24.5409C56.0208 24.7148 55.8192 24.8353 55.5955 24.884L55.2497 24.9428C55.0983 24.9707 54.9444 24.9829 54.7905 24.9792H54.7443C54.7191 24.9792 54.6939 24.9792 54.6701 24.9792C54.6272 24.975 54.5847 24.968 54.5427 24.9582C54.5208 24.954 54.4992 24.9479 54.4783 24.94C54.4589 24.9345 54.4402 24.927 54.4223 24.9176C54.4142 24.9148 54.4066 24.9105 54.3999 24.905C54.3905 24.9004 54.3815 24.8948 54.3733 24.8882C54.3593 24.8764 54.3474 24.8622 54.3383 24.8462L54.2193 24.6026C54.1919 24.554 54.1506 24.5148 54.1007 24.4898C54.0508 24.4649 53.9946 24.4554 53.9393 24.4626L53.6929 24.506C53.6319 24.522 53.5752 24.5512 53.5268 24.5916C53.4784 24.632 53.4395 24.6826 53.4129 24.7398C53.4129 24.7398 53.3611 24.8686 53.2953 25.0198C53.2295 25.171 52.8207 25.3684 52.3839 25.4398L52.0381 25.5014C51.968 25.5118 51.8968 25.5118 51.8267 25.5014C51.7873 25.4987 51.7484 25.4917 51.7105 25.4804L51.6573 25.465L51.6237 25.451C51.5935 25.4394 51.5644 25.4248 51.5369 25.4076C51.4431 25.3698 49.9353 24.7566 49.7281 24.2624C49.3977 23.4672 50.7543 22.6482 51.2429 22.4928C51.2989 22.4701 51.3571 22.4532 51.4165 22.4424L54.9781 21.832C55.1554 21.7966 55.3396 21.8313 55.4919 21.9286C55.5829 21.986 55.9189 22.1848 56.0589 22.2688C56.0714 22.2744 56.0831 22.2815 56.0939 22.2898C56.1135 22.301 56.1331 22.315 56.1527 22.3276C56.1594 22.332 56.1655 22.3372 56.1709 22.343C56.1905 22.3584 56.2087 22.3752 56.2269 22.392C56.2489 22.4142 56.269 22.438 56.2871 22.4634C56.301 22.4809 56.3132 22.4996 56.3235 22.5194C56.3409 22.547 56.3559 22.576 56.3683 22.6062C56.3795 22.6328 56.3879 22.6594 56.3963 22.686C56.4037 22.7112 56.4089 22.7369 56.4117 22.763C56.413 22.769 56.413 22.7752 56.4117 22.7812C56.4139 22.8106 56.4139 22.84 56.4117 22.8694C56.4276 23.2231 56.4304 23.5736 56.4201 23.9208Z" fill="#BA68C8"/>
<g opacity="0.2">
<path d="M56.4201 23.9208C56.4065 24.1493 56.3185 24.367 56.1696 24.5409C56.0208 24.7148 55.8192 24.8353 55.5955 24.884L55.2497 24.9428C55.0983 24.9707 54.9444 24.9829 54.7905 24.9792H54.7443C54.7191 24.9792 54.6939 24.9792 54.6701 24.9792C54.6272 24.975 54.5847 24.968 54.5427 24.9582C54.5208 24.954 54.4992 24.9479 54.4783 24.94C54.4589 24.9345 54.4402 24.927 54.4223 24.9176C54.4142 24.9148 54.4066 24.9105 54.3999 24.905C54.3905 24.9004 54.3815 24.8948 54.3733 24.8882C54.3593 24.8764 54.3474 24.8622 54.3383 24.8462L54.2193 24.6026C54.1919 24.554 54.1506 24.5148 54.1007 24.4898C54.0508 24.4649 53.9946 24.4554 53.9393 24.4626L53.6929 24.506C53.6319 24.522 53.5752 24.5512 53.5268 24.5916C53.4784 24.632 53.4395 24.6826 53.4129 24.7398C53.4129 24.7398 53.3611 24.8686 53.2953 25.0198C53.2295 25.171 52.8207 25.3684 52.3839 25.4398L52.0381 25.5014C51.968 25.5118 51.8968 25.5118 51.8267 25.5014C51.7873 25.4987 51.7484 25.4917 51.7105 25.4804L51.6573 25.465L51.6237 25.451C51.5935 25.4394 51.5644 25.4248 51.5369 25.4076C51.4431 25.3698 49.9353 24.7566 49.7281 24.2624C49.3977 23.4672 50.7543 22.6482 51.2429 22.4928C51.2989 22.4701 51.3571 22.4532 51.4165 22.4424L54.9781 21.832C55.1554 21.7966 55.3396 21.8313 55.4919 21.9286C55.5829 21.986 55.9189 22.1848 56.0589 22.2688C56.0714 22.2744 56.0831 22.2815 56.0939 22.2898C56.1135 22.301 56.1331 22.315 56.1527 22.3276C56.1594 22.332 56.1655 22.3372 56.1709 22.343C56.1905 22.3584 56.2087 22.3752 56.2269 22.392C56.2489 22.4142 56.269 22.438 56.2871 22.4634C56.301 22.4809 56.3132 22.4996 56.3235 22.5194C56.3409 22.547 56.3559 22.576 56.3683 22.6062C56.3795 22.6328 56.3879 22.6594 56.3963 22.686C56.4037 22.7112 56.4089 22.7369 56.4117 22.763C56.413 22.769 56.413 22.7752 56.4117 22.7812C56.4139 22.8106 56.4139 22.84 56.4117 22.8694C56.4276 23.2231 56.4304 23.5736 56.4201 23.9208Z" fill="black"/>
</g>
<path d="M56.0589 22.2688C55.9171 22.1958 55.755 22.1721 55.5983 22.2016L52.0367 22.8302C51.823 22.8766 51.6291 22.9883 51.4819 23.1498C51.3346 23.3114 51.2413 23.5148 51.2149 23.7318L50.1929 23.1424C50.5014 22.8706 50.856 22.6563 51.2401 22.5096C51.296 22.4869 51.3542 22.47 51.4137 22.4592L54.9781 21.832C55.1554 21.7966 55.3395 21.8313 55.4919 21.9286C55.5801 21.986 55.9189 22.1848 56.0589 22.2688Z" fill="#BA68C8"/>
<path opacity="0.35" d="M56.0589 22.2688C55.9171 22.1958 55.755 22.1721 55.5983 22.2016L52.0367 22.8302C51.823 22.8766 51.6291 22.9883 51.4819 23.1498C51.3346 23.3114 51.2413 23.5148 51.2149 23.7318L50.1929 23.1424C50.5014 22.8706 50.856 22.6563 51.2401 22.5096C51.296 22.4869 51.3542 22.47 51.4137 22.4592L54.9781 21.832C55.1554 21.7966 55.3395 21.8313 55.4919 21.9286C55.5801 21.986 55.9189 22.1848 56.0589 22.2688Z" fill="white"/>
<path d="M56.42 22.8722C56.4284 23.2213 56.4284 23.5713 56.42 23.9222C56.4065 24.1504 56.3185 24.3679 56.1696 24.5413C56.0206 24.7148 55.819 24.8347 55.5954 24.8826L55.2496 24.9442C54.8114 25.0212 54.4096 24.9736 54.3382 24.8406L54.2192 24.597C54.1918 24.5484 54.1505 24.5092 54.1006 24.4842C54.0508 24.4593 53.9946 24.4498 53.9392 24.457L53.6914 24.5018C53.6302 24.5172 53.5732 24.5462 53.5247 24.5867C53.4763 24.6272 53.4375 24.6781 53.4114 24.7356L53.2924 25.0156C53.2266 25.1724 52.8192 25.3628 52.3824 25.4356L52.0366 25.4972C51.9369 25.5185 51.8335 25.5172 51.7343 25.4934C51.6351 25.4696 51.5425 25.4238 51.4632 25.3595C51.384 25.2952 51.3202 25.2139 51.2765 25.1217C51.2328 25.0295 51.2103 24.9287 51.2106 24.8266C51.2022 24.478 51.2022 24.1266 51.2106 23.778C51.2245 23.5495 51.3127 23.3318 51.4618 23.1581C51.611 22.9845 51.8129 22.8644 52.0366 22.8162L55.5982 22.189C55.6988 22.1679 55.8029 22.1698 55.9026 22.1945C56.0024 22.2193 56.0953 22.2662 56.1743 22.332C56.2533 22.3977 56.3165 22.4804 56.359 22.5739C56.4016 22.6675 56.4225 22.7695 56.42 22.8722Z" fill="#BA68C8"/>
<path opacity="0.5" d="M56.4201 23.9208C56.4064 24.1492 56.3185 24.367 56.1696 24.5409C56.0208 24.7148 55.8192 24.8352 55.5955 24.884L55.2497 24.9428C55.0983 24.9706 54.9444 24.9828 54.7905 24.9792H54.7443C54.7191 24.9792 54.6939 24.9792 54.6701 24.9792C54.6272 24.975 54.5847 24.968 54.5427 24.9582C54.5208 24.954 54.4992 24.9479 54.4783 24.94C54.4589 24.9344 54.4402 24.9269 54.4223 24.9176C54.4141 24.9148 54.4066 24.9105 54.3999 24.905C54.3904 24.9004 54.3815 24.8947 54.3733 24.8882C54.3593 24.8763 54.3474 24.8621 54.3383 24.8462L54.2193 24.6026C54.1919 24.554 54.1506 24.5147 54.1007 24.4898C54.0508 24.4648 53.9946 24.4554 53.9393 24.4626L53.6929 24.506C53.6319 24.5219 53.5752 24.5512 53.5268 24.5916C53.4784 24.632 53.4395 24.6826 53.4129 24.7398C53.4129 24.7398 53.3611 24.8686 53.2953 25.0198C53.2295 25.171 52.8207 25.3684 52.3839 25.4398L52.0381 25.5014C51.968 25.5117 51.8968 25.5117 51.8267 25.5014C51.7873 25.4987 51.7483 25.4917 51.7105 25.4804L51.6573 25.465L51.6237 25.451C51.5934 25.4393 51.5644 25.4248 51.5369 25.4076C51.4375 25.3463 51.3555 25.2606 51.2986 25.1587C51.2418 25.0567 51.212 24.9419 51.2121 24.8252C51.2037 24.4752 51.2037 24.1252 51.2121 23.7752C51.2259 23.5467 51.3141 23.329 51.4633 23.1553C51.6124 22.9816 51.8143 22.8615 52.0381 22.8134L55.5997 22.1848C55.7564 22.1553 55.9185 22.1789 56.0603 22.252C56.0727 22.2576 56.0845 22.2647 56.0953 22.273C56.1149 22.2842 56.1345 22.2982 56.1541 22.3108C56.1607 22.3152 56.1668 22.3204 56.1723 22.3262C56.1919 22.3416 56.2101 22.3584 56.2283 22.3752C56.2503 22.3973 56.2704 22.4212 56.2885 22.4466C56.3024 22.464 56.3146 22.4828 56.3249 22.5026C56.3423 22.5302 56.3573 22.5592 56.3697 22.5894C56.3809 22.616 56.3893 22.6426 56.3977 22.6692C56.4051 22.6943 56.4103 22.7201 56.4131 22.7462C56.4144 22.7522 56.4144 22.7584 56.4131 22.7644C56.4152 22.7937 56.4152 22.8232 56.4131 22.8526C56.428 23.2175 56.4304 23.5736 56.4201 23.9208Z" fill="white"/>
<g opacity="0.7">
<path d="M56.4201 22.8722C56.4222 22.8428 56.4222 22.8133 56.4201 22.784C56.4213 22.778 56.4213 22.7718 56.4201 22.7658C56.4172 22.7397 56.4121 22.7139 56.4047 22.6888C56.3963 22.6622 56.3879 22.6356 56.3767 22.609C56.3642 22.5788 56.3493 22.5498 56.3319 22.5222C56.3215 22.5024 56.3094 22.4836 56.2954 22.4662C56.2773 22.4408 56.2572 22.4169 56.2353 22.3948C56.2171 22.378 56.1989 22.3612 56.1793 22.3458C56.1743 22.3404 56.1687 22.3357 56.1625 22.3318L54.0219 24.4612C54.0639 24.4669 54.1041 24.4826 54.1389 24.507C54.1737 24.5313 54.2022 24.5636 54.222 24.6012L54.3411 24.8448C54.3501 24.8607 54.362 24.875 54.3761 24.8868C54.3843 24.8934 54.3932 24.899 54.4027 24.9036C54.4093 24.9091 54.4169 24.9134 54.4251 24.9162C54.4429 24.9256 54.4617 24.9331 54.4811 24.9386C54.502 24.9465 54.5235 24.9526 54.5454 24.9568C54.5874 24.9666 54.63 24.9736 54.6728 24.9778C54.6966 24.9778 54.7218 24.9778 54.747 24.9778H54.7933C54.8868 24.9798 54.9803 24.9756 55.0733 24.9652L56.4312 23.6086C56.4298 23.3636 56.4285 23.12 56.4201 22.8722Z" fill="#BA68C8"/>
<path d="M54.7317 22.3556L51.6195 25.4664L51.6531 25.4804L51.7063 25.4958C51.7441 25.5071 51.7831 25.5141 51.8225 25.5168C51.8926 25.5272 51.9638 25.5272 52.0339 25.5168L52.2593 25.4762L55.5143 22.2226L54.7317 22.3556Z" fill="#BA68C8"/>
<path d="M52.5169 22.7448L51.2079 24.0552C51.2079 24.317 51.2079 24.5788 51.2079 24.842C51.2095 24.9622 51.2412 25.0802 51.3003 25.185L54.0023 22.483L52.5169 22.7448Z" fill="#BA68C8"/>
</g>
<path d="M50.3861 24.1196C50.3884 24.1385 50.3863 24.1577 50.38 24.1757C50.3738 24.1937 50.3636 24.2101 50.3501 24.2236C50.3366 24.237 50.3202 24.2473 50.3022 24.2535C50.2842 24.2598 50.265 24.2618 50.2461 24.2596C50.2055 24.2497 50.1696 24.2263 50.1441 24.1932C50.1186 24.1601 50.1052 24.1193 50.1061 24.0776C50.1039 24.0587 50.1059 24.0395 50.1122 24.0215C50.1184 24.0034 50.1287 23.9871 50.1421 23.9736C50.1556 23.9601 50.172 23.9499 50.19 23.9436C50.208 23.9374 50.2272 23.9353 50.2461 23.9376C50.2865 23.9477 50.3224 23.9712 50.3478 24.0042C50.3732 24.0372 50.3867 24.0779 50.3861 24.1196Z" fill="#263238"/>
<g opacity="0.5">
<path d="M55.7341 22.2646C55.8353 22.2645 55.9352 22.2885 56.0253 22.3346C56.0356 22.3397 56.0455 22.3458 56.0547 22.3528C56.0731 22.3635 56.0908 22.3752 56.1079 22.3878H56.1149H56.1219L56.1709 22.4312C56.1909 22.4515 56.2092 22.4735 56.2255 22.497C56.2369 22.5108 56.2467 22.5258 56.2549 22.5418C56.2692 22.5656 56.2818 22.5904 56.2927 22.616C56.301 22.6361 56.308 22.6566 56.3137 22.6776V22.6888C56.3203 22.7092 56.3245 22.7304 56.3263 22.7518V22.7728C56.3283 22.7989 56.3283 22.8251 56.3263 22.8512C56.3361 23.1984 56.3361 23.5512 56.3263 23.897C56.3178 24.1095 56.2404 24.3135 56.1058 24.4781C55.9712 24.6428 55.7867 24.7592 55.5801 24.8098L55.2343 24.87C55.1057 24.8922 54.9756 24.904 54.8451 24.905H54.7849H54.7415H54.6743C54.6338 24.9005 54.5936 24.8935 54.5539 24.884C54.534 24.88 54.5144 24.8748 54.4951 24.8686C54.4816 24.8641 54.4685 24.8585 54.4559 24.8518H54.4461L54.4321 24.8434C54.4257 24.8376 54.42 24.831 54.4153 24.8238L54.2963 24.5802C54.2683 24.5206 54.2239 24.4702 54.1684 24.4347C54.1129 24.3993 54.0485 24.3803 53.9827 24.38C53.9645 24.3786 53.9463 24.3786 53.9281 24.38L53.6803 24.4234C53.6066 24.4415 53.5379 24.4762 53.4795 24.5247C53.421 24.5731 53.3743 24.6343 53.3429 24.7034L53.2239 24.9834C53.1749 25.0996 52.8123 25.2844 52.3685 25.3628L52.0241 25.423C51.9834 25.4299 51.9422 25.4337 51.9009 25.4342C51.8776 25.4356 51.8542 25.4356 51.8309 25.4342C51.7959 25.4311 51.7613 25.425 51.7273 25.416L51.6853 25.402L51.6671 25.395H51.6503C51.6238 25.3852 51.5984 25.3725 51.5747 25.3572C51.4858 25.3025 51.4125 25.2259 51.3617 25.1347C51.311 25.0435 51.2845 24.9407 51.2849 24.8364C51.2779 24.4906 51.2779 24.1364 51.2849 23.7906C51.2995 23.5798 51.3817 23.3794 51.5195 23.2192C51.6572 23.059 51.8431 22.9476 52.0493 22.9016L55.6123 22.28C55.6525 22.2728 55.6933 22.269 55.7341 22.2688M55.7341 22.1946C55.6872 22.1947 55.6404 22.1984 55.5941 22.2058L52.0325 22.8344C51.8087 22.8826 51.6068 23.0026 51.4577 23.1763C51.3085 23.35 51.2203 23.5677 51.2065 23.7962C51.1981 24.1476 51.1981 24.4962 51.2065 24.8462C51.2064 24.9629 51.2362 25.0777 51.293 25.1797C51.3499 25.2817 51.4319 25.3673 51.5313 25.4286C51.5588 25.4458 51.5878 25.4603 51.6181 25.472L51.6517 25.486L51.7049 25.5014C51.7427 25.5127 51.7817 25.5197 51.8211 25.5224C51.8463 25.5239 51.8715 25.5239 51.8967 25.5224C51.9436 25.5229 51.9905 25.5192 52.0367 25.5112L52.3825 25.4496C52.8193 25.374 53.2225 25.1836 53.2939 25.0296C53.3653 24.8756 53.4115 24.7496 53.4115 24.7496C53.4381 24.6924 53.477 24.6418 53.5254 24.6014C53.5738 24.561 53.6305 24.5317 53.6915 24.5158L53.9379 24.4724C53.9519 24.471 53.9659 24.471 53.9799 24.4724C54.0285 24.4729 54.0762 24.4861 54.1181 24.5107C54.1601 24.5352 54.195 24.5703 54.2193 24.6124L54.3383 24.856C54.3474 24.8719 54.3592 24.8862 54.3733 24.898C54.3815 24.9046 54.3904 24.9102 54.3999 24.9148C54.4065 24.9203 54.4141 24.9246 54.4223 24.9274C54.4401 24.9368 54.4589 24.9443 54.4783 24.9498C54.4992 24.9577 54.5207 24.9638 54.5427 24.968C54.5846 24.9778 54.6272 24.9848 54.6701 24.989C54.6939 24.989 54.7191 24.989 54.7443 24.989H54.8479C54.9827 24.9882 55.1171 24.9755 55.2497 24.9512L55.5955 24.8924C55.8205 24.8433 56.023 24.7215 56.172 24.546C56.321 24.3704 56.4082 24.1507 56.4201 23.9208C56.4285 23.5708 56.4285 23.2212 56.4201 22.8722C56.4222 22.8428 56.4222 22.8133 56.4201 22.784C56.4214 22.778 56.4214 22.7718 56.4201 22.7658C56.4173 22.7397 56.4121 22.7139 56.4047 22.6888C56.3963 22.6622 56.3879 22.6356 56.3767 22.609C56.3643 22.5788 56.3493 22.5498 56.3319 22.5222C56.3216 22.5024 56.3094 22.4836 56.2955 22.4662C56.2774 22.4408 56.2572 22.4169 56.2353 22.3948C56.2171 22.378 56.1989 22.3612 56.1793 22.3458C56.1738 22.34 56.1677 22.3348 56.1611 22.3304C56.1415 22.3178 56.1219 22.3038 56.1023 22.2926C56.0915 22.2843 56.0797 22.2772 56.0673 22.2716C55.9669 22.2196 55.8555 22.1927 55.7425 22.1932L55.7341 22.1946Z" fill="black"/>
</g>
<path d="M51.2107 24.842L51.1925 24.0874C51.1925 23.9614 51.1827 23.8382 51.1925 23.708C51.2075 23.5793 51.2474 23.4547 51.3101 23.3412C51.4332 23.1113 51.635 22.9334 51.8785 22.84C52.0007 22.8027 52.1257 22.775 52.2523 22.7574L52.6233 22.6902L54.1087 22.4368C54.6043 22.3547 55.1008 22.2767 55.5983 22.203C55.1055 22.3038 54.6122 22.4009 54.1185 22.4942L52.6401 22.763L52.2691 22.826C52.1464 22.8419 52.0252 22.8671 51.9065 22.9016C51.6767 22.9899 51.4847 23.1551 51.3633 23.3692C51.3018 23.4753 51.2614 23.5922 51.2443 23.7136C51.2303 23.834 51.2373 23.9628 51.2331 24.0874L51.2107 24.842Z" fill="white"/>
<g opacity="0.3">
<path d="M76.454 18.7912V36.9156C76.1432 38.8126 75.1674 40.676 73.514 42.3868C72.9176 43.0003 72.2745 43.5667 71.5904 44.0808C70.9222 44.5745 70.2267 45.0302 69.5072 45.4458C66.766 47.0334 63.5194 48.1506 60.0698 48.8058C59.521 48.9112 58.9666 49.0046 58.4066 49.0858V30.8858C62.2846 30.2586 65.9386 29.1036 68.999 27.4194C72.7972 25.3194 75.1142 22.728 75.9542 20.0176C76.1136 19.617 76.2432 19.2052 76.342 18.7856C76.3464 18.7739 76.3543 18.7638 76.3648 18.7569C76.3752 18.7501 76.3876 18.7467 76.4001 18.7473C76.4126 18.748 76.4245 18.7525 76.4342 18.7604C76.4439 18.7683 76.4509 18.7791 76.454 18.7912Z" fill="#BA68C8"/>
</g>
<path d="M58.3269 49.1726V30.82L58.3899 30.8102C62.3575 30.169 66.0115 28.9734 68.9571 27.3522C72.6125 25.339 75.0051 22.798 75.8731 20.005V19.942H75.8983C76.0475 19.5589 76.1701 19.166 76.2651 18.766C76.2777 18.7396 76.2982 18.7178 76.3238 18.7037C76.3494 18.6896 76.3787 18.6838 76.4077 18.6872C76.4367 18.6906 76.464 18.703 76.4856 18.7227C76.5072 18.7423 76.5221 18.7682 76.5283 18.7968V36.9156C76.2077 38.8854 75.2095 40.7404 73.5631 42.4386C72.964 43.0551 72.3175 43.6238 71.6297 44.1396C70.9592 44.636 70.2609 45.0936 69.5381 45.5102C66.8585 47.06 63.6749 48.1968 60.0783 48.88C59.5309 48.985 58.9695 49.0788 58.4123 49.16L58.3269 49.1726ZM58.4767 30.9432V49.0032C59.0031 48.9262 59.5323 48.8366 60.0503 48.7386C63.6301 48.0568 66.7983 46.9284 69.4639 45.3786C70.1806 44.9647 70.8737 44.5113 71.5401 44.0206C72.2207 43.5106 72.861 42.9489 73.4553 42.3406C75.0807 40.6606 76.0649 38.8406 76.3799 36.9086V18.927C76.2837 19.3052 76.1635 19.677 76.0201 20.04C75.1395 22.8722 72.7231 25.444 69.0299 27.4768C66.0801 29.0994 62.4401 30.2978 58.4767 30.9432Z" fill="#BA68C8"/>
<path d="M62.6095 44.5666C62.5698 44.5666 62.5317 44.5508 62.5036 44.5227C62.4755 44.4946 62.4597 44.4565 62.4597 44.4168V33.7124C62.4609 33.6803 62.4723 33.6495 62.4922 33.6243C62.512 33.5992 62.5394 33.581 62.5703 33.5724C63.4565 33.3344 64.2741 33.081 65.0693 32.7954C65.0923 32.7864 65.1172 32.7834 65.1416 32.7866C65.1661 32.7897 65.1894 32.799 65.2093 32.8136C65.2292 32.8274 65.2455 32.8458 65.2567 32.8672C65.2679 32.8887 65.2737 32.9126 65.2737 32.9368V43.6412C65.2733 43.6718 65.2636 43.7016 65.2458 43.7266C65.2281 43.7517 65.2031 43.7707 65.1743 43.7812C64.3693 44.0696 63.5447 44.3258 62.6543 44.5652C62.6395 44.5674 62.6244 44.5679 62.6095 44.5666ZM62.7593 33.8272V44.2208C63.5349 44.0094 64.2615 43.7826 64.9699 43.5306V33.144C64.2601 33.3918 63.5377 33.62 62.7593 33.8272Z" fill="white"/>
<path d="M67.4254 42.846C67.3966 42.8466 67.3682 42.8383 67.3442 42.8222C67.3231 42.8087 67.3057 42.7901 67.2937 42.768C67.2817 42.746 67.2755 42.7213 67.2756 42.6962V31.9918C67.2753 31.9624 67.2835 31.9336 67.2991 31.9088C67.3148 31.884 67.3372 31.8642 67.3638 31.8518C68.0692 31.5357 68.7575 31.1828 69.426 30.7948C69.5786 30.7136 69.72 30.6268 69.8558 30.5414C69.8784 30.5269 69.9046 30.5192 69.9314 30.5192C69.9582 30.5192 69.9845 30.5269 70.007 30.5414C70.0306 30.554 70.0504 30.5728 70.0642 30.5957C70.078 30.6186 70.0853 30.6448 70.0854 30.6716V41.376C70.0855 41.4016 70.079 41.4268 70.0665 41.4491C70.054 41.4714 70.0359 41.4901 70.014 41.5034C69.874 41.5916 69.727 41.684 69.5702 41.7666C68.8927 42.1587 68.195 42.5147 67.48 42.8334C67.4628 42.841 67.4443 42.8453 67.4254 42.846ZM67.5752 32.0898V42.4652C68.1604 42.195 68.768 41.88 69.426 41.502C69.552 41.4362 69.6696 41.362 69.7858 41.292V30.932C69.7158 30.974 69.6458 31.0146 69.5702 31.0538C68.8632 31.4668 68.208 31.8 67.5752 32.0898Z" fill="white"/>
<path d="M72.2316 39.9018C72.2098 39.9021 72.1883 39.8973 72.1686 39.8878C72.1421 39.8755 72.1197 39.8556 72.1043 39.8308C72.0888 39.8059 72.081 39.777 72.0818 39.7478V29.0476C72.082 29.0256 72.0869 29.0039 72.0964 28.9841C72.1058 28.9642 72.1195 28.9467 72.1364 28.9328C72.5769 28.5687 72.9975 28.1813 73.3964 27.7722C73.8439 27.3195 74.2531 26.8306 74.62 26.3106C74.6382 26.2843 74.6643 26.2645 74.6945 26.2541C74.7247 26.2437 74.7575 26.2433 74.788 26.2528C74.8185 26.2623 74.8451 26.2814 74.864 26.3071C74.8829 26.3329 74.8931 26.364 74.893 26.396V37.1004C74.8928 37.1313 74.8836 37.1614 74.8664 37.1872C74.4914 37.7199 74.0737 38.2213 73.6176 38.6866C73.2094 39.1028 72.7795 39.4973 72.3296 39.8682C72.3019 39.8904 72.2672 39.9023 72.2316 39.9018ZM72.3814 29.1218V39.43C72.7454 39.1178 73.0884 38.7986 73.402 38.4766C73.8358 38.0343 74.2338 37.5582 74.592 37.0528V26.8552C74.2888 27.2483 73.9615 27.6224 73.612 27.9752C73.2217 28.3773 72.8105 28.7587 72.38 29.1176L72.3814 29.1218Z" fill="white"/>
<g opacity="0.3">
<path d="M60.2155 46.423L66.3041 35.1754L71.1733 41.502C71.1733 41.502 69.1209 44.4392 60.2155 46.423Z" fill="#BA68C8"/>
</g>
<g opacity="0.3">
<path d="M48.9063 47.0991C43.3469 46.8023 37.9401 45.4821 33.6771 43.1399C28.8863 40.5009 26.4489 37.0569 26.3677 33.6003V33.2559L26.3201 21.6051C26.3201 20.7735 27.7845 23.1311 30.8519 25.5489C30.9247 25.6077 30.9919 25.6623 31.0717 25.7197C31.2425 25.8513 31.4175 25.9801 31.5995 26.1089C32.2699 26.5839 32.9674 27.0195 33.6883 27.4137C37.9401 29.7503 43.3217 31.0691 48.8601 31.3701L48.9063 47.0991Z" fill="#BA68C8"/>
</g>
<path d="M26.4796 21.622C26.7895 21.8875 27.0809 22.1737 27.3518 22.4788C28.4101 23.624 29.5519 24.6891 30.7678 25.6652C30.821 25.7086 30.8756 25.7506 30.9316 25.7926L30.989 25.8388C31.1528 25.9648 31.3264 26.0936 31.5224 26.2322C32.197 26.7089 32.8981 27.1469 33.6224 27.544C37.6824 29.784 43.0304 31.184 48.713 31.5116L48.7578 46.941C43.1018 46.6176 37.779 45.2232 33.7526 43.007C29.169 40.48 26.6 37.141 26.5174 33.5976V33.2532L26.474 21.622M26.4096 21.44C26.3522 21.44 26.3242 21.4946 26.3242 21.6108L26.3676 33.2588V33.6032C26.4488 37.0598 28.8876 40.5038 33.677 43.1428C37.9344 45.4878 43.3468 46.808 48.9062 47.1048L48.86 31.3702C43.323 31.0692 37.94 29.7504 33.6938 27.4138C32.9729 27.0196 32.2755 26.5839 31.605 26.109C31.423 25.9802 31.248 25.8514 31.0772 25.7198C31.003 25.6624 30.9372 25.6078 30.8574 25.549C28.2184 23.47 26.7638 21.44 26.4096 21.44Z" fill="#BA68C8"/>
<path d="M43.5302 44.8648H43.5106C43.4644 44.8648 38.9606 44.2124 34.5786 41.9878C29.5582 39.4398 27.587 35.4904 27.5674 35.4498C27.557 35.4294 27.5517 35.4068 27.552 35.384V32.36C27.5517 32.3292 27.5615 32.2992 27.58 32.2746L30.8714 27.621C30.8874 27.5994 30.9087 27.5824 30.9332 27.5716C30.9578 27.5608 30.9847 27.5566 31.0114 27.5594C31.0379 27.562 31.0632 27.5717 31.0846 27.5875C31.106 27.6033 31.1228 27.6245 31.1332 27.649L35.217 37.169L34.86 35.4134C34.8544 35.3847 34.8573 35.355 34.8682 35.328C34.8792 35.3009 34.8977 35.2776 34.9216 35.2608L38.22 32.9438C38.2366 32.9313 38.2558 32.9228 38.2761 32.9186C38.2965 32.9145 38.3175 32.915 38.3376 32.92C38.3579 32.9243 38.377 32.9328 38.3939 32.9448C38.4107 32.9568 38.4249 32.9722 38.4356 32.99L43.666 41.7764C43.6798 41.7997 43.687 41.8263 43.687 41.8534V44.715C43.6874 44.7348 43.6838 44.7544 43.6764 44.7728C43.669 44.7911 43.658 44.8078 43.644 44.8218C43.63 44.8357 43.6133 44.8468 43.595 44.8542C43.5766 44.8615 43.557 44.8652 43.5372 44.8648H43.5302ZM27.8502 35.3448C28.0406 35.7102 30.016 39.3334 34.7102 41.7176C38.5672 43.6776 42.518 44.3972 43.3762 44.5372V41.894L38.2494 33.2812L35.1694 35.4498L35.7896 38.5298C35.7932 38.5641 35.7848 38.5987 35.7659 38.6275C35.7469 38.6564 35.7186 38.6778 35.6856 38.6882C35.6527 38.6986 35.6172 38.6973 35.5851 38.6845C35.553 38.6717 35.5264 38.6482 35.5096 38.618L30.9624 28.02L27.8516 32.4104L27.8502 35.3448Z" fill="white"/>
<path d="M43.4728 35.9999C43.3788 35.9994 43.2851 35.99 43.1928 35.9719C42.2898 35.7955 41.5562 34.8071 41.5562 33.7697C41.547 33.5191 41.5932 33.2695 41.6917 33.0389C41.7902 32.8082 41.9385 32.6022 42.126 32.4355C42.2796 32.3076 42.4601 32.216 42.654 32.1675C42.8479 32.1191 43.0503 32.115 43.246 32.1555C44.1476 32.3319 44.8812 33.3203 44.8812 34.3577C44.8907 34.6084 44.8445 34.8581 44.746 35.0888C44.6474 35.3194 44.499 35.5254 44.3114 35.6919C44.0767 35.8899 43.7798 35.9989 43.4728 35.9999ZM42.9674 32.4355C42.7296 32.4335 42.4986 32.5153 42.315 32.6665C42.162 32.8054 42.0415 32.9762 41.9619 33.1668C41.8823 33.3575 41.8456 33.5633 41.8544 33.7697C41.8544 34.6713 42.4802 35.5267 43.2544 35.6779C43.4067 35.7109 43.5644 35.7091 43.7159 35.6728C43.8673 35.6364 44.0087 35.5664 44.1294 35.4679C44.2824 35.3291 44.403 35.1583 44.4826 34.9676C44.5622 34.777 44.5989 34.5712 44.59 34.3647C44.59 33.4631 43.9656 32.6077 43.19 32.4565C43.1166 32.4424 43.0421 32.4349 42.9674 32.4341V32.4355Z" fill="white"/>
<g opacity="0.3">
<path d="M27.4149 25.1654C27.4149 25.1654 28.7799 27.5636 31.6023 28.6066V27.2514C28.8961 25.9718 27.4149 23.5764 27.4149 23.5764V25.1654Z" fill="#BA68C8"/>
</g>
<g opacity="0.3">
<path d="M27.4149 27.621C27.4149 27.621 28.7799 30.0192 31.6023 31.0622V29.707C28.8961 28.4274 27.4149 26.032 27.4149 26.032V27.621Z" fill="#BA68C8"/>
</g>
<g opacity="0.3">
<path d="M27.4149 30.0765C27.4149 30.0765 28.7799 32.4748 31.6023 33.5177V32.1625C28.8961 30.8829 27.4149 28.4875 27.4149 28.4875V30.0765Z" fill="#BA68C8"/>
</g>
</svg>
