<svg width="101" height="100" viewBox="0 0 101 100" fill="none" xmlns="http://www.w3.org/2000/svg">
<rect x="0.600098" width="100" height="100" rx="50" fill="#37E1A0" fill-opacity="0.25"/>
<rect x="15.6001" y="15" width="70" height="70" rx="35" fill="white"/>
<path d="M67.3918 32.0002C67.1916 31.947 66.9886 31.8952 66.787 31.849C64.085 31.2162 61.299 31.1336 58.5368 31.1854C56.0084 31.2316 53.3246 31.7874 50.8368 31.1644C49.1302 30.7444 47.6168 29.7364 46.2826 28.5898C44.7202 27.2444 43.3202 25.6596 41.5142 24.66C37.0104 22.154 32.4968 23.7108 29.1368 26.8258L29.1228 26.8398C28.9086 27.0372 28.7028 27.243 28.497 27.4516C28.4912 27.4541 28.4856 27.4569 28.4802 27.46C26.5558 29.4529 25.1112 31.8584 24.2564 34.4936C23.8744 35.7128 23.5649 36.9535 23.3296 38.2092C23.3281 38.2147 23.3281 38.2205 23.3296 38.226C23.2806 38.4808 23.2344 38.7356 23.1896 38.9918C23.1902 38.9974 23.1902 39.003 23.1896 39.0086C21.3402 50.434 25.7236 62.243 36.4784 67.8374C41.6318 70.5184 47.7176 72.8326 53.6606 72.3958C57.4574 72.1158 60.949 70.3378 63.9464 68.0768C70.4186 63.1936 75.4796 55.8856 76.9664 47.8412C78.3202 40.4394 74.7852 33.9952 67.3918 32.0002Z" fill="#92E3A9"/>
<path opacity="0.5" d="M67.3918 32.0002C67.1916 31.947 66.9886 31.8952 66.787 31.849C64.085 31.2162 61.299 31.1336 58.5368 31.1854C56.0084 31.2316 53.3246 31.7874 50.8368 31.1644C49.1302 30.7444 47.6168 29.7364 46.2826 28.5898C44.7202 27.2444 43.3202 25.6596 41.5142 24.66C37.0104 22.154 32.4968 23.7108 29.1368 26.8258L29.1228 26.8398C28.9086 27.0372 28.7028 27.243 28.497 27.4516C28.4912 27.4541 28.4856 27.4569 28.4802 27.46C26.5558 29.4529 25.1112 31.8584 24.2564 34.4936C23.8744 35.7128 23.5649 36.9535 23.3296 38.2092C23.3281 38.2147 23.3281 38.2205 23.3296 38.226C23.2806 38.4808 23.2344 38.7356 23.1896 38.9918C23.1902 38.9974 23.1902 39.003 23.1896 39.0086C21.3402 50.434 25.7236 62.243 36.4784 67.8374C41.6318 70.5184 47.7176 72.8326 53.6606 72.3958C57.4574 72.1158 60.949 70.3378 63.9464 68.0768C70.4186 63.1936 75.4796 55.8856 76.9664 47.8412C78.3202 40.4394 74.7852 33.9952 67.3918 32.0002Z" fill="white"/>
<path d="M78.2179 72.3691H81.0501" stroke="#263238" stroke-width="0.953494" stroke-linecap="round" stroke-linejoin="round"/>
<path d="M55.8795 72.3691H59.0225" stroke="#263238" stroke-width="0.953494" stroke-linecap="round" stroke-linejoin="round"/>
<path d="M31.1934 72.3691H41.7452" stroke="#263238" stroke-width="0.953494" stroke-linecap="round" stroke-linejoin="round"/>
<path d="M27.0969 72.3691H29.4853" stroke="#263238" stroke-width="0.953494" stroke-linecap="round" stroke-linejoin="round"/>
<path d="M37.9105 40.0964C37.9105 40.0964 38.0855 41.236 37.1195 41.719C37.1195 41.719 38.2857 41.9682 38.3935 43.0952C38.3935 43.0952 38.4159 41.5552 39.0851 41.369C39.0851 41.369 38.1793 41.355 37.9105 40.0964Z" fill="white"/>
<path d="M51.7859 40.2392C51.7859 40.2392 51.7313 40.9392 51.0859 41.089C51.0859 41.089 51.7411 41.3998 51.6459 42.0816C51.6459 42.0816 51.8741 41.173 52.2969 41.1562C52.3039 41.1562 51.7691 41.0204 51.7859 40.2392Z" fill="white"/>
<path d="M52.5601 37.8592C52.5601 37.8592 52.5041 38.5592 51.8601 38.709C51.8601 38.709 52.5139 39.0198 52.4201 39.7016C52.4201 39.7016 52.6483 38.793 53.0711 38.7762C53.0725 38.7762 52.5377 38.6404 52.5601 37.8592Z" fill="white"/>
<path d="M36.2053 37.9096C36.2053 37.9096 36.1563 38.9512 35.5151 39.2718C35.7926 39.3554 36.0394 39.5185 36.225 39.741C36.4106 39.9635 36.5269 40.2355 36.5595 40.5234C36.5595 40.5234 36.4195 39.3572 37.1419 39.1108C36.9101 38.9877 36.7069 38.8171 36.5455 38.6101C36.3841 38.4031 36.2682 38.1644 36.2053 37.9096Z" fill="white"/>
<path d="M68.3633 75.5052C73.4486 75.5052 77.5711 74.5819 77.5711 73.443C77.5711 72.3041 73.4486 71.3808 68.3633 71.3808C63.278 71.3808 59.1555 72.3041 59.1555 73.443C59.1555 74.5819 63.278 75.5052 68.3633 75.5052Z" fill="white" stroke="#263238" stroke-width="0.953494" stroke-linecap="round" stroke-linejoin="round"/>
<path d="M68.4151 74.717C72.8718 74.717 76.4847 73.9761 76.4847 73.0622C76.4847 72.1483 72.8718 71.4074 68.4151 71.4074C63.9583 71.4074 60.3455 72.1483 60.3455 73.0622C60.3455 73.9761 63.9583 74.717 68.4151 74.717Z" stroke="#263238" stroke-width="0.953494" stroke-linecap="round" stroke-linejoin="round"/>
<path d="M62.9384 70.86C62.5748 70.6847 62.16 70.6469 61.7708 70.7536C61.5785 70.8099 61.4049 70.9168 61.2679 71.0631C61.131 71.2093 61.0359 71.3896 60.9924 71.5852C60.9689 71.7732 60.9893 71.964 61.052 72.1428C61.1146 72.3216 61.2179 72.4834 61.3536 72.6156C61.6277 72.8776 61.9526 73.0806 62.3084 73.212C63.2736 73.6172 64.3107 73.8234 65.3576 73.8182C66.2354 73.8182 67.1132 73.6614 67.9868 73.7482C68.8268 73.8294 69.622 74.129 70.4508 74.2634C71.2974 74.4005 72.163 74.3657 72.996 74.1612C73.8556 73.9498 74.7712 73.429 74.921 72.5568C74.9602 72.2554 74.9129 71.949 74.7848 71.6734C74.6567 71.3978 74.4529 71.1643 74.1972 71C73.9383 70.8415 73.648 70.7413 73.3465 70.7065C73.045 70.6717 72.7395 70.7031 72.4514 70.7984C72.604 70.7508 72.38 69.3984 72.3408 69.2164C72.0608 67.9564 70.5726 67.0646 69.335 67.1318C68.5034 67.1766 67.6732 67.7408 67.4982 68.5542C67.2182 68.396 66.8164 68.4562 66.5322 68.613C66.3909 68.6939 66.272 68.8087 66.1862 68.947C66.1004 69.0854 66.0504 69.2429 66.0408 69.4054C65.4934 68.907 64.6408 68.7908 63.9408 69.0176C63.6407 69.1004 63.3789 69.285 63.2002 69.5398C63.0921 69.7306 63.0173 69.9385 62.979 70.1544C62.9272 70.384 62.9916 70.6332 62.9384 70.86Z" fill="#92E3A9"/>
<path d="M62.8809 70.8852C62.5174 70.7095 62.1023 70.6722 61.7133 70.7802C61.521 70.8365 61.3474 70.9434 61.2105 71.0896C61.0736 71.2359 60.9784 71.4162 60.9349 71.6118C60.9117 71.7997 60.9324 71.9903 60.9953 72.1689C61.0582 72.3474 61.1616 72.5089 61.2975 72.6408C61.5708 72.9035 61.8953 73.107 62.2509 73.2386C63.2164 73.643 64.2533 73.8492 65.3001 73.8448C66.1779 73.8448 67.0571 73.6866 67.9307 73.7734C68.7707 73.856 69.5645 74.1542 70.3933 74.29C71.2404 74.4271 72.1065 74.3923 72.9399 74.1878C73.7995 73.975 74.7151 73.4556 74.8635 72.582C74.9029 72.2809 74.8559 71.9748 74.728 71.6994C74.6001 71.4241 74.3965 71.1907 74.1411 71.0266C73.8818 70.8684 73.5914 70.7684 73.2897 70.7333C72.9881 70.6983 72.6825 70.7291 72.3939 70.8236C72.5465 70.776 72.3239 69.4236 72.2833 69.2416C72.0033 67.9816 70.5151 67.0912 69.2775 67.157C68.4459 67.2018 67.6157 67.766 67.4407 68.5794C67.1607 68.4226 66.7589 68.4814 66.4761 68.6396C66.3345 68.7203 66.2154 68.835 66.1293 68.9734C66.0433 69.1117 65.9931 69.2693 65.9833 69.432C65.4359 68.9322 64.5903 68.8174 63.8833 69.0428C63.5837 69.1266 63.3222 69.311 63.1427 69.565C63.0352 69.7566 62.9605 69.9648 62.9215 70.181C62.8697 70.4092 62.9341 70.657 62.8809 70.8852Z" stroke="#263238" stroke-width="0.953494" stroke-linecap="round" stroke-linejoin="round"/>
<path opacity="0.19" d="M62.9411 70.8936C62.5781 70.718 62.1635 70.6807 61.7749 70.7886C61.5828 70.8448 61.4093 70.9515 61.2724 71.0975C61.1355 71.2435 61.0402 71.4235 60.9965 71.6188C60.973 71.8068 60.9934 71.9976 61.0561 72.1764C61.1188 72.3552 61.222 72.517 61.3577 72.6492C61.6318 72.9112 61.9568 73.1142 62.3125 73.2456C63.2779 73.6506 64.3148 73.8572 65.3617 73.8532C66.2395 73.8532 67.1173 73.695 67.9909 73.7818C68.8309 73.8644 69.6261 74.1626 70.4549 74.2984C71.3016 74.4357 72.1674 74.4005 73.0001 74.1948C73.8597 73.9834 74.7753 73.4626 74.9251 72.5904C74.9644 72.2892 74.9172 71.983 74.789 71.7076C74.6609 71.4322 74.457 71.1989 74.2013 71.035C73.9426 70.8763 73.6523 70.7759 73.3508 70.7408C73.0493 70.7058 72.7438 70.7369 72.4555 70.832C72.6081 70.7844 72.3841 69.432 72.3435 69.25C72.0635 67.99 70.5767 67.0996 69.3377 67.1654C68.5075 67.2102 67.6773 67.7744 67.5023 68.5878C67.2223 68.431 66.8205 68.4898 66.5363 68.648C66.3952 68.7288 66.2764 68.8433 66.1907 68.9814C66.1049 69.1195 66.0548 69.2768 66.0449 69.439C65.4975 68.9406 64.6519 68.8258 63.9449 69.0512C63.646 69.1355 63.3851 69.3199 63.2057 69.5734C63.0975 69.7647 63.0226 69.973 62.9845 70.1894C62.9313 70.4176 62.9957 70.6654 62.9411 70.8936Z" fill="white"/>
<path opacity="0.2" d="M71.862 68.3624C71.2082 67.7702 70.126 67.8584 69.419 68.3848C68.712 68.9112 68.3284 69.7778 68.166 70.6444C68.0219 70.5535 67.8553 70.5046 67.6849 70.5031C67.5145 70.5016 67.3471 70.5476 67.2014 70.636C66.912 70.8182 66.6876 71.0872 66.5602 71.4046C66.3093 71.2247 66.0089 71.1271 65.7003 71.125C65.3916 71.123 65.0899 71.2168 64.8368 71.3934C64.6631 71.536 64.4967 71.6874 64.3384 71.847C63.8674 72.264 63.2531 72.4823 62.6246 72.4562C61.996 72.4301 61.402 72.1616 60.9672 71.707C60.9672 71.707 60.4674 72.4168 62.3868 73.2218C64.3062 74.0268 65.5536 73.9218 66.5868 73.793C67.62 73.6642 68.922 73.8966 69.8306 74.213C70.7392 74.5294 73.3866 74.5504 74.3204 73.5382C75.2542 72.526 75.1506 70.5534 72.4514 70.7382C72.457 70.7298 72.4878 68.928 71.862 68.3624Z" fill="black"/>
<path d="M66.4817 66.6978C66.1023 66.5242 65.9217 66.0552 65.9805 65.6408C66.0393 65.2264 66.2605 64.8596 66.5125 64.5208C66.7645 64.182 67.0347 63.86 67.1943 63.4736C67.8145 61.9616 66.4789 60.1738 67.0739 58.652" stroke="#263238" stroke-width="0.953494" stroke-linecap="round" stroke-linejoin="round"/>
<path d="M71.9137 66.5816C71.5567 66.4724 71.3537 66.0944 71.2823 65.7276C71.0709 64.5768 71.8633 63.4876 72.0341 62.3354C72.1741 61.3764 71.8843 60.4104 71.5959 59.4836" stroke="#263238" stroke-width="0.953494" stroke-linecap="round" stroke-linejoin="round"/>
<path d="M69.2775 66.24C68.8981 65.883 68.9401 65.26 69.1375 64.7812C69.3349 64.3024 69.6765 63.8796 69.8165 63.3812C69.8967 63.0843 69.9059 62.7728 69.8434 62.4717C69.7809 62.1706 69.6484 61.8884 69.4567 61.648" stroke="#263238" stroke-width="0.953494" stroke-linecap="round" stroke-linejoin="round"/>
<path d="M65.9273 59.7776C65.8941 60.3046 65.927 60.8337 66.0253 61.3526" stroke="#263238" stroke-width="0.953494" stroke-linecap="round" stroke-linejoin="round"/>
<path d="M65.9554 62.9962C66.0044 63.5184 65.6586 63.9832 65.3828 64.4298C65.0597 64.9332 64.8412 65.4964 64.7402 66.086C64.6387 66.6788 64.7341 67.2885 65.0118 67.822" stroke="#263238" stroke-width="0.953494" stroke-linecap="round" stroke-linejoin="round"/>
<path d="M47.1476 41.8996L47.2876 43.6118V43.6524C47.1701 43.6384 47.0518 43.6314 46.9334 43.6314C46.0038 43.6314 44.5534 43.9366 43.5244 44.1914C42.802 44.3706 42.2812 44.5246 42.2812 44.5246L42.1258 43.9072L41.5364 41.6C41.059 41.1898 40.331 39.5784 40.331 39.5784C39.7388 39.4874 39.0024 38.9498 38.8428 38.198C38.6832 37.4462 39.6086 37.5204 39.6086 37.5204L40.2078 37.1522L40.9582 35.104C40.9582 35.104 40.2988 33.5794 41.5966 32.9662C42.8944 32.353 47.3072 34.4894 47.3072 34.4894L47.7846 36.4928C48.3978 36.742 47.7496 38.2428 47.7496 38.2428C47.7496 38.2428 47.8084 38.2666 47.8756 39.1528C47.9428 40.039 47.1476 41.8996 47.1476 41.8996Z" fill="white"/>
<path d="M45.6735 37.141C45.8695 37.8858 46.5597 38.4164 46.5345 38.6082C46.5023 38.8546 46.1985 39.1878 45.9227 39.192" stroke="#263238" stroke-width="0.953494" stroke-linecap="round" stroke-linejoin="round"/>
<path d="M47.0328 35.9426C47.0328 35.9426 46.4266 35.4484 45.9576 36.0826" stroke="#263238" stroke-width="1.90699" stroke-linecap="round" stroke-linejoin="round"/>
<path d="M43.5566 39.7057C43.5566 39.7057 43.8646 40.5093 45.0966 40.4827" stroke="#263238" stroke-width="0.953494" stroke-linecap="round" stroke-linejoin="round"/>
<path d="M44.3449 36.574C43.9025 36.301 43.2893 36.3248 42.9645 36.9282" stroke="#263238" stroke-width="1.90699" stroke-linecap="round" stroke-linejoin="round"/>
<path d="M44.2791 37.7472C44.3197 37.9656 44.2595 38.1672 44.1391 38.1826C44.0187 38.198 43.8927 38.0426 43.8507 37.8284C43.8087 37.6142 43.8717 37.4154 43.9907 37.3944C44.1097 37.3734 44.2371 37.5302 44.2791 37.7472Z" fill="#263238"/>
<path d="M46.8032 37.26C46.8438 37.4784 46.7836 37.68 46.6632 37.6954C46.5428 37.7108 46.4168 37.5554 46.3748 37.3412C46.3328 37.127 46.3958 36.9282 46.5148 36.9058C46.6338 36.8834 46.7612 37.0388 46.8032 37.26Z" fill="#263238"/>
<path d="M40.2737 38.058C40.2737 38.058 39.2489 37.1676 38.9241 37.778C38.5993 38.3884 39.6535 39.8052 40.6433 39.3726" stroke="#263238" stroke-width="0.953494" stroke-linecap="round" stroke-linejoin="round"/>
<path d="M47.1659 34.726C47.1659 34.726 47.2443 37.2922 47.5285 37.8634C47.8127 38.4346 48.0563 38.7188 47.7567 40.2084C47.4571 41.698 46.3147 43.4382 45.0967 43.5544C43.8787 43.6706 41.0801 41.8142 40.2877 39.5" stroke="#263238" stroke-width="0.953494" stroke-linecap="round" stroke-linejoin="round"/>
<path d="M40.3017 38.1629C40.3017 38.1629 41.0451 37.7779 40.9107 37.1115C40.7763 36.4451 40.8701 36.3625 41.4035 36.0195C41.9369 35.6765 41.6065 34.9681 41.0955 34.2709C40.5845 33.5737 41.5561 32.7393 42.3471 33.0893C43.1381 33.4393 47.6461 35.2131 48.8571 34.6867C50.0681 34.1603 49.7209 32.4775 48.0899 31.5367C48.0899 31.5367 47.2093 30.4853 47.4459 29.5179C47.6825 28.5505 42.0349 25.6287 39.3875 31.5787C39.3875 31.5787 38.1275 32.0701 37.8685 33.7613C37.6109 35.4259 39.4323 37.5791 39.4323 37.5791C39.4323 37.5791 40.0763 37.9109 40.3017 38.1629Z" fill="#263238"/>
<path d="M41.0632 32.787C41.4832 32.227 42.2476 32.0268 42.935 32.1248C43.6224 32.2228 44.2468 32.5742 44.8334 32.9452C45.42 33.3162 45.9968 33.7222 46.6534 33.9518C47.0223 34.1002 47.4276 34.1329 47.8154 34.0456C47.9668 34.0054 48.108 33.9339 48.23 33.8358C48.3521 33.7376 48.4521 33.615 48.5238 33.4758" stroke="white" stroke-width="0.953494" stroke-linecap="round" stroke-linejoin="round"/>
<path d="M39.8887 32.3348C39.3847 32.3684 38.9451 32.7464 38.7491 33.2126C38.5703 33.6891 38.5579 34.2121 38.7141 34.6966C38.8172 35.0378 38.9581 35.3665 39.1341 35.6766" stroke="white" stroke-width="0.953494" stroke-linecap="round" stroke-linejoin="round"/>
<path d="M47.247 41.67C47.1733 41.9573 47.1497 42.2552 47.177 42.5506C47.1926 42.8977 47.2314 43.2433 47.2932 43.5852" stroke="#263238" stroke-width="0.953494" stroke-linecap="round" stroke-linejoin="round"/>
<path d="M41.5309 41.4992C41.7731 42.356 42.0419 43.3878 42.2897 44.5358" stroke="#263238" stroke-width="0.953494" stroke-linecap="round" stroke-linejoin="round"/>
<path d="M47.3226 36.9464C47.3226 36.9464 47.5522 36.322 47.9862 36.5992C48.4202 36.8764 47.7286 38.2792 47.7286 38.2792" stroke="#263238" stroke-width="0.953494" stroke-linecap="round" stroke-linejoin="round"/>
<path d="M47.9569 34.2948C47.9569 34.2948 48.1739 36.0602 47.6475 36.6174L47.2443 36.742L47.0315 34.397L47.9569 34.2948Z" fill="#263238"/>
<path d="M37.6053 32.08C37.6053 32.08 36.1857 31.9806 34.8137 30.3482C33.4417 28.7158 34.5505 27.5692 35.2337 26.956C35.9169 26.3428 37.6025 24.6614 38.3067 23.876C39.0109 23.0906 40.4221 22.0966 42.0167 22.357C43.6113 22.6174 45.1639 23.5834 46.6801 24.0286C48.1963 24.4738 49.7069 26.1286 49.9295 27.208C50.1521 28.2874 49.6733 29.98 49.1175 30.3874L48.1613 30.358L48.5813 31.807C48.5813 31.807 42.9001 29.56 37.8251 33.7782L38.2549 32.269L37.6053 32.08Z" fill="white"/>
<path d="M40.2163 30.1522C40.2163 30.7976 40.2261 31.443 40.2667 32.0856L37.9077 33.8384L38.4845 30.9964L40.2163 30.1522Z" fill="#92E3A9"/>
<path opacity="0.6" d="M40.2163 30.1522C40.2163 30.7976 40.2457 31.5144 40.2849 32.157L37.9049 33.837L38.4817 30.995L40.2163 30.1522Z" fill="white"/>
<path d="M40.4962 22.4018C40.6102 22.3665 40.7322 22.3664 40.8463 22.4013C40.9604 22.4363 41.0613 22.5047 41.136 22.5978C41.2817 22.787 41.3561 23.0214 41.346 23.26C41.339 24.037 40.7608 24.695 40.1266 25.1458C39.4924 25.5966 38.7672 25.9242 38.21 26.4674C37.8924 26.777 37.6399 27.1472 37.4675 27.5559C37.2951 27.9647 37.2063 28.4038 37.2063 28.8474C37.2063 29.291 37.2951 29.7301 37.4675 30.1389C37.6399 30.5476 37.8924 30.9178 38.21 31.2274C38.273 31.2876 38.3374 31.345 38.399 31.408L38.2044 32.2032C38.2044 32.2032 35.6844 31.8742 34.8192 30.3482C33.954 28.8222 34.227 28.1082 34.9816 27.2122C35.7362 26.3162 36.7162 25.829 37.6766 24.4612C38.637 23.0934 40.4962 22.4018 40.4962 22.4018Z" fill="#92E3A9"/>
<path opacity="0.6" d="M40.4962 22.4018C40.6102 22.3665 40.7322 22.3664 40.8463 22.4013C40.9604 22.4363 41.0613 22.5047 41.136 22.5978C41.2817 22.787 41.3561 23.0214 41.346 23.26C41.339 24.037 40.7608 24.695 40.1266 25.1458C39.4924 25.5966 38.7672 25.9242 38.21 26.4674C37.8924 26.777 37.6399 27.1472 37.4675 27.5559C37.2951 27.9647 37.2063 28.4038 37.2063 28.8474C37.2063 29.291 37.2951 29.7301 37.4675 30.1389C37.6399 30.5476 37.8924 30.9178 38.21 31.2274C38.273 31.2876 38.3374 31.345 38.399 31.408L38.2044 32.2032C38.2044 32.2032 35.6844 31.8742 34.8192 30.3482C33.954 28.8222 34.227 28.1082 34.9816 27.2122C35.7362 26.3162 36.7162 25.829 37.6766 24.4612C38.637 23.0934 40.4962 22.4018 40.4962 22.4018Z" fill="white"/>
<path d="M37.9077 33.8384C37.9077 33.8384 41.8137 29.7896 48.5757 31.8784L47.7441 29.5838C47.7441 29.5838 43.0401 28.3 38.4845 30.9964L37.9077 33.8384Z" stroke="#263238" stroke-width="0.953494" stroke-linecap="round" stroke-linejoin="round"/>
<path d="M48.1934 30.82C48.6736 30.743 49.6102 30.2096 49.823 29.7714C50.0178 29.3222 50.1046 28.8336 50.0764 28.3448C50.0807 27.6485 49.9189 26.9613 49.6046 26.34C48.8808 25.0002 47.3534 24.3436 45.938 23.7822L43.2892 22.7308C42.753 22.518 42.2056 22.3024 41.6302 22.2646C40.4892 22.1904 39.4112 22.8246 38.5768 23.61C37.7424 24.3954 37.0718 25.339 36.2248 26.109C35.8118 26.4842 35.3582 26.809 34.976 27.229C34.5938 27.649 34.276 28.1334 34.2214 28.6892C34.1402 29.4886 34.6106 30.2488 35.1888 30.8074C35.767 31.366 36.3312 32.0114 38.1876 32.2312" stroke="#263238" stroke-width="0.953494" stroke-linecap="round" stroke-linejoin="round"/>
<path d="M45.4061 29.28C45.7915 29.0521 46.1291 28.7516 46.4001 28.3952" stroke="#263238" stroke-width="0.953494" stroke-linecap="round" stroke-linejoin="round"/>
<path d="M39.7837 30.302C39.448 30.1856 39.1414 29.9981 38.8848 29.7524C38.6283 29.5067 38.4277 29.2085 38.2969 28.8782" stroke="#263238" stroke-width="0.953494" stroke-linecap="round" stroke-linejoin="round"/>
<path d="M40.2751 23.5022C39.6479 23.4574 39.0991 23.9222 38.6973 24.401C38.2955 24.8798 37.9371 25.4426 37.3757 25.7268" stroke="#263238" stroke-width="0.953494" stroke-linecap="round" stroke-linejoin="round"/>
<path d="M62.8977 51.064L57.1185 55.5748C57.1185 55.5748 54.8995 48.3452 54.7693 47.445C54.4137 46.5784 53.1243 45.3674 53.1243 45.3674C53.1243 45.3674 48.3853 45.1336 48.0437 44.9376C47.7021 44.7416 47.6643 43.609 47.6643 43.609C47.5411 43.609 47.4123 43.609 47.2821 43.609C47.1519 43.609 47.0497 43.6202 46.9307 43.6286C45.7951 43.7361 44.6709 43.9417 43.5707 44.2432C42.6705 44.4784 42.0405 44.6884 42.0405 44.6884L42.3905 46.2088L42.1371 46.5896C41.3069 47.2098 36.7583 48.7176 35.5809 49.2496C35.0654 49.6572 34.5711 50.0909 34.0997 50.5488C34.0997 50.5488 30.0201 58.554 29.3873 59.5312C29.0023 60.1437 28.7935 60.8504 28.7839 61.5738C29.2529 62.5748 29.9417 62.6406 30.6515 62.8856C30.7708 62.9256 30.8876 62.9724 31.0015 63.0256C31.8317 63.4148 39.1523 62.8352 39.1523 62.8352C39.1523 62.8352 38.6259 65.442 41.0255 64.4508C44.8657 62.8632 54.0455 63.9622 54.0455 63.9622L53.8257 58.0822L55.9061 60.4622C55.9061 60.4622 56.8791 61.0348 58.0495 60.304C59.8289 59.1546 64.9879 52.8056 64.9879 52.8056C64.4895 51.6282 62.8977 51.064 62.8977 51.064ZM39.7137 60.2312L39.2937 59.8112C38.5685 59.3716 35.8637 58.862 35.8637 58.862L37.7677 56.111C37.7677 56.111 39.7767 59.219 39.8677 59.4822C39.9587 59.7454 39.7137 60.2312 39.7137 60.2312Z" fill="white"/>
<path d="M43.7191 66.5046L44.1503 75.7964C44.1503 75.7964 42.7391 75.4436 42.3471 74.8556C41.9551 74.2676 41.0801 65.4602 41.0801 65.4602C41.0801 65.4602 41.9201 66.2302 43.7191 66.5046Z" fill="#92E3A9"/>
<path opacity="0.56" d="M43.7191 66.5046L44.1503 75.7964C44.1503 75.7964 42.7391 75.4436 42.3471 74.8556C41.9551 74.2676 41.0801 65.4602 41.0801 65.4602C41.0801 65.4602 41.9201 66.2302 43.7191 66.5046Z" fill="white"/>
<path d="M39.9265 59.6362L37.7201 56.2006L39.5667 53.7576C39.5667 53.7576 39.7067 55.1394 40.5257 55.7806C41.8375 56.804 41.5491 59.9498 41.5491 59.9498L39.9265 59.6362Z" fill="#92E3A9"/>
<path opacity="0.6" d="M39.9265 59.6362L37.7201 56.2006L39.5667 53.7576C39.5667 53.7576 39.7067 55.1394 40.5257 55.7806C41.8375 56.804 41.5491 59.9498 41.5491 59.9498L39.9265 59.6362Z" fill="white"/>
<path d="M53.3441 50.686C53.3441 50.686 54.9457 57.8106 55.8739 58.946C56.8021 60.0814 56.8217 55.6546 57.1493 55.593C57.4769 55.5314 58.0243 58.1872 57.8129 58.9894C57.8129 58.9894 57.9389 59.4094 58.4037 58.9894C58.8685 58.5694 64.6435 53.22 64.6435 53.22C64.6435 53.22 58.7089 60.7282 57.0121 60.682C55.5771 60.8808 54.0273 58.316 54.0273 58.316L53.3441 50.686Z" fill="#92E3A9"/>
<path opacity="0.6" d="M53.3441 50.686C53.3441 50.686 54.9457 57.8106 55.8739 58.946C56.8021 60.0814 56.8217 55.6546 57.1493 55.593C57.4769 55.5314 58.0243 58.1872 57.8129 58.9894C57.8129 58.9894 57.9389 59.4094 58.4037 58.9894C58.8685 58.5694 64.6435 53.22 64.6435 53.22C64.6435 53.22 58.7089 60.7282 57.0121 60.682C55.5771 60.8808 54.0273 58.316 54.0273 58.316L53.3441 50.686Z" fill="white"/>
<path d="M36.1507 58.421L35.7951 58.8969C35.7951 58.8969 32.9489 58.54 30.6515 62.88C29.9417 62.635 29.2515 62.5692 28.7839 61.5682C28.7935 60.8448 29.0023 60.138 29.3873 59.5256C30.0201 58.5456 34.1473 50.4522 34.1473 50.4522C34.5704 49.9889 35.0523 49.5832 35.5809 49.2454C38.5209 47.6914 41.3069 47.207 42.1371 46.5854L42.3905 46.2046L42.0405 44.6842C42.0405 44.6842 42.6705 44.4742 43.5707 44.239L44.0355 46.2228C44.1121 46.5509 44.0677 46.8956 43.9106 47.1937C43.7535 47.4917 43.4941 47.7231 43.1801 47.8454L36.4601 50.4368C36.0264 50.6032 35.6714 50.9272 35.4661 51.344L31.7869 58.7752C31.8611 58.7094 33.3241 57.2212 36.1507 58.421Z" fill="#92E3A9"/>
<path opacity="0.6" d="M36.1507 58.421L35.7951 58.8969C35.7951 58.8969 32.9489 58.54 30.6515 62.88C29.9417 62.635 29.2515 62.5692 28.7839 61.5682C28.7935 60.8448 29.0023 60.138 29.3873 59.5256C30.0201 58.5456 34.1473 50.4522 34.1473 50.4522C34.1473 50.4522 35.0293 49.6528 35.5809 49.2454C38.3683 47.809 41.3069 47.207 42.1371 46.5854L42.3905 46.2046L42.0405 44.6842C42.0405 44.6842 42.6705 44.4742 43.5707 44.239L44.0355 46.2228C44.1121 46.5509 44.0677 46.8956 43.9106 47.1937C43.7535 47.4917 43.4941 47.7231 43.1801 47.8454L36.4601 50.4368C36.0264 50.6032 35.6714 50.9272 35.4661 51.344L31.7869 58.7752C31.8611 58.7094 33.3241 57.2212 36.1507 58.421Z" fill="white"/>
<path d="M63.4801 50.707L65.2525 48.2024C65.2525 48.2024 66.5041 47.3624 66.9577 47.144C67.4113 46.9256 67.4771 46.4958 67.6927 46.647C67.9083 46.7982 67.7137 47.6844 67.2601 47.9644C66.8065 48.2444 66.2885 48.5244 66.3529 48.7204C66.4173 48.9164 69.0535 48.677 69.0535 48.677C69.0535 48.677 72.4135 48.6322 72.4625 48.8926C72.5115 49.153 70.3709 49.5408 70.3709 49.5408C70.3709 49.5408 72.6711 49.5156 72.6767 49.6472C72.6823 49.7788 71.3649 50.2324 71.3649 50.2324C71.3649 50.2324 72.2959 50.2814 72.2511 50.483C72.2063 50.6846 71.2571 50.945 71.2571 50.945C71.2571 50.945 69.3125 52.1336 68.8771 52.3282C68.4417 52.5228 65.4863 52.1546 65.4863 52.1546L64.9809 52.8084C64.9809 52.8084 64.1255 51.5932 63.2183 51.0752L63.4801 50.707Z" fill="white"/>
<path d="M56.9561 58.4112C57.0795 57.4853 57.1393 56.5522 57.1353 55.6182" stroke="#263238" stroke-width="0.953494" stroke-linecap="round" stroke-linejoin="round"/>
<path d="M47.2905 43.623C47.4305 43.623 47.5803 43.6146 47.7287 43.6132L47.8687 44.5162C47.8911 44.6611 47.9644 44.7934 48.0755 44.8891C48.1866 44.9848 48.3283 45.0377 48.4749 45.0384L53.0319 45.3478C53.3665 45.3478 54.6363 47.0852 54.8519 47.7404L57.1493 55.6L62.8991 51.0346C62.8991 51.0346 64.0191 51.1872 64.9893 52.8126C64.9893 52.8126 61.2877 57.7392 57.9277 60.3726C57.4363 60.7562 56.3359 60.8416 55.8977 60.3992C55.1585 59.6544 54.4893 58.988 53.9727 58.2992" stroke="#263238" stroke-width="0.953494" stroke-linecap="round" stroke-linejoin="round"/>
<path d="M38.6777 56.0116L39.8299 55.2682" stroke="#263238" stroke-width="0.953494" stroke-linecap="round" stroke-linejoin="round"/>
<path d="M39.1047 56.2622C39.4096 56.1638 39.7297 56.1211 40.0497 56.1362" stroke="#263238" stroke-width="0.953494" stroke-linecap="round" stroke-linejoin="round"/>
<path d="M37.7704 56.1796C38.4705 57.1558 39.1191 58.168 39.7136 59.212C39.845 59.4459 39.8849 59.7203 39.8256 59.982L37.0256 72.3552" stroke="#263238" stroke-width="0.953494" stroke-linecap="round" stroke-linejoin="round"/>
<path d="M53.0347 48.7526L53.9993 58.071C54.0637 60.1626 54.2191 61.487 54.3115 64.1078" stroke="#263238" stroke-width="0.953494" stroke-linecap="round" stroke-linejoin="round"/>
<path d="M42.2742 46.5182L43.5706 54.8258L45.3066 54.2462C46.5016 53.8473 47.7593 53.6694 49.018 53.7212L50.7904 53.7954L48.654 44.96H49.4646L54.0272 58.316L54.3072 64.2394C54.3072 64.2394 45.8162 62.376 41.059 64.889L41.4314 68.529C41.4314 68.529 41.6582 69.5258 41.8976 72.428L38.1176 72.3594H37.0256L39.7836 60.2536C39.7836 60.2536 42.1636 60.4286 42.095 58.5134C42.0264 56.5982 41.3684 46.9746 41.3684 46.9746L42.2742 46.5182Z" fill="#263238"/>
<path d="M45.7294 46.4398C45.7294 46.5179 45.7063 46.5942 45.6629 46.6591C45.6195 46.724 45.5578 46.7746 45.4857 46.8045C45.4136 46.8344 45.3342 46.8422 45.2576 46.827C45.181 46.8118 45.1107 46.7742 45.0555 46.7189C45.0002 46.6637 44.9626 46.5934 44.9474 46.5168C44.9322 46.4402 44.94 46.3608 44.9699 46.2887C44.9998 46.2166 45.0504 46.1549 45.1153 46.1115C45.1802 46.0681 45.2565 46.045 45.3346 46.045C45.4393 46.045 45.5397 46.0866 45.6138 46.1606C45.6878 46.2347 45.7294 46.3351 45.7294 46.4398Z" fill="#263238"/>
<path d="M45.7854 48.7526C46.0035 48.7526 46.1802 48.5758 46.1802 48.3578C46.1802 48.1397 46.0035 47.963 45.7854 47.963C45.5674 47.963 45.3906 48.1397 45.3906 48.3578C45.3906 48.5758 45.5674 48.7526 45.7854 48.7526Z" fill="#263238"/>
<path d="M48.2537 58.9054C49.6807 58.6618 51.1162 58.4723 52.5601 58.337" stroke="white" stroke-width="0.953494" stroke-linecap="round" stroke-linejoin="round"/>
<path d="M45.7869 59.38C46.373 59.2558 46.9615 59.1406 47.5523 59.0342" stroke="white" stroke-width="0.953494" stroke-linecap="round" stroke-linejoin="round"/>
<path d="M52.5601 58.8494C51.399 59.316 50.2291 59.7589 49.0503 60.178" stroke="white" stroke-width="0.953494" stroke-linecap="round" stroke-linejoin="round"/>
<path d="M52.2885 48.9374C52.4091 49.6955 52.5836 50.4441 52.8107 51.1774" stroke="#263238" stroke-width="0.953494" stroke-linecap="round" stroke-linejoin="round"/>
<path d="M69.08 49.748C69.08 49.748 72.44 49.188 72.4638 48.8926C72.4876 48.5972 70.0446 48.7526 69.4692 48.7022C68.8938 48.6518 66.483 48.9612 66.4032 48.81C66.3234 48.6588 66.5194 48.6238 67.05 48.1814C67.5806 47.739 67.9712 46.9578 67.8284 46.71C67.6856 46.4622 67.2124 47.0124 66.8484 47.214C66.5558 47.3778 65.4484 48.005 65.2482 48.2794C65.048 48.5538 63.7166 50.3906 63.2126 51.0906" stroke="#263238" stroke-width="0.953494" stroke-linecap="round" stroke-linejoin="round"/>
<path d="M69.1571 49.72C69.1571 49.72 72.6963 49.3952 72.6823 49.6528C72.6599 50.0826 70.2869 50.4214 69.3153 50.4928" stroke="#263238" stroke-width="0.953494" stroke-linecap="round" stroke-linejoin="round"/>
<path d="M69.2928 50.5054C69.2928 50.5054 72.3014 50.0854 72.2566 50.483C72.2118 50.8806 68.7916 51.5288 68.7916 51.5288" stroke="#263238" stroke-width="0.953494" stroke-linecap="round" stroke-linejoin="round"/>
<path d="M64.8646 52.968C65.202 52.4836 65.4246 52.1504 65.4246 52.1504C65.4246 52.1504 68.3226 52.4682 68.7384 52.3884C69.1542 52.3086 71.11 51.0556 71.11 51.0556" stroke="#263238" stroke-width="0.953494" stroke-linecap="round" stroke-linejoin="round"/>
<path d="M66.1401 49.7312C66.4614 49.7704 66.7666 49.8935 67.0252 50.0881C67.2837 50.2828 67.4865 50.5421 67.6129 50.84" stroke="#263238" stroke-width="0.953494" stroke-linecap="round" stroke-linejoin="round"/>
<path d="M57.6001 55.901C57.9263 56.4008 57.9627 57.0294 57.9893 57.6258" stroke="#263238" stroke-width="0.953494" stroke-linecap="round" stroke-linejoin="round"/>
<path d="M41.0801 65.0542L42.1175 73.9092C42.1175 73.9092 42.0685 74.8416 42.8511 75.3092C43.6337 75.7768 47.0637 76.5384 48.9789 76.4194C50.8941 76.3004 53.3189 76.18 54.2037 75.501C55.0885 74.822 54.8813 72.988 54.8813 72.988L55.5197 67.444C55.5197 67.444 56.1007 65.3272 55.4007 64.6916C54.1211 63.538 43.3369 62.6616 41.0801 65.0542Z" fill="white"/>
<path d="M41.0801 65.4602C41.4968 65.8213 41.9833 66.093 42.5095 66.2582C43.3495 66.5102 53.6871 66.2134 54.9695 65.9628C56.2519 65.7122 55.7871 64.6622 55.0731 64.3682C54.3591 64.0742 47.7273 63.1082 44.7985 63.7746C42.2001 64.3654 40.5761 64.4102 41.0801 65.4602Z" fill="#92E3A9"/>
<path opacity="0.6" d="M41.08 65.4602C41.4968 65.8213 41.9833 66.093 42.5094 66.2582C43.3494 66.5102 53.687 66.2134 54.9694 65.9628C56.2518 65.7122 55.787 64.6622 55.073 64.3682C54.359 64.0742 48.5098 63.2244 44.9818 63.7074C42.375 64.2954 40.576 64.4102 41.08 65.4602Z" fill="white"/>
<path d="M55.7941 65.2054C55.7941 65.4854 55.4959 65.7374 54.9681 65.9628C53.7347 66.4948 51.2497 66.856 48.3881 66.856C45.6553 66.856 43.2669 66.527 41.9845 66.0356C41.3475 65.792 40.9821 65.5092 40.9821 65.2054C40.9821 64.2926 44.2987 63.5534 48.3881 63.5534C52.4775 63.5534 55.7941 64.2926 55.7941 65.2054Z" stroke="#263238" stroke-width="0.953494" stroke-linecap="round" stroke-linejoin="round"/>
<path d="M54.9681 65.96C53.7347 66.492 51.2497 66.8532 48.3881 66.8532C45.6553 66.8532 43.2669 66.5242 41.9845 66.0328C42.9435 65.4336 45.5153 65.0024 48.5379 65.0024C51.4401 65.0052 53.9251 65.4 54.9681 65.96Z" fill="#263238"/>
<path d="M40.9792 65.2054L42.137 74.3432C42.1628 74.552 42.2416 74.7508 42.3662 74.9204C42.4907 75.0901 42.6567 75.2249 42.8482 75.312C44.3056 75.97 48.22 77.2902 53.806 75.7432C54.0409 75.6766 54.2506 75.5415 54.4085 75.3553C54.5663 75.169 54.6651 74.94 54.6922 74.6974L55.0464 71.6524L55.0814 71.3416L55.3684 68.8832L55.4314 68.34L55.794 65.2054" stroke="#263238" stroke-width="0.953494" stroke-linecap="round" stroke-linejoin="round"/>
<path d="M47.1099 76.4418C46.921 76.2005 46.7917 75.918 46.7326 75.6173C46.6734 75.3166 46.6862 75.0062 46.7697 74.7114C46.7697 74.7114 45.9171 75.1384 45.8919 75.8902C45.8919 75.8902 44.6319 75.5402 44.7873 73.709C44.7873 73.709 44.0873 74.8374 44.7131 76.0666C45.3389 77.2958 47.1099 76.4418 47.1099 76.4418Z" fill="#263238"/>
<path d="M50.3761 76.4474C50.9913 75.8191 51.3938 75.0136 51.5269 74.1444C51.7026 74.7632 51.6923 75.42 51.4975 76.033C51.7678 75.9125 52.0054 75.729 52.1902 75.4978C52.3751 75.2667 52.5019 74.9946 52.5601 74.7044C52.5601 74.7044 52.7379 75.8244 52.2059 76.4474C51.6739 77.0704 50.3761 76.4474 50.3761 76.4474Z" fill="#263238"/>
<path d="M57.9319 69.18C57.5987 70.3448 56.4059 71.6132 55.0465 71.6496L55.0815 71.3388C56.2477 71.2786 57.3355 70.1446 57.6337 69.0988C57.7065 68.844 57.8283 68.2196 57.3887 67.9368C57.2815 67.8621 57.1597 67.8109 57.0313 67.7868C56.9029 67.7627 56.7709 67.7661 56.6439 67.7968C55.9803 67.9592 55.4861 68.8006 55.4819 68.809C55.4703 68.8297 55.454 68.8473 55.4343 68.8604C55.4146 68.8736 55.392 68.8819 55.3685 68.8846L55.4315 68.3414C55.6611 68.0418 56.0643 67.6204 56.5697 67.5014C56.7377 67.4613 56.9123 67.4566 57.0822 67.4877C57.2522 67.5188 57.4138 67.585 57.5567 67.682C57.9893 67.9536 58.1251 68.5038 57.9319 69.18Z" fill="#263238"/>
<path d="M47.2709 65.7038C48.0297 66.1336 48.9649 66.1574 49.8133 65.9572C50.1124 65.8991 50.3975 65.7841 50.6533 65.6184" stroke="white" stroke-width="0.953494" stroke-linecap="round" stroke-linejoin="round"/>
<path d="M51.7607 65.7598C51.5255 65.9977 51.2378 66.177 50.9207 66.2834" stroke="white" stroke-width="0.953494" stroke-linecap="round" stroke-linejoin="round"/>
<path d="M41.9887 71.9156C39.2153 72.2446 38.9395 69.04 39.6801 68.5346C40.4207 68.0292 41.8935 69.7624 41.8935 69.7624" stroke="white" stroke-width="1.90699" stroke-linecap="round" stroke-linejoin="round"/>
<path d="M49.3162 65.6169L43.81 55.6097C43.81 55.6097 43.208 55.2471 43.25 55.9709C43.292 56.6947 48.36 65.6799 48.36 65.6799L49.3162 65.6169Z" fill="white" stroke="#263238" stroke-width="0.953494" stroke-linecap="round" stroke-linejoin="round"/>
<path d="M47.2247 67.78C48.8907 67.8822 51.0047 67.8416 52.8135 67.283" stroke="#263238" stroke-width="0.953494" stroke-linecap="round" stroke-linejoin="round"/>
<path d="M44.2916 67.4286C44.2916 67.4286 44.8516 67.542 45.735 67.6484" stroke="#263238" stroke-width="0.953494" stroke-linecap="round" stroke-linejoin="round"/>
<path d="M39.0613 54.5878C37.932 55.8613 36.9072 57.2237 35.9967 58.6618" stroke="#263238" stroke-width="0.953494" stroke-linecap="round" stroke-linejoin="round"/>
<path d="M35.3611 58.6072C34.6784 58.4491 33.9652 58.4825 33.3003 58.7038" stroke="#263238" stroke-width="0.953494" stroke-linecap="round" stroke-linejoin="round"/>
<path d="M35.1371 50.2352C35.1371 50.2352 37.6571 51.6786 38.5909 53.8962" stroke="#263238" stroke-width="0.953494" stroke-linecap="round" stroke-linejoin="round"/>
<path d="M37.223 59.2526C37.2706 61.0614 38.3976 62.9108 38.3976 62.9108L42.5402 62.278L42.2602 61.4758C42.4002 61.5444 42.6886 61.5206 42.8832 61.5668C44.1026 61.8468 46.1032 61.795 46.1032 61.795C46.4018 61.5452 46.6511 61.2418 46.8382 60.9004C47.1756 60.304 46.8578 60.1416 46.8578 60.1416C47.3464 59.457 46.9712 58.9628 46.9712 58.9628C47.6936 58.5498 47.3912 58.3244 47.3912 58.3244C46.9264 57.5978 44.1838 57.9114 44.1838 57.9114L41.78 59.94L40.1476 59.66L37.223 59.2526Z" fill="white"/>
<path d="M41.5575 59.9666L41.9201 59.8476L44.1881 57.9114C44.1881 57.9114 47.1505 57.7546 47.3619 58.2866C47.5733 58.8186 46.9573 59.065 46.4253 59.2778" stroke="#263238" stroke-width="0.953494" stroke-linecap="round" stroke-linejoin="round"/>
<path d="M46.8845 59.0888C46.8845 59.0888 47.6167 59.408 46.6045 60.2998" stroke="#263238" stroke-width="0.953494" stroke-linecap="round" stroke-linejoin="round"/>
<path d="M46.7879 60.164C47.1099 59.982 47.3213 60.8024 46.1929 61.1972" stroke="#263238" stroke-width="0.953494" stroke-linecap="round" stroke-linejoin="round"/>
<path d="M46.8705 60.9536L46.0431 61.844C46.0431 61.844 44.1783 62.0064 42.5025 61.466L42.3191 61.5192" stroke="#263238" stroke-width="0.953494" stroke-linecap="round" stroke-linejoin="round"/>
<path d="M32.7277 60.241C33.1227 59.8213 33.5986 59.4859 34.1268 59.2552C34.6549 59.0244 35.2243 58.9031 35.8007 58.8984C36.0385 58.9017 36.2745 58.9409 36.5007 59.0146C37.3113 59.268 40.6419 59.646 41.6583 60.003L42.5417 62.2304C39.0543 63.1124 34.4049 63.1838 31.6105 63.0536C30.91 62.9993 30.2279 62.803 29.6057 62.4768C29.4243 62.3837 29.2633 62.2556 29.1318 62.0998C29.0004 61.944 28.9012 61.7636 28.84 61.5692C28.7788 61.3747 28.7568 61.1701 28.7753 60.9671C28.7938 60.7641 28.8524 60.5668 28.9477 60.3866L33.9639 50.7266C34.1039 50.4648 35.0839 49.5408 35.3541 49.4316L37.9105 48.1982C38.1841 48.0668 38.4645 47.95 38.7505 47.8482L41.5771 46.9004C41.7913 46.8136 42.4171 46.318 42.3555 46.0926L42.0097 44.68C43.7005 44.0427 45.4845 43.6875 47.2905 43.6286" stroke="#263238" stroke-width="0.953494" stroke-linecap="round" stroke-linejoin="round"/>
<path d="M28.0993 42.7018H25.0739V44.5274H28.0993V42.7018Z" stroke="#263238" stroke-width="0.953494" stroke-linecap="round" stroke-linejoin="round"/>
<path d="M29.4447 45.0552H26.4193V46.8808H29.4447V45.0552Z" stroke="#263238" stroke-width="0.953494" stroke-linecap="round" stroke-linejoin="round"/>
<path d="M77.4899 42.1096H74.4645V43.9352H77.4899V42.1096Z" stroke="#263238" stroke-width="0.953494" stroke-linecap="round" stroke-linejoin="round"/>
<path d="M75.604 44.463H72.5786V46.2886H75.604V44.463Z" stroke="#263238" stroke-width="0.953494" stroke-linecap="round" stroke-linejoin="round"/>
<path d="M32.9979 67.5868H30.4695V68.2672H32.9979V67.5868Z" stroke="#263238" stroke-width="0.953494" stroke-linecap="round" stroke-linejoin="round"/>
<path d="M34.4314 65.3846H31.5964V67.2102H34.4314V65.3846Z" stroke="#263238" stroke-width="0.953494" stroke-linecap="round" stroke-linejoin="round"/>
<path d="M56.655 31.2232V23.5512H75.8966V37.1186H73.0294" stroke="#263238" stroke-width="0.953494" stroke-linecap="round" stroke-linejoin="round"/>
<path d="M56.655 34.0218V32.8696" stroke="#263238" stroke-width="0.953494" stroke-linecap="round" stroke-linejoin="round"/>
<path d="M59.2352 37.1186H56.655V34.7778" stroke="#263238" stroke-width="0.953494" stroke-linecap="round" stroke-linejoin="round"/>
<path d="M61.856 24.9232C61.8571 24.9766 61.8423 25.0291 61.8135 25.0741C61.7846 25.119 61.743 25.1543 61.694 25.1755C61.645 25.1967 61.5908 25.2029 61.5383 25.1931C61.4858 25.1834 61.4374 25.1583 61.3992 25.1209C61.3611 25.0835 61.3349 25.0357 61.3241 24.9834C61.3132 24.9311 61.3182 24.8767 61.3384 24.8273C61.3586 24.7779 61.393 24.7355 61.4373 24.7058C61.4816 24.676 61.5338 24.66 61.5872 24.66C61.6576 24.66 61.7251 24.6876 61.7753 24.7368C61.8256 24.786 61.8546 24.8529 61.856 24.9232Z" stroke="#263238" stroke-width="0.953494" stroke-linecap="round" stroke-linejoin="round"/>
<path d="M66.28 25.213C66.4285 25.213 66.5488 25.0927 66.5488 24.9442C66.5488 24.7958 66.4285 24.6754 66.28 24.6754C66.1316 24.6754 66.0112 24.7958 66.0112 24.9442C66.0112 25.0927 66.1316 25.213 66.28 25.213Z" stroke="#263238" stroke-width="0.953494" stroke-linecap="round" stroke-linejoin="round"/>
<path d="M71.2893 24.9232C71.2904 24.9766 71.2755 25.0291 71.2467 25.0741C71.2178 25.119 71.1763 25.1543 71.1273 25.1755C71.0782 25.1967 71.024 25.2029 70.9715 25.1931C70.919 25.1834 70.8706 25.1583 70.8325 25.1209C70.7943 25.0835 70.7681 25.0357 70.7573 24.9834C70.7465 24.9311 70.7515 24.8767 70.7716 24.8273C70.7918 24.7779 70.8262 24.7355 70.8705 24.7058C70.9149 24.676 70.967 24.66 71.0204 24.66C71.0908 24.66 71.1583 24.6876 71.2086 24.7368C71.2588 24.786 71.2878 24.8529 71.2893 24.9232Z" stroke="#263238" stroke-width="0.953494" stroke-linecap="round" stroke-linejoin="round"/>
<path d="M62.3684 35.2216C62.3128 35.2231 62.2575 35.2133 62.2059 35.1928C62.1542 35.1722 62.1073 35.1413 62.068 35.102C62.0287 35.0627 61.9978 35.0158 61.9772 34.9641C61.9567 34.9125 61.9468 34.8572 61.9484 34.8016L62.08 26.7796C62.094 26.4884 61.9946 26.2336 61.7034 26.2336H61.5046C61.2176 26.2336 60.9852 26.3652 60.9922 26.6536L61.177 34.8128C61.1785 34.8674 61.169 34.9218 61.1491 34.9727C61.1293 35.0236 61.0994 35.07 61.0613 35.1091C61.0232 35.1483 60.9776 35.1794 60.9273 35.2006C60.8769 35.2219 60.8228 35.2328 60.7682 35.2328H60.7402C60.6328 35.2331 60.5299 35.2755 60.4535 35.3509C60.3771 35.4263 60.3332 35.5286 60.3314 35.636L60.2796 39.353C60.2785 39.4484 60.2964 39.5431 60.3324 39.6315C60.3683 39.7199 60.4216 39.8002 60.489 39.8678C60.5564 39.9353 60.6366 39.9887 60.725 40.0249C60.8133 40.061 60.908 40.0791 61.0034 40.0782L62.325 40.0614C62.4199 40.0603 62.5136 40.0403 62.6008 40.0027C62.6879 39.965 62.7666 39.9104 62.8325 39.842C62.8983 39.7736 62.9498 39.6928 62.984 39.6042C63.0183 39.5157 63.0346 39.4213 63.032 39.3264L62.92 35.615C62.9167 35.5068 62.8706 35.4043 62.7919 35.3301C62.7132 35.2558 62.6082 35.2158 62.5 35.2188L62.3684 35.2216Z" stroke="#263238" stroke-width="0.953494" stroke-linecap="round" stroke-linejoin="round"/>
<path d="M61.3282 26.8188C61.3282 26.7717 61.3422 26.7257 61.3684 26.6866C61.3945 26.6474 61.4317 26.6169 61.4752 26.5989C61.5187 26.5809 61.5665 26.5762 61.6127 26.5854C61.6588 26.5946 61.7013 26.6172 61.7345 26.6505C61.7678 26.6838 61.7905 26.7262 61.7997 26.7724C61.8089 26.8185 61.8041 26.8664 61.7861 26.9099C61.7681 26.9534 61.7376 26.9905 61.6985 27.0167C61.6593 27.0429 61.6133 27.0568 61.5662 27.0568C61.5031 27.0568 61.4426 27.0317 61.398 26.9871C61.3533 26.9425 61.3282 26.8819 61.3282 26.8188Z" stroke="#263238" stroke-width="0.953494" stroke-linecap="round" stroke-linejoin="round"/>
<path d="M60.7136 39.031V36.9604" stroke="#263238" stroke-width="0.953494" stroke-linecap="round" stroke-linejoin="round"/>
<path d="M61.1099 39.031V36.9604" stroke="#263238" stroke-width="0.953494" stroke-linecap="round" stroke-linejoin="round"/>
<path d="M61.5635 38.9974L61.5579 36.9618" stroke="#263238" stroke-width="0.953494" stroke-linecap="round" stroke-linejoin="round"/>
<path d="M62.0464 39.024V36.9534" stroke="#263238" stroke-width="0.953494" stroke-linecap="round" stroke-linejoin="round"/>
<path d="M62.5574 39.0184V36.9478" stroke="#263238" stroke-width="0.953494" stroke-linecap="round" stroke-linejoin="round"/>
<path d="M70.7951 26.9462C70.7942 26.8989 70.8075 26.8525 70.8332 26.8127C70.8589 26.773 70.8959 26.7419 70.9394 26.7232C70.9829 26.7046 71.0309 26.6994 71.0774 26.7082C71.1239 26.717 71.1667 26.7395 71.2003 26.7728C71.234 26.806 71.257 26.8485 71.2663 26.8949C71.2757 26.9413 71.271 26.9894 71.2529 27.0331C71.2348 27.0768 71.2041 27.1141 71.1647 27.1403C71.1253 27.1665 71.079 27.1803 71.0317 27.18C70.9695 27.1797 70.91 27.155 70.8658 27.1113C70.8215 27.0676 70.7962 27.0084 70.7951 26.9462Z" stroke="#263238" stroke-width="0.953494" stroke-linecap="round" stroke-linejoin="round"/>
<path d="M71.0793 35.7354L71.5791 26.8412C71.5829 26.7719 71.5725 26.7025 71.5487 26.6374C71.5248 26.5722 71.4879 26.5126 71.4402 26.4621C71.3925 26.4117 71.335 26.3715 71.2713 26.344C71.2076 26.3165 71.1389 26.3023 71.0695 26.3022H70.9771C70.9092 26.3022 70.8419 26.3157 70.7792 26.342C70.7166 26.3683 70.6598 26.4068 70.6123 26.4553C70.5647 26.5038 70.5272 26.5613 70.5021 26.6244C70.477 26.6876 70.4648 26.7551 70.4661 26.823L70.5781 32.1122C70.6033 33.3255 70.6294 34.5421 70.6565 35.762C70.6578 35.8146 70.6457 35.8667 70.6211 35.9132C70.5966 35.9598 70.5606 35.9993 70.5165 36.028C70.1774 36.2644 69.9302 36.6105 69.8165 37.008C69.6564 37.5431 69.6223 38.1081 69.7171 38.6586C69.8193 39.2494 70.2295 39.8948 70.8707 39.983C71.5119 40.0712 71.9543 39.5126 72.1181 38.9652C72.302 38.3857 72.3343 37.7687 72.2119 37.1732C72.1409 36.9017 72.0141 36.6481 71.8395 36.4284C71.682 36.2569 71.4876 36.1233 71.2711 36.0378C71.2112 36.0142 71.1604 35.9722 71.1259 35.9178C71.0914 35.8635 71.0751 35.7996 71.0793 35.7354Z" stroke="#263238" stroke-width="0.953494" stroke-linecap="round" stroke-linejoin="round"/>
<path d="M70.0824 38.5214V37.3328" stroke="#263238" stroke-width="0.953494" stroke-linecap="round" stroke-linejoin="round"/>
<path d="M71.7792 38.5214V37.3328" stroke="#263238" stroke-width="0.953494" stroke-linecap="round" stroke-linejoin="round"/>
<path d="M70.5878 38.7958V37.0304" stroke="#263238" stroke-width="0.953494" stroke-linecap="round" stroke-linejoin="round"/>
<path d="M71.3915 38.7958V37.0304" stroke="#263238" stroke-width="0.953494" stroke-linecap="round" stroke-linejoin="round"/>
<path d="M70.9799 39.3712V36.7588" stroke="#263238" stroke-width="0.953494" stroke-linecap="round" stroke-linejoin="round"/>
<path d="M66.2702 27.1478C66.4017 27.1478 66.5082 27.0413 66.5082 26.9098C66.5082 26.7784 66.4017 26.6718 66.2702 26.6718C66.1388 26.6718 66.0322 26.7784 66.0322 26.9098C66.0322 27.0413 66.1388 27.1478 66.2702 27.1478Z" stroke="#263238" stroke-width="0.953494" stroke-linecap="round" stroke-linejoin="round"/>
<path d="M66.595 34.74L66.9688 26.7292C66.971 26.6606 66.9595 26.5923 66.9348 26.5283C66.9102 26.4643 66.8729 26.4058 66.8253 26.3565C66.7776 26.3071 66.7205 26.2678 66.6574 26.241C66.5943 26.2141 66.5264 26.2002 66.4578 26.2H66.1064C66.037 26.2001 65.9683 26.2143 65.9046 26.2418C65.8408 26.2693 65.7834 26.3095 65.7357 26.3599C65.688 26.4104 65.6511 26.47 65.6272 26.5352C65.6033 26.6004 65.593 26.6697 65.5968 26.739L66.0322 34.8044C66.0364 34.8594 66.0257 34.9145 66.001 34.9638C65.9763 35.0132 65.9387 35.0548 65.8922 35.0844C65.4722 35.349 64.3074 36.2128 64.2794 37.7108C64.2444 39.5434 66.315 40.3582 67.4994 39.6792C68.6614 39.0156 69.4986 36.273 66.77 35.041C66.7133 35.015 66.6661 34.9721 66.6348 34.9182C66.6035 34.8643 66.5896 34.8021 66.595 34.74Z" stroke="#263238" stroke-width="0.953494" stroke-linecap="round" stroke-linejoin="round"/>
<path d="M66.4887 39.1584C66.5598 39.1584 66.6175 39.1008 66.6175 39.0296C66.6175 38.9585 66.5598 38.9008 66.4887 38.9008C66.4175 38.9008 66.3599 38.9585 66.3599 39.0296C66.3599 39.1008 66.4175 39.1584 66.4887 39.1584Z" stroke="#263238" stroke-width="0.953494" stroke-linecap="round" stroke-linejoin="round"/>
<path d="M65.5338 38.7062C65.5319 38.688 65.5338 38.6697 65.5395 38.6524C65.5451 38.635 65.5544 38.6191 65.5666 38.6055C65.5788 38.592 65.5937 38.5812 65.6104 38.5737C65.627 38.5663 65.645 38.5625 65.6633 38.5625C65.6815 38.5625 65.6995 38.5663 65.7162 38.5737C65.7329 38.5812 65.7478 38.592 65.76 38.6055C65.7722 38.6191 65.7814 38.635 65.7871 38.6524C65.7927 38.6697 65.7947 38.688 65.7928 38.7062C65.7894 38.7382 65.7744 38.7679 65.7504 38.7894C65.7265 38.811 65.6955 38.8229 65.6633 38.8229C65.6311 38.8229 65.6 38.811 65.5761 38.7894C65.5522 38.7679 65.5371 38.7382 65.5338 38.7062Z" stroke="#263238" stroke-width="0.953494" stroke-linecap="round" stroke-linejoin="round"/>
<path d="M67.3286 38.835C67.3998 38.835 67.4574 38.7773 67.4574 38.7062C67.4574 38.6351 67.3998 38.5774 67.3286 38.5774C67.2575 38.5774 67.1998 38.6351 67.1998 38.7062C67.1998 38.7773 67.2575 38.835 67.3286 38.835Z" stroke="#263238" stroke-width="0.953494" stroke-linecap="round" stroke-linejoin="round"/>
<path d="M66.4887 38.317C66.5598 38.317 66.6175 38.2593 66.6175 38.1882C66.6175 38.1171 66.5598 38.0594 66.4887 38.0594C66.4175 38.0594 66.3599 38.1171 66.3599 38.1882C66.3599 38.2593 66.4175 38.317 66.4887 38.317Z" stroke="#263238" stroke-width="0.953494" stroke-linecap="round" stroke-linejoin="round"/>
<path d="M65.5338 37.8648C65.5335 37.839 65.5409 37.8137 65.5551 37.7921C65.5692 37.7705 65.5895 37.7536 65.6132 37.7435C65.637 37.7335 65.6632 37.7307 65.6886 37.7355C65.7139 37.7404 65.7372 37.7527 65.7556 37.7709C65.7739 37.789 65.7865 37.8122 65.7916 37.8375C65.7967 37.8628 65.7942 37.889 65.7844 37.9129C65.7746 37.9368 65.7579 37.9572 65.7365 37.9716C65.7151 37.9859 65.6898 37.9936 65.664 37.9936C65.6297 37.9936 65.5968 37.9801 65.5724 37.956C65.5481 37.9319 65.5342 37.8991 65.5338 37.8648Z" stroke="#263238" stroke-width="0.953494" stroke-linecap="round" stroke-linejoin="round"/>
<path d="M67.3286 37.9936C67.3998 37.9936 67.4574 37.936 67.4574 37.8648C67.4574 37.7937 67.3998 37.736 67.3286 37.736C67.2575 37.736 67.1998 37.7937 67.1998 37.8648C67.1998 37.936 67.2575 37.9936 67.3286 37.9936Z" stroke="#263238" stroke-width="0.953494" stroke-linecap="round" stroke-linejoin="round"/>
<path d="M66.4887 37.477C66.5598 37.477 66.6175 37.4194 66.6175 37.3482C66.6175 37.2771 66.5598 37.2194 66.4887 37.2194C66.4175 37.2194 66.3599 37.2771 66.3599 37.3482C66.3599 37.4194 66.4175 37.477 66.4887 37.477Z" stroke="#263238" stroke-width="0.953494" stroke-linecap="round" stroke-linejoin="round"/>
<path d="M65.5338 37.0248C65.5319 37.0067 65.5338 36.9883 65.5395 36.971C65.5451 36.9536 65.5544 36.9377 65.5666 36.9241C65.5788 36.9106 65.5937 36.8998 65.6104 36.8923C65.627 36.8849 65.645 36.8811 65.6633 36.8811C65.6815 36.8811 65.6995 36.8849 65.7162 36.8923C65.7329 36.8998 65.7478 36.9106 65.76 36.9241C65.7722 36.9377 65.7814 36.9536 65.7871 36.971C65.7927 36.9883 65.7947 37.0067 65.7928 37.0248C65.7894 37.0568 65.7744 37.0865 65.7504 37.108C65.7265 37.1296 65.6955 37.1415 65.6633 37.1415C65.6311 37.1415 65.6 37.1296 65.5761 37.108C65.5522 37.0865 65.5371 37.0568 65.5338 37.0248Z" stroke="#263238" stroke-width="0.953494" stroke-linecap="round" stroke-linejoin="round"/>
<path d="M67.3286 37.1536C67.3998 37.1536 67.4574 37.0959 67.4574 37.0248C67.4574 36.9537 67.3998 36.896 67.3286 36.896C67.2575 36.896 67.1998 36.9537 67.1998 37.0248C67.1998 37.0959 67.2575 37.1536 67.3286 37.1536Z" stroke="#263238" stroke-width="0.953494" stroke-linecap="round" stroke-linejoin="round"/>
<path d="M66.4887 36.0532C66.5598 36.0532 66.6175 35.9955 66.6175 35.9244C66.6175 35.8533 66.5598 35.7956 66.4887 35.7956C66.4175 35.7956 66.3599 35.8533 66.3599 35.9244C66.3599 35.9955 66.4175 36.0532 66.4887 36.0532Z" stroke="#263238" stroke-width="0.953494" stroke-linecap="round" stroke-linejoin="round"/>
<path d="M65.5338 36.2478C65.5319 36.266 65.5338 36.2843 65.5395 36.3016C65.5451 36.319 65.5544 36.3349 65.5666 36.3485C65.5788 36.362 65.5937 36.3728 65.6104 36.3803C65.627 36.3877 65.645 36.3915 65.6633 36.3915C65.6815 36.3915 65.6995 36.3877 65.7162 36.3803C65.7329 36.3728 65.7478 36.362 65.76 36.3485C65.7722 36.3349 65.7814 36.319 65.7871 36.3016C65.7927 36.2843 65.7947 36.266 65.7928 36.2478C65.7894 36.2158 65.7744 36.1861 65.7504 36.1646C65.7265 36.143 65.6955 36.1311 65.6633 36.1311C65.6311 36.1311 65.6 36.143 65.5761 36.1646C65.5522 36.1861 65.5371 36.2158 65.5338 36.2478Z" stroke="#263238" stroke-width="0.953494" stroke-linecap="round" stroke-linejoin="round"/>
<path d="M67.3286 36.3766C67.3998 36.3766 67.4574 36.319 67.4574 36.2478C67.4574 36.1767 67.3998 36.119 67.3286 36.119C67.2575 36.119 67.1998 36.1767 67.1998 36.2478C67.1998 36.319 67.2575 36.3766 67.3286 36.3766Z" stroke="#263238" stroke-width="0.953494" stroke-linecap="round" stroke-linejoin="round"/>
</svg>
