<svg width="101" height="100" viewBox="0 0 101 100" fill="none" xmlns="http://www.w3.org/2000/svg">
<rect x="0.800049" width="100" height="100" rx="50" fill="#37E1A0" fill-opacity="0.25"/>
<rect x="15.8" y="15" width="70" height="70" rx="35" fill="white"/>
<g clip-path="url(#clip0_76_135)">
<path d="M79.9776 61.5106C77.065 67.8066 71.9019 74.3352 65.62 75.5894C56.1278 77.4793 53.9668 85.9535 37.7706 82.8295C35.3986 82.3844 33.0842 81.6392 30.8759 80.6094C29.7889 80.0981 28.736 79.5071 27.7248 78.8405C18.763 72.9491 15.041 62.2626 15.9227 51.7636C17.0791 37.9546 26.0408 32.5702 31.8096 29.4943C37.5784 26.4184 45.8059 12.4776 61.7477 15.4C64.1882 15.838 66.5677 16.6031 68.8303 17.6775C74.0094 20.1581 79.0193 24.7393 81.5156 30.7423C81.7035 31.193 81.8793 31.6513 82.0432 32.1175C85.2535 41.2289 83.941 52.9248 79.9776 61.5106Z" fill="#92E3A9"/>
<path opacity="0.8" d="M79.9776 61.5106C77.065 67.8066 71.9019 74.3352 65.62 75.5894C56.1278 77.4793 53.9668 85.9535 37.7706 82.8295C35.3986 82.3844 33.0842 81.6392 30.8759 80.6094C29.7889 80.0981 28.736 79.5071 27.7248 78.8405C18.763 72.9491 15.041 62.2626 15.9227 51.7636C17.0791 37.9546 26.0408 32.5702 31.8096 29.4943C37.5784 26.4184 45.8059 12.4776 61.7477 15.4C64.1882 15.838 66.5677 16.6031 68.8303 17.6775C74.0094 20.1581 79.0193 24.7393 81.5156 30.7423C81.7035 31.193 81.8793 31.6513 82.0432 32.1175C85.2535 41.2289 83.941 52.9248 79.9776 61.5106Z" fill="white"/>
<path opacity="0.3" d="M75.3726 17.6449C75.3726 17.6449 74.2812 15.7302 72.5959 15.8356C70.9105 15.941 70.3149 17.1131 69.8192 17.9643C69.3234 18.8154 69.1239 18.2821 67.8346 17.8573C66.5452 17.4325 65.9555 18.1767 65.6534 18.9208C65.3513 19.665 65.4539 19.1332 64.2643 18.9208C63.0747 18.7084 63.0444 19.4696 62.2812 19.8789C61.6596 20.2123 61.5266 20.2262 60.8357 20.034C59.98 19.7859 59.6996 19.9921 59.5001 20.4185H79.6222C79.6222 20.4185 79.2406 18.7131 78.3487 18.2898C77.4569 17.8666 76.2658 18.7084 75.3726 17.6449Z" stroke="black" stroke-miterlimit="10"/>
<path opacity="0.3" d="M27.975 17.0806C27.975 17.0806 27.3636 16.0139 26.4298 16.0728C25.496 16.1318 25.1607 16.7845 24.8846 17.2573C24.6085 17.7302 24.4972 17.4356 23.7803 17.1984C23.0634 16.9612 22.7381 17.3751 22.5661 17.7906C22.3941 18.2061 22.4548 17.9085 21.7928 17.7906C21.1308 17.6728 21.1135 18.1007 20.6885 18.3224C20.343 18.5085 20.2693 18.5162 19.8863 18.4061C19.4107 18.2666 19.2532 18.3829 19.1433 18.6185H30.3412C30.3412 18.6185 30.1287 17.6713 29.6315 17.4356C29.1342 17.2 28.4722 17.6713 27.975 17.0806Z" stroke="black" stroke-miterlimit="10"/>
<path opacity="0.3" d="M78.515 22.5269C78.515 22.5269 78.1984 21.9719 77.7098 22.0029C77.2213 22.0339 77.0493 22.3719 76.9047 22.623C76.7602 22.8742 76.7038 22.7161 76.3266 22.5936C76.2665 22.5651 76.2015 22.5506 76.1358 22.551C76.0702 22.5514 76.0054 22.5668 75.9457 22.5961C75.886 22.6254 75.8327 22.668 75.7895 22.721C75.7463 22.774 75.714 22.8363 75.6949 22.9037C75.6082 23.1192 75.6371 22.9641 75.2916 22.9037C74.9462 22.8432 74.9375 23.0587 74.7134 23.1812C74.6528 23.2255 74.5827 23.2526 74.5096 23.2599C74.4365 23.2672 74.3629 23.2545 74.2957 23.223C74.0471 23.1517 73.9661 23.2106 73.9083 23.3347H79.7421C79.7421 23.3347 79.6308 22.8416 79.3721 22.7145C79.1134 22.5874 78.7737 22.8354 78.515 22.5269Z" stroke="black" stroke-miterlimit="10"/>
<g opacity="0.3">
<path d="M20.5845 28.0152V49.128H23.1689V75.3584H26.1509V36.2042H31.7187V20.3379H40.666V49.5543H44.0455V37.9313H51.6008V40.4909H58.0634V75.039H60.6479V68.7477H67.706V74.932H71.0869V43.7963H82.5189V73.0127H85.8001" stroke="black" stroke-miterlimit="10"/>
<path d="M18.86 28.0152H20.5844V26.6292H18.688" stroke="black" stroke-miterlimit="10"/>
<path d="M31.7188 36.2042H26.1177V36.9065H31.7188V36.2042Z" stroke="black" stroke-miterlimit="10"/>
<path d="M40.6646 20.3379H31.6913V21.02H40.6646V20.3379Z" stroke="black" stroke-miterlimit="10"/>
<path d="M46.0647 36.4833H44.7581V37.9313H46.0647V36.4833Z" stroke="black" stroke-miterlimit="10"/>
<path d="M49.4616 37.0895H48.8082V37.9298H49.4616V37.0895Z" stroke="black" stroke-miterlimit="10"/>
<path d="M58.0837 40.4909H51.6008V41.3405H58.0837V40.4909Z" stroke="black" stroke-miterlimit="10"/>
<path d="M82.5174 43.1622H71.0868V43.7963H82.5174V43.1622Z" stroke="black" stroke-miterlimit="10"/>
<path d="M78.5541 41.9017H74.024V43.1637H78.5541V41.9017Z" stroke="black" stroke-miterlimit="10"/>
<path d="M77.5957 41.9482V40.7808H80.9058V43.1157" stroke="black" stroke-miterlimit="10"/>
<path d="M55.7795 40.1421V30.702H66.2561V38.5235H69.8611V25.2184H81.4275V41.3111H85.031" stroke="black" stroke-miterlimit="10"/>
<path d="M48.2358 35.4678V25.0386H41.1127" stroke="black" stroke-miterlimit="10"/>
<path d="M25.7736 38.0739H23.4276V30.7919H21.1641" stroke="black" stroke-miterlimit="10"/>
<path d="M33.2942 22.3425H32.3951V24.2308H33.2942V22.3425Z" stroke="black" stroke-miterlimit="10"/>
<path d="M34.9131 22.3425H34.014V24.2308H34.9131V22.3425Z" stroke="black" stroke-miterlimit="10"/>
<path d="M36.532 22.3425H35.6329V24.2308H36.532V22.3425Z" stroke="black" stroke-miterlimit="10"/>
<path d="M38.1509 22.3425H37.2518V24.2308H38.1509V22.3425Z" stroke="black" stroke-miterlimit="10"/>
<path d="M39.7698 22.3425H38.8707V24.2308H39.7698V22.3425Z" stroke="black" stroke-miterlimit="10"/>
<path d="M33.2942 25.5331H32.3951V27.4215H33.2942V25.5331Z" stroke="black" stroke-miterlimit="10"/>
<path d="M34.9131 25.5331H34.014V27.4215H34.9131V25.5331Z" stroke="black" stroke-miterlimit="10"/>
<path d="M36.532 25.5331H35.6329V27.4215H36.532V25.5331Z" stroke="black" stroke-miterlimit="10"/>
<path d="M38.1509 25.5331H37.2518V27.4215H38.1509V25.5331Z" stroke="black" stroke-miterlimit="10"/>
<path d="M39.7698 25.5331H38.8707V27.4215H39.7698V25.5331Z" stroke="black" stroke-miterlimit="10"/>
<path d="M33.2942 28.7253H32.3951V30.6136H33.2942V28.7253Z" stroke="black" stroke-miterlimit="10"/>
<path d="M34.9131 28.7253H34.014V30.6136H34.9131V28.7253Z" stroke="black" stroke-miterlimit="10"/>
<path d="M36.532 28.7253H35.6329V30.6136H36.532V28.7253Z" stroke="black" stroke-miterlimit="10"/>
<path d="M38.1509 28.7253H37.2518V30.6136H38.1509V28.7253Z" stroke="black" stroke-miterlimit="10"/>
<path d="M39.7698 28.7253H38.8707V30.6136H39.7698V28.7253Z" stroke="black" stroke-miterlimit="10"/>
<path d="M33.2942 31.916H32.3951V33.8043H33.2942V31.916Z" stroke="black" stroke-miterlimit="10"/>
<path d="M34.9131 31.916H34.014V33.8043H34.9131V31.916Z" stroke="black" stroke-miterlimit="10"/>
<path d="M36.532 31.916H35.6329V33.8043H36.532V31.916Z" stroke="black" stroke-miterlimit="10"/>
<path d="M38.1509 31.916H37.2518V33.8043H38.1509V31.916Z" stroke="black" stroke-miterlimit="10"/>
<path d="M39.7698 31.916H38.8707V33.8043H39.7698V31.916Z" stroke="black" stroke-miterlimit="10"/>
<path d="M33.2942 35.1081H32.3951V36.9964H33.2942V35.1081Z" stroke="black" stroke-miterlimit="10"/>
<path d="M34.9131 35.1081H34.014V36.9964H34.9131V35.1081Z" stroke="black" stroke-miterlimit="10"/>
<path d="M36.532 35.1081H35.6329V36.9964H36.532V35.1081Z" stroke="black" stroke-miterlimit="10"/>
<path d="M38.1509 35.1081H37.2518V36.9964H38.1509V35.1081Z" stroke="black" stroke-miterlimit="10"/>
<path d="M39.7698 35.1081H38.8707V36.9964H39.7698V35.1081Z" stroke="black" stroke-miterlimit="10"/>
<path d="M33.2942 38.2987H32.3951V40.187H33.2942V38.2987Z" stroke="black" stroke-miterlimit="10"/>
<path d="M34.9131 38.2987H34.014V40.187H34.9131V38.2987Z" stroke="black" stroke-miterlimit="10"/>
<path d="M36.532 38.2987H35.6329V40.187H36.532V38.2987Z" stroke="black" stroke-miterlimit="10"/>
<path d="M38.1509 38.2987H37.2518V40.187H38.1509V38.2987Z" stroke="black" stroke-miterlimit="10"/>
<path d="M39.7698 38.2987H38.8707V40.187H39.7698V38.2987Z" stroke="black" stroke-miterlimit="10"/>
<path d="M27.7741 38.2987H26.875V40.187H27.7741V38.2987Z" stroke="black" stroke-miterlimit="10"/>
<path d="M29.393 38.2987H28.4939V40.187H29.393V38.2987Z" stroke="black" stroke-miterlimit="10"/>
<path d="M31.0133 38.2987H30.1143V40.187H31.0133V38.2987Z" stroke="black" stroke-miterlimit="10"/>
<path d="M27.7741 41.4009H26.875V43.2893H27.7741V41.4009Z" stroke="black" stroke-miterlimit="10"/>
<path d="M29.393 41.4009H28.4939V43.2893H29.393V41.4009Z" stroke="black" stroke-miterlimit="10"/>
<path d="M31.0133 41.4009H30.1143V43.2893H31.0133V41.4009Z" stroke="black" stroke-miterlimit="10"/>
<path d="M27.7741 44.5016H26.875V46.39H27.7741V44.5016Z" stroke="black" stroke-miterlimit="10"/>
<path d="M29.393 44.5016H28.4939V46.39H29.393V44.5016Z" stroke="black" stroke-miterlimit="10"/>
<path d="M31.0133 44.5016H30.1143V46.39H31.0133V44.5016Z" stroke="black" stroke-miterlimit="10"/>
<path d="M27.7741 47.6039H26.875V49.4923H27.7741V47.6039Z" stroke="black" stroke-miterlimit="10"/>
<path d="M29.393 47.6039H28.4939V49.4923H29.393V47.6039Z" stroke="black" stroke-miterlimit="10"/>
<path d="M31.0133 47.6039H30.1143V49.4923H31.0133V47.6039Z" stroke="black" stroke-miterlimit="10"/>
<path d="M27.7741 50.7047H26.875V52.593H27.7741V50.7047Z" stroke="black" stroke-miterlimit="10"/>
<path d="M29.393 50.7047H28.4939V52.593H29.393V50.7047Z" stroke="black" stroke-miterlimit="10"/>
<path d="M31.0133 50.7047H30.1143V52.593H31.0133V50.7047Z" stroke="black" stroke-miterlimit="10"/>
<path d="M27.7741 53.8069H26.875V55.6952H27.7741V53.8069Z" stroke="black" stroke-miterlimit="10"/>
<path d="M29.393 53.8069H28.4939V55.6952H29.393V53.8069Z" stroke="black" stroke-miterlimit="10"/>
<path d="M31.0133 53.8069H30.1143V55.6952H31.0133V53.8069Z" stroke="black" stroke-miterlimit="10"/>
<path d="M27.7741 56.9076H26.875V58.7959H27.7741V56.9076Z" stroke="black" stroke-miterlimit="10"/>
<path d="M29.393 56.9076H28.4939V58.7959H29.393V56.9076Z" stroke="black" stroke-miterlimit="10"/>
<path d="M31.0133 56.9076H30.1143V58.7959H31.0133V56.9076Z" stroke="black" stroke-miterlimit="10"/>
<path d="M27.7741 60.0098H26.875V61.8982H27.7741V60.0098Z" stroke="black" stroke-miterlimit="10"/>
<path d="M29.393 60.0098H28.4939V61.8982H29.393V60.0098Z" stroke="black" stroke-miterlimit="10"/>
<path d="M31.0133 60.0098H30.1143V61.8982H31.0133V60.0098Z" stroke="black" stroke-miterlimit="10"/>
<path d="M27.7741 63.1105H26.875V64.9989H27.7741V63.1105Z" stroke="black" stroke-miterlimit="10"/>
<path d="M29.393 63.1105H28.4939V64.9989H29.393V63.1105Z" stroke="black" stroke-miterlimit="10"/>
<path d="M31.0133 63.1105H30.1143V64.9989H31.0133V63.1105Z" stroke="black" stroke-miterlimit="10"/>
<path d="M27.7741 66.2128H26.875V68.1012H27.7741V66.2128Z" stroke="black" stroke-miterlimit="10"/>
<path d="M29.393 66.2128H28.4939V68.1012H29.393V66.2128Z" stroke="black" stroke-miterlimit="10"/>
<path d="M31.0133 66.2128H30.1143V68.1012H31.0133V66.2128Z" stroke="black" stroke-miterlimit="10"/>
<path d="M27.7741 69.3135H26.875V71.2019H27.7741V69.3135Z" stroke="black" stroke-miterlimit="10"/>
<path d="M29.393 69.3135H28.4939V71.2019H29.393V69.3135Z" stroke="black" stroke-miterlimit="10"/>
<path d="M31.0133 69.3135H30.1143V71.2019H31.0133V69.3135Z" stroke="black" stroke-miterlimit="10"/>
<path d="M42.2097 51.0643H41.3107V52.9527H42.2097V51.0643Z" stroke="black" stroke-miterlimit="10"/>
<path d="M43.8301 51.0643H42.931V52.9527H43.8301V51.0643Z" stroke="black" stroke-miterlimit="10"/>
<path d="M42.2097 54.1666H41.3107V56.0549H42.2097V54.1666Z" stroke="black" stroke-miterlimit="10"/>
<path d="M43.8301 54.1666H42.931V56.0549H43.8301V54.1666Z" stroke="black" stroke-miterlimit="10"/>
<path d="M42.2097 57.2673H41.3107V59.1556H42.2097V57.2673Z" stroke="black" stroke-miterlimit="10"/>
<path d="M43.8301 57.2673H42.931V59.1556H43.8301V57.2673Z" stroke="black" stroke-miterlimit="10"/>
<path d="M42.2097 60.3696H41.3107V62.2579H42.2097V60.3696Z" stroke="black" stroke-miterlimit="10"/>
<path d="M43.8301 60.3696H42.931V62.2579H43.8301V60.3696Z" stroke="black" stroke-miterlimit="10"/>
<path d="M42.2097 63.4703H41.3107V65.3586H42.2097V63.4703Z" stroke="black" stroke-miterlimit="10"/>
<path d="M43.8301 63.4703H42.931V65.3586H43.8301V63.4703Z" stroke="black" stroke-miterlimit="10"/>
<path d="M42.2097 66.5725H41.3107V68.4608H42.2097V66.5725Z" stroke="black" stroke-miterlimit="10"/>
<path d="M43.8301 66.5725H42.931V68.4608H43.8301V66.5725Z" stroke="black" stroke-miterlimit="10"/>
<path d="M42.2097 69.6732H41.3107V71.5615H42.2097V69.6732Z" stroke="black" stroke-miterlimit="10"/>
<path d="M43.8301 69.6732H42.931V71.5615H43.8301V69.6732Z" stroke="black" stroke-miterlimit="10"/>
<path d="M33.2942 41.4909H32.3951V43.3792H33.2942V41.4909Z" stroke="black" stroke-miterlimit="10"/>
<path d="M34.9131 41.4909H34.014V43.3792H34.9131V41.4909Z" stroke="black" stroke-miterlimit="10"/>
<path d="M36.532 41.4909H35.6329V43.3792H36.532V41.4909Z" stroke="black" stroke-miterlimit="10"/>
<path d="M38.1509 41.4909H37.2518V43.3792H38.1509V41.4909Z" stroke="black" stroke-miterlimit="10"/>
<path d="M39.7698 41.4909H38.8707V43.3792H39.7698V41.4909Z" stroke="black" stroke-miterlimit="10"/>
<path d="M33.2942 44.6815H32.3951V46.5698H33.2942V44.6815Z" stroke="black" stroke-miterlimit="10"/>
<path d="M34.9131 44.6815H34.014V46.5698H34.9131V44.6815Z" stroke="black" stroke-miterlimit="10"/>
<path d="M36.532 44.6815H35.6329V46.5698H36.532V44.6815Z" stroke="black" stroke-miterlimit="10"/>
<path d="M38.1509 44.6815H37.2518V46.5698H38.1509V44.6815Z" stroke="black" stroke-miterlimit="10"/>
<path d="M39.7698 44.6815H38.8707V46.5698H39.7698V44.6815Z" stroke="black" stroke-miterlimit="10"/>
<path d="M33.2942 47.8737H32.3951V49.762H33.2942V47.8737Z" stroke="black" stroke-miterlimit="10"/>
<path d="M34.9131 47.8737H34.014V49.762H34.9131V47.8737Z" stroke="black" stroke-miterlimit="10"/>
<path d="M36.532 47.8737H35.6329V49.762H36.532V47.8737Z" stroke="black" stroke-miterlimit="10"/>
<path d="M38.1509 47.8737H37.2518V49.762H38.1509V47.8737Z" stroke="black" stroke-miterlimit="10"/>
<path d="M39.7698 47.8737H38.8707V49.762H39.7698V47.8737Z" stroke="black" stroke-miterlimit="10"/>
<path d="M33.2942 51.0643H32.3951V52.9527H33.2942V51.0643Z" stroke="black" stroke-miterlimit="10"/>
<path d="M34.9131 51.0643H34.014V52.9527H34.9131V51.0643Z" stroke="black" stroke-miterlimit="10"/>
<path d="M36.532 51.0643H35.6329V52.9527H36.532V51.0643Z" stroke="black" stroke-miterlimit="10"/>
<path d="M38.1509 51.0643H37.2518V52.9527H38.1509V51.0643Z" stroke="black" stroke-miterlimit="10"/>
<path d="M39.7698 51.0643H38.8707V52.9527H39.7698V51.0643Z" stroke="black" stroke-miterlimit="10"/>
<path d="M33.2942 54.2565H32.3951V56.1449H33.2942V54.2565Z" stroke="black" stroke-miterlimit="10"/>
<path d="M34.9131 54.2565H34.014V56.1449H34.9131V54.2565Z" stroke="black" stroke-miterlimit="10"/>
<path d="M36.532 54.2565H35.6329V56.1449H36.532V54.2565Z" stroke="black" stroke-miterlimit="10"/>
<path d="M38.1509 54.2565H37.2518V56.1449H38.1509V54.2565Z" stroke="black" stroke-miterlimit="10"/>
<path d="M39.7698 54.2565H38.8707V56.1449H39.7698V54.2565Z" stroke="black" stroke-miterlimit="10"/>
<path d="M33.2942 57.4471H32.3951V59.3355H33.2942V57.4471Z" stroke="black" stroke-miterlimit="10"/>
<path d="M34.9131 57.4471H34.014V59.3355H34.9131V57.4471Z" stroke="black" stroke-miterlimit="10"/>
<path d="M36.532 57.4471H35.6329V59.3355H36.532V57.4471Z" stroke="black" stroke-miterlimit="10"/>
<path d="M38.1509 57.4471H37.2518V59.3355H38.1509V57.4471Z" stroke="black" stroke-miterlimit="10"/>
<path d="M39.7698 57.4471H38.8707V59.3355H39.7698V57.4471Z" stroke="black" stroke-miterlimit="10"/>
<path d="M33.2942 60.6393H32.3951V62.5277H33.2942V60.6393Z" stroke="black" stroke-miterlimit="10"/>
<path d="M34.9131 60.6393H34.014V62.5277H34.9131V60.6393Z" stroke="black" stroke-miterlimit="10"/>
<path d="M36.532 60.6393H35.6329V62.5277H36.532V60.6393Z" stroke="black" stroke-miterlimit="10"/>
<path d="M38.1509 60.6393H37.2518V62.5277H38.1509V60.6393Z" stroke="black" stroke-miterlimit="10"/>
<path d="M39.7698 60.6393H38.8707V62.5277H39.7698V60.6393Z" stroke="black" stroke-miterlimit="10"/>
<path d="M33.2942 63.83H32.3951V65.7183H33.2942V63.83Z" stroke="black" stroke-miterlimit="10"/>
<path d="M34.9131 63.83H34.014V65.7183H34.9131V63.83Z" stroke="black" stroke-miterlimit="10"/>
<path d="M36.532 63.83H35.6329V65.7183H36.532V63.83Z" stroke="black" stroke-miterlimit="10"/>
<path d="M38.1509 63.83H37.2518V65.7183H38.1509V63.83Z" stroke="black" stroke-miterlimit="10"/>
<path d="M39.7698 63.83H38.8707V65.7183H39.7698V63.83Z" stroke="black" stroke-miterlimit="10"/>
<path d="M33.2942 67.0221H32.3951V68.9104H33.2942V67.0221Z" stroke="black" stroke-miterlimit="10"/>
<path d="M34.9131 67.0221H34.014V68.9104H34.9131V67.0221Z" stroke="black" stroke-miterlimit="10"/>
<path d="M36.532 67.0221H35.6329V68.9104H36.532V67.0221Z" stroke="black" stroke-miterlimit="10"/>
<path d="M38.1509 67.0221H37.2518V68.9104H38.1509V67.0221Z" stroke="black" stroke-miterlimit="10"/>
<path d="M39.7698 67.0221H38.8707V68.9104H39.7698V67.0221Z" stroke="black" stroke-miterlimit="10"/>
<path d="M33.2942 70.3027H32.3951V72.191H33.2942V70.3027Z" stroke="black" stroke-miterlimit="10"/>
<path d="M34.9131 70.3027H34.014V72.191H34.9131V70.3027Z" stroke="black" stroke-miterlimit="10"/>
<path d="M36.532 70.3027H35.6329V72.191H36.532V70.3027Z" stroke="black" stroke-miterlimit="10"/>
<path d="M38.1509 70.3027H37.2518V72.191H38.1509V70.3027Z" stroke="black" stroke-miterlimit="10"/>
<path d="M39.7698 70.3027H38.8707V72.191H39.7698V70.3027Z" stroke="black" stroke-miterlimit="10"/>
<path d="M31.7188 36.905V75.3816" stroke="black" stroke-miterlimit="10"/>
<path d="M45.4707 38.7034V74.8421" stroke="black" stroke-miterlimit="10"/>
<path d="M47.2312 38.7034V74.8421" stroke="black" stroke-miterlimit="10"/>
<path d="M48.9904 38.7034V74.8421" stroke="black" stroke-miterlimit="10"/>
<path d="M50.7509 38.7034V74.8421" stroke="black" stroke-miterlimit="10"/>
<path d="M52.5115 42.3002V74.8421" stroke="black" stroke-miterlimit="10"/>
<path d="M54.2705 42.3002V74.8421" stroke="black" stroke-miterlimit="10"/>
<path d="M56.0311 42.3002V74.8421" stroke="black" stroke-miterlimit="10"/>
<path d="M17.5635 30.0741H19.9904" stroke="black" stroke-miterlimit="10"/>
<path d="M17.5635 32.4105H19.9904" stroke="black" stroke-miterlimit="10"/>
<path d="M17.5635 34.7484H19.9904" stroke="black" stroke-miterlimit="10"/>
<path d="M17.5635 37.0848H19.9904" stroke="black" stroke-miterlimit="10"/>
<path d="M17.5635 39.4227H19.9904" stroke="black" stroke-miterlimit="10"/>
<path d="M17.5635 41.7607H19.9904" stroke="black" stroke-miterlimit="10"/>
<path d="M17.5635 44.097H19.9904" stroke="black" stroke-miterlimit="10"/>
<path d="M17.5635 46.435H19.9904" stroke="black" stroke-miterlimit="10"/>
<path d="M17.5635 48.7729H19.9904" stroke="black" stroke-miterlimit="10"/>
<path d="M17.5635 51.1093H19.9904" stroke="black" stroke-miterlimit="10"/>
<path d="M17.5635 53.4473H19.9904" stroke="black" stroke-miterlimit="10"/>
<path d="M17.5635 55.7836H19.9904" stroke="black" stroke-miterlimit="10"/>
<path d="M17.5635 58.1216H19.9904" stroke="black" stroke-miterlimit="10"/>
<path d="M17.5635 60.4595H19.9904" stroke="black" stroke-miterlimit="10"/>
<path d="M17.5635 62.7959H19.9904" stroke="black" stroke-miterlimit="10"/>
<path d="M17.5635 65.1338H19.9904" stroke="black" stroke-miterlimit="10"/>
<path d="M17.5635 67.4717H19.9904" stroke="black" stroke-miterlimit="10"/>
<path d="M17.5635 69.8081H19.9904" stroke="black" stroke-miterlimit="10"/>
<path d="M17.5635 72.146H19.9904" stroke="black" stroke-miterlimit="10"/>
<path d="M17.5635 74.4824H19.9904" stroke="black" stroke-miterlimit="10"/>
<path d="M17.5635 76.8203H19.9904" stroke="black" stroke-miterlimit="10"/>
<path d="M82.0129 44.7265H71.4525V45.8055H82.0129V44.7265Z" stroke="black" stroke-miterlimit="10"/>
<path d="M82.0129 46.6148H71.4525V47.6939H82.0129V46.6148Z" stroke="black" stroke-miterlimit="10"/>
<path d="M82.0129 48.5032H71.4525V49.5822H82.0129V48.5032Z" stroke="black" stroke-miterlimit="10"/>
<path d="M82.0129 50.39H71.4525V51.469H82.0129V50.39Z" stroke="black" stroke-miterlimit="10"/>
<path d="M82.0129 52.2783H71.4525V53.3573H82.0129V52.2783Z" stroke="black" stroke-miterlimit="10"/>
<path d="M82.0129 54.1666H71.4525V55.2457H82.0129V54.1666Z" stroke="black" stroke-miterlimit="10"/>
<path d="M82.0129 56.0533H71.4525V57.1324H82.0129V56.0533Z" stroke="black" stroke-miterlimit="10"/>
<path d="M82.0129 57.9417H71.4525V59.0208H82.0129V57.9417Z" stroke="black" stroke-miterlimit="10"/>
<path d="M82.0129 59.83H71.4525V60.9091H82.0129V59.83Z" stroke="black" stroke-miterlimit="10"/>
<path d="M82.0129 61.7168H71.4525V62.7958H82.0129V61.7168Z" stroke="black" stroke-miterlimit="10"/>
<path d="M82.0129 63.6052H71.4525V64.6842H82.0129V63.6052Z" stroke="black" stroke-miterlimit="10"/>
<path d="M82.0129 65.4935H71.4525V66.5725H82.0129V65.4935Z" stroke="black" stroke-miterlimit="10"/>
<path d="M82.0129 67.3818H71.4525V68.4609H82.0129V67.3818Z" stroke="black" stroke-miterlimit="10"/>
<path d="M82.0129 69.2686H71.4525V70.3477H82.0129V69.2686Z" stroke="black" stroke-miterlimit="10"/>
<path d="M82.0129 71.1569H71.4525V72.236H82.0129V71.1569Z" stroke="black" stroke-miterlimit="10"/>
<path d="M82.0129 73.0453H71.4525V74.1243H82.0129V73.0453Z" stroke="black" stroke-miterlimit="10"/>
<path d="M82.0129 74.932H71.4525V76.0111H82.0129V74.932Z" stroke="black" stroke-miterlimit="10"/>
<path d="M66.9268 65.7632H61.6466V68.7306H66.9268V65.7632Z" stroke="black" stroke-miterlimit="10"/>
<path d="M65.6708 60.5494H62.9042V65.7632H65.6708V60.5494Z" stroke="black" stroke-miterlimit="10"/>
<path d="M40.666 49.5543V75.3103" stroke="black" stroke-miterlimit="10"/>
<path d="M70.9943 46.7311H58.1732" stroke="black" stroke-miterlimit="10"/>
<path d="M70.9943 48.2675H58.1732" stroke="black" stroke-miterlimit="10"/>
<path d="M60.7013 49.421H58.7456V50.9574H60.7013V49.421Z" stroke="black" stroke-miterlimit="10"/>
<path d="M63.1138 49.421H61.1581V50.9574H63.1138V49.421Z" stroke="black" stroke-miterlimit="10"/>
<path d="M65.5248 49.421H63.5691V50.9574H65.5248V49.421Z" stroke="black" stroke-miterlimit="10"/>
<path d="M67.9371 49.421H65.9814V50.9574H67.9371V49.421Z" stroke="black" stroke-miterlimit="10"/>
<path d="M70.3496 49.421H68.3939V50.9574H70.3496V49.421Z" stroke="black" stroke-miterlimit="10"/>
<path d="M60.7013 51.8023H58.7456V53.3387H60.7013V51.8023Z" stroke="black" stroke-miterlimit="10"/>
<path d="M63.1138 51.8023H61.1581V53.3387H63.1138V51.8023Z" stroke="black" stroke-miterlimit="10"/>
<path d="M65.5248 51.8023H63.5691V53.3387H65.5248V51.8023Z" stroke="black" stroke-miterlimit="10"/>
<path d="M67.9371 51.8023H65.9814V53.3387H67.9371V51.8023Z" stroke="black" stroke-miterlimit="10"/>
<path d="M70.3496 51.8023H68.3939V53.3387H70.3496V51.8023Z" stroke="black" stroke-miterlimit="10"/>
<path d="M60.7013 54.1837H58.7456V55.7201H60.7013V54.1837Z" stroke="black" stroke-miterlimit="10"/>
<path d="M63.1138 54.1837H61.1581V55.7201H63.1138V54.1837Z" stroke="black" stroke-miterlimit="10"/>
<path d="M65.5248 54.1837H63.5691V55.7201H65.5248V54.1837Z" stroke="black" stroke-miterlimit="10"/>
<path d="M67.9371 54.1837H65.9814V55.7201H67.9371V54.1837Z" stroke="black" stroke-miterlimit="10"/>
<path d="M70.3496 54.1837H68.3939V55.7201H70.3496V54.1837Z" stroke="black" stroke-miterlimit="10"/>
<path d="M60.7013 58.4859H58.7456V60.0223H60.7013V58.4859Z" stroke="black" stroke-miterlimit="10"/>
<path d="M63.1138 58.4859H61.1581V60.0223H63.1138V58.4859Z" stroke="black" stroke-miterlimit="10"/>
<path d="M65.5248 58.4859H63.5691V60.0223H65.5248V58.4859Z" stroke="black" stroke-miterlimit="10"/>
<path d="M67.9371 58.4859H65.9814V60.0223H67.9371V58.4859Z" stroke="black" stroke-miterlimit="10"/>
<path d="M70.3496 58.4859H68.3939V60.0223H70.3496V58.4859Z" stroke="black" stroke-miterlimit="10"/>
</g>
<path d="M39.7307 62.9927H23.4796V65.2438H39.7307V62.9927Z" fill="#D4D4D4" stroke="#263238" stroke-linecap="round" stroke-linejoin="round"/>
<path d="M39.1959 84.8899V65.2438H24.0159V84.8899" fill="#D4D4D4"/>
<path d="M39.1959 84.8899V65.2438H24.0159V84.8899" stroke="#263238" stroke-linecap="round" stroke-linejoin="round"/>
<path d="M25.629 66.743C25.6293 66.7913 25.6162 66.8386 25.5914 66.8788C25.5666 66.9191 25.5311 66.9505 25.4896 66.9691C25.4481 66.9878 25.4023 66.9927 25.3582 66.9834C25.314 66.974 25.2735 66.9508 25.2416 66.9167C25.2098 66.8825 25.1882 66.839 25.1795 66.7917C25.1708 66.7443 25.1754 66.6952 25.1927 66.6507C25.2101 66.6062 25.2394 66.5682 25.2769 66.5415C25.3145 66.5149 25.3585 66.5009 25.4035 66.5012C25.4634 66.5012 25.5207 66.5266 25.563 66.572C25.6053 66.6174 25.629 66.6789 25.629 66.743Z" fill="#263238"/>
<path d="M27.894 67.3818C28.0298 67.3818 28.1398 67.2638 28.1398 67.1182C28.1398 66.9727 28.0298 66.8547 27.894 66.8547C27.7583 66.8547 27.6483 66.9727 27.6483 67.1182C27.6483 67.2638 27.7583 67.3818 27.894 67.3818Z" fill="#263238"/>
<path d="M25.9831 68.6158C26.0398 68.6158 26.0857 68.5666 26.0857 68.5058C26.0857 68.445 26.0398 68.3957 25.9831 68.3957C25.9264 68.3957 25.8805 68.445 25.8805 68.5058C25.8805 68.5666 25.9264 68.6158 25.9831 68.6158Z" fill="#263238"/>
<path d="M27.6267 69.8484C27.6834 69.8484 27.7293 69.7991 27.7293 69.7383C27.7293 69.6775 27.6834 69.6282 27.6267 69.6282C27.57 69.6282 27.524 69.6775 27.524 69.7383C27.524 69.7991 27.57 69.8484 27.6267 69.8484Z" fill="#263238"/>
<path d="M26.6206 72.3817C26.6206 72.4209 26.6098 72.4593 26.5895 72.4919C26.5691 72.5246 26.5402 72.55 26.5064 72.565C26.4726 72.58 26.4354 72.584 26.3995 72.5763C26.3636 72.5686 26.3307 72.5497 26.3048 72.522C26.2789 72.4942 26.2613 72.4589 26.2542 72.4204C26.247 72.3819 26.2507 72.342 26.2647 72.3057C26.2787 72.2695 26.3024 72.2385 26.3328 72.2167C26.3633 72.1949 26.399 72.1832 26.4356 72.1832C26.4847 72.1832 26.5318 72.2041 26.5665 72.2414C26.6012 72.2786 26.6206 72.329 26.6206 72.3817Z" fill="#263238"/>
<path d="M29.1256 71.5662C29.1258 71.5778 29.1238 71.5894 29.1197 71.6002C29.1157 71.6111 29.1096 71.6209 29.1019 71.6291C29.0942 71.6374 29.0851 71.6439 29.075 71.6482C29.0649 71.6526 29.0541 71.6548 29.0432 71.6545C29.0316 71.6562 29.0198 71.6552 29.0085 71.6515C28.9973 71.6479 28.9869 71.6417 28.9781 71.6334C28.9692 71.6251 28.9622 71.6149 28.9573 71.6035C28.9525 71.592 28.95 71.5795 28.95 71.5669C28.95 71.5544 28.9525 71.5419 28.9573 71.5304C28.9622 71.519 28.9692 71.5088 28.9781 71.5005C28.9869 71.4922 28.9973 71.486 29.0085 71.4824C29.0198 71.4787 29.0316 71.4777 29.0432 71.4794C29.054 71.4791 29.0647 71.4812 29.0746 71.4855C29.0846 71.4898 29.0937 71.4961 29.1014 71.5042C29.1091 71.5123 29.1152 71.522 29.1193 71.5326C29.1235 71.5432 29.1256 71.5546 29.1256 71.5662Z" fill="#263238"/>
<path d="M33.6743 67.836C33.8843 67.836 34.0545 67.6534 34.0545 67.4283C34.0545 67.2031 33.8843 67.0205 33.6743 67.0205C33.4644 67.0205 33.2942 67.2031 33.2942 67.4283C33.2942 67.6534 33.4644 67.836 33.6743 67.836Z" fill="#263238"/>
<path d="M27.3636 77.1831C27.3636 77.2223 27.3527 77.2607 27.3324 77.2933C27.3121 77.3259 27.2832 77.3514 27.2493 77.3664C27.2155 77.3814 27.1783 77.3854 27.1425 77.3777C27.1066 77.37 27.0736 77.3511 27.0477 77.3234C27.0218 77.2956 27.0042 77.2603 26.9971 77.2218C26.9899 77.1833 26.9936 77.1434 27.0076 77.1071C27.0216 77.0709 27.0453 77.0399 27.0758 77.0181C27.1062 76.9963 27.142 76.9846 27.1785 76.9846C27.2276 76.9846 27.2747 77.0055 27.3094 77.0427C27.3441 77.08 27.3636 77.1304 27.3636 77.1831Z" fill="#263238"/>
<path d="M29.1255 77.4917C29.1255 77.5309 29.1147 77.5693 29.0943 77.6019C29.074 77.6345 29.0451 77.66 29.0113 77.675C28.9775 77.69 28.9403 77.694 28.9044 77.6863C28.8685 77.6786 28.8356 77.6597 28.8097 77.632C28.7838 77.6042 28.7662 77.5689 28.759 77.5304C28.7519 77.4919 28.7556 77.452 28.7696 77.4157C28.7836 77.3795 28.8073 77.3485 28.8377 77.3267C28.8681 77.3049 28.9039 77.2932 28.9405 77.2932C28.9896 77.2932 29.0366 77.3141 29.0713 77.3513C29.106 77.3886 29.1255 77.439 29.1255 77.4917Z" fill="#263238"/>
<path d="M25.0595 63.726C25.0598 63.7611 25.0504 63.7955 25.0324 63.8248C25.0144 63.8541 24.9887 63.877 24.9585 63.8906C24.9283 63.9041 24.8951 63.9078 24.863 63.901C24.8309 63.8942 24.8014 63.8774 24.7782 63.8526C24.7551 63.8277 24.7394 63.7961 24.7331 63.7617C24.7268 63.7273 24.7302 63.6916 24.7428 63.6592C24.7555 63.6269 24.7768 63.5993 24.8041 63.58C24.8314 63.5607 24.8635 63.5505 24.8962 63.5508C24.9394 63.5513 24.9807 63.5698 25.0113 63.6026C25.0418 63.6354 25.0592 63.6797 25.0595 63.726Z" fill="#263238"/>
<path d="M26.4356 64.1229C26.4923 64.1229 26.5383 64.0736 26.5383 64.0128C26.5383 63.9521 26.4923 63.9028 26.4356 63.9028C26.379 63.9028 26.333 63.9521 26.333 64.0128C26.333 64.0736 26.379 64.1229 26.4356 64.1229Z" fill="#263238"/>
<path d="M28.2221 63.771C28.2221 63.7883 28.2189 63.8054 28.2128 63.8214C28.2066 63.8374 28.1975 63.8519 28.1861 63.8642C28.1747 63.8764 28.1612 63.8861 28.1463 63.8927C28.1314 63.8994 28.1154 63.9028 28.0993 63.9028C28.0745 63.9031 28.0503 63.8955 28.0297 63.8809C28.009 63.8664 27.9928 63.8456 27.9833 63.8212C27.9737 63.7967 27.9711 63.7698 27.9758 63.7438C27.9806 63.7178 27.9924 63.6939 28.0099 63.6752C28.0274 63.6564 28.0497 63.6437 28.0739 63.6386C28.0982 63.6335 28.1233 63.6363 28.1461 63.6466C28.1688 63.6568 28.1882 63.6742 28.2018 63.6963C28.2153 63.7185 28.2224 63.7445 28.2221 63.771Z" fill="#263238"/>
<path d="M27.6887 64.6733C27.6887 64.7039 27.6803 64.7339 27.6644 64.7594C27.6485 64.7849 27.6259 64.8048 27.5995 64.8165C27.5731 64.8283 27.544 64.8313 27.516 64.8253C27.488 64.8194 27.4622 64.8046 27.442 64.7829C27.4218 64.7612 27.408 64.7336 27.4024 64.7035C27.3969 64.6735 27.3997 64.6423 27.4107 64.614C27.4216 64.5856 27.4401 64.5614 27.4639 64.5444C27.4877 64.5273 27.5156 64.5182 27.5442 64.5182C27.5825 64.5182 27.6193 64.5346 27.6464 64.5637C27.6735 64.5927 27.6887 64.6322 27.6887 64.6733Z" fill="#263238"/>
<path d="M37.1752 80.7738C37.3341 80.7738 37.4629 80.6357 37.4629 80.4653C37.4629 80.2949 37.3341 80.1567 37.1752 80.1567C37.0164 80.1567 36.8876 80.2949 36.8876 80.4653C36.8876 80.6357 37.0164 80.7738 37.1752 80.7738Z" fill="#263238"/>
<path d="M37.3805 67.9337C37.3805 67.9644 37.372 67.9944 37.3562 68.0199C37.3403 68.0454 37.3177 68.0652 37.2913 68.077C37.2649 68.0887 37.2358 68.0918 37.2078 68.0858C37.1797 68.0798 37.154 68.065 37.1338 68.0434C37.1136 68.0217 37.0998 67.994 37.0942 67.964C37.0886 67.9339 37.0915 67.9027 37.1024 67.8744C37.1134 67.8461 37.1319 67.8219 37.1557 67.8048C37.1794 67.7878 37.2074 67.7787 37.236 67.7787C37.2743 67.7787 37.3111 67.795 37.3382 67.8241C37.3653 67.8532 37.3805 67.8926 37.3805 67.9337Z" fill="#263238"/>
<path d="M37.7288 66.5895C37.7855 66.5895 37.8315 66.5403 37.8315 66.4795C37.8315 66.4187 37.7855 66.3694 37.7288 66.3694C37.6722 66.3694 37.6262 66.4187 37.6262 66.4795C37.6262 66.5403 37.6722 66.5895 37.7288 66.5895Z" fill="#263238"/>
<path d="M32.2058 79.7381C32.2058 79.7774 32.195 79.8157 32.1747 79.8484C32.1543 79.881 32.1254 79.9064 32.0916 79.9215C32.0578 79.9365 32.0206 79.9404 31.9847 79.9327C31.9488 79.9251 31.9159 79.9062 31.89 79.8784C31.8641 79.8507 31.8465 79.8153 31.8394 79.7768C31.8322 79.7383 31.8359 79.6984 31.8499 79.6622C31.8639 79.6259 31.8876 79.5949 31.918 79.5731C31.9485 79.5513 31.9842 79.5397 32.0208 79.5397C32.0699 79.5397 32.117 79.5606 32.1517 79.5978C32.1864 79.635 32.2058 79.6855 32.2058 79.7381Z" fill="#263238"/>
<path d="M25.8805 81.3676C25.8805 81.3982 25.872 81.4282 25.8562 81.4537C25.8403 81.4792 25.8177 81.4991 25.7913 81.5108C25.7649 81.5225 25.7358 81.5256 25.7078 81.5196C25.6797 81.5136 25.654 81.4989 25.6338 81.4772C25.6136 81.4555 25.5998 81.4279 25.5942 81.3978C25.5886 81.3677 25.5915 81.3366 25.6024 81.3082C25.6134 81.2799 25.6319 81.2557 25.6557 81.2387C25.6794 81.2216 25.7074 81.2125 25.736 81.2125C25.7743 81.2125 25.8111 81.2289 25.8382 81.2579C25.8653 81.287 25.8805 81.3264 25.8805 81.3676Z" fill="#263238"/>
<path d="M78.1667 62.9927H61.9155V65.2438H78.1667V62.9927Z" fill="#D4D4D4" stroke="#263238" stroke-linecap="round" stroke-linejoin="round"/>
<path d="M77.6304 84.8899V65.2438H62.4518V84.8899" fill="#D4D4D4"/>
<path d="M77.6304 84.8899V65.2438H62.4518V84.8899" stroke="#263238" stroke-linecap="round" stroke-linejoin="round"/>
<path d="M65.0117 66.8283C65.012 66.8765 64.9989 66.9237 64.9742 66.9639C64.9494 67.0042 64.9141 67.0356 64.8726 67.0543C64.8312 67.0729 64.7855 67.078 64.7414 67.0687C64.6973 67.0595 64.6567 67.0365 64.6248 67.0025C64.593 66.9685 64.5712 66.9252 64.5623 66.8779C64.5535 66.8306 64.5579 66.7816 64.575 66.737C64.5921 66.6925 64.6212 66.6544 64.6586 66.6276C64.6959 66.6007 64.7398 66.5864 64.7848 66.5864C64.8447 66.5864 64.9022 66.6119 64.9447 66.6572C64.9873 66.7025 65.0113 66.764 65.0117 66.8283Z" fill="#263238"/>
<path d="M65.162 70.639C65.162 70.6872 65.1487 70.7342 65.1238 70.7743C65.0988 70.8143 65.0634 70.8455 65.0219 70.8639C64.9804 70.8823 64.9348 70.8872 64.8908 70.8778C64.8468 70.8684 64.8063 70.8452 64.7746 70.8112C64.7429 70.7771 64.7212 70.7337 64.7125 70.6865C64.7037 70.6393 64.7082 70.5904 64.7254 70.5459C64.7426 70.5014 64.7717 70.4634 64.809 70.4367C64.8463 70.4099 64.8902 70.3956 64.9351 70.3956C64.9649 70.3954 64.9945 70.4016 65.0221 70.4137C65.0498 70.4259 65.0748 70.4438 65.096 70.4665C65.1171 70.4891 65.1338 70.516 65.1451 70.5457C65.1565 70.5753 65.1622 70.607 65.162 70.639Z" fill="#263238"/>
<path d="M68.5256 71.0437C68.5879 71.0437 68.6383 70.9895 68.6383 70.9227C68.6383 70.856 68.5879 70.8018 68.5256 70.8018C68.4633 70.8018 68.4128 70.856 68.4128 70.9227C68.4128 70.9895 68.4633 71.0437 68.5256 71.0437Z" fill="#263238"/>
<path d="M75.137 80.2016C75.1993 80.2016 75.2498 80.1474 75.2498 80.0806C75.2498 80.0139 75.1993 79.9597 75.137 79.9597C75.0748 79.9597 75.0243 80.0139 75.0243 80.0806C75.0243 80.1474 75.0748 80.2016 75.137 80.2016Z" fill="#263238"/>
<path d="M75.7413 68.4096C75.7413 68.4657 75.7258 68.5206 75.6967 68.5673C75.6677 68.6139 75.6264 68.6503 75.578 68.6717C75.5297 68.6932 75.4765 68.6988 75.4252 68.6879C75.3739 68.6769 75.3268 68.6499 75.2898 68.6102C75.2528 68.5706 75.2276 68.52 75.2174 68.465C75.2072 68.4099 75.2124 68.3529 75.2324 68.3011C75.2524 68.2492 75.2863 68.2049 75.3298 68.1737C75.3733 68.1426 75.4245 68.1259 75.4768 68.1259C75.5469 68.1259 75.6142 68.1558 75.6638 68.209C75.7134 68.2622 75.7413 68.3344 75.7413 68.4096Z" fill="#263238"/>
<path d="M74.0414 66.7477C74.146 66.7477 74.2308 66.6568 74.2308 66.5446C74.2308 66.4324 74.146 66.3415 74.0414 66.3415C73.9368 66.3415 73.8521 66.4324 73.8521 66.5446C73.8521 66.6568 73.9368 66.7477 74.0414 66.7477Z" fill="#263238"/>
<path d="M70.2095 64.478C70.3021 64.478 70.3772 64.3975 70.3772 64.2981C70.3772 64.1988 70.3021 64.1183 70.2095 64.1183C70.1169 64.1183 70.0419 64.1988 70.0419 64.2981C70.0419 64.3975 70.1169 64.478 70.2095 64.478Z" fill="#263238"/>
<path d="M73.8145 64.4795C73.9191 64.4795 74.0038 64.3886 74.0038 64.2764C74.0038 64.1642 73.9191 64.0733 73.8145 64.0733C73.7099 64.0733 73.6251 64.1642 73.6251 64.2764C73.6251 64.3886 73.7099 64.4795 73.8145 64.4795Z" fill="#263238"/>
<path d="M67.5051 64.9648C67.6305 64.9648 67.7321 64.8558 67.7321 64.7214C67.7321 64.5869 67.6305 64.478 67.5051 64.478C67.3798 64.478 67.2782 64.5869 67.2782 64.7214C67.2782 64.8558 67.3798 64.9648 67.5051 64.9648Z" fill="#263238"/>
<path d="M72.3039 74.2049C72.45 74.2049 72.5685 74.0779 72.5685 73.9212C72.5685 73.7645 72.45 73.6375 72.3039 73.6375C72.1579 73.6375 72.0394 73.7645 72.0394 73.9212C72.0394 74.0779 72.1579 74.2049 72.3039 74.2049Z" fill="#263238"/>
<path d="M65.0117 77.4064C65.0117 77.4625 64.9962 77.5174 64.9671 77.564C64.9381 77.6107 64.8967 77.647 64.8484 77.6685C64.8001 77.69 64.7469 77.6956 64.6956 77.6847C64.6443 77.6737 64.5971 77.6467 64.5601 77.607C64.5231 77.5673 64.498 77.5168 64.4877 77.4617C64.4775 77.4067 64.4828 77.3497 64.5028 77.2978C64.5228 77.246 64.5567 77.2017 64.6002 77.1705C64.6437 77.1393 64.6949 77.1227 64.7472 77.1227C64.8173 77.1227 64.8846 77.1526 64.9342 77.2058C64.9838 77.259 65.0117 77.3311 65.0117 77.4064Z" fill="#263238"/>
<path d="M63.8019 81.4993C63.9272 81.4993 64.0288 81.3903 64.0288 81.2559C64.0288 81.1214 63.9272 81.0125 63.8019 81.0125C63.6766 81.0125 63.575 81.1214 63.575 81.2559C63.575 81.3903 63.6766 81.4993 63.8019 81.4993Z" fill="#263238"/>
<path d="M67.2782 80.6078C67.4035 80.6078 67.5051 80.4988 67.5051 80.3644C67.5051 80.2299 67.4035 80.121 67.2782 80.121C67.1529 80.121 67.0513 80.2299 67.0513 80.3644C67.0513 80.4988 67.1529 80.6078 67.2782 80.6078Z" fill="#263238"/>
<path d="M66.2201 81.8202C66.2201 81.8683 66.2068 81.9154 66.1819 81.9554C66.1569 81.9954 66.1215 82.0266 66.08 82.0451C66.0385 82.0635 65.9929 82.0683 65.9489 82.0589C65.9049 82.0495 65.8644 82.0263 65.8327 81.9923C65.801 81.9583 65.7794 81.9149 65.7706 81.8677C65.7618 81.8205 65.7663 81.7715 65.7835 81.727C65.8007 81.6826 65.8298 81.6445 65.8671 81.6178C65.9044 81.5911 65.9483 81.5768 65.9932 81.5768C66.0534 81.5768 66.1111 81.6024 66.1536 81.6481C66.1962 81.6937 66.2201 81.7556 66.2201 81.8202Z" fill="#263238"/>
<path d="M67.3158 77.1226C67.4204 77.1226 67.5052 77.0317 67.5052 76.9195C67.5052 76.8074 67.4204 76.7164 67.3158 76.7164C67.2112 76.7164 67.1265 76.8074 67.1265 76.9195C67.1265 77.0317 67.2112 77.1226 67.3158 77.1226Z" fill="#263238"/>
<path d="M76.9511 76.1506C76.9511 76.2628 76.9201 76.3725 76.862 76.4658C76.8038 76.5591 76.7212 76.6319 76.6246 76.6748C76.5279 76.7177 76.4215 76.729 76.3189 76.7071C76.2163 76.6852 76.122 76.6311 76.048 76.5518C75.974 76.4724 75.9236 76.3713 75.9032 76.2613C75.8828 76.1512 75.8933 76.0371 75.9333 75.9334C75.9734 75.8297 76.0412 75.7411 76.1282 75.6788C76.2152 75.6164 76.3175 75.5831 76.4221 75.5831C76.5624 75.5831 76.697 75.6429 76.7962 75.7493C76.8954 75.8557 76.9511 76.0001 76.9511 76.1506Z" fill="#263238"/>
<path d="M76.0448 74.732C76.0448 74.8043 76.0248 74.8751 75.9873 74.9352C75.9498 74.9954 75.8965 75.0423 75.8342 75.07C75.7719 75.0977 75.7033 75.1049 75.6371 75.0908C75.5709 75.0767 75.5102 75.0419 75.4625 74.9907C75.4148 74.9395 75.3823 74.8743 75.3691 74.8034C75.3559 74.7324 75.3627 74.6588 75.3885 74.592C75.4143 74.5251 75.4581 74.468 75.5142 74.4277C75.5703 74.3875 75.6362 74.3661 75.7037 74.3661C75.7941 74.3661 75.8809 74.4046 75.9449 74.4733C76.0089 74.5419 76.0448 74.6349 76.0448 74.732Z" fill="#263238"/>
<path d="M75.2889 70.3956C75.3727 70.3956 75.4406 70.3228 75.4406 70.2329C75.4406 70.143 75.3727 70.0701 75.2889 70.0701C75.205 70.0701 75.1371 70.143 75.1371 70.2329C75.1371 70.3228 75.205 70.3956 75.2889 70.3956Z" fill="#263238"/>
<path d="M73.0976 80.6078C73.1814 80.6078 73.2493 80.5349 73.2493 80.445C73.2493 80.3551 73.1814 80.2822 73.0976 80.2822C73.0137 80.2822 72.9458 80.3551 72.9458 80.445C72.9458 80.5349 73.0137 80.6078 73.0976 80.6078Z" fill="#263238"/>
<path d="M64.104 74.0436C64.1879 74.0436 64.2558 73.9707 64.2558 73.8808C64.2558 73.7909 64.1879 73.718 64.104 73.718C64.0202 73.718 63.9523 73.7909 63.9523 73.8808C63.9523 73.9707 64.0202 74.0436 64.104 74.0436Z" fill="#263238"/>
<path d="M39.2683 66.4469H62.4605" stroke="#263238" stroke-width="5" stroke-linejoin="round"/>
<path d="M39.2683 73.2855H62.4605" stroke="#263238" stroke-width="5" stroke-linejoin="round"/>
<path d="M39.2683 80.1226H62.4605" stroke="#263238" stroke-width="5" stroke-linejoin="round"/>
<path d="M50.8651 66.5058V82.8202" stroke="#263238" stroke-width="5" stroke-linejoin="round"/>
<path d="M77.7648 66.4469H83.7981" stroke="#263238" stroke-width="5" stroke-linejoin="round"/>
<path d="M77.7648 73.2855H83.7981" stroke="#263238" stroke-width="5" stroke-linejoin="round"/>
<path d="M77.7648 80.1226H83.7981" stroke="#263238" stroke-width="5" stroke-linejoin="round"/>
<path d="M18.0072 66.4469H24.0419" stroke="#263238" stroke-width="5" stroke-linejoin="round"/>
<path d="M18.0072 73.2855H24.0419" stroke="#263238" stroke-width="5" stroke-linejoin="round"/>
<path d="M18.0072 80.1226H24.0419" stroke="#263238" stroke-width="5" stroke-linejoin="round"/>
<path d="M72.1594 78.0219C72.3632 78.1165 72.8605 78.1056 72.8619 78.1056C72.8634 78.1056 72.7549 77.7553 72.7448 77.7351C72.6364 77.4886 72.291 77.084 72.0091 77.1258C71.9626 77.134 71.9183 77.1526 71.8789 77.1803C71.8396 77.2081 71.8062 77.2445 71.7808 77.287C71.7555 77.3296 71.7387 77.3774 71.7317 77.4274C71.7248 77.4773 71.7277 77.5283 71.7402 77.577C71.776 77.6792 71.8319 77.772 71.9043 77.8488C71.9767 77.9256 72.0637 77.9847 72.1594 78.0219Z" fill="#263238"/>
<path d="M72.3315 79.5676C72.5425 79.6017 72.9863 79.4622 73.0224 79.4513C73.095 79.7242 73.1849 79.9915 73.2912 80.2513C73.3534 80.4063 73.4184 80.5536 73.4864 80.704L73.404 80.5769C73.2378 80.3707 72.8056 80.0792 72.544 80.197C72.5016 80.2186 72.4639 80.2495 72.4332 80.2876C72.4026 80.3258 72.3798 80.3704 72.3662 80.4185C72.3526 80.4667 72.3485 80.5174 72.3542 80.5674C72.3599 80.6173 72.3753 80.6654 72.3994 80.7086C72.4588 80.7976 72.5357 80.8714 72.6246 80.925C72.7135 80.9786 72.8123 81.0106 72.914 81.0187C73.142 81.02 73.3688 80.9829 73.5861 80.9086L73.6642 81.0807C73.7928 81.3551 73.9229 81.6296 74.0429 81.9024C74.0848 81.9985 74.1224 82.0947 74.1614 82.1908L74.0891 82.0792C73.9229 81.8745 73.4907 81.5815 73.2219 81.7009C73.1795 81.7225 73.1418 81.7533 73.1112 81.7915C73.0805 81.8296 73.0577 81.8742 73.0441 81.9224C73.0305 81.9706 73.0264 82.0213 73.0321 82.0712C73.0378 82.1212 73.0532 82.1693 73.0773 82.2125C73.1371 82.301 73.2141 82.3745 73.3029 82.428C73.3918 82.4816 73.4903 82.5138 73.5919 82.5226C73.8134 82.5237 74.0338 82.4882 74.2452 82.4171C74.2828 82.5179 74.319 82.6171 74.3508 82.7148C74.371 82.783 74.3941 82.8466 74.41 82.9164C74.4259 82.9861 74.4462 83.0512 74.4635 83.1179C74.4924 83.2481 74.5228 83.3815 74.5488 83.5101C74.5661 83.5985 74.582 83.6838 74.5994 83.769C74.5575 83.6729 74.4736 83.4853 74.4649 83.4714C74.3305 83.2419 73.9446 82.8822 73.67 82.9567C73.6246 82.9706 73.5825 82.9946 73.5463 83.0271C73.5102 83.0596 73.4808 83.0999 73.4601 83.1453C73.4394 83.1908 73.4278 83.2404 73.4261 83.2909C73.4244 83.3415 73.4326 83.3919 73.4502 83.4388C73.4969 83.5362 73.5626 83.6215 73.643 83.689C73.7233 83.7564 73.8164 83.8044 73.9157 83.8295C74.1456 83.8671 74.3795 83.8671 74.6095 83.8295C74.637 83.9706 74.6615 84.1086 74.6818 84.2388C74.7295 84.5272 74.7656 84.7845 74.7916 85.0031H74.9781C74.9463 84.7768 74.9029 84.5086 74.8465 84.2062C74.8205 84.0621 74.7902 83.9101 74.7569 83.7535C74.8894 83.6958 75.0187 83.63 75.1443 83.5567C75.3156 83.7138 75.5056 83.8458 75.7095 83.9489C75.6589 84.0822 75.6097 84.2109 75.5649 84.3318C75.4623 84.5861 75.3655 84.8109 75.2758 85.0031H75.4768C75.5505 84.8264 75.6329 84.6248 75.7167 84.4016C75.7687 84.2667 75.8222 84.121 75.8757 83.9706C76.1024 84.0274 76.3358 84.0472 76.5681 84.0295C76.6691 84.0126 76.7654 83.9722 76.8503 83.9111C76.9352 83.85 77.0066 83.7698 77.0595 83.676C77.0805 83.6309 77.0923 83.5815 77.0942 83.5311C77.0961 83.4806 77.088 83.4304 77.0706 83.3835C77.0531 83.3367 77.0266 83.2944 76.9928 83.2593C76.959 83.2242 76.9187 83.1971 76.8745 83.1799C76.6057 83.0822 76.1951 83.4094 76.0448 83.628C76.0361 83.6419 75.9538 83.7923 75.9003 83.8884C75.922 83.828 75.9436 83.7675 75.9653 83.7039C76.0072 83.5799 76.0477 83.4528 76.0896 83.3163L76.146 83.1148C76.1662 83.0481 76.1792 82.9753 76.1966 82.9055C76.2327 82.7396 76.2631 82.5706 76.2891 82.4001C76.4996 82.4876 76.7214 82.5398 76.9468 82.5551C77.0487 82.5548 77.1494 82.5307 77.2418 82.4843C77.3342 82.438 77.416 82.3706 77.4816 82.2869C77.5088 82.2455 77.5275 82.1985 77.5366 82.1488C77.5456 82.0991 77.5448 82.0479 77.5342 81.9986C77.5235 81.9493 77.5033 81.903 77.4748 81.8626C77.4463 81.8223 77.4102 81.7888 77.3688 81.7644C77.1173 81.6249 76.6649 81.8823 76.4857 82.0745C76.4741 82.0854 76.3599 82.2388 76.2992 82.3241C76.3137 82.2218 76.3296 82.1195 76.3411 82.014C76.3758 81.7133 76.4033 81.4063 76.4308 81.1009C76.4394 81.0079 76.4481 80.9148 76.4582 80.8218C76.6755 80.9144 76.9045 80.9719 77.1376 80.9924C77.2375 80.9923 77.3363 80.9693 77.4273 80.9249C77.5183 80.8805 77.5994 80.8158 77.6652 80.735C77.6921 80.6935 77.7107 80.6465 77.7196 80.5969C77.7285 80.5472 77.7277 80.4961 77.717 80.4469C77.7064 80.3977 77.6863 80.3514 77.6579 80.311C77.6296 80.2706 77.5936 80.2371 77.5524 80.2125C77.3009 80.073 76.8485 80.3304 76.6692 80.5226C76.6548 80.5381 76.4915 80.7583 76.4524 80.8172C76.4727 80.611 76.4944 80.4063 76.5233 80.2063C76.5617 79.9352 76.6163 79.667 76.6866 79.4033C76.7039 79.4033 77.1535 79.5908 77.3703 79.5753C77.4723 79.5751 77.573 79.551 77.6654 79.5047C77.7578 79.4584 77.8396 79.3909 77.9051 79.3071C77.9323 79.2658 77.951 79.2187 77.9601 79.169C77.9691 79.1193 77.9683 79.0682 77.9577 79.0188C77.947 78.9695 77.9268 78.9232 77.8983 78.8828C77.8698 78.8425 77.8337 78.809 77.7924 78.7847C77.5409 78.6451 77.0884 78.9025 76.9092 79.0947C76.8947 79.1102 76.7184 79.3474 76.6895 79.394C76.6895 79.3784 76.6895 79.3614 76.701 79.3459C76.7788 79.0838 76.8779 78.8296 76.9974 78.5862C77.0624 78.4513 77.1303 78.3258 77.1997 78.2048C77.4028 78.321 77.6212 78.4036 77.8473 78.4498C77.9488 78.4612 78.0514 78.4488 78.148 78.4135C78.2446 78.3781 78.3328 78.3207 78.4067 78.2451C78.4378 78.2072 78.4611 78.1626 78.475 78.1144C78.489 78.0661 78.4933 78.0152 78.4877 77.9651C78.4821 77.9149 78.4667 77.8666 78.4426 77.8232C78.4184 77.7798 78.386 77.7424 78.3474 77.7134C78.1118 77.5459 77.6363 77.7475 77.4382 77.9165C77.4281 77.9258 77.3284 78.0327 77.2561 78.1118C77.2879 78.0575 77.3197 78.0017 77.3515 77.9568C77.47 77.7645 77.59 77.5971 77.697 77.4498C77.7591 77.3661 77.8155 77.2948 77.8704 77.2235C78.0995 77.2261 78.3277 77.1911 78.5469 77.1196C78.6417 77.0801 78.7274 77.0189 78.7978 76.9401C78.8682 76.8614 78.9217 76.7671 78.9545 76.6638C78.9659 76.6147 78.9675 76.5636 78.9593 76.5139C78.951 76.4641 78.9331 76.4167 78.9066 76.3749C78.8802 76.3331 78.8458 76.2977 78.8057 76.2711C78.7656 76.2444 78.7208 76.2272 78.6741 76.2204C78.3922 76.1878 78.0569 76.6018 77.9514 76.8498C77.9427 76.8715 77.8386 77.2235 77.8444 77.2235C77.7909 77.2886 77.7345 77.3583 77.6738 77.4374C77.564 77.5831 77.4411 77.7475 77.3183 77.9382C77.183 78.1402 77.0594 78.3509 76.9482 78.5692C76.8218 78.8128 76.7158 79.0681 76.6317 79.3319C76.6317 79.3319 76.6317 79.3319 76.6317 79.3412C76.6317 79.2529 76.6317 79.0033 76.6317 78.9847C76.5999 78.7149 76.3888 78.2095 76.1099 78.1599C76.0634 78.152 76.0159 78.1547 75.9705 78.1678C75.9251 78.181 75.8828 78.2043 75.8463 78.2362C75.8099 78.2681 75.7802 78.3079 75.7591 78.353C75.738 78.3981 75.726 78.4474 75.7239 78.4978C75.7276 78.6073 75.7536 78.7145 75.8001 78.8119C75.8465 78.9094 75.9123 78.9948 75.9928 79.0622C76.1893 79.1988 76.4036 79.3033 76.6288 79.3722C76.5488 79.6422 76.4865 79.9178 76.4423 80.197C76.4149 80.3598 76.3917 80.5257 76.3715 80.69C76.3715 80.6141 76.3715 80.5443 76.3715 80.535C76.3382 80.2652 76.1272 79.7598 75.8497 79.7102C75.8031 79.7026 75.7555 79.7055 75.71 79.7188C75.6645 79.7321 75.6221 79.7556 75.5856 79.7876C75.5491 79.8196 75.5192 79.8595 75.498 79.9046C75.4768 79.9498 75.4646 79.9992 75.4623 80.0497C75.4662 80.1589 75.4923 80.2658 75.5388 80.363C75.5852 80.4602 75.6509 80.5454 75.7312 80.6125C75.921 80.749 76.1291 80.8535 76.3484 80.9226C76.3411 80.9862 76.3325 81.0497 76.3252 81.1133C76.292 81.4234 76.2587 81.7226 76.2183 82.0203C76.2038 82.1257 76.1865 82.228 76.1691 82.3303C76.1691 82.2621 76.1691 82.2032 76.1691 82.1954C76.1359 81.9257 75.9248 81.4203 75.6473 81.3707C75.6008 81.3628 75.5532 81.3655 75.5077 81.3786C75.4622 81.3917 75.4198 81.415 75.3833 81.4469C75.3467 81.4788 75.3169 81.5186 75.2956 81.5637C75.2744 81.6088 75.2622 81.6582 75.2599 81.7086C75.2639 81.818 75.2901 81.9251 75.3365 82.0225C75.3829 82.12 75.4485 82.2054 75.5288 82.273C75.7128 82.4046 75.9147 82.505 76.1272 82.5706C76.107 82.676 76.0867 82.7815 76.0622 82.8807C76.0434 82.9489 76.0304 83.0156 76.0087 83.0838C75.987 83.152 75.9682 83.2171 75.9494 83.2822C75.9061 83.4078 75.8627 83.538 75.8193 83.6605C75.789 83.7442 75.7586 83.8249 75.7283 83.9055C75.7427 83.8016 75.7687 83.5954 75.7702 83.5784C75.7663 83.3398 75.7061 83.1062 75.5953 82.8993C75.5975 82.8725 75.5975 82.8455 75.5953 82.8187C75.59 82.7683 75.5748 82.7196 75.5507 82.6759C75.5266 82.6322 75.4942 82.5945 75.4556 82.5652C75.417 82.536 75.373 82.5158 75.3266 82.506C75.2801 82.4963 75.2323 82.4971 75.1862 82.5086C74.9116 82.5877 74.7381 83.1039 74.7251 83.3753C74.7251 83.3908 74.7338 83.566 74.741 83.676C74.728 83.6109 74.715 83.5489 74.7006 83.4838C74.6716 83.3536 74.6398 83.2249 74.6052 83.0853C74.5864 83.0202 74.5676 82.952 74.5488 82.8853C74.53 82.8187 74.504 82.7489 74.4823 82.6792C74.4274 82.5241 74.3652 82.3613 74.3002 82.2047C74.5215 82.1549 74.7345 82.0692 74.9318 81.9505C75.0167 81.8897 75.0882 81.8098 75.1414 81.7164C75.1946 81.6229 75.2281 81.5182 75.2397 81.4094C75.2409 81.3589 75.2321 81.3088 75.214 81.2622C75.1959 81.2156 75.1689 81.1736 75.1347 81.1389C75.1005 81.1043 75.0598 81.0777 75.0154 81.061C74.971 81.0443 74.9238 81.0378 74.8769 81.042C74.595 81.0745 74.3508 81.5567 74.2987 81.8172C74.2987 81.8342 74.2785 82.0296 74.2713 82.1365C74.2308 82.042 74.1903 81.9474 74.147 81.8528C74.0212 81.5815 73.8853 81.3102 73.7523 81.0389C73.7104 80.9552 73.6714 80.8714 73.6309 80.7893C73.8602 80.7383 74.0809 80.6505 74.2857 80.5288C74.3705 80.4683 74.442 80.3886 74.4951 80.2955C74.5483 80.2023 74.5819 80.0978 74.5936 79.9893C74.595 79.9387 74.5864 79.8884 74.5684 79.8416C74.5504 79.7948 74.5234 79.7526 74.4891 79.7178C74.4549 79.6829 74.4142 79.6562 74.3697 79.6395C74.3251 79.6227 74.2778 79.6161 74.2308 79.6203C73.9417 79.6529 73.7046 80.135 73.6526 80.3955C73.6526 80.4156 73.6251 80.6978 73.6237 80.7691C73.5341 80.5862 73.4474 80.4017 73.3679 80.2172C73.2608 79.9684 73.1686 79.7126 73.0918 79.4513C73.1091 79.4513 73.5774 79.3319 73.7509 79.1893C73.8357 79.1288 73.9073 79.0492 73.9604 78.956C74.0136 78.8629 74.0472 78.7583 74.0588 78.6498C74.0602 78.5992 74.0516 78.5488 74.0336 78.5021C74.0156 78.4553 73.9886 78.4131 73.9543 78.3783C73.9201 78.3434 73.8794 78.3167 73.8348 78.3C73.7903 78.2832 73.743 78.2766 73.696 78.2808C73.4141 78.3134 73.1698 78.7955 73.1178 79.056C73.1178 79.0761 73.0874 79.3784 73.0874 79.4343C73.0874 79.4188 73.0759 79.4033 73.073 79.3877C73.0023 79.1232 72.9539 78.8523 72.9284 78.5785C72.9125 78.4234 72.9053 78.2823 72.901 78.1413C73.1303 78.1179 73.355 78.0573 73.5673 77.9614C73.6579 77.9112 73.7371 77.8403 73.7996 77.7538C73.862 77.6673 73.906 77.5673 73.9287 77.4607C73.9352 77.4106 73.9318 77.3596 73.9187 77.311C73.9056 77.2625 73.8832 77.2174 73.8527 77.1788C73.8223 77.1402 73.7847 77.1089 73.7422 77.0869C73.6998 77.065 73.6535 77.0528 73.6064 77.0514C73.3173 77.0514 73.0282 77.501 72.9516 77.7599C72.9516 77.7738 72.9198 77.9149 72.8995 78.0296C72.8995 77.9661 72.8995 77.8994 72.8995 77.8389C72.8995 77.6079 72.914 77.3971 72.927 77.2111C72.9357 77.1056 72.9458 77.0095 72.9559 76.9211C73.1477 76.7871 73.3197 76.623 73.4661 76.4343C73.5244 76.3453 73.5641 76.2437 73.5823 76.1367C73.6005 76.0296 73.5969 75.9196 73.5717 75.8142C73.5558 75.7667 73.5309 75.7233 73.4984 75.6869C73.466 75.6504 73.4268 75.6217 73.3833 75.6025C73.3398 75.5834 73.2931 75.5742 73.2461 75.5757C73.1991 75.5772 73.1529 75.5892 73.1106 75.6111C72.8576 75.7506 72.7911 76.2948 72.833 76.563C72.833 76.5847 72.9328 76.9413 72.9371 76.9382C72.9256 77.0235 72.9154 77.1165 72.9053 77.2173C72.888 77.4033 72.8692 77.6141 72.8648 77.8374C72.8567 78.0861 72.8621 78.3351 72.8807 78.5831C72.9013 78.8611 72.9448 79.1366 73.0108 79.4064C73.0102 79.4094 73.0102 79.4126 73.0108 79.4157C72.966 79.3412 72.8345 79.135 72.8229 79.1211C72.6567 78.9149 72.2245 78.6234 71.9629 78.7413C71.9205 78.7629 71.8828 78.7937 71.8522 78.8319C71.8216 78.87 71.7987 78.9146 71.7851 78.9628C71.7715 79.0109 71.7674 79.0616 71.7731 79.1116C71.7789 79.1615 71.7943 79.2097 71.8183 79.2529C71.8775 79.342 71.9541 79.4163 72.0427 79.4707C72.1313 79.525 72.2298 79.5581 72.3315 79.5676Z" fill="#263238"/>
<path d="M77.1939 78.1398C77.1939 78.1398 77.285 77.7847 77.2879 77.7615C77.3226 77.4917 77.2431 76.9506 76.9872 76.8173C76.9442 76.7968 76.8977 76.7862 76.8506 76.7861C76.8035 76.7861 76.757 76.7966 76.7139 76.8171C76.6709 76.8375 76.6323 76.8674 76.6007 76.9049C76.5691 76.9423 76.5452 76.9864 76.5305 77.0344C76.5076 77.141 76.5066 77.2517 76.5276 77.3588C76.5486 77.4658 76.591 77.5667 76.6519 77.6545C76.7733 77.8545 77.1939 78.1382 77.1939 78.1398Z" fill="#263238"/>
<path d="M37.8374 31.874C37.8374 31.874 40.0966 35.26 40.4392 35.615C40.9385 36.0753 41.4822 36.477 42.061 36.8135C42.4224 37.0073 45.465 38.4537 45.465 38.4537C45.465 38.4537 46.6214 39.384 46.6879 39.2801C46.7544 39.1762 46.5057 38.4196 46.5057 38.4196L47.373 38.3654C47.373 38.3654 48.3169 38.6987 48.3212 38.4475C48.3256 38.1964 47.7185 37.9375 47.7185 37.9375C47.7185 37.9375 46.7067 37.5592 45.9333 37.3421C45.4766 37.2154 45.0362 37.0284 44.6223 36.7856C44.6223 36.7856 42.7086 35.0337 42.3906 34.7701C42.0726 34.5065 41.3614 33.8973 41.3614 33.8973L39.1499 30.3687L37.8374 31.874Z" fill="#263238" stroke="#263238" stroke-linecap="round" stroke-linejoin="round"/>
<path d="M31.1753 40.3033L36.5162 43.5265C36.5162 43.5265 35.2804 44.9823 35.0245 45.697C34.7687 46.4117 34.5634 48.3326 34.5634 48.3326C34.5634 48.3326 32.5065 51.5666 32.2782 51.9961C32.0498 52.4255 32.4227 52.6503 32.745 52.6953C33.0674 52.7403 34.004 53.1387 34.004 53.1387C34.004 53.1387 35.8918 53.9588 36.3254 53.9464C36.759 53.934 37.2462 53.7542 37.0626 53.5806C36.879 53.4069 36.1375 53.0565 35.9554 52.8813C35.7733 52.7062 35.3382 51.0643 35.3179 50.6938C35.2977 50.3233 36.2792 48.4923 36.2792 48.4923C36.2792 48.4923 37.9992 45.8877 38.0296 45.7559C38.0599 45.6241 38.7263 44.3684 38.8347 43.7792C38.8975 43.41 38.8676 43.0296 38.748 42.6769C38.748 42.6769 35.2789 39.6165 34.9392 39.2661C34.5996 38.9158 32.8 38.1003 32.8 38.1003L31.1753 40.3033Z" fill="#263238" stroke="#263238" stroke-linecap="round" stroke-linejoin="round"/>
<path d="M47.7083 37.9452C47.7083 37.9452 46.6964 37.5669 45.9231 37.3499C45.7786 37.308 45.634 37.2631 45.5141 37.2166L44.9619 38.2243L45.4591 38.4615C45.4591 38.4615 46.6155 39.3917 46.682 39.2878C46.7485 39.184 46.4999 38.4274 46.4999 38.4274L47.3671 38.3731C47.3671 38.3731 48.311 38.7064 48.3153 38.4553C48.3197 38.2041 47.7083 37.9452 47.7083 37.9452Z" fill="#263238" stroke="#263238" stroke-linecap="round" stroke-linejoin="round"/>
<path d="M42.9354 27.0834C42.9354 27.0834 42.7013 27.5764 42.4888 27.7485C42.2763 27.9206 42.0884 27.9919 42.0551 28.1454C42.0219 28.2989 42.1 28.5702 42.0118 28.688C41.9236 28.8059 41.529 28.8555 41.529 28.8555C41.3697 29.0243 41.1987 29.1797 41.0173 29.3206C40.6704 29.5981 40.2671 29.7206 40.1255 29.5857C39.9838 29.4508 38.4878 27.0772 38.4878 27.0772L39.1064 25.8369C39.4464 25.5171 39.8677 25.3136 40.3163 25.2525C41.0231 25.1765 42.1954 25.8121 42.4931 26.1517C42.6986 26.4264 42.8492 26.7436 42.9354 27.0834Z" fill="white" stroke="#263238" stroke-linecap="round" stroke-linejoin="round"/>
<path d="M41.1518 26.3548C41.1518 26.3548 40.6242 26.5346 40.5649 26.4803C40.5012 26.4617 40.4345 26.4574 40.3691 26.4675C40.3038 26.4776 40.241 26.5021 40.1848 26.5393C40.1501 26.5982 39.8249 27.0648 39.8249 27.0648C39.8249 27.0648 39.5892 27.2912 39.2467 27.0044C38.9041 26.7175 38.7957 26.5067 38.813 26.3672C38.8697 26.097 38.9986 25.8504 39.184 25.6576C39.3693 25.4649 39.6031 25.3343 39.8566 25.2819C40.6618 25.1269 41.0593 25.9904 41.1518 26.3548Z" fill="#263238" stroke="#263238" stroke-linecap="round" stroke-linejoin="round"/>
<path d="M41.1402 28.9036C41.0912 28.8574 41.055 28.7978 41.0354 28.7311C41.0157 28.6644 41.0135 28.5932 41.0289 28.5253" stroke="#263238" stroke-linecap="round" stroke-linejoin="round"/>
<path d="M42.2647 27.7532C42.2647 27.7532 42.3066 27.3563 41.9669 27.3873" stroke="#263238" stroke-linecap="round" stroke-linejoin="round"/>
<path d="M41.9974 28.0229C41.9309 28.1067 41.8528 28.1516 41.8225 28.1237C41.7921 28.0958 41.8225 28.0059 41.889 27.9222C41.9554 27.8385 42.0335 27.795 42.0639 27.823C42.0942 27.8509 42.0639 27.9346 41.9974 28.0229Z" fill="black"/>
<path d="M40.6531 26.6447C40.6531 26.6447 40.6531 26.209 40.3293 26.2881C40.0055 26.3672 39.7077 26.8757 39.8624 27.1765C40.0171 27.4772 40.4276 27.1765 40.4276 27.1765" fill="white"/>
<path d="M40.6531 26.6447C40.6531 26.6447 40.6531 26.209 40.3293 26.2881C40.0055 26.3672 39.7077 26.8757 39.8624 27.1765C40.0171 27.4772 40.4276 27.1765 40.4276 27.1765" stroke="#263238" stroke-linecap="round" stroke-linejoin="round"/>
<path d="M39.2668 25.9641L39.4114 28.5703L39.7525 29.116L39.6325 26.0943L39.2668 25.9641Z" fill="#263238" stroke="#263238" stroke-linecap="round" stroke-linejoin="round"/>
<path d="M38.8072 25.1796C38.8072 25.1796 38.6207 25.6866 38.7985 25.885C38.9763 26.0835 39.4547 26.2106 39.6325 26.0943C39.8103 25.978 40.1587 25.699 40.468 25.7703C40.7773 25.8416 41.0303 26.5052 41.4437 26.6462C41.8571 26.7873 42.6347 26.9377 42.6347 26.9377L44.1308 28.1253C44.1308 28.1253 43.8229 26.9889 43.6162 26.3362C43.4095 25.6835 43.1189 24.5207 42.1274 23.792C41.1358 23.0634 40.6458 23.0866 40.4001 23.3161C40.1543 23.5455 39.5921 23.6572 39.3377 24.0587C39.0833 24.4602 38.7971 24.9222 38.8072 25.1796Z" fill="#263238" stroke="#263238" stroke-linecap="round" stroke-linejoin="round"/>
<path d="M41.7704 24.6711L41.9164 25.5114L43.2939 26.5253L43.343 25.9408L42.1563 25.3858L41.7704 24.6711Z" fill="#92E3A9" stroke="#263238" stroke-linecap="round" stroke-linejoin="round"/>
<path d="M43.5526 26.7827L43.609 27.2742L41.6244 25.7672L41.4524 25.9951L41.7429 26.7005" stroke="#92E3A9" stroke-width="0.5" stroke-miterlimit="10"/>
<path d="M41.0534 24.6261L40.5576 23.9874L40.6444 24.6246L40.4767 25.0184L40.8178 25.223L41.0534 24.6261Z" fill="#92E3A9"/>
<path d="M39.5169 24.1223L39.7771 24.4633L39.2639 25.2292L39.274 25.5811L39.0645 24.9579L39.5169 24.1223Z" fill="#92E3A9"/>
<path d="M41.7877 23.7889L42.1924 24.2137L42.4526 24.775L42.9672 25.054C42.8131 24.8101 42.6476 24.5747 42.4714 24.3486C42.261 24.1387 42.032 23.9513 41.7877 23.7889Z" fill="#92E3A9"/>
<path d="M40.8597 23.3409L41.0953 23.7579L40.6617 23.5083L40.546 23.3331C40.594 23.3037 40.6486 23.2888 40.7039 23.2902C40.7591 23.2916 40.813 23.3091 40.8597 23.3409Z" fill="#92E3A9"/>
<path d="M38.6598 27.1703L41.3975 31.1531L46.3872 35.2166C46.3872 35.2166 47.6071 35.8647 47.7271 36.0057C47.8471 36.1468 48.6854 36.9096 48.7461 37.091C48.8068 37.2724 48.7375 37.2615 48.5365 37.1654C48.3356 37.0693 47.7372 36.8026 47.6693 36.722C47.6013 36.6414 47.5247 37.291 47.3036 37.3421C47.0196 37.3959 46.729 37.3959 46.445 37.3421C46.2744 37.2863 45.8784 36.2693 45.6746 36.0522C45.4708 35.8352 45.3566 35.7174 45.3566 35.7174L41.6736 33.9655L38.7133 31.7082C38.7133 31.7082 35.5897 35.0817 35.331 35.46C35.0722 35.8383 34.3018 37.1142 34.3018 37.1142L29.2211 34.8445C29.2211 34.8445 30.9932 31.4849 33.5574 29.3346C36.1216 27.1842 37.3633 25.8401 38.6598 27.1703Z" fill="white" stroke="#263238" stroke-linecap="round" stroke-linejoin="round"/>
<path d="M38.6598 27.1703C37.3589 25.8401 36.1331 27.1796 33.5631 29.3299C30.9931 31.4803 29.2268 34.8399 29.2268 34.8399L34.3018 37.1142C34.3018 37.1142 35.0707 35.8383 35.3295 35.46C35.5882 35.0817 38.7118 31.7082 38.7118 31.7082L38.9012 31.8523C38.9012 31.5268 38.9575 30.7345 39.6355 30.4183C40.0056 30.2388 40.4222 30.2016 40.8149 30.3128L38.6598 27.1703Z" fill="#92E3A9" stroke="#263238" stroke-linecap="round" stroke-linejoin="round"/>
<path d="M29.9655 35.0461C29.9655 35.0461 35.3541 30.9934 35.7386 30.7593C36.123 30.5252 36.9715 30.6462 37.7954 31.0508C38.6193 31.4554 38.3201 31.333 37.833 31.874C37.3459 32.4151 33.4417 35.0864 33.1266 35.4399C32.8115 35.7933 32.5065 36.1964 32.5065 36.1964L29.9655 35.0461Z" fill="#263238" stroke="#263238" stroke-linecap="round" stroke-linejoin="round"/>
<path d="M37.593 30.4555L38.7161 31.7082L36.746 30.6136" stroke="#263238" stroke-linecap="round" stroke-linejoin="round"/>
<path d="M47.6751 36.7205C47.7372 36.8011 48.3356 37.0677 48.5423 37.1639C48.749 37.26 48.8126 37.2677 48.7519 37.0894C48.6912 36.9111 47.8529 36.1453 47.7329 36.0042C47.6129 35.8631 46.393 35.2151 46.393 35.2151L46.0287 34.9189L45.4751 35.8182C45.5286 35.874 45.5994 35.9468 45.6861 36.0414C45.8899 36.2585 46.286 37.2817 46.4566 37.3313C46.7406 37.3851 47.0311 37.3851 47.3151 37.3313C47.5247 37.2894 47.6129 36.6383 47.6751 36.7205Z" fill="#263238" stroke="#263238" stroke-linecap="round" stroke-linejoin="round"/>
<path d="M47.2645 36.2755C47.2692 36.3369 47.2574 36.3984 47.2304 36.4527C47.2034 36.507 47.1624 36.5518 47.1123 36.5819C47.0622 36.6119 47.0051 36.6258 46.9478 36.622C46.8906 36.6182 46.8355 36.5968 46.7893 36.5604C46.743 36.524 46.7075 36.4741 46.6869 36.4166C46.6664 36.3591 46.6617 36.2965 46.6734 36.2363C46.6851 36.176 46.7127 36.1206 46.7529 36.0768C46.7932 36.0329 46.8443 36.0023 46.9003 35.9887C46.9418 35.9819 46.9841 35.9839 47.0248 35.9946C47.0656 36.0053 47.104 36.0245 47.1378 36.0512C47.1716 36.0778 47.2002 36.1113 47.222 36.1498C47.2437 36.1883 47.2582 36.231 47.2645 36.2755Z" fill="white" stroke="#263238" stroke-linecap="round" stroke-linejoin="round"/>
<path d="M43.8171 42.8149L44.3173 43.3234L44.8391 42.7761L44.4661 42.2893L43.8171 42.8149Z" fill="#263238" stroke="#263238" stroke-linecap="round" stroke-linejoin="round"/>
<path d="M49.7491 46.283L50.8968 50.5914L50.4863 46.1807" stroke="#263238" stroke-width="0.5" stroke-miterlimit="10"/>
<path d="M48.564 46.8752L50.8969 50.5914L49.2361 46.531" stroke="#263238" stroke-width="0.5" stroke-miterlimit="10"/>
<path d="M47.6071 47.8303L50.8969 50.5914L48.1477 47.2814" stroke="#263238" stroke-width="0.5" stroke-miterlimit="10"/>
<path d="M46.9725 49.055L50.8969 50.5914L47.3296 48.3542" stroke="#263238" stroke-width="0.5" stroke-miterlimit="10"/>
<path d="M46.7224 50.4302L50.8969 50.5914L46.8597 49.6457" stroke="#263238" stroke-width="0.5" stroke-miterlimit="10"/>
<path d="M46.8799 51.8224L50.8968 50.5914L46.7845 51.0302" stroke="#263238" stroke-width="0.5" stroke-miterlimit="10"/>
<path d="M47.4321 53.0937L50.8968 50.5914L47.1127 52.3712" stroke="#263238" stroke-width="0.5" stroke-miterlimit="10"/>
<path d="M48.3226 54.1185L50.8969 50.5914L47.8109 53.5387" stroke="#263238" stroke-width="0.5" stroke-miterlimit="10"/>
<path d="M49.4645 54.7991L50.8969 50.5914L48.8112 54.4177" stroke="#263238" stroke-width="0.5" stroke-miterlimit="10"/>
<path d="M50.748 55.0689L50.8969 50.5914L50.0151 54.9216" stroke="#263238" stroke-width="0.5" stroke-miterlimit="10"/>
<path d="M52.0445 54.8983L50.8969 50.5914L51.3059 55.0022" stroke="#263238" stroke-width="0.5" stroke-miterlimit="10"/>
<path d="M53.2298 54.3076L50.8969 50.5914L52.5562 54.6503" stroke="#263238" stroke-width="0.5" stroke-miterlimit="10"/>
<path d="M54.1867 53.3526L50.8969 50.5914L53.6446 53.9014" stroke="#263238" stroke-width="0.5" stroke-miterlimit="10"/>
<path d="M54.8212 52.1263L50.8969 50.5914L54.4642 52.8286" stroke="#263238" stroke-width="0.5" stroke-miterlimit="10"/>
<path d="M55.0713 50.7511L50.8969 50.5914L54.934 51.5356" stroke="#263238" stroke-width="0.5" stroke-miterlimit="10"/>
<path d="M54.9123 49.3589L50.8969 50.5914L55.0091 50.1511" stroke="#263238" stroke-width="0.5" stroke-miterlimit="10"/>
<path d="M54.3616 48.0891L50.8969 50.5914L54.681 48.81" stroke="#263238" stroke-width="0.5" stroke-miterlimit="10"/>
<path d="M53.4712 47.0628L50.8969 50.5914L53.9829 47.6426" stroke="#263238" stroke-width="0.5" stroke-miterlimit="10"/>
<path d="M52.3278 46.3822L50.8969 50.5914L52.9826 46.7636" stroke="#263238" stroke-width="0.5" stroke-miterlimit="10"/>
<path d="M51.0457 46.114L50.8969 50.5914L51.7786 46.2597" stroke="#263238" stroke-width="0.5" stroke-miterlimit="10"/>
<path d="M49.9125 45.4954C50.8722 45.2633 51.8746 45.3417 52.7928 45.7205C53.711 46.0993 54.5039 46.7616 55.0713 47.6236C55.6386 48.4857 55.9549 49.5088 55.9803 50.5636C56.0056 51.6185 55.7388 52.6577 55.2136 53.55C54.6884 54.4422 53.9283 55.1474 53.0295 55.5764C52.1307 56.0054 51.1335 56.139 50.1639 55.9603C49.1943 55.7815 48.2959 55.2984 47.5822 54.5721C46.8686 53.8458 46.3717 52.9089 46.1544 51.8798C46.01 51.1959 45.9927 50.4881 46.1034 49.7971C46.2142 49.106 46.4508 48.4451 46.7998 47.8522C47.1489 47.2592 47.6034 46.7459 48.1375 46.3415C48.6716 45.9371 49.2748 45.6496 49.9125 45.4954ZM51.9145 54.9665C52.7013 54.7752 53.4175 54.3379 53.9727 53.71C54.5278 53.0821 54.8968 52.2917 55.0331 51.4388C55.1694 50.5859 55.0668 49.7088 54.7383 48.9184C54.4099 48.1281 53.8703 47.4599 53.1878 46.9985C52.5053 46.5371 51.7105 46.3031 50.904 46.3261C50.0975 46.3492 49.3155 46.6282 48.6569 47.128C47.9983 47.6277 47.4926 48.3257 47.2039 49.1337C46.9151 49.9418 46.8562 50.8235 47.0347 51.6674C47.2739 52.7989 47.9224 53.7821 48.8376 54.4008C49.7527 55.0195 50.8595 55.223 51.9145 54.9665Z" fill="#263238" stroke="#263238" stroke-miterlimit="10"/>
<path d="M30.6492 53.3991L31.7983 57.706L31.3878 53.2952" stroke="#263238" stroke-width="0.5" stroke-miterlimit="10"/>
<path d="M29.4653 53.9898L31.7983 57.706L30.1375 53.6472" stroke="#263238" stroke-width="0.5" stroke-miterlimit="10"/>
<path d="M28.5084 54.9448L31.7983 57.706L29.049 54.396" stroke="#263238" stroke-width="0.5" stroke-miterlimit="10"/>
<path d="M27.8739 56.1696L31.7983 57.706L28.2309 55.4688" stroke="#263238" stroke-width="0.5" stroke-miterlimit="10"/>
<path d="M27.6238 57.5463L31.7982 57.706L27.7611 56.7603" stroke="#263238" stroke-width="0.5" stroke-miterlimit="10"/>
<path d="M27.7813 58.937L31.7982 57.706L27.6859 58.1447" stroke="#263238" stroke-width="0.5" stroke-miterlimit="10"/>
<path d="M28.3335 60.2083L31.7982 57.706L28.014 59.4874" stroke="#263238" stroke-width="0.5" stroke-miterlimit="10"/>
<path d="M29.224 61.2346L31.7983 57.706L28.7123 60.6548" stroke="#263238" stroke-width="0.5" stroke-miterlimit="10"/>
<path d="M30.3659 61.9152L31.7983 57.706L29.7125 61.5323" stroke="#263238" stroke-width="0.5" stroke-miterlimit="10"/>
<path d="M31.6493 62.1834L31.7982 57.706L30.9165 62.0361" stroke="#263238" stroke-width="0.5" stroke-miterlimit="10"/>
<path d="M32.9459 62.0129L31.7982 57.706L32.2073 62.1168" stroke="#263238" stroke-width="0.5" stroke-miterlimit="10"/>
<path d="M34.1312 61.4222L31.7982 57.706L33.459 61.7648" stroke="#263238" stroke-width="0.5" stroke-miterlimit="10"/>
<path d="M35.0881 60.4672L31.7982 57.706L34.546 61.016" stroke="#263238" stroke-width="0.5" stroke-miterlimit="10"/>
<path d="M35.7212 59.2424L31.7982 57.706L35.3656 59.9432" stroke="#263238" stroke-width="0.5" stroke-miterlimit="10"/>
<path d="M35.9727 57.8657L31.7982 57.706L35.8353 58.6517" stroke="#263238" stroke-width="0.5" stroke-miterlimit="10"/>
<path d="M35.8137 56.475L31.7982 57.706L35.9105 57.2672" stroke="#263238" stroke-width="0.5" stroke-miterlimit="10"/>
<path d="M35.2629 55.2037L31.7982 57.7059L35.5824 55.9246" stroke="#263238" stroke-width="0.5" stroke-miterlimit="10"/>
<path d="M34.3726 54.1774L31.7982 57.706L34.8842 54.7572" stroke="#263238" stroke-width="0.5" stroke-miterlimit="10"/>
<path d="M33.2292 53.4968L31.7982 57.706L33.884 53.8797" stroke="#263238" stroke-width="0.5" stroke-miterlimit="10"/>
<path d="M31.9471 53.2286L31.7982 57.706L32.6799 53.3759" stroke="#263238" stroke-width="0.5" stroke-miterlimit="10"/>
<path d="M30.8139 52.61C31.7736 52.3779 32.7759 52.4562 33.6941 52.835C34.6124 53.2138 35.4053 53.8761 35.9726 54.7382C36.54 55.6002 36.8563 56.6233 36.8817 57.6782C36.907 58.7331 36.6402 59.7723 36.115 60.6645C35.5897 61.5568 34.8297 62.262 33.9309 62.691C33.0321 63.12 32.0348 63.2536 31.0653 63.0748C30.0957 62.8961 29.1973 62.413 28.4836 61.6867C27.7699 60.9604 27.273 60.0235 27.0557 58.9943C26.9113 58.3104 26.894 57.6027 27.0048 56.9116C27.1155 56.2205 27.3522 55.5597 27.7012 54.9667C28.0502 54.3738 28.5048 53.8605 29.0389 53.4561C29.573 53.0517 30.1761 52.7642 30.8139 52.61ZM32.8158 62.0811C33.6032 61.8909 34.3202 61.4544 34.8762 60.8269C35.4322 60.1995 35.8022 59.4092 35.9393 58.5561C36.0764 57.7031 35.9745 56.8256 35.6465 56.0346C35.3184 55.2437 34.779 54.575 34.0965 54.113C33.414 53.651 32.619 53.4165 31.8122 53.4393C31.0054 53.4621 30.2231 53.7411 29.5641 54.2409C28.9052 54.7408 28.3994 55.4391 28.1106 56.2474C27.8218 57.0557 27.763 57.9378 27.9418 58.7819C28.1808 59.9123 28.8284 60.8948 29.7423 61.5134C30.6562 62.132 31.7617 62.3362 32.8158 62.0811Z" fill="#263238" stroke="#263238" stroke-miterlimit="10"/>
<path d="M46.8902 37.7374C46.8902 37.7374 48.4918 38.0583 48.736 40.1668C48.9803 42.2753 46.857 43.9667 45.8134 43.8179" stroke="#263238" stroke-linecap="round" stroke-linejoin="round"/>
<path d="M46.8324 38.401C46.8324 38.401 49.1321 39.1762 49.135 41.3699C49.1379 43.5637 47.412 45.7822 47.412 45.7822" stroke="#263238" stroke-linecap="round" stroke-linejoin="round"/>
<path d="M44.164 42.8738C44.5211 42.6335 46.3582 39.308 46.4767 39.1529C46.5476 39.0537 46.8005 38.2754 46.9725 37.7297L47.5507 37.6568C47.7175 37.536 47.8989 37.44 48.0899 37.3716C48.2956 37.312 48.5086 37.2864 48.7215 37.2956C48.7215 37.2956 48.4209 37.0088 48.1303 37.1049C47.8398 37.201 47.5753 37.3173 47.5753 37.3173L47.3585 37.0879L47.1416 37.1917L46.7499 37.1576C46.7499 37.1576 46.0359 39.1064 45.3363 39.9963C44.6367 40.8862 43.2823 42.2955 43.4572 42.5854C43.6321 42.8753 43.8085 43.1156 44.164 42.8738Z" fill="#263238" stroke="#263238" stroke-linecap="round" stroke-linejoin="round"/>
<path d="M50.9114 50.1527L49.2665 48.2923L46.299 44.4055L44.7162 42.5342L31.8518 55.8239C31.741 56.0569 31.6821 56.3143 31.6798 56.5758C31.6798 57.0068 31.3415 57.7727 31.5656 58.0486C31.7896 58.3246 32.2478 58.0347 32.2478 58.0347L32.5889 57.7479C32.5889 57.7479 34.3914 56.8797 34.4883 56.7804C34.5851 56.6812 38.5586 53.458 38.5586 53.458L45.1918 45.1543L45.4361 45.297C45.4361 45.297 48.9326 48.9837 49.1234 49.2163C49.3142 49.4488 50.4908 50.5031 50.4908 50.5031C50.4908 50.5031 50.6194 51.0038 50.91 51.0348C50.9752 51.0427 51.0413 51.0325 51.1018 51.0052C51.1623 50.9779 51.2153 50.9344 51.2558 50.8789C51.2962 50.8235 51.3227 50.7578 51.3328 50.6882C51.3428 50.6186 51.3361 50.5474 51.3132 50.4814C51.2745 50.397 51.2181 50.3233 51.1484 50.2663C51.0786 50.2093 50.9975 50.1704 50.9114 50.1527ZM39.3218 51.2209L37.8041 52.9836C37.8041 52.9836 33.157 56.5975 32.9431 56.7045C32.7292 56.8114 32.1524 56.7696 32.1524 56.7696L33.2249 55.4704L43.8417 44.4443L44.0831 44.6892L39.3218 51.2209Z" fill="#263238" stroke="#263238" stroke-linecap="round" stroke-linejoin="round"/>
<path d="M29.2211 34.8445C29.2211 34.8445 28.3813 35.9871 28.3437 37.1359C28.3061 38.2847 29.1994 39.3281 30.1924 39.9265C31.1854 40.525 37.1219 43.0614 37.1219 43.0614C37.1219 43.0614 36.4859 44.6846 36.6405 45.5419C36.7952 46.3993 37.4341 50.3573 37.4341 50.3573C37.4341 50.3573 37.1146 53.0751 37.3604 53.3154C37.6061 53.5557 39.2886 53.1759 39.634 53.0921C39.9795 53.0084 41.9771 53.0627 42.3948 53.0503C42.8126 53.0379 42.8184 52.4084 42.6102 52.2193C42.4021 52.0301 40.497 51.3526 40.0792 51.0937C39.8315 50.9423 39.6039 50.7556 39.4028 50.5387C39.1861 49.9956 39.0463 49.4208 38.9879 48.8333C38.907 47.9233 39.092 45.359 39.1325 44.359C39.1729 43.359 39.4346 41.556 39.1672 41.0816C38.8998 40.6071 34.3018 37.1142 34.3018 37.1142C34.3018 37.1142 30.2676 34.9375 29.2211 34.8445Z" fill="white" stroke="#263238" stroke-linecap="round" stroke-linejoin="round"/>
<path d="M34.3017 37.1142C34.3017 37.1142 30.2632 34.9437 29.2167 34.8398C29.2167 34.8398 28.3769 35.9825 28.3393 37.1313C28.3017 38.2801 29.195 39.3235 30.188 39.9219C30.7286 40.2475 32.7349 41.1498 34.4506 41.9048L36.5971 38.9002C35.4321 37.9747 34.3017 37.1142 34.3017 37.1142Z" fill="#92E3A9" stroke="#263238" stroke-linecap="round" stroke-linejoin="round"/>
<path d="M35.049 41.0738L35.9582 39.7994C34.6313 38.8506 31.1882 36.3747 31.0741 36.1762C30.9946 36.0351 31.1507 35.7886 31.2995 35.6072C30.8197 35.3855 30.3557 35.1871 29.9697 35.046C29.7327 35.4708 29.26 36.432 29.5072 36.9762C29.7717 37.556 33.6325 40.1405 35.049 41.0738Z" fill="#263238" stroke="#263238" stroke-linecap="round" stroke-linejoin="round"/>
<path d="M40.0835 51.1046C39.8357 50.9531 39.6082 50.7664 39.407 50.5496L38.9271 51.2348C38.6206 51.3058 38.3064 51.3313 37.9934 51.3108C37.7968 51.2906 37.5496 51.2767 37.3401 51.2658C37.2678 52.0813 37.2042 53.1774 37.356 53.3262C37.6031 53.5665 39.2842 53.1867 39.6296 53.103C39.9751 53.0193 41.9727 53.0735 42.3904 53.0611C42.8082 53.0487 42.8139 52.4193 42.6058 52.2301C42.3977 52.041 40.4969 51.3635 40.0835 51.1046Z" fill="#5C5C5C" stroke="#263238" stroke-linecap="round" stroke-linejoin="round"/>
</g>
<defs>
<clipPath id="clip0_76_135">
<rect width="70" height="70" fill="white" transform="translate(15.8 15)"/>
</clipPath>
</defs>
</svg>
