<svg width="100" height="100" viewBox="0 0 100 100" fill="none" xmlns="http://www.w3.org/2000/svg">
<rect width="100" height="100" rx="50" fill="#37E1A0" fill-opacity="0.25"/>
<rect x="15" y="15" width="70" height="70" rx="35" fill="white"/>
<path d="M77.2594 63.8796H51.96C51.7425 63.8792 51.5341 63.7927 51.3803 63.6389C51.2265 63.4851 51.14 63.2767 51.1396 63.0592V26.2C51.1403 25.9828 51.227 25.7747 51.3808 25.6212C51.5345 25.4677 51.7428 25.3814 51.96 25.381H77.2594C77.4766 25.3814 77.6849 25.4677 77.8386 25.6212C77.9923 25.7747 78.079 25.9828 78.0798 26.2V63.0592C78.0794 63.2767 77.9929 63.4851 77.8391 63.6389C77.6853 63.7927 77.4769 63.8792 77.2594 63.8796ZM51.96 25.416C51.8565 25.4152 51.7539 25.435 51.658 25.474C51.5622 25.5131 51.475 25.5707 51.4015 25.6435C51.328 25.7164 51.2696 25.8031 51.2297 25.8986C51.1898 25.994 51.1692 26.0965 51.169 26.2V63.0592C51.169 63.2675 51.2517 63.4673 51.399 63.6145C51.5463 63.7618 51.7461 63.8446 51.9544 63.8446H77.2594C77.4677 63.8446 77.6675 63.7618 77.8147 63.6145C77.962 63.4673 78.0448 63.2675 78.0448 63.0592V26.2C78.0448 25.9917 77.962 25.7919 77.8147 25.6446C77.6675 25.4973 77.4677 25.4146 77.2594 25.4146L51.96 25.416Z" fill="#F0F0F0"/>
<path d="M48.0792 63.8796H22.7742C22.5567 63.8792 22.3483 63.7927 22.1945 63.6389C22.0407 63.4851 21.9542 63.2766 21.9538 63.0592V26.2C21.9542 25.9825 22.0407 25.7741 22.1945 25.6203C22.3483 25.4665 22.5567 25.3799 22.7742 25.3796H48.0792C48.2967 25.3799 48.5051 25.4665 48.6589 25.6203C48.8127 25.7741 48.8992 25.9825 48.8996 26.2V63.0592C48.8992 63.2766 48.8127 63.4851 48.6589 63.6389C48.5051 63.7927 48.2967 63.8792 48.0792 63.8796ZM22.7742 25.416C22.5661 25.416 22.3666 25.4985 22.2193 25.6455C22.0721 25.7925 21.9892 25.9919 21.9888 26.2V63.0592C21.9888 63.2675 22.0715 63.4672 22.2188 63.6145C22.3661 63.7618 22.5659 63.8446 22.7742 63.8446H48.0792C48.2875 63.8446 48.4873 63.7618 48.6346 63.6145C48.7819 63.4672 48.8646 63.2675 48.8646 63.0592V26.2C48.8646 25.9917 48.7819 25.7919 48.6346 25.6446C48.4873 25.4973 48.2875 25.4146 48.0792 25.4146L22.7742 25.416Z" fill="#F0F0F0"/>
<path d="M85 72.4293H15V72.4643H85V72.4293Z" fill="#E0E0E0"/>
<path d="M81.7226 72.4294C79.68 70.5898 67.3516 59.842 59.632 61.2728C52.0202 62.6826 43.812 70.846 42.272 72.4294H81.7226Z" fill="#E6E6E6"/>
<path d="M60.8836 72.4294C58.7836 69.6182 48.215 54.7222 40.2154 55.6042C33.515 56.342 22.6762 69.509 20.3508 72.4294H60.8836Z" fill="#F5F5F5"/>
<path d="M23.5834 28.72C23.5834 28.72 24.2834 27.628 25.864 27.8548C27.1688 28.041 27.5608 26.2196 28.944 26.2112C30.3734 26.2112 30.0472 27.4838 31.8084 27.6504C33.0474 27.7666 34.0232 26.4394 34.8884 28.72H23.5834Z" fill="#F0F0F0"/>
<path d="M65.4938 32.0478C65.4938 32.0478 66.1938 30.9558 67.7744 31.1812C69.0792 31.3674 69.4726 29.546 70.8544 29.539C72.2838 29.5306 71.9576 30.8116 73.7188 30.9768C74.9578 31.0944 75.9336 29.7658 76.7988 32.0478H65.4938Z" fill="#F0F0F0"/>
<path d="M47.472 30.503C47.8012 29.1197 46.9468 27.7314 45.5636 27.4021C44.1803 27.0728 42.792 27.9273 42.4627 29.3105C42.1335 30.6938 42.9879 32.0821 44.3711 32.4113C45.7544 32.7406 47.1427 31.8862 47.472 30.503Z" fill="#F0F0F0"/>
<path d="M26.9798 48.8099C26.879 48.4767 26.5066 47.4869 25.486 47.2769C24.548 47.0837 23.666 47.7585 23.1298 48.0917C22.5936 48.4249 22.1232 48.3479 21.1698 48.1001C20.5244 47.9335 19.8566 48.4809 19.683 48.8099H26.9798Z" fill="#F0F0F0"/>
<path d="M41.4138 38.688C41.4137 38.6981 41.4101 38.7079 41.4036 38.7157C41.3972 38.7236 41.3883 38.729 41.3784 38.7311C41.3685 38.7332 41.3581 38.7319 41.349 38.7274C41.34 38.7228 41.3327 38.7154 41.3284 38.7062C41.2942 38.6189 41.2359 38.5431 41.1603 38.4875C41.0848 38.432 40.995 38.3991 40.9014 38.3926C40.8318 38.3965 40.7625 38.382 40.7003 38.3506C40.6381 38.3191 40.5853 38.2718 40.5472 38.2134V39.7534C40.0572 40.1636 39.2004 39.8934 39.4454 39.4342C39.6904 38.975 40.3344 39.4342 40.3344 39.4342V37.5904H40.5472C40.5472 37.5904 40.7586 38.0482 41.1408 38.0846C41.3942 38.1084 41.4222 38.457 41.4138 38.688Z" fill="#E0E0E0"/>
<path d="M61.9 33.1734L60.6624 32.5294V32.8248V34.1142C60.6624 34.1142 60.213 33.7894 60.0422 34.1142C59.8714 34.439 60.4692 34.6238 60.8122 34.3368V33.1244L61.7516 33.5794V34.46C61.7516 34.46 61.3022 34.1338 61.1314 34.46C60.9606 34.7862 61.5584 34.9682 61.9 34.6812V33.1692V33.1734ZM61.6928 33.3694L60.878 32.9816V32.8248L61.6928 33.2266V33.3694Z" fill="#E0E0E0"/>
<path d="M79.12 76.9612C79.12 77.4946 65.68 77.9272 49.0886 77.9272C32.4972 77.9272 19.06 77.4946 19.06 76.9612C19.06 76.4278 32.5 75.9938 49.0914 75.9938C65.6828 75.9938 79.12 76.4264 79.12 76.9612Z" fill="#F5F5F5"/>
<path d="M27.3788 33.5108C26.998 33.6088 26.8972 33.7488 26.8188 34.257C26.8172 34.2642 26.8133 34.2707 26.8075 34.2753C26.8018 34.28 26.7946 34.2825 26.7873 34.2825C26.7799 34.2825 26.7727 34.28 26.767 34.2753C26.7613 34.2707 26.7573 34.2642 26.7558 34.257C26.6816 33.7488 26.5808 33.6088 26.1958 33.5108C26.1851 33.5082 26.1756 33.5021 26.1688 33.4934C26.1621 33.4848 26.1584 33.4742 26.1584 33.4632C26.1584 33.4522 26.1621 33.4416 26.1688 33.4329C26.1756 33.4243 26.1851 33.4182 26.1958 33.4156C26.578 33.3176 26.6788 33.1776 26.7558 32.6694C26.7573 32.6622 26.7613 32.6557 26.767 32.651C26.7727 32.6464 26.7799 32.6439 26.7873 32.6439C26.7946 32.6439 26.8018 32.6464 26.8075 32.651C26.8133 32.6557 26.8172 32.6622 26.8188 32.6694C26.893 33.1776 26.9938 33.3176 27.3788 33.4156C27.3894 33.4182 27.3989 33.4243 27.4057 33.4329C27.4124 33.4416 27.4161 33.4522 27.4161 33.4632C27.4161 33.4742 27.4124 33.4848 27.4057 33.4934C27.3989 33.5021 27.3894 33.5082 27.3788 33.5108Z" fill="#407BFF"/>
<g opacity="0.6">
<path d="M27.3788 33.5108C26.998 33.6088 26.8972 33.7488 26.8188 34.257C26.8172 34.2642 26.8133 34.2707 26.8075 34.2753C26.8018 34.28 26.7946 34.2825 26.7873 34.2825C26.7799 34.2825 26.7727 34.28 26.767 34.2753C26.7613 34.2707 26.7573 34.2642 26.7558 34.257C26.6816 33.7488 26.5808 33.6088 26.1958 33.5108C26.1851 33.5082 26.1756 33.5021 26.1688 33.4934C26.1621 33.4848 26.1584 33.4742 26.1584 33.4632C26.1584 33.4522 26.1621 33.4416 26.1688 33.4329C26.1756 33.4243 26.1851 33.4182 26.1958 33.4156C26.578 33.3176 26.6788 33.1776 26.7558 32.6694C26.7573 32.6622 26.7613 32.6557 26.767 32.651C26.7727 32.6464 26.7799 32.6439 26.7873 32.6439C26.7946 32.6439 26.8018 32.6464 26.8075 32.651C26.8133 32.6557 26.8172 32.6622 26.8188 32.6694C26.893 33.1776 26.9938 33.3176 27.3788 33.4156C27.3894 33.4182 27.3989 33.4243 27.4057 33.4329C27.4124 33.4416 27.4161 33.4522 27.4161 33.4632C27.4161 33.4742 27.4124 33.4848 27.4057 33.4934C27.3989 33.5021 27.3894 33.5082 27.3788 33.5108Z" fill="white"/>
</g>
<path d="M22.9226 37.0472C22.5404 37.1452 22.4396 37.2852 22.3626 37.7934C22.361 37.8006 22.3571 37.8071 22.3514 37.8117C22.3456 37.8163 22.3385 37.8189 22.3311 37.8189C22.3237 37.8189 22.3165 37.8163 22.3108 37.8117C22.3051 37.8071 22.3011 37.8006 22.2996 37.7934C22.2254 37.2852 22.1246 37.1452 21.7396 37.0472C21.7289 37.0446 21.7194 37.0384 21.7127 37.0298C21.7059 37.0212 21.7022 37.0105 21.7022 36.9996C21.7022 36.9886 21.7059 36.9779 21.7127 36.9693C21.7194 36.9607 21.7289 36.9546 21.7396 36.952C22.1204 36.854 22.2212 36.714 22.2996 36.2058C22.3011 36.1985 22.3051 36.1921 22.3108 36.1874C22.3165 36.1828 22.3237 36.1802 22.3311 36.1802C22.3385 36.1802 22.3456 36.1828 22.3514 36.1874C22.3571 36.1921 22.361 36.1985 22.3626 36.2058C22.4368 36.714 22.5376 36.854 22.9226 36.952C22.9332 36.9546 22.9427 36.9607 22.9495 36.9693C22.9563 36.9779 22.96 36.9886 22.96 36.9996C22.96 37.0105 22.9563 37.0212 22.9495 37.0298C22.9427 37.0384 22.9332 37.0446 22.9226 37.0472Z" fill="#407BFF"/>
<g opacity="0.6">
<path d="M22.9226 37.0472C22.5404 37.1452 22.4396 37.2852 22.3626 37.7934C22.361 37.8006 22.3571 37.8071 22.3514 37.8117C22.3456 37.8163 22.3385 37.8189 22.3311 37.8189C22.3237 37.8189 22.3165 37.8163 22.3108 37.8117C22.3051 37.8071 22.3011 37.8006 22.2996 37.7934C22.2254 37.2852 22.1246 37.1452 21.7396 37.0472C21.7289 37.0446 21.7194 37.0384 21.7127 37.0298C21.7059 37.0212 21.7022 37.0105 21.7022 36.9996C21.7022 36.9886 21.7059 36.9779 21.7127 36.9693C21.7194 36.9607 21.7289 36.9546 21.7396 36.952C22.1204 36.854 22.2212 36.714 22.2996 36.2058C22.3011 36.1985 22.3051 36.1921 22.3108 36.1874C22.3165 36.1828 22.3237 36.1802 22.3311 36.1802C22.3385 36.1802 22.3456 36.1828 22.3514 36.1874C22.3571 36.1921 22.361 36.1985 22.3626 36.2058C22.4368 36.714 22.5376 36.854 22.9226 36.952C22.9332 36.9546 22.9427 36.9607 22.9495 36.9693C22.9563 36.9779 22.96 36.9886 22.96 36.9996C22.96 37.0105 22.9563 37.0212 22.9495 37.0298C22.9427 37.0384 22.9332 37.0446 22.9226 37.0472Z" fill="white"/>
</g>
<path d="M76.9907 41.0799C77.6096 40.4609 77.6096 39.4575 76.9907 38.8386C76.3717 38.2197 75.3683 38.2197 74.7494 38.8386C74.1305 39.4575 74.1305 40.4609 74.7494 41.0799C75.3683 41.6988 76.3718 41.6988 76.9907 41.0799Z" fill="#407BFF"/>
<path opacity="0.6" d="M76.9907 41.0799C77.6096 40.4609 77.6096 39.4575 76.9907 38.8386C76.3717 38.2197 75.3683 38.2197 74.7494 38.8386C74.1305 39.4575 74.1305 40.4609 74.7494 41.0799C75.3683 41.6988 76.3718 41.6988 76.9907 41.0799Z" fill="white"/>
<path d="M75.5192 39.143V40.7768L76.649 39.9592L75.5192 39.143Z" fill="white"/>
<path d="M62.3368 27.0596V29.6832C62.3368 29.7426 62.3132 29.7996 62.2712 29.8416C62.2292 29.8836 62.1722 29.9072 62.1128 29.9072H59.415C59.3556 29.9072 59.2986 29.8836 59.2566 29.8416C59.2146 29.7996 59.191 29.7426 59.191 29.6832V27.0596C59.191 27.0002 59.2146 26.9432 59.2566 26.9012C59.2986 26.8592 59.3556 26.8356 59.415 26.8356H62.11C62.1396 26.8352 62.1691 26.8407 62.1966 26.8518C62.2241 26.8629 62.2491 26.8794 62.2702 26.9002C62.2913 26.921 62.308 26.9459 62.3195 26.9732C62.3309 27.0006 62.3368 27.0299 62.3368 27.0596Z" fill="#407BFF"/>
<g opacity="0.6">
<path d="M62.3368 27.0596V29.6832C62.3368 29.7426 62.3132 29.7996 62.2712 29.8416C62.2292 29.8836 62.1722 29.9072 62.1128 29.9072H59.415C59.3556 29.9072 59.2986 29.8836 59.2566 29.8416C59.2146 29.7996 59.191 29.7426 59.191 29.6832V27.0596C59.191 27.0002 59.2146 26.9432 59.2566 26.9012C59.2986 26.8592 59.3556 26.8356 59.415 26.8356H62.11C62.1396 26.8352 62.1691 26.8407 62.1966 26.8518C62.2241 26.8629 62.2491 26.8794 62.2702 26.9002C62.2913 26.921 62.308 26.9459 62.3195 26.9732C62.3309 27.0006 62.3368 27.0299 62.3368 27.0596Z" fill="white"/>
</g>
<path d="M61.5178 28.531C61.3037 28.7921 61.0495 29.0175 60.7646 29.1988C60.4792 29.0177 60.2245 28.7923 60.01 28.531C59.7412 28.1656 59.9344 27.691 60.29 27.726C60.3909 27.7329 60.488 27.767 60.5711 27.8247C60.6542 27.8824 60.7201 27.9615 60.7618 28.0536C60.8025 27.961 60.868 27.8815 60.951 27.8237C61.034 27.7659 61.1313 27.7321 61.2322 27.726C61.5934 27.698 61.7866 28.16 61.5178 28.531Z" fill="white"/>
<path d="M40.1636 30.7794V33.6088C40.1633 33.6729 40.1376 33.7343 40.0923 33.7796C40.0469 33.825 39.9855 33.8506 39.9214 33.851H37.0136C36.9818 33.8512 36.9502 33.845 36.9207 33.8329C36.8913 33.8208 36.8645 33.803 36.842 33.7805C36.8194 33.7579 36.8016 33.7312 36.7895 33.7017C36.7774 33.6722 36.7712 33.6406 36.7714 33.6088V30.7794C36.7714 30.7155 36.7968 30.6543 36.842 30.6091C36.8871 30.5639 36.9484 30.5386 37.0122 30.5386H39.92C39.9518 30.5384 39.9834 30.5445 40.0128 30.5565C40.0423 30.5685 40.0691 30.5862 40.0917 30.6085C40.1143 30.6309 40.1323 30.6575 40.1447 30.6868C40.157 30.7161 40.1634 30.7476 40.1636 30.7794Z" fill="#407BFF"/>
<g opacity="0.6">
<path d="M40.1636 30.7794V33.6088C40.1633 33.6729 40.1376 33.7343 40.0923 33.7796C40.0469 33.825 39.9855 33.8506 39.9214 33.851H37.0136C36.9818 33.8512 36.9502 33.845 36.9207 33.8329C36.8913 33.8208 36.8645 33.803 36.842 33.7805C36.8194 33.7579 36.8016 33.7312 36.7895 33.7017C36.7774 33.6722 36.7712 33.6406 36.7714 33.6088V30.7794C36.7714 30.7155 36.7968 30.6543 36.842 30.6091C36.8871 30.5639 36.9484 30.5386 37.0122 30.5386H39.92C39.9518 30.5384 39.9834 30.5445 40.0128 30.5565C40.0423 30.5685 40.0691 30.5862 40.0917 30.6085C40.1143 30.6309 40.1323 30.6575 40.1447 30.6868C40.157 30.7161 40.1634 30.7476 40.1636 30.7794Z" fill="white"/>
</g>
<path d="M38.94 32.6176C38.89 32.6176 38.8407 32.6292 38.796 32.6516C38.7513 32.674 38.7124 32.7064 38.6824 32.7464L38.0552 32.3838C38.071 32.3456 38.0791 32.3047 38.079 32.2634C38.0788 32.2267 38.0726 32.1903 38.0608 32.1556L38.7468 31.7594C38.7977 31.8146 38.8663 31.8502 38.9407 31.8601C39.0151 31.8701 39.0906 31.8538 39.1542 31.814C39.2178 31.7742 39.2656 31.7134 39.2891 31.6421C39.3127 31.5709 39.3106 31.4936 39.2833 31.4237C39.256 31.3538 39.2051 31.2957 39.1394 31.2593C39.0738 31.223 38.9975 31.2107 38.9238 31.2246C38.85 31.2385 38.7834 31.2777 38.7355 31.3355C38.6876 31.3933 38.6614 31.466 38.6614 31.541C38.6614 31.5592 38.6614 31.576 38.6614 31.5914L37.946 32.0114C37.8987 31.9761 37.8425 31.9544 37.7837 31.9489C37.7249 31.9433 37.6657 31.954 37.6125 31.9799C37.5594 32.0057 37.5144 32.0457 37.4825 32.0954C37.4505 32.1451 37.4329 32.2026 37.4315 32.2617C37.4301 32.3208 37.4449 32.3791 37.4744 32.4303C37.504 32.4815 37.547 32.5235 37.5988 32.5519C37.6506 32.5803 37.7093 32.5938 37.7683 32.5911C37.8273 32.5884 37.8844 32.5694 37.9334 32.5364L38.6138 32.9284C38.6138 32.9284 38.6138 32.9396 38.6138 32.9466C38.6138 33.0106 38.6328 33.0731 38.6683 33.1263C38.7039 33.1795 38.7544 33.2209 38.8135 33.2454C38.8726 33.2699 38.9376 33.2763 39.0003 33.2638C39.0631 33.2513 39.1207 33.2205 39.1659 33.1753C39.2111 33.1301 39.2419 33.0724 39.2544 33.0097C39.2669 32.947 39.2605 32.8819 39.236 32.8228C39.2115 32.7638 39.1701 32.7132 39.1169 32.6777C39.0637 32.6422 39.0012 32.6232 38.9372 32.6232L38.94 32.6176Z" fill="white"/>
<path d="M64.0952 53.157L51.526 69.2668H64.0952V77.1068H40.6382V69.7148L53.031 53.5602H40.6382V45.765H64.0952V53.157Z" fill="#407BFF"/>
<g opacity="0.3">
<path d="M64.0952 53.157L51.526 69.2668H64.0952V77.1068H40.6382V69.7148L53.031 53.5602H40.6382V45.765H64.0952V53.157Z" fill="#263238"/>
</g>
<path d="M60.7632 53.157L48.194 69.2668H60.7632V77.1068H37.3062V69.7148L49.699 53.5602H37.3062V45.765H60.7632V53.157Z" fill="#407BFF"/>
<path d="M42.902 42.7242L42.23 44.561L41.1632 44.6464L41.453 42.405L42.902 42.7242Z" fill="#B55B52"/>
<path d="M41.5216 44.379C41.5216 44.379 41.3354 44.1606 41.1156 44.239C40.8958 44.3174 40.62 44.68 40.62 44.68C40.62 44.68 39.4328 45.0692 39.108 45.0902C38.7832 45.1112 38.506 45.2946 38.4178 45.9302H42.3742C42.3742 45.9302 42.454 44.5008 42.4638 44.2502C42.4736 43.9996 42.104 44.3104 42.104 44.3104L41.5216 44.379Z" fill="#407BFF"/>
<g opacity="0.7">
<path d="M41.5216 44.379C41.5216 44.379 41.3354 44.1606 41.1156 44.239C40.8958 44.3174 40.62 44.68 40.62 44.68C40.62 44.68 39.4328 45.0692 39.108 45.0902C38.7832 45.1112 38.506 45.2946 38.4178 45.9302H42.3742C42.3742 45.9302 42.454 44.5008 42.4638 44.2502C42.4736 43.9996 42.104 44.3104 42.104 44.3104L41.5216 44.379Z" fill="white"/>
</g>
<path d="M42.3588 45.6908L39.2438 45.7258L38.5312 45.7328C38.492 45.7328 38.4878 45.6726 38.5312 45.6726L41.6462 45.6376L42.3588 45.6306C42.398 45.6306 42.4008 45.6908 42.3588 45.6908Z" fill="#263238"/>
<path d="M40.7796 44.9236C40.7504 44.8775 40.7119 44.838 40.6666 44.8075C40.6213 44.7771 40.5702 44.7564 40.5165 44.7468C40.4628 44.7372 40.4076 44.7388 40.3546 44.7517C40.3016 44.7645 40.2518 44.7883 40.2084 44.8214C40.1776 44.8452 40.144 44.792 40.1748 44.7682C40.389 44.6002 40.662 44.673 40.83 44.8928C40.8552 44.925 40.8034 44.9558 40.7796 44.9236Z" fill="#263238"/>
<path d="M40.4436 45.0272C40.4146 44.9809 40.3762 44.9412 40.3309 44.9106C40.2856 44.8801 40.2344 44.8593 40.1806 44.8497C40.1268 44.8401 40.0716 44.8418 40.0186 44.8548C39.9655 44.8677 39.9157 44.8916 39.8724 44.925C39.843 44.9488 39.8094 44.8956 39.8388 44.8718C40.0544 44.7038 40.3274 44.7766 40.4954 44.9964C40.5192 45.0286 40.4674 45.0594 40.4436 45.0272Z" fill="#263238"/>
<path d="M40.0978 45.1294C40.0686 45.0833 40.0302 45.0438 39.9849 45.0133C39.9396 44.9829 39.8885 44.9622 39.8347 44.9526C39.781 44.943 39.7259 44.9447 39.6728 44.9575C39.6198 44.9704 39.57 44.9941 39.5266 45.0272C39.4958 45.051 39.4622 44.9978 39.493 44.9754C39.7072 44.8074 39.9802 44.8802 40.1482 45.0986C40.1734 45.1308 40.1216 45.1616 40.0978 45.1294Z" fill="#263238"/>
<path d="M51.862 42.874L51.7654 42.923L51.3384 43.14L48.2514 44.6982C48.089 44.3664 47.9182 44.0248 47.7418 43.6706C47.4982 43.1848 47.242 42.6752 46.9774 42.146C46.3292 40.8468 45.6362 39.4272 44.9754 37.9054C45.0846 39.1654 43.9954 41.4614 42.8292 43.6384L40.8132 43.5404C40.8132 43.5404 42.58 32.92 44.9754 33.284C46.9354 33.5808 50.2954 39.8108 51.456 42.0676C51.5316 42.2076 51.596 42.3476 51.6534 42.454C51.7878 42.72 51.862 42.874 51.862 42.874Z" fill="#263238"/>
<path opacity="0.2" d="M51.8004 43.07L51.3384 43.1372L47.7418 43.6678C47.4982 43.182 47.242 42.6724 46.9774 42.1432C48.3368 41.8954 49.8348 41.88 51.4574 42.0676L51.5652 42.0802L51.6548 42.454L51.7668 42.923L51.8004 43.07Z" fill="black"/>
<path d="M40.6718 42.972L40.5752 43.6342L42.9706 43.7686L43.28 43.1386L40.6718 42.972Z" fill="#263238"/>
<g opacity="0.3">
<path d="M40.6718 42.972L40.5752 43.6342L42.9706 43.7686L43.28 43.1386L40.6718 42.972Z" fill="white"/>
</g>
<path d="M47.5668 34.5426C48.2304 35.041 48.9332 35.5912 49.622 36.0826L49.1208 36.98C48.2976 36.6653 47.4931 36.3035 46.7114 35.8964C46.514 35.7928 46.3138 35.685 46.1178 35.566C45.9066 35.442 45.7023 35.3065 45.506 35.16C45.3803 35.0681 45.2636 34.9645 45.1574 34.8506C45.0624 34.7502 44.9831 34.636 44.9222 34.5118C44.9091 34.4849 44.8974 34.4573 44.8872 34.4292L44.8718 34.3872L44.8522 34.3298C44.8424 34.2906 44.8326 34.2528 44.8256 34.2108C44.8174 34.157 44.8127 34.1028 44.8116 34.0484C44.8111 33.9851 44.8163 33.9218 44.827 33.8594C44.832 33.8259 44.839 33.7927 44.848 33.76C44.8594 33.7206 44.873 33.6818 44.8886 33.6438C44.9321 33.5366 44.9936 33.4376 45.0706 33.3512C45.144 33.2662 45.2288 33.1917 45.3226 33.13C45.3744 33.0948 45.4282 33.0626 45.4836 33.0334C45.5613 32.9917 45.6412 32.9544 45.723 32.9214C45.863 32.8626 45.9848 32.822 46.1038 32.7814C46.5756 32.633 47.0068 32.5336 47.445 32.4384C47.8832 32.3432 48.313 32.2634 48.7442 32.1962C49.6094 32.0562 50.4648 31.9414 51.3412 31.8714L51.5624 34.0176C50.7308 34.131 49.8824 34.2248 49.0424 34.32C48.6224 34.3732 48.2024 34.4166 47.7964 34.474L47.5248 34.5104L47.5668 34.5426Z" fill="#B55B52"/>
<path d="M51.8046 31.4738L48.4838 32.08L49.2286 34.7106L51.5624 34.5706C51.5624 34.5706 52.394 32.5546 51.8046 31.4738Z" fill="#407BFF"/>
<g opacity="0.3">
<path d="M51.8046 31.4738L48.4838 32.08L49.2286 34.7106L51.5624 34.5706C51.5624 34.5706 52.394 32.5546 51.8046 31.4738Z" fill="white"/>
</g>
<path d="M58.4672 37.246C58.2744 38.3933 58.0074 39.5269 57.6678 40.6396C57.4477 41.3734 57.1874 42.0946 56.888 42.7998C55.7218 45.5312 54.844 44.6436 54.844 44.6436C54.844 44.6436 51.8704 42.762 51.2908 42.223C50.7112 41.684 49.4596 39.563 49.4022 39.2718C49.3448 38.9806 49.2622 38.4626 50.0112 37.9138C50.1537 37.8054 50.2804 37.6777 50.3878 37.5344C50.8526 36.9296 51.1844 35.951 51.2404 35.0536C51.2661 34.7255 51.244 34.3954 51.1746 34.0736C50.8792 32.8136 50.5348 32.1318 51.4294 31.6334C51.8592 31.3926 52.7958 31.2134 53.6526 31.0874C55.0397 30.8636 56.4593 31.1928 57.6062 32.0044C57.979 32.2517 58.2895 32.5818 58.5134 32.969C58.834 33.6088 58.7962 35.2804 58.4672 37.246Z" fill="#407BFF"/>
<path opacity="0.2" d="M58.4672 37.246C58.2744 38.3933 58.0074 39.5269 57.6678 40.6396C56.6262 40.3008 52.5186 38.9148 50.3878 37.5344C50.8526 36.9296 51.1844 35.951 51.2404 35.0536C52.1168 35.531 55.6224 37.3356 58.4672 37.246Z" fill="#263238"/>
<path d="M58.7528 33.6746C58.9712 34.7218 59.1616 35.7746 59.3352 36.8302C59.5088 37.8858 59.667 38.947 59.8238 39.9886L59.8854 40.3666C59.8933 40.4213 59.9041 40.4755 59.9176 40.529C59.9288 40.5794 59.9386 40.6284 59.9568 40.6914C60.0198 40.9238 60.0968 41.1716 60.178 41.4194C60.339 41.9164 60.507 42.4204 60.6834 42.923L61.3582 45.443L60.507 45.9204C59.9932 44.9698 59.7482 44.4784 59.2778 43.504C59.0468 43.0154 58.8158 42.524 58.5974 42.0214C58.4882 41.768 58.3818 41.5132 58.2782 41.236C58.2278 41.1072 58.169 40.9196 58.1298 40.788C58.0906 40.6564 58.0514 40.508 58.0164 40.382C57.7364 39.3264 57.4844 38.282 57.2492 37.2362C57.014 36.1904 56.8068 35.1362 56.6304 34.0778L58.7528 33.6746Z" fill="#B55B52"/>
<path d="M63.0858 45.9218C63.2986 45.8546 63.3742 45.6866 63.1082 45.5732C62.7414 45.4164 62.3536 45.2064 61.9588 45.0524C61.564 44.8984 60.6988 45.1574 60.6638 45.1826L60.5112 45.9218H63.0858Z" fill="#B55B52"/>
<path d="M56.2608 34.1982L56.86 37.3188L59.6026 36.5348C59.6026 36.5348 59.4626 33.6998 58.519 32.969C57.6384 32.283 56.3182 32.6694 56.2356 33.809C56.2276 33.9393 56.236 34.07 56.2608 34.1982Z" fill="#B55B52"/>
<path d="M56.2608 34.1982L56.86 37.3188L59.6026 36.5348C59.6026 36.5348 59.4626 33.6998 58.519 32.969C57.6384 32.283 56.3182 32.6694 56.2356 33.809C56.2276 33.9393 56.236 34.07 56.2608 34.1982Z" fill="#407BFF"/>
<g opacity="0.3">
<path d="M56.2608 34.1982L56.86 37.3188L59.6026 36.5348C59.6026 36.5348 59.4626 33.6998 58.519 32.969C57.6384 32.283 56.3182 32.6694 56.2356 33.809C56.2276 33.9393 56.236 34.07 56.2608 34.1982Z" fill="white"/>
</g>
<path d="M54.368 25.6946C54.1622 25.4608 53.4524 25.4272 53.108 25.8626C52.737 26.326 52.261 27.1912 51.9754 26.9532C52.0157 27.0851 52.0951 27.2017 52.2031 27.2874C52.3111 27.3732 52.4426 27.4241 52.5802 27.4334C52.5802 27.4334 52.2778 27.7498 51.8998 27.6224C51.9621 27.8114 52.0762 27.9791 52.2292 28.1063C52.3822 28.2336 52.5679 28.3152 52.765 28.342C53.4146 28.4498 54.3596 26.6032 54.5108 26.3008C54.5136 25.9634 54.4884 25.976 54.368 25.6946Z" fill="#263238"/>
<path d="M54.7712 25.78C55.0584 25.751 55.3485 25.7816 55.6233 25.8698C55.8981 25.9579 56.1519 26.1018 56.3686 26.2924C56.6486 26.5472 56.8684 26.8804 56.7606 27.2724C56.51 28.1796 55.8632 29.6384 55.8632 29.6384L53.1444 27.46C53.1444 27.46 53.1444 26.5738 53.6022 26.144C53.8388 25.92 54.34 25.8248 54.7712 25.78Z" fill="#263238"/>
<path d="M54.2644 25.7254C54.2644 25.7254 55.2304 25.066 56.4778 26.0334C57.7252 27.0008 56.4162 28.6808 56.4162 28.6808C56.4162 28.6808 55.9962 29.427 56.349 29.6188C56.2225 29.666 56.0877 29.6869 55.9528 29.6804C55.9528 29.6804 56.0704 29.9114 56.2328 29.896C56.2328 29.896 56.0116 29.9786 55.6266 29.7966C55.2416 29.6146 54.2644 25.7254 54.2644 25.7254Z" fill="#263238"/>
<path d="M54.2266 30.4294C54.2266 30.4294 54.2266 30.4294 54.2266 30.4406L54.291 31.0006C54.2838 31.1977 54.2436 31.3922 54.172 31.576C54.032 31.716 53.9228 32.0772 54.34 32.136C54.865 32.2158 55.9416 31.5858 56.0102 31.359C55.8702 30.6044 55.789 29.735 55.9276 29.0532L55.2276 29.6132L54.2266 30.4294Z" fill="#B55B52"/>
<g opacity="0.2">
<path d="M54.2294 30.442L54.2938 31.002C54.6438 30.8984 55.0358 30.6254 55.166 30.2866C55.257 30.0416 55.1772 29.7882 55.0778 29.7602L54.2294 30.442Z" fill="black"/>
</g>
<path d="M53.059 29.1316C53.073 29.252 53.0912 29.371 53.1122 29.49C53.3012 30.533 54.5122 30.8004 55.3858 30.1774C55.4645 30.1204 55.5389 30.0577 55.6084 29.9898C56.1866 29.4214 56.1348 28.9132 56.223 27.7876C56.2462 27.526 56.202 27.2628 56.0948 27.0231C55.9876 26.7833 55.8208 26.575 55.6104 26.4178C55.3999 26.2607 55.1528 26.16 54.8925 26.1253C54.6321 26.0906 54.3673 26.1231 54.123 26.2196C53.1234 26.6102 52.9134 27.9262 53.059 29.1316Z" fill="#B55B52"/>
<path d="M54.0432 29.4732H54.0124C54.0079 29.4722 54.0036 29.4704 53.9998 29.4677C53.996 29.465 53.9928 29.4617 53.9904 29.4578C53.9879 29.4539 53.9862 29.4495 53.9854 29.445C53.9846 29.4404 53.9848 29.4357 53.9858 29.4312C53.9884 29.4226 53.9942 29.4152 54.0019 29.4105C54.0097 29.4058 54.0189 29.4042 54.0278 29.406C54.0938 29.4207 54.1621 29.4218 54.2286 29.4093C54.295 29.3969 54.3583 29.3711 54.4145 29.3336C54.4708 29.296 54.5189 29.2475 54.5558 29.1909C54.5928 29.1343 54.618 29.0708 54.6298 29.0042C54.6324 28.9953 54.6384 28.9876 54.6465 28.9829C54.6545 28.9783 54.6641 28.9769 54.6732 28.979C54.6776 28.9803 54.6817 28.9825 54.6853 28.9853C54.6889 28.9882 54.6919 28.9918 54.6941 28.9958C54.6963 28.9998 54.6977 29.0043 54.6982 29.0088C54.6987 29.0134 54.6983 29.018 54.697 29.0224C54.6684 29.168 54.5841 29.2967 54.4619 29.3809C54.3397 29.4652 54.1895 29.4983 54.0432 29.4732Z" fill="#263238"/>
<path d="M54.3862 28.3532C54.3291 28.3318 54.2824 28.2892 54.256 28.2342C54.2532 28.2255 54.2538 28.216 54.2577 28.2077C54.2616 28.1994 54.2685 28.1929 54.277 28.1894C54.2812 28.1879 54.2857 28.1872 54.2902 28.1874C54.2947 28.1876 54.2991 28.1888 54.3031 28.1907C54.3072 28.1927 54.3108 28.1954 54.3138 28.1988C54.3167 28.2022 54.319 28.2061 54.3204 28.2104C54.3381 28.2397 54.3626 28.2643 54.3919 28.2821C54.4211 28.2999 54.4542 28.3103 54.4884 28.3126C54.5304 28.3186 54.5732 28.3131 54.6123 28.2969C54.6515 28.2806 54.6856 28.2541 54.711 28.2202C54.7133 28.2157 54.7165 28.2118 54.7205 28.2086C54.7245 28.2055 54.7291 28.2033 54.734 28.2021C54.7389 28.2009 54.744 28.2008 54.749 28.2018C54.7539 28.2028 54.7586 28.2049 54.7627 28.2078C54.7668 28.2108 54.7702 28.2146 54.7727 28.219C54.7751 28.2234 54.7766 28.2283 54.777 28.2333C54.7774 28.2384 54.7768 28.2434 54.775 28.2482C54.7733 28.2529 54.7706 28.2572 54.767 28.2608C54.7338 28.3052 54.6892 28.3398 54.6379 28.3607C54.5866 28.3817 54.5306 28.3883 54.4758 28.3798C54.4449 28.3749 54.4148 28.366 54.3862 28.3532Z" fill="#263238"/>
<path d="M53.339 28.3476C53.285 28.3305 53.2394 28.2934 53.2116 28.244C53.2096 28.236 53.2105 28.2276 53.2141 28.2202C53.2177 28.2128 53.2238 28.2069 53.2314 28.2036C53.2389 28.2002 53.2473 28.1997 53.2552 28.2019C53.2632 28.2042 53.27 28.2092 53.2746 28.216C53.2962 28.2421 53.3232 28.2632 53.3538 28.2776C53.3844 28.292 53.4179 28.2995 53.4517 28.2995C53.4856 28.2995 53.519 28.292 53.5496 28.2776C53.5802 28.2632 53.6073 28.2421 53.6288 28.216C53.6313 28.2123 53.6345 28.2092 53.6382 28.2067C53.6419 28.2043 53.646 28.2026 53.6504 28.2018C53.6547 28.2009 53.6592 28.2009 53.6636 28.2018C53.6679 28.2027 53.672 28.2044 53.6757 28.2069C53.6794 28.2094 53.6825 28.2126 53.685 28.2163C53.6874 28.22 53.6891 28.2241 53.69 28.2285C53.6908 28.2328 53.6908 28.2373 53.6899 28.2417C53.689 28.246 53.6873 28.2501 53.6848 28.2538C53.6556 28.2945 53.6156 28.3263 53.5694 28.3455C53.5232 28.3648 53.4725 28.3709 53.423 28.363C53.3945 28.3608 53.3664 28.3557 53.339 28.3476Z" fill="#263238"/>
<path d="M56.223 27.8926C56.223 27.8926 55.8856 27.859 55.8282 28.1446C55.7708 28.4302 55.796 28.4722 55.796 28.4722L55.3872 28.4974C55.3872 28.4974 55.6588 27.4166 55.3676 27.3872C55.0764 27.3578 55.4628 26.9112 55.299 26.8146C54.914 26.5864 53.7996 26.4114 53.269 27.0204C53.269 27.0204 53.4804 26.3736 54.0642 26.0936C54.648 25.8136 55.7246 25.8962 56.0788 26.4842C56.433 27.0722 56.223 27.8926 56.223 27.8926Z" fill="#263238"/>
<path d="M56.6976 28.545C56.6127 28.8161 56.424 29.0426 56.1726 29.175C55.8394 29.3472 55.5958 29.0658 55.6252 28.7116C55.6518 28.3924 55.8576 27.9178 56.223 27.8926C56.5884 27.8674 56.797 28.2118 56.6976 28.545Z" fill="#B55B52"/>
<path d="M56.0886 28.3728L55.9486 28.9888L56.0774 28.9594L56.181 28.6416C56.181 28.6416 56.4148 28.594 56.3966 28.4848C56.3784 28.3756 56.0886 28.3728 56.0886 28.3728Z" fill="white"/>
<path d="M53.1752 27.88C53.1832 27.8802 53.191 27.8782 53.198 27.8743C53.2049 27.8703 53.2106 27.8646 53.2144 27.8576C53.2286 27.8295 53.2483 27.8047 53.2724 27.7844C53.2964 27.7642 53.3243 27.7491 53.3544 27.74C53.4168 27.7276 53.4816 27.7385 53.5364 27.7708C53.5466 27.7769 53.5589 27.7787 53.5704 27.7758C53.582 27.773 53.5919 27.7656 53.598 27.7554C53.6041 27.7452 53.606 27.7329 53.6031 27.7214C53.6002 27.7098 53.5928 27.6999 53.5826 27.6938C53.5073 27.6502 53.4187 27.6358 53.3334 27.6532C53.2912 27.6645 53.2518 27.6845 53.2178 27.712C53.1838 27.7395 53.1559 27.7738 53.136 27.8128C53.133 27.8179 53.1311 27.8236 53.1303 27.8295C53.1296 27.8354 53.13 27.8414 53.1315 27.8471C53.1331 27.8528 53.1358 27.8582 53.1394 27.8629C53.1431 27.8676 53.1476 27.8715 53.1528 27.8744C53.1596 27.8785 53.1674 27.8804 53.1752 27.88Z" fill="#263238"/>
<path d="M54.8874 27.9192H54.907C54.9174 27.9136 54.9251 27.9041 54.9285 27.8928C54.9319 27.8816 54.9307 27.8694 54.9252 27.859C54.8816 27.7828 54.8113 27.7254 54.7278 27.698C54.6859 27.6876 54.6422 27.686 54.5996 27.6932C54.5569 27.7004 54.5162 27.7164 54.48 27.74C54.4748 27.7429 54.4703 27.7468 54.4666 27.7515C54.463 27.7562 54.4603 27.7615 54.4587 27.7673C54.4572 27.773 54.4568 27.779 54.4575 27.7849C54.4583 27.7908 54.4602 27.7965 54.4632 27.8016C54.4696 27.8115 54.4794 27.8188 54.4908 27.8219C54.5022 27.825 54.5143 27.8237 54.5248 27.8184C54.551 27.8007 54.5805 27.7885 54.6116 27.7827C54.6427 27.777 54.6746 27.7777 54.7054 27.7848C54.7641 27.8062 54.8136 27.8472 54.8454 27.901C54.8503 27.9073 54.8568 27.9123 54.8641 27.9155C54.8714 27.9187 54.8795 27.9199 54.8874 27.9192Z" fill="#263238"/>
<path d="M53.8864 28.16C53.8335 28.3456 53.728 28.5118 53.5826 28.6388C53.3488 28.8278 53.7996 29.007 53.7996 29.007L53.8864 28.16Z" fill="#A02724"/>
<path d="M46.787 56.51L46.7856 58.3272L45.7986 58.7178L45.6726 56.4834L46.787 56.51Z" fill="#B55B52"/>
<path d="M46.0632 58.3566C46.0632 58.3566 45.821 58.2026 45.6334 58.337C45.4458 58.4714 45.2918 58.897 45.2918 58.897C45.2918 58.897 44.2698 59.6138 43.9646 59.7286C43.6594 59.8434 43.4494 60.0996 43.5446 60.731L47.3246 59.576C47.3246 59.576 46.983 58.1858 46.9228 57.9478C46.8626 57.7098 46.5966 58.1116 46.5966 58.1116L46.0632 58.3566Z" fill="#407BFF"/>
<g opacity="0.7">
<path d="M46.0632 58.3566C46.0632 58.3566 45.821 58.2026 45.6334 58.337C45.4458 58.4714 45.2918 58.897 45.2918 58.897C45.2918 58.897 44.2698 59.6138 43.9646 59.7286C43.6594 59.8434 43.4494 60.0996 43.5446 60.731L47.3246 59.576C47.3246 59.576 46.983 58.1858 46.9228 57.9478C46.8626 57.7098 46.5966 58.1116 46.5966 58.1116L46.0632 58.3566Z" fill="white"/>
</g>
<path d="M47.2462 59.3688L44.2768 60.3082L43.5964 60.5238C43.5586 60.535 43.5376 60.4776 43.5754 60.4664L46.5462 59.52L47.2252 59.3044C47.263 59.2932 47.284 59.3506 47.2462 59.3632V59.3688Z" fill="#263238"/>
<path d="M45.5116 59.1C45.4703 59.0641 45.422 59.0372 45.3697 59.0211C45.3174 59.005 45.2623 59 45.208 59.0065C45.1537 59.0129 45.1013 59.0307 45.0542 59.0586C45.0072 59.0865 44.9665 59.124 44.9348 59.1686C44.9138 59.1994 44.8662 59.1588 44.8872 59.128C45.044 58.904 45.3268 58.8942 45.5508 59.0552C45.5844 59.079 45.5438 59.1238 45.5116 59.1Z" fill="#263238"/>
<path d="M45.2204 59.2904C45.1792 59.2547 45.1309 59.228 45.0788 59.2121C45.0266 59.1961 44.9717 59.1912 44.9176 59.1976C44.8634 59.2041 44.8112 59.2218 44.7643 59.2496C44.7173 59.2773 44.6767 59.3146 44.645 59.359C44.6226 59.3912 44.575 59.3492 44.5974 59.3184C44.7542 59.0958 45.0356 59.0846 45.261 59.2456C45.2932 59.2694 45.2526 59.3142 45.2204 59.2904Z" fill="#263238"/>
<path d="M44.9194 59.4906C44.8782 59.4547 44.8298 59.4278 44.7775 59.4117C44.7252 59.3956 44.6702 59.3906 44.6158 59.3971C44.5615 59.4036 44.5091 59.4213 44.4621 59.4492C44.415 59.4772 44.3743 59.5146 44.3426 59.5592C44.3216 59.59 44.274 59.5494 44.295 59.5186C44.4518 59.2946 44.7346 59.2848 44.9586 59.4458C44.9922 59.4696 44.9516 59.513 44.9194 59.4906Z" fill="#263238"/>
<path d="M55.3886 45.8182L48.9612 45.9218C48.25 46.1528 47.0894 57.14 47.0894 57.14H45.5368C45.5368 57.14 44.1368 46.9368 45.219 44.5834C45.639 43.651 48.3816 42.5296 50.3878 42.223C53.4678 41.7526 56.7564 42.3182 56.762 43.1596C56.7718 44.4196 55.88 45.8 55.3886 45.8182Z" fill="#263238"/>
<path d="M45.3156 56.7522L45.3926 57.2534H47.1916L47.263 56.7438L45.3156 56.7522Z" fill="#263238"/>
<g opacity="0.3">
<path d="M45.3156 56.7522L45.3926 57.2534H47.1916L47.263 56.7438L45.3156 56.7522Z" fill="white"/>
</g>
<path d="M49.8208 36.2534C49.9986 36.4106 50.1604 36.5851 50.3038 36.7742C50.4914 37.0136 50.6888 37.2166 50.6468 37.3538C50.6048 37.491 50.1162 37.106 50.0728 37.0738C49.9739 36.8052 49.8897 36.5313 49.8208 36.2534Z" fill="#B55B52"/>
<g opacity="0.2">
<path d="M49.8208 36.2534C49.9986 36.4106 50.1604 36.5851 50.3038 36.7742C50.4914 37.0136 50.6888 37.2166 50.6468 37.3538C50.6048 37.491 50.1162 37.106 50.0728 37.0738C49.9739 36.8052 49.8897 36.5313 49.8208 36.2534Z" fill="black"/>
</g>
<path d="M49.86 38.765C49.6836 38.6712 49.5324 38.1238 49.5324 38.1238C49.5324 38.1238 49.72 38.5998 49.4176 38.4948C49.2342 38.4332 49.125 37.8354 49.076 37.5848C48.9612 37.2432 48.796 36.8204 48.796 36.8204C48.796 36.8204 49.363 35.9986 49.615 36.0938C49.8334 36.175 50.1456 36.6202 50.3612 37.05C50.4017 37.1203 50.4364 37.1938 50.4648 37.2698C50.4858 37.3258 50.5068 37.3846 50.5264 37.4532C50.938 38.8798 50.035 38.8588 49.86 38.765Z" fill="#B55B52"/>
<path d="M77.3 45.3548C77.3 45.3548 77.4078 44.3916 77.3 44.1774C77.1922 43.9632 76.88 44.8774 76.88 44.8774L77.3 45.3548Z" fill="#CE7A63"/>
<path d="M66.4668 38.975C66.4668 38.975 65.2768 38.0132 66.3632 37.2432C67.4496 36.4732 69.9612 37.6492 70.734 38.408C71.5068 39.1668 70.8306 39.8304 70.8306 39.8304L66.4668 38.975Z" fill="#263238"/>
<path d="M63.6164 73.7538L63.4778 75.9742L64.4242 76.0498L65.0598 73.8658L63.6164 73.7538Z" fill="#D5794A"/>
<path d="M64.2044 75.8286C64.2426 75.7801 64.2938 75.7433 64.352 75.7225C64.4102 75.7017 64.473 75.6977 64.5334 75.711C64.7168 75.7712 64.9534 76.0736 64.9534 76.0736C64.9534 76.0736 65.953 76.3928 66.2218 76.4096C66.4906 76.4264 66.6684 76.6 66.6908 77.1012H63.3C63.3 77.1012 63.3 75.9238 63.4148 75.7194C63.5156 75.543 63.7158 75.7698 63.7158 75.7698L64.2044 75.8286Z" fill="#263238"/>
<path d="M66.618 76.9458L66.0286 76.9388L63.4526 76.9136C63.4468 76.9122 63.4416 76.9089 63.4378 76.9042C63.4341 76.8995 63.4321 76.8937 63.4321 76.8877C63.4321 76.8817 63.4341 76.8759 63.4378 76.8712C63.4416 76.8665 63.4468 76.8632 63.4526 76.8618H63.6276C63.6805 76.7348 63.6825 76.5923 63.6332 76.4638C63.584 76.3353 63.4872 76.2307 63.363 76.1716C63.3579 76.1679 63.3543 76.1625 63.353 76.1564C63.3517 76.1502 63.3527 76.1438 63.3558 76.1384C63.359 76.133 63.364 76.1289 63.37 76.127C63.376 76.1251 63.3825 76.1255 63.3882 76.1282C63.521 76.1924 63.6246 76.3043 63.6786 76.4416C63.7326 76.5788 63.7329 76.7313 63.6794 76.8688H64.042L66.618 76.8968C66.6235 76.8981 66.6284 76.9012 66.6319 76.9057C66.6354 76.9101 66.6373 76.9156 66.6373 76.9213C66.6373 76.9269 66.6354 76.9324 66.6319 76.9369C66.6284 76.9413 66.6235 76.9445 66.618 76.9458Z" fill="white"/>
<path d="M64.84 76.2779C64.8633 76.2397 64.8944 76.2068 64.9313 76.1815C64.9682 76.1562 65.0101 76.1389 65.0542 76.131C65.0983 76.1231 65.1435 76.1246 65.1869 76.1354C65.2304 76.1463 65.271 76.1662 65.3062 76.1939C65.3328 76.2135 65.358 76.1687 65.3328 76.1505C65.2918 76.1193 65.2448 76.0971 65.1946 76.0853C65.1445 76.0735 65.0925 76.0724 65.0419 76.082C64.9913 76.0917 64.9433 76.1119 64.9011 76.1413C64.8588 76.1707 64.8232 76.2087 64.7966 76.2527C64.777 76.2793 64.8204 76.3045 64.84 76.2779Z" fill="white"/>
<path d="M65.12 76.3634C65.1435 76.3252 65.1747 76.2923 65.2118 76.2669C65.2488 76.2416 65.2908 76.2244 65.335 76.2164C65.3792 76.2085 65.4245 76.21 65.4681 76.2209C65.5116 76.2317 65.5524 76.2517 65.5876 76.2794C65.6128 76.299 65.638 76.2543 65.6128 76.2347C65.5717 76.2037 65.5246 76.1818 65.4744 76.1702C65.4243 76.1586 65.3723 76.1577 65.3217 76.1675C65.2712 76.1772 65.2233 76.1975 65.1811 76.2269C65.1389 76.2563 65.1033 76.2942 65.0766 76.3382C65.057 76.3648 65.1018 76.39 65.12 76.3634Z" fill="white"/>
<path d="M65.4154 76.4488C65.4386 76.4104 65.4696 76.3774 65.5065 76.3519C65.5434 76.3265 65.5852 76.3091 65.6293 76.3011C65.6734 76.293 65.7187 76.2944 65.7622 76.3051C65.8057 76.3158 65.8464 76.3357 65.8816 76.3634C65.9082 76.383 65.9334 76.3396 65.9082 76.32C65.8671 76.2888 65.8198 76.2667 65.7695 76.255C65.7192 76.2432 65.6671 76.2422 65.6164 76.252C65.5657 76.2618 65.5176 76.2821 65.4752 76.3117C65.4329 76.3412 65.3973 76.3793 65.3706 76.4236C65.3524 76.4488 65.3958 76.4754 65.4154 76.4488Z" fill="white"/>
<path d="M70.8768 73.73L71.0084 75.9742L71.9646 76.0498L72.3342 73.8434L70.8768 73.73Z" fill="#D5794A"/>
<path d="M71.7434 75.8286C71.7818 75.7802 71.8329 75.7436 71.8911 75.7228C71.9493 75.702 72.0121 75.6979 72.0724 75.711C72.2572 75.7712 72.4924 76.0736 72.4924 76.0736C72.4924 76.0736 73.4906 76.3928 73.7608 76.4096C74.031 76.4264 74.2662 76.579 74.367 77.1012H71.1036C71.1036 77.1012 70.9748 75.921 70.9552 75.7194C70.9356 75.5178 71.2548 75.7698 71.2548 75.7698L71.7434 75.8286Z" fill="#263238"/>
<path d="M74.276 76.9458L73.6866 76.9388L71.1106 76.9136C71.1048 76.9122 71.0996 76.9089 71.0958 76.9042C71.0921 76.8995 71.0901 76.8937 71.0901 76.8877C71.0901 76.8817 71.0921 76.8759 71.0958 76.8712C71.0996 76.8665 71.1048 76.8632 71.1106 76.8618H71.28C71.3329 76.7348 71.3349 76.5923 71.2856 76.4638C71.2364 76.3353 71.1396 76.2307 71.0154 76.1716C71.0103 76.1679 71.0067 76.1625 71.0054 76.1564C71.0041 76.1502 71.0051 76.1438 71.0082 76.1384C71.0114 76.133 71.0165 76.1289 71.0224 76.127C71.0284 76.1251 71.0349 76.1255 71.0406 76.1282C71.1734 76.1924 71.277 76.3043 71.331 76.4416C71.385 76.5788 71.3853 76.7313 71.3318 76.8688H71.6944L74.2704 76.8968C74.2762 76.8973 74.2816 76.8998 74.2857 76.9039C74.2898 76.9079 74.2924 76.9133 74.2931 76.919C74.2938 76.9248 74.2924 76.9306 74.2893 76.9354C74.2862 76.9403 74.2815 76.944 74.276 76.9458Z" fill="white"/>
<path d="M72.3818 76.2779C72.4052 76.2396 72.4365 76.2067 72.4735 76.1814C72.5106 76.1561 72.5526 76.1389 72.5968 76.1309C72.6409 76.123 72.6863 76.1245 72.7298 76.1354C72.7734 76.1462 72.8141 76.1662 72.8494 76.1939C72.8746 76.2135 72.8998 76.1687 72.8746 76.1505C72.8337 76.1193 72.7866 76.0971 72.7365 76.0853C72.6863 76.0735 72.6343 76.0724 72.5837 76.082C72.5331 76.0917 72.4852 76.1119 72.4429 76.1413C72.4006 76.1707 72.365 76.2087 72.3384 76.2527C72.3202 76.2793 72.3636 76.3045 72.3818 76.2779Z" fill="white"/>
<path d="M72.6632 76.3634C72.6866 76.3252 72.7179 76.2923 72.7549 76.2669C72.792 76.2416 72.8339 76.2244 72.8781 76.2164C72.9223 76.2085 72.9677 76.21 73.0112 76.2209C73.0548 76.2317 73.0955 76.2517 73.1308 76.2794C73.1574 76.299 73.1826 76.2543 73.156 76.2347C73.1149 76.2037 73.0677 76.1818 73.0176 76.1702C72.9674 76.1586 72.9154 76.1577 72.8649 76.1675C72.8144 76.1772 72.7665 76.1975 72.7242 76.2269C72.682 76.2563 72.6464 76.2942 72.6198 76.3382C72.6016 76.3648 72.645 76.39 72.6632 76.3634Z" fill="white"/>
<path d="M72.96 76.4488C72.9833 76.4104 73.0145 76.3774 73.0515 76.3519C73.0885 76.3264 73.1304 76.3091 73.1746 76.301C73.2188 76.293 73.2642 76.2944 73.3078 76.3051C73.3514 76.3159 73.3922 76.3357 73.4276 76.3634C73.4528 76.383 73.478 76.3396 73.4528 76.32C73.4118 76.2889 73.3646 76.2668 73.3144 76.2551C73.2642 76.2434 73.2122 76.2424 73.1616 76.2521C73.111 76.2619 73.063 76.2822 73.0208 76.3118C72.9786 76.3413 72.9431 76.3794 72.9166 76.4236C72.897 76.4488 72.9418 76.4754 72.96 76.4488Z" fill="white"/>
<path d="M73.1196 49.7508C73.1196 49.7508 73.6614 57.8484 73.625 61.1412C73.5872 64.567 72.47 74.5336 72.47 74.5336H70.6402C70.6402 74.5336 70.3028 64.742 70.139 61.3736C69.9612 57.707 68.865 49.7536 68.865 49.7536L73.1196 49.7508Z" fill="#407BFF"/>
<path opacity="0.3" d="M73.625 61.1412C73.5872 64.567 72.47 74.5336 72.47 74.5336H70.6402C70.6402 74.5336 70.3028 64.742 70.139 61.3736C70.0872 60.2858 69.9528 58.8186 69.7904 57.294C69.6504 55.9486 69.4824 54.5584 69.3326 53.3432C69.0792 51.2964 68.865 49.7466 68.865 49.7466H73.1196C73.1196 49.7466 73.66 57.8484 73.625 61.1412Z" fill="white"/>
<path opacity="0.2" d="M69.7904 57.2982C69.6504 55.9528 69.4824 54.5626 69.3326 53.3474L69.5468 52.065C69.5468 52.065 70.2636 54.067 69.7904 57.2982Z" fill="#263238"/>
<path d="M70.503 73.9806C70.503 74.178 70.5212 74.5714 70.5212 74.5714H72.6296L72.6926 73.9806H70.503Z" fill="#263238"/>
<path d="M69.9822 49.7508C69.9822 49.7508 69.4222 58.0108 68.83 61.1006C68.1762 64.4858 65.2096 74.5336 65.2096 74.5336H63.2314C63.2314 74.5336 64.5012 64.7854 64.84 61.4324C65.2068 57.7924 65.7948 50.3836 65.7948 50.3836L69.9822 49.7508Z" fill="#407BFF"/>
<path opacity="0.3" d="M69.9822 49.7508C69.9822 49.7508 69.4222 58.0108 68.83 61.1006C68.1762 64.4858 65.2096 74.5336 65.2096 74.5336H63.2314C63.2314 74.5336 64.5012 64.7854 64.84 61.4324C65.2068 57.7924 65.7948 50.3836 65.7948 50.3836L69.9822 49.7508Z" fill="white"/>
<path d="M63.7116 74.0548C63.7158 74.0545 63.7197 74.0528 63.7227 74.05C63.7258 74.0472 63.7278 74.0435 63.7284 74.0394C63.7438 73.9386 65.1508 65.2278 65.4546 62.2164C65.7836 58.9474 66.4696 51.701 66.4766 51.6282C66.477 51.6257 66.4769 51.6231 66.4762 51.6207C66.4756 51.6182 66.4744 51.6159 66.4729 51.614C66.4713 51.612 66.4693 51.6104 66.4671 51.6092C66.4648 51.608 66.4623 51.6073 66.4598 51.6072C66.4551 51.6071 66.4505 51.6088 66.4469 51.6119C66.4433 51.615 66.4409 51.6193 66.4402 51.624C66.4332 51.6968 65.7472 58.9432 65.4182 62.2108C65.12 65.2222 63.706 73.94 63.692 74.0338C63.6916 74.0362 63.6917 74.0386 63.6923 74.041C63.6928 74.0433 63.6939 74.0456 63.6953 74.0475C63.6967 74.0495 63.6985 74.0511 63.7006 74.0524C63.7027 74.0536 63.705 74.0544 63.7074 74.0548H63.7116Z" fill="#263238"/>
<path d="M63.1432 73.9666C63.1236 74.1682 63.0928 74.5714 63.0928 74.5714H65.4098L65.5498 73.9666H63.1432Z" fill="#263238"/>
<path d="M77.1124 45.8364C77.0811 46.3716 77.0184 46.9045 76.9248 47.4324C76.8744 47.7012 76.8142 47.9728 76.7302 48.264C76.6837 48.423 76.6266 48.5788 76.5594 48.7302C76.519 48.8265 76.4722 48.9201 76.4194 49.0102C76.3344 49.1504 76.2292 49.2773 76.1072 49.3868C75.9558 49.5232 75.775 49.6229 75.5788 49.678C75.3826 49.7331 75.1763 49.7422 74.976 49.7046C74.9128 49.6918 74.8505 49.6745 74.7898 49.6528C74.7353 49.6331 74.682 49.6102 74.6302 49.5842C74.5821 49.5587 74.5353 49.5307 74.4902 49.5002C74.4468 49.4694 74.3964 49.4302 74.381 49.4176L74.3152 49.3602L74.283 49.3294L74.262 49.3112L74.1822 49.23C74.0422 49.0718 73.9554 48.9626 73.8728 48.8548L73.8406 48.8128C73.6614 48.5748 73.5102 48.3536 73.359 48.131L73.2778 48.0064C73.0132 47.6046 72.7696 47.2042 72.5232 46.8052C72.2586 46.3628 72.0024 45.9176 71.749 45.4724C71.4956 45.0272 71.2506 44.5792 71.0168 44.127C70.5394 43.2226 70.0858 42.3154 69.6756 41.3746L72.2068 39.633C72.666 40.522 73.2974 41.8856 73.7146 42.7998C73.9274 43.2548 74.1248 43.7168 74.3348 44.1718L74.941 45.5452C75.0628 45.8252 75.1874 46.1052 75.312 46.3852C75.4282 46.1052 75.5416 45.8182 75.655 45.5452L77.1124 45.8364Z" fill="#263238"/>
<path opacity="0.2" d="M73.8644 48.8534L73.8322 48.8114C73.653 48.5734 73.5018 48.3522 73.3506 48.1296L73.2694 48.005L72.9894 42.7746C72.9894 42.7746 73.674 46.9354 73.8644 48.8534Z" fill="black"/>
<path d="M74.6022 46.2844L74.591 45.233C74.6001 45.132 74.6369 45.0356 74.6974 44.9543C74.758 44.873 74.8399 44.81 74.934 44.7724L77.02 44.1536C77.0422 44.1441 77.0664 44.1405 77.0904 44.1432C77.1144 44.1458 77.1372 44.1546 77.1568 44.1687C77.1764 44.1828 77.192 44.2017 77.2021 44.2236C77.2123 44.2454 77.2165 44.2696 77.2146 44.2936L77.2258 45.345C77.2168 45.4456 77.1801 45.5418 77.1198 45.6228C77.0595 45.7039 76.978 45.7666 76.8842 45.8042L74.794 46.423C74.7721 46.4318 74.7483 46.4349 74.7249 46.432C74.7014 46.4291 74.6791 46.4204 74.6599 46.4065C74.6408 46.3927 74.6255 46.3742 74.6154 46.3529C74.6053 46.3315 74.6007 46.308 74.6022 46.2844Z" fill="#407BFF"/>
<g opacity="0.4">
<path d="M74.6022 46.2844L74.591 45.233C74.6001 45.132 74.6369 45.0356 74.6974 44.9543C74.758 44.873 74.8399 44.81 74.934 44.7724L77.02 44.1536C77.0422 44.1441 77.0664 44.1405 77.0904 44.1432C77.1144 44.1458 77.1372 44.1546 77.1568 44.1687C77.1764 44.1828 77.192 44.2017 77.2021 44.2236C77.2123 44.2454 77.2165 44.2696 77.2146 44.2936L77.2258 45.345C77.2168 45.4456 77.1801 45.5418 77.1198 45.6228C77.0595 45.7039 76.978 45.7666 76.8842 45.8042L74.794 46.423C74.7721 46.4318 74.7483 46.4349 74.7249 46.432C74.7014 46.4291 74.6791 46.4204 74.6599 46.4065C74.6408 46.3927 74.6255 46.3742 74.6154 46.3529C74.6053 46.3315 74.6007 46.308 74.6022 46.2844Z" fill="#263238"/>
</g>
<path d="M74.6036 46.3908L74.5924 45.3394C74.6012 45.2385 74.6378 45.1421 74.6981 45.0608C74.7584 44.9795 74.84 44.9165 74.934 44.8788L77.02 44.26C77.0422 44.2505 77.0664 44.2469 77.0904 44.2496C77.1144 44.2522 77.1372 44.261 77.1568 44.2751C77.1764 44.2892 77.192 44.3081 77.2021 44.3299C77.2123 44.3518 77.2166 44.376 77.2146 44.4L77.2258 45.4514C77.2171 45.5525 77.1803 45.6491 77.1198 45.7304C77.0592 45.8118 76.9771 45.8747 76.8828 45.912L74.794 46.5308C74.772 46.5393 74.7483 46.5422 74.7249 46.5391C74.7015 46.536 74.6793 46.5271 74.6603 46.5131C74.6414 46.4991 74.6262 46.4806 74.6163 46.4592C74.6064 46.4379 74.602 46.4143 74.6036 46.3908Z" fill="#407BFF"/>
<g opacity="0.4">
<path d="M75.9952 45.5676C75.8664 45.6194 75.7614 45.5676 75.76 45.4612C75.7677 45.3951 75.7934 45.3324 75.8344 45.28C75.8754 45.2277 75.9301 45.1876 75.9924 45.1644C76.1212 45.1126 76.2262 45.1644 76.2276 45.2708C76.22 45.3368 76.1942 45.3995 76.1532 45.4519C76.1122 45.5043 76.0575 45.5443 75.9952 45.5676Z" fill="#263238"/>
</g>
<path d="M76.908 44.701C76.8436 44.7248 76.7862 44.701 76.782 44.6366C76.7824 44.6036 76.7932 44.5715 76.8128 44.5449C76.8323 44.5183 76.8598 44.4985 76.8912 44.4882C76.9556 44.4658 77.013 44.4952 77.0172 44.554C77.0169 44.5869 77.0062 44.6189 76.9865 44.6453C76.9669 44.6717 76.9394 44.6912 76.908 44.701Z" fill="#407BFF"/>
<g opacity="0.3">
<path d="M76.908 44.701C76.8436 44.7248 76.7862 44.701 76.782 44.6366C76.7824 44.6036 76.7932 44.5715 76.8128 44.5449C76.8323 44.5183 76.8598 44.4985 76.8912 44.4882C76.9556 44.4658 77.013 44.4952 77.0172 44.554C77.0169 44.5869 77.0062 44.6189 76.9865 44.6453C76.9669 44.6717 76.9394 44.6912 76.908 44.701Z" fill="#263238"/>
</g>
<path d="M73.135 51.7668C70.699 52.3198 68.1664 52.3128 65.554 51.8508C65.3996 51.8216 65.2613 51.7365 65.1657 51.6117C65.0701 51.487 65.024 51.3313 65.036 51.1746C65.0542 50.9128 65.0822 50.5894 65.1158 50.2128L65.1746 49.5254C65.2684 48.397 65.3762 46.9536 65.4084 45.3898C65.4084 45.1098 65.4154 44.8298 65.4154 44.5414C65.4154 44.4014 65.4154 44.2474 65.4154 44.1004C65.4154 43.8764 65.4154 43.651 65.4028 43.4256C65.3787 42.367 65.2946 41.3107 65.1508 40.2616C65.1247 40.0984 65.1313 39.9317 65.1701 39.7711C65.2089 39.6104 65.2791 39.4591 65.3768 39.3258C65.4744 39.1925 65.5975 39.0798 65.7389 38.9944C65.8804 38.909 66.0374 38.8524 66.2008 38.828C66.5284 38.7846 66.8882 38.7482 67.2438 38.73C68.2155 38.6719 69.1897 38.6719 70.1614 38.73C70.4741 38.7591 70.7849 38.8059 71.0924 38.87C71.5726 38.9736 72.1144 39.3628 72.3146 39.8248C73.3184 42.1516 73.2834 47.4086 73.3646 50.9562C73.3688 51.2684 73.4262 51.701 73.135 51.7668Z" fill="#263238"/>
<path opacity="0.2" d="M66.7216 42.16C66.3632 43.2142 65.9712 44.2278 65.4126 45.0524C65.4126 44.9124 65.4126 44.2432 65.4126 44.0962C65.4126 43.8722 65.4126 43.6468 65.4 43.4214L66.7216 42.16Z" fill="black"/>
<path d="M72.5061 36.684C72.5647 36.1009 72.1757 35.5843 71.6371 35.5301C71.0986 35.476 70.6145 35.9049 70.5559 36.488C70.4973 37.0712 70.8863 37.5878 71.4249 37.6419C71.9634 37.696 72.4475 37.2672 72.5061 36.684Z" fill="#263238"/>
<g opacity="0.2">
<path d="M72.5061 36.684C72.5647 36.1009 72.1757 35.5843 71.6371 35.5301C71.0986 35.476 70.6145 35.9049 70.5559 36.488C70.4973 37.0712 70.8863 37.5878 71.4249 37.6419C71.9634 37.696 72.4475 37.2672 72.5061 36.684Z" fill="white"/>
</g>
<path d="M69.1212 34.2878C69.1212 34.2878 69.4264 33.4254 69.6812 33.5038C69.936 33.5822 69.7848 33.893 69.7848 33.893C69.7848 33.893 70.2272 33.2812 70.496 33.3246C70.7648 33.368 70.6766 33.6928 70.6766 33.6928C70.6766 33.6928 71.2856 33.4254 71.4592 33.592C71.6328 33.7586 71.3472 33.949 71.3472 33.949C71.3472 33.949 72.1676 33.8174 72.2908 34.012C72.414 34.2066 71.9674 34.292 71.9674 34.292C71.9674 34.292 72.6576 34.3858 72.6576 34.7428C72.6599 34.7879 72.6518 34.8329 72.6339 34.8743C72.616 34.9158 72.5888 34.9525 72.5545 34.9818C72.5201 35.011 72.4794 35.0319 72.4356 35.0429C72.3919 35.0539 72.3461 35.0547 72.302 35.0452C72.302 35.0452 72.7584 35.4442 72.6576 35.6892C72.5568 35.9342 72.2572 35.7592 72.2572 35.7592C72.2572 35.7592 72.2936 36.294 71.9688 36.1862C71.7642 36.1126 71.5866 35.9789 71.4592 35.8026L69.1212 34.2878Z" fill="#263238"/>
<path d="M70.86 34.1618C70.6157 34.0591 70.3529 34.0078 70.088 34.0111C69.823 34.0145 69.5616 34.0725 69.32 34.1814C69.0036 34.3214 68.7236 34.5622 68.7138 34.9318C68.7198 35.7058 68.7694 36.4789 68.8622 37.2474L71.8344 36.0672C71.8344 36.0672 72.0682 35.2888 71.7868 34.789C71.6356 34.5286 71.2198 34.3102 70.86 34.1618Z" fill="#263238"/>
<path d="M70.0802 38.38V38.3898L69.8758 38.8574C69.8495 38.954 69.8326 39.0529 69.8254 39.1528C69.8198 39.2334 69.8198 39.3143 69.8254 39.395C69.9024 39.6288 69.9094 39.9004 69.5272 39.843C69.0456 39.7702 68.2672 38.9288 68.2672 38.7118C68.5934 38.0874 68.8986 37.3468 68.9672 36.7126L69.4236 37.393L70.0802 38.38Z" fill="#CE7A63"/>
<g opacity="0.2">
<path d="M70.0746 38.3898L69.8702 38.8574C69.5902 38.674 69.32 38.3282 69.2976 37.995C69.2836 37.7556 69.4208 37.5554 69.5174 37.5582L70.0746 38.3898Z" fill="black"/>
</g>
<path d="M71.4536 37.5554C71.4088 37.6576 71.3612 37.757 71.3136 37.855C70.867 38.7188 69.7302 38.6264 69.1352 37.8466C69.083 37.7755 69.0362 37.7007 68.9952 37.6226C68.6424 36.9688 68.8244 36.5362 69.0498 35.5226C69.0995 35.2874 69.2086 35.0687 69.3667 34.8876C69.5247 34.7064 69.7265 34.5686 69.9528 34.4874C70.1791 34.4061 70.4224 34.3841 70.6596 34.4235C70.8968 34.4628 71.12 34.5621 71.308 34.712C72.0766 35.328 71.9058 36.5376 71.4536 37.5554Z" fill="#CE7A63"/>
<path d="M70.7578 37.624H70.7858C70.7898 37.6244 70.7938 37.624 70.7976 37.6227C70.8014 37.6215 70.8049 37.6195 70.8079 37.6169C70.8109 37.6143 70.8134 37.6111 70.8151 37.6075C70.8169 37.6039 70.8178 37.6 70.818 37.596C70.8182 37.592 70.8176 37.5879 70.8162 37.5841C70.8148 37.5803 70.8127 37.5768 70.81 37.5738C70.8073 37.5708 70.804 37.5684 70.8003 37.5667C70.7966 37.565 70.7927 37.564 70.7886 37.5638C70.7283 37.5605 70.6692 37.545 70.615 37.5182C70.5609 37.4915 70.5127 37.454 70.4734 37.408C70.4341 37.3621 70.4046 37.3087 70.3866 37.251C70.3686 37.1933 70.3625 37.1325 70.3686 37.0724C70.369 37.0684 70.3686 37.0643 70.3672 37.0605C70.3659 37.0567 70.3638 37.0532 70.361 37.0502C70.3582 37.0473 70.3548 37.045 70.3511 37.0435C70.3473 37.042 70.3433 37.0414 70.3392 37.0416C70.3352 37.0414 70.3311 37.042 70.3273 37.0434C70.3235 37.0448 70.32 37.0469 70.317 37.0496C70.314 37.0524 70.3116 37.0557 70.3099 37.0593C70.3082 37.063 70.3072 37.067 70.307 37.071C70.2937 37.2041 70.3337 37.337 70.4182 37.4406C70.5027 37.5443 70.6248 37.6102 70.7578 37.624Z" fill="#263238"/>
<path d="M69.0134 35.6164C69.0134 35.6164 69.32 35.6794 69.2934 35.944C69.2668 36.2086 69.2332 36.2408 69.2332 36.2408L69.5846 36.3724C69.5846 36.3724 69.6378 35.3518 69.901 35.405C70.1642 35.4582 69.9458 34.9626 70.1152 34.922C70.5142 34.8254 71.539 34.9724 71.84 35.6486C71.8218 35.2634 71.6629 34.8982 71.3934 34.6224C70.958 34.2206 69.9934 34.0022 69.5216 34.4208C69.0498 34.8394 69.0134 35.6164 69.0134 35.6164Z" fill="#263238"/>
<path d="M68.4226 36.0616C68.4229 36.1905 68.4487 36.318 68.4985 36.437C68.5482 36.5559 68.6209 36.6638 68.7124 36.7546C68.9588 36.9954 69.2472 36.8148 69.3172 36.497C69.3802 36.2086 69.327 35.7382 69.0134 35.6164C68.9443 35.5912 68.8701 35.5838 68.7973 35.5946C68.7246 35.6055 68.6558 35.6343 68.5971 35.6786C68.5384 35.7228 68.4917 35.781 68.4612 35.8479C68.4307 35.9148 68.4175 35.9883 68.4226 36.0616Z" fill="#CE7A63"/>
<path d="M70.4806 36.3332C70.4568 36.4144 70.4806 36.4914 70.5338 36.5068C70.587 36.5222 70.6472 36.469 70.6738 36.3892C70.7004 36.3094 70.6738 36.2296 70.6206 36.2156C70.5674 36.2016 70.5058 36.2534 70.4806 36.3332Z" fill="#263238"/>
<path d="M71.3682 36.5782C71.3444 36.6594 71.3682 36.7378 71.4214 36.7532C71.4746 36.7686 71.5362 36.7154 71.5614 36.6342C71.5866 36.553 71.5614 36.476 71.5082 36.4606C71.455 36.4452 71.3948 36.4984 71.3682 36.5782Z" fill="#263238"/>
<path d="M71.6902 36.42C71.6831 36.418 71.6768 36.4141 71.6718 36.4086C71.6669 36.4032 71.6635 36.3964 71.6622 36.3892C71.657 36.3609 71.6461 36.3339 71.6302 36.3098C71.6143 36.2858 71.5938 36.2652 71.5698 36.2492C71.5181 36.2224 71.4587 36.2145 71.4018 36.2268C71.3965 36.2287 71.3908 36.2295 71.3852 36.229C71.3795 36.2286 71.374 36.227 71.369 36.2243C71.364 36.2217 71.3597 36.218 71.3562 36.2135C71.3527 36.209 71.3502 36.2039 71.3488 36.1984C71.3474 36.1929 71.3472 36.1872 71.3482 36.1816C71.3492 36.176 71.3513 36.1707 71.3544 36.166C71.3576 36.1613 71.3617 36.1573 71.3665 36.1542C71.3713 36.1512 71.3766 36.1492 71.3822 36.1484C71.4599 36.1299 71.5417 36.1409 71.6118 36.1792C71.6458 36.2006 71.6749 36.2288 71.6973 36.2621C71.7197 36.2953 71.735 36.3329 71.742 36.3724C71.7442 36.3829 71.7422 36.3939 71.7364 36.403C71.7307 36.4122 71.7217 36.4187 71.7112 36.4214L71.6902 36.42Z" fill="#263238"/>
<path d="M70.3 36.0532C70.2941 36.0513 70.2888 36.0479 70.2846 36.0434C70.277 36.0358 70.2727 36.0255 70.2727 36.0147C70.2727 36.004 70.277 35.9936 70.2846 35.986C70.3399 35.928 70.4147 35.8926 70.4946 35.8866C70.5347 35.8861 70.5744 35.8939 70.6113 35.9096C70.6482 35.9252 70.6814 35.9484 70.7088 35.9776C70.7161 35.9854 70.7201 35.9957 70.7201 36.0063C70.7201 36.017 70.7161 36.0272 70.7088 36.035C70.7009 36.0427 70.6904 36.047 70.6794 36.047C70.6684 36.047 70.6578 36.0427 70.65 36.035C70.6304 36.0136 70.6066 35.9965 70.5801 35.9847C70.5536 35.9729 70.525 35.9667 70.496 35.9664C70.4379 35.9721 70.3837 35.9984 70.3434 36.0406C70.3381 36.0466 70.3312 36.051 70.3235 36.0533C70.3158 36.0555 70.3077 36.0555 70.3 36.0532Z" fill="#263238"/>
<path d="M70.9916 36.476C71.0255 36.7266 71.0958 36.9709 71.2002 37.2012C71.2184 37.2348 70.8404 37.2418 70.8404 37.2418L70.9916 36.476Z" fill="#BA4D3C"/>
<path d="M68.6942 39.7688C68.823 41.5146 68.9196 43.2688 68.9196 45.0188C68.9196 45.4612 68.9196 45.905 68.8874 46.3474C68.8874 46.4034 68.9714 46.4034 68.9756 46.3474C69.0778 44.603 68.9756 42.839 68.8706 41.0974C68.844 40.655 68.8146 40.2112 68.7824 39.7688C68.7824 39.7128 68.69 39.7128 68.6942 39.7688Z" fill="white"/>
<path d="M70.2636 39.78C70.4526 41.5202 70.6108 43.2688 70.6738 45.0174C70.6892 45.4612 70.699 45.9036 70.6878 46.3474C70.6878 46.4034 70.7746 46.4006 70.776 46.3474C70.8166 44.6002 70.65 42.8404 70.4862 41.1044C70.4442 40.662 70.3975 40.2205 70.3462 39.78C70.3392 39.724 70.2524 39.7268 70.258 39.78H70.2636Z" fill="white"/>
<path d="M69.4362 35.37C69.4362 35.37 71.644 35.832 71.973 36.182C72.1886 36.4116 71.9632 36.9576 71.833 37.1536C71.7462 37.2824 71.273 37.2796 71.1512 37.0556C71.0294 36.8316 71.0658 36.8442 70.944 36.7882C70.8222 36.7322 70.7046 36.882 70.5058 36.889C70.307 36.896 69.845 36.7392 69.7484 36.4788C69.6518 36.2184 69.7414 36.0938 69.523 36.035L69.1716 35.9496C69.1393 35.9421 69.1089 35.9282 69.0823 35.9086C69.0556 35.8889 69.0333 35.8641 69.0166 35.8355C69 35.8069 68.9893 35.7751 68.9854 35.7423C68.9815 35.7094 68.9843 35.6761 68.9938 35.6444C69.033 35.5128 69.1044 35.3644 69.2304 35.3392L69.4362 35.37Z" fill="#407BFF"/>
<g opacity="0.4">
<path d="M71.7788 36.4129L70.3084 35.9459C70.2229 35.9187 70.1316 35.966 70.1045 36.0515L70.1002 36.0649C70.0731 36.1503 70.1204 36.2416 70.2059 36.2688L71.6763 36.7358C71.7618 36.763 71.8531 36.7157 71.8802 36.6302L71.8844 36.6168C71.9116 36.5314 71.8643 36.44 71.7788 36.4129Z" fill="black"/>
</g>
<path d="M67.8878 35.7004C67.885 35.8905 67.9376 36.0772 68.0391 36.2379C68.1406 36.3986 68.2866 36.5264 68.4594 36.6056C68.6322 36.6847 68.8243 36.712 69.0123 36.6839C69.2002 36.6559 69.376 36.5738 69.5182 36.4476C69.6603 36.3215 69.7628 36.1567 69.8129 35.9734C69.8631 35.7901 69.8589 35.5961 69.8008 35.4151C69.7427 35.2341 69.6332 35.074 69.4857 34.9541C69.3382 34.8342 69.159 34.7599 68.97 34.74C68.6992 34.7239 68.433 34.8161 68.2301 34.9962C68.0271 35.1763 67.904 35.4296 67.8878 35.7004Z" fill="#263238"/>
<g opacity="0.2">
<path d="M67.8878 35.7004C67.885 35.8905 67.9376 36.0772 68.0391 36.2379C68.1406 36.3986 68.2866 36.5264 68.4594 36.6056C68.6322 36.6847 68.8243 36.712 69.0123 36.6839C69.2002 36.6559 69.376 36.5738 69.5182 36.4476C69.6603 36.3215 69.7628 36.1567 69.8129 35.9734C69.8631 35.7901 69.8589 35.5961 69.8008 35.4151C69.7427 35.2341 69.6332 35.074 69.4857 34.9541C69.3382 34.8342 69.159 34.7599 68.97 34.74C68.6992 34.7239 68.433 34.8161 68.2301 34.9962C68.0271 35.1763 67.904 35.4296 67.8878 35.7004Z" fill="white"/>
</g>
<g opacity="0.2">
<path d="M67.9746 35.6878C67.9717 35.8166 68.0064 35.9434 68.0745 36.0527C68.1425 36.1621 68.241 36.2492 68.3579 36.3034C68.4747 36.3576 68.6048 36.3766 68.7322 36.358C68.8597 36.3394 68.9789 36.284 69.0754 36.1987C69.1718 36.1134 69.2413 36.0018 69.2753 35.8775C69.3093 35.7533 69.3064 35.6219 69.2668 35.4993C69.2272 35.3767 69.1528 35.2684 69.0526 35.1875C68.9524 35.1066 68.8307 35.0567 68.7026 35.0438C68.5207 35.0327 68.3418 35.0943 68.2052 35.2151C68.0687 35.3358 67.9858 35.5059 67.9746 35.6878Z" fill="white"/>
</g>
<path d="M69.1268 34.8968L69.0274 34.8716C69.0274 34.8618 69.2962 33.8678 70.6724 33.6424L70.6878 33.7432C69.3788 33.9574 69.1282 34.887 69.1268 34.8968Z" fill="white"/>
<path d="M77.2692 46.1822C77.2138 46.2368 77.1398 46.2683 77.062 46.2704C76.761 46.3236 75.8594 46.465 75.7894 46.2956C75.7068 46.0912 76.0596 45.996 76.0596 45.996C75.928 45.953 75.8155 45.8655 75.7416 45.7484C75.6677 45.6313 75.6371 45.4921 75.655 45.3548C75.7208 44.8928 76.9052 44.6548 77.286 44.7248C77.4078 44.75 77.5954 45.7384 77.2692 46.1822Z" fill="#CE7A63"/>
<path d="M64.7434 47.2238C65.498 47.7488 66.457 48.2038 67.3712 48.6238L67.0338 49.8978C66.4788 49.8269 65.9289 49.7208 65.3874 49.58C64.8262 49.4396 64.2778 49.2523 63.748 49.02C63.4551 48.8858 63.1741 48.727 62.908 48.5454C62.7479 48.4374 62.5979 48.3151 62.46 48.18C62.2896 48.0151 62.1439 47.8265 62.0274 47.62C61.9952 47.5584 61.963 47.4968 61.9336 47.4268L61.9126 47.375L61.9014 47.3484L61.8888 47.3092C61.872 47.2574 61.858 47.2042 61.844 47.151C61.8101 46.9942 61.7942 46.834 61.7964 46.6736C61.8007 46.4593 61.826 46.2459 61.872 46.0366C61.9416 45.7196 62.0352 45.4084 62.152 45.1056C62.3535 44.5692 62.5844 44.0443 62.8436 43.5334C63.0919 43.0359 63.3523 42.552 63.6248 42.0816C64.1694 41.1338 64.7364 40.2294 65.3748 39.332L67.57 40.8342C67.0226 41.6924 66.45 42.5744 65.9068 43.4438C65.6352 43.8806 65.3678 44.3174 65.1144 44.7528C64.861 45.1882 64.6202 45.6236 64.4242 46.0408C64.3357 46.2264 64.2571 46.4166 64.189 46.6106C64.1736 46.6526 64.1624 46.6932 64.154 46.7212C64.1851 46.7598 64.2183 46.7967 64.2534 46.8318C64.4041 46.9775 64.5681 47.1088 64.7434 47.2238Z" fill="#263238"/>
<path d="M67.0632 48.495L66.7216 49.874L67.6568 50.245C67.6568 50.245 68.2434 49.3868 68.27 49.09C68.2966 48.7932 67.0632 48.495 67.0632 48.495Z" fill="#CE7A63"/>
<path d="M67.2662 47.76C67.2662 47.76 67.4188 49.489 66.835 50.1694C66.835 50.1694 70.0088 51.1928 72.3538 50.1694C72.3538 50.1694 72.75 48.8212 72.3538 47.76C70.6698 48.044 68.9502 48.044 67.2662 47.76Z" fill="#263238"/>
<path opacity="0.1" d="M67.2662 47.76C67.2662 47.76 67.4188 49.489 66.835 50.1694C66.835 50.1694 70.0088 51.1928 72.3538 50.1694C72.3538 50.1694 72.75 48.8212 72.3538 47.76C70.6698 48.044 68.9502 48.044 67.2662 47.76Z" fill="#F0F0F0"/>
<path d="M31.4388 41.6532C31.3114 41.677 31.2148 41.6924 31.1056 41.7092L30.7878 41.7498C30.575 41.7708 30.3678 41.789 30.1508 41.7988C29.7206 41.8209 29.2895 41.8153 28.86 41.782C28.6416 41.7652 28.4204 41.7372 28.1978 41.6994C27.9701 41.6635 27.7448 41.614 27.523 41.551C27.2882 41.4846 27.0584 41.4014 26.8356 41.3018C26.7175 41.2482 26.6025 41.1879 26.4912 41.1212C26.4352 41.089 26.3778 41.0512 26.3218 41.0134L26.2378 40.956L26.2014 40.9294L26.158 40.8958C26.1336 40.877 26.1102 40.8569 26.088 40.8356C25.9715 40.7246 25.8682 40.6005 25.78 40.466C25.7086 40.3596 25.6484 40.2588 25.5938 40.1608C25.4832 39.9648 25.3908 39.773 25.3026 39.5826C25.1248 39.2046 24.9708 38.828 24.8252 38.45C24.534 37.694 24.149 36.6104 24.0944 35.9496C24.1784 35.6556 24.4696 35.7662 24.954 35.7914C25.3362 36.4774 25.7198 37.169 26.1048 37.8438C26.298 38.1798 26.494 38.5144 26.6914 38.8308C26.7908 38.989 26.8944 39.143 26.9938 39.2816C27.0428 39.3502 27.0932 39.4146 27.1338 39.4678C27.1744 39.521 27.2276 39.5658 27.2164 39.5462L27.2038 39.5322L27.1884 39.521L27.2318 39.542C27.2598 39.557 27.2888 39.5701 27.3186 39.5812C27.3774 39.6078 27.4446 39.6288 27.5104 39.6526C27.6559 39.6999 27.8047 39.7364 27.9556 39.7618C28.2897 39.8183 28.6277 39.8482 28.9664 39.8514C29.3178 39.8612 29.6804 39.8514 30.0444 39.8262C30.225 39.8136 30.4084 39.801 30.5904 39.7814L30.8606 39.7548L31.1154 39.7268L31.4388 41.6532Z" fill="#263238"/>
<path d="M25.1808 34.9234C25.1928 35.0876 25.1752 35.2526 25.129 35.4106L24.9246 36.0336C24.9148 36.2842 24.2246 36.2954 24.1154 36.0182L23.8522 35.2776C23.6394 34.9668 23.4182 34.4376 23.4322 34.0386C23.438 33.8553 23.4581 33.6727 23.4924 33.4926C23.5004 33.4521 23.5171 33.4139 23.5415 33.3807C23.566 33.3474 23.5974 33.32 23.6337 33.3004C23.6699 33.2807 23.7101 33.2693 23.7512 33.2669C23.7924 33.2646 23.8336 33.2714 23.8718 33.2868C24.1794 33.395 24.4594 33.5694 24.6922 33.7978C24.6852 33.7105 24.6913 33.6228 24.7104 33.5374C24.7706 33.3834 24.9484 33.7054 25.1402 34.0414C25.2704 34.2682 25.22 34.6798 25.1808 34.9234Z" fill="#FFC3BD"/>
<path d="M23.8074 35.5674L24.5452 35.3784C24.6177 35.3447 24.6788 35.2906 24.7211 35.2227C24.7633 35.1548 24.7849 35.0761 24.7832 34.9962L24.702 33.0782C24.702 32.9732 24.6376 32.9158 24.562 32.9382L23.82 33.1258C23.7481 33.1603 23.6876 33.2146 23.6454 33.2823C23.6033 33.35 23.5813 33.4282 23.582 33.508L23.6632 35.426C23.6646 35.531 23.7248 35.5884 23.8074 35.5674Z" fill="#263238"/>
<g opacity="0.3">
<path d="M23.8074 35.5674L24.5452 35.3784C24.6177 35.3447 24.6788 35.2906 24.7211 35.2227C24.7633 35.1548 24.7849 35.0761 24.7832 34.9962L24.702 33.0782C24.702 32.9732 24.6376 32.9158 24.562 32.9382L23.82 33.1258C23.7481 33.1603 23.6876 33.2146 23.6454 33.2823C23.6033 33.35 23.5813 33.4282 23.582 33.508L23.6632 35.426C23.6646 35.531 23.7248 35.5884 23.8074 35.5674Z" fill="white"/>
</g>
<path d="M23.8816 35.5492L24.6194 35.3588C24.692 35.3256 24.7533 35.2718 24.7956 35.2041C24.8379 35.1364 24.8594 35.0578 24.8574 34.978L24.7776 33.06C24.7776 32.955 24.7118 32.8976 24.6292 32.92L23.8914 33.109C23.819 33.1426 23.7579 33.1967 23.7159 33.2646C23.6738 33.3326 23.6526 33.4113 23.6548 33.4912L23.7346 35.4078C23.7388 35.5128 23.799 35.5702 23.8816 35.5492Z" fill="#263238"/>
<g opacity="0.4">
<path d="M23.8788 35.3993L23.799 33.4799C23.7991 33.4331 23.8109 33.387 23.8334 33.3459C23.8559 33.3048 23.8884 33.27 23.9278 33.2447L24.6278 33.0641L24.7076 34.9807C24.7075 35.0276 24.6957 35.0737 24.6732 35.1148C24.6507 35.1559 24.6182 35.1906 24.5788 35.2159L23.8788 35.3993Z" fill="white"/>
</g>
<path d="M33.501 67.283L36.07 68.5472L36.1442 69.5062L33.0194 68.8244L33.501 67.283Z" fill="#FFC3BD"/>
<path d="M35.902 69.1799C35.8492 69.2239 35.8093 69.2814 35.7864 69.3462C35.7634 69.411 35.7584 69.4807 35.7718 69.5481C35.8376 69.7455 36.168 69.9933 36.168 69.9933C36.168 69.9933 36.5152 71.0699 36.5334 71.3639C36.5516 71.6579 36.7168 71.9085 37.2894 71.9911L37.3006 68.4085C37.3006 68.4085 36.007 68.3329 35.7858 68.3217C35.5646 68.3105 35.839 68.6479 35.839 68.6479L35.902 69.1799Z" fill="#263238"/>
<path d="M36.28 68.3694C36.3473 68.503 36.4646 68.6046 36.6065 68.6521C36.7484 68.6995 36.9032 68.689 37.0374 68.6228C37.0696 68.606 37.0976 68.6536 37.064 68.669C36.918 68.7434 36.7485 68.7569 36.5926 68.7065C36.4367 68.6561 36.3072 68.546 36.2324 68.4002C36.2142 68.3694 36.2632 68.3386 36.28 68.3694Z" fill="white"/>
<path d="M37.0934 68.4268L37.1144 71.2478V71.8932C37.1144 71.9282 37.0598 71.931 37.0598 71.8932L37.0388 69.0722V68.4268C37.0388 68.3918 37.0934 68.389 37.0934 68.4268Z" fill="white"/>
<path d="M36.3934 69.8548C36.3516 69.8811 36.3157 69.9158 36.288 69.9567C36.2603 69.9976 36.2414 70.0438 36.2326 70.0924C36.2238 70.141 36.2252 70.1909 36.2367 70.239C36.2483 70.287 36.2697 70.3321 36.2996 70.3714C36.3206 70.3994 36.2716 70.4288 36.2506 70.4022C36.217 70.3564 36.1932 70.3042 36.1807 70.2488C36.1682 70.1934 36.1674 70.136 36.1781 70.0803C36.1889 70.0245 36.2111 69.9716 36.2434 69.9248C36.2756 69.8781 36.3171 69.8385 36.3654 69.8086C36.3948 69.7862 36.4228 69.8338 36.3934 69.8548Z" fill="white"/>
<path d="M36.4858 70.16C36.4439 70.1861 36.4078 70.2207 36.38 70.2616C36.3522 70.3024 36.3332 70.3487 36.3242 70.3973C36.3153 70.4459 36.3166 70.4958 36.328 70.5439C36.3394 70.592 36.3607 70.6372 36.3906 70.6766C36.413 70.7046 36.364 70.734 36.343 70.7074C36.3094 70.6616 36.2856 70.6094 36.2731 70.554C36.2606 70.4986 36.2598 70.4412 36.2705 70.3855C36.2813 70.3297 36.3035 70.2768 36.3358 70.23C36.368 70.1833 36.4095 70.1437 36.4578 70.1138C36.4872 70.0914 36.5152 70.139 36.4858 70.16Z" fill="white"/>
<path d="M36.5782 70.4736C36.5361 70.4996 36.4999 70.5341 36.4719 70.575C36.444 70.6158 36.4249 70.6621 36.416 70.7107C36.407 70.7594 36.4083 70.8094 36.4199 70.8576C36.4314 70.9057 36.4529 70.9509 36.483 70.9902C36.5054 71.0168 36.4564 71.0476 36.4354 71.0196C36.4018 70.9739 36.378 70.9218 36.3656 70.8665C36.3531 70.8112 36.3522 70.7539 36.363 70.6983C36.3738 70.6427 36.396 70.5899 36.4282 70.5432C36.4604 70.4966 36.502 70.4571 36.5502 70.4274C36.5796 70.405 36.6076 70.4512 36.5782 70.4736Z" fill="white"/>
<path d="M34.1982 69.5061C34.2076 69.5069 34.2167 69.5097 34.2248 69.5145C34.1044 69.3941 33.536 69.3927 33.3848 69.3297C29.6076 67.8233 24.9134 63.9999 24.4416 61.6633C24.1098 60.0309 26.809 53.1639 28.16 49.2565C28.2384 49.0297 28.3122 48.8202 28.3812 48.6279C28.4624 48.3983 28.5366 48.1953 28.601 48.0259L31.1336 49.2061L31.3688 49.3153L31.6936 49.4665C31.6936 49.4665 31.5662 49.9075 31.359 50.6369C30.4154 53.9661 28.0242 61.2503 28.461 61.9419C28.6402 62.2219 34.7806 67.7393 34.7806 67.7393L34.1982 69.5061Z" fill="#407BFF"/>
<path d="M34.4824 67.2732L33.5234 69.6238L34.285 69.8212L35.1992 67.6218L34.4824 67.2732Z" fill="#263238"/>
<g opacity="0.2">
<path d="M30.1102 52.1154L27.6322 65.7794C27.3228 65.5456 26.6802 64.9128 26.2602 64.4914C26.2602 64.4914 25.9984 64.2772 26.0222 63.5478C26.1006 61.0866 30.1102 52.1154 30.1102 52.1154Z" fill="black"/>
</g>
<g opacity="0.2">
<path d="M24.7762 61.7908C25.0675 61.9182 25.3955 61.9336 25.6974 61.8342C25.7084 61.8303 25.7173 61.8222 25.7223 61.8117C25.7273 61.8012 25.7279 61.7891 25.724 61.7782C25.7201 61.7672 25.712 61.7582 25.7015 61.7533C25.691 61.7483 25.679 61.7477 25.668 61.7516C25.3881 61.8433 25.0843 61.8293 24.814 61.7124C24.7622 61.69 24.723 61.7684 24.7762 61.7908Z" fill="black"/>
</g>
<path opacity="0.2" d="M29.9982 63.4008L30.26 63.6416L30.7682 68.0138L30.1102 67.6036L29.9982 63.4008Z" fill="black"/>
<g opacity="0.2">
<path d="M29.07 48.7288C29.0049 49.1195 28.8563 49.4917 28.6343 49.8198C28.4122 50.1479 28.122 50.4243 27.7834 50.63C27.726 50.665 27.7834 50.756 27.8366 50.721C28.1862 50.5085 28.4863 50.2237 28.7167 49.8856C28.9471 49.5475 29.1024 49.1641 29.1722 48.761C29.1834 48.6952 29.0812 48.6658 29.07 48.733V48.7288Z" fill="black"/>
</g>
<path d="M30.736 73.4052L31.0034 75.8636L29.9702 75.9476L29.1596 73.5298L30.736 73.4052Z" fill="#FFC3BD"/>
<path d="M30.1984 75.7054C30.1544 75.6526 30.097 75.6127 30.0322 75.5897C29.9674 75.5668 29.8976 75.5618 29.8302 75.5752C29.6328 75.6424 29.3864 75.9728 29.3864 75.9728C29.3864 75.9728 28.3112 76.32 28.02 76.3424C27.7288 76.3648 27.4754 76.5286 27.3956 77.1012H30.974C30.974 77.1012 31.0468 75.8076 31.0566 75.585C31.0664 75.3624 30.7304 75.641 30.7304 75.641L30.1984 75.7054Z" fill="#263238"/>
<path d="M31.0104 76.0763C30.9439 76.1092 30.8845 76.155 30.8358 76.211C30.787 76.267 30.7499 76.3321 30.7266 76.4026C30.7033 76.4731 30.6942 76.5475 30.6999 76.6215C30.7056 76.6955 30.726 76.7677 30.7598 76.8337C30.7766 76.8659 30.7304 76.8939 30.7136 76.8617C30.6389 76.7159 30.625 76.5464 30.6748 76.3904C30.7247 76.2343 30.8342 76.1043 30.9796 76.0287C31.0104 76.0105 31.0412 76.0581 31.0104 76.0763Z" fill="white"/>
<path d="M30.96 76.894L28.139 76.9234L27.4936 76.9304C27.4586 76.9304 27.4558 76.8758 27.4936 76.8744L30.3146 76.845H30.96C30.995 76.845 30.9978 76.8996 30.96 76.8996V76.894Z" fill="white"/>
<path d="M29.525 76.1981C29.4988 76.1562 29.4641 76.1203 29.4231 76.0926C29.3821 76.065 29.3358 76.0462 29.2872 76.0375C29.2385 76.0288 29.1886 76.0303 29.1406 76.0421C29.0926 76.0539 29.0475 76.0755 29.0084 76.1057C28.9818 76.1267 28.951 76.0791 28.9776 76.0581C29.0231 76.0242 29.0752 76 29.1305 75.9872C29.1858 75.9744 29.2432 75.9733 29.299 75.9838C29.3548 75.9943 29.4078 76.0163 29.4547 76.0484C29.5015 76.0805 29.5412 76.1219 29.5712 76.1701C29.5936 76.1995 29.5474 76.2275 29.525 76.1981Z" fill="white"/>
<path d="M29.2212 76.292C29.195 76.2501 29.1603 76.2141 29.1193 76.1865C29.0784 76.1588 29.0321 76.14 28.9834 76.1313C28.9348 76.1226 28.8848 76.1242 28.8368 76.1359C28.7888 76.1477 28.7438 76.1694 28.7046 76.1996C28.678 76.2206 28.6472 76.1716 28.6738 76.1506C28.7195 76.1169 28.7717 76.093 28.827 76.0804C28.8823 76.0678 28.9397 76.0669 28.9954 76.0775C29.0512 76.0882 29.1041 76.1102 29.1509 76.1423C29.1977 76.1744 29.2374 76.2158 29.2674 76.264C29.2898 76.2934 29.2436 76.32 29.2212 76.292Z" fill="white"/>
<path d="M28.9076 76.3843C28.8813 76.3426 28.8465 76.3068 28.8055 76.2793C28.7645 76.2517 28.7183 76.233 28.6697 76.2243C28.6211 76.2156 28.5712 76.2172 28.5233 76.2288C28.4753 76.2404 28.4303 76.2619 28.391 76.2919C28.3644 76.3129 28.3336 76.2653 28.3602 76.2443C28.4062 76.2118 28.4583 76.1888 28.5134 76.1768C28.5685 76.1648 28.6254 76.1639 28.6808 76.1744C28.7362 76.1848 28.7889 76.2063 28.8358 76.2376C28.8827 76.2689 28.9229 76.3092 28.9538 76.3563C28.9762 76.3857 28.93 76.4137 28.9076 76.3843Z" fill="white"/>
<path d="M34.6994 51.3118C34.0274 55.299 29.8792 62.299 29.8792 62.299C29.8792 62.7666 30.1592 64.3136 30.2292 65.3636C30.2922 66.289 30.3692 67.3586 30.4616 68.4254C30.6968 71.2982 30.9614 74.1542 30.9614 74.1542L29.1232 74.2942C29.1232 74.2942 27.74 70.3154 27.089 66.7902C26.8398 65.4504 26.4646 63.496 26.5388 62.5314C26.739 59.9568 29.7588 53.304 30.8648 50.4606C31.1448 49.7466 31.317 49.3154 31.317 49.3154H31.66H34.579C34.6982 49.5165 34.7683 49.7429 34.7834 49.9762C34.8123 50.4231 34.7841 50.8719 34.6994 51.3118Z" fill="#407BFF"/>
<path d="M31.2008 73.485L28.685 73.8168L28.8908 74.577L31.254 74.2802L31.2008 73.485Z" fill="#263238"/>
<g opacity="0.2">
<path d="M26.8874 62.859C27.1762 62.9922 27.5037 63.0156 27.8086 62.9248C27.8197 62.9216 27.8292 62.9142 27.8348 62.9041C27.8404 62.894 27.8418 62.882 27.8387 62.8709C27.8355 62.8597 27.8281 62.8503 27.818 62.8447C27.8079 62.839 27.7959 62.8376 27.7848 62.8408C27.5031 62.9259 27.2 62.9055 26.9322 62.7834C26.8818 62.7596 26.837 62.8352 26.8874 62.859Z" fill="black"/>
</g>
<g opacity="0.2">
<path d="M32.9942 49.8012C32.8432 50.0475 32.7455 50.3228 32.7076 50.6093C32.6697 50.8958 32.6924 51.1871 32.7743 51.4642C32.8561 51.7414 32.9952 51.9983 33.1826 52.2182C33.3701 52.4382 33.6016 52.6164 33.8622 52.7412C33.9224 52.7706 33.9756 52.6796 33.9154 52.6502C33.6663 52.5323 33.4449 52.3632 33.2655 52.1539C33.0862 51.9446 32.953 51.6999 32.8747 51.4357C32.7963 51.1714 32.7746 50.8937 32.8109 50.6205C32.8471 50.3473 32.9406 50.0848 33.0852 49.8502C33.1202 49.7928 33.0292 49.7396 32.9942 49.797V49.8012Z" fill="black"/>
</g>
<path d="M37.0654 42.6696C35.4162 45.8896 35.1292 48.8058 35.2174 50.3976C34.1326 50.4027 33.0497 50.3089 31.982 50.1176C31.2061 49.9845 30.4389 49.805 29.6846 49.58C29.4704 49.5156 29.2646 49.4484 29.091 49.3826C28.412 49.1334 28.0032 48.8814 28.0592 48.6896C28.6192 46.7604 29.0196 45.1756 29.1554 44.0696C28.0802 42.874 29.3234 42.4078 29.5642 41.145C29.7476 40.1804 30.7276 39.5434 31.8042 39.6694C31.982 39.6904 32.164 39.7142 32.346 39.7394L32.7114 39.7954C33.4504 39.9227 34.1808 40.0962 34.8982 40.3148L35.419 40.4674C35.6738 40.5416 35.9216 40.6228 36.154 40.704C37.022 41.0092 37.4476 41.922 37.0654 42.6696Z" fill="#263238"/>
<path d="M34.8968 40.3176C34.5566 40.5444 34.2332 41.124 33.9364 41.8478C33.4198 43.1078 32.9858 44.8032 32.6932 45.8686C32.3544 47.1006 32.3712 49.1516 31.982 50.112C31.2063 49.9808 30.4391 49.8031 29.6846 49.58C30.2334 48.425 30.652 45.387 30.89 43.4424C30.979 42.71 31.1674 41.9931 31.45 41.3116C31.6745 40.7502 31.974 40.2217 32.3404 39.7408L32.7058 39.7968C33.4463 39.9244 34.1781 40.0984 34.8968 40.3176Z" fill="white"/>
<path d="M34.8968 40.3176C34.5566 40.5444 34.2332 41.124 33.9364 41.8478C33.4632 42.2342 32.8976 42.4918 32.2914 42.3462C31.6852 42.2006 31.4724 41.7862 31.4514 41.313C31.6759 40.7516 31.9754 40.2231 32.3418 39.7422L32.7072 39.7982C33.4472 39.9255 34.1785 40.0989 34.8968 40.3176Z" fill="#FFC3BD"/>
<path d="M36.6846 41.04C37.1788 41.607 37.6408 42.188 38.0944 42.7886C38.3226 43.0896 38.5438 43.3948 38.765 43.7182C38.8756 43.8834 38.9834 44.0402 39.1066 44.2572C39.1495 44.3334 39.1883 44.412 39.2228 44.4924C39.2657 44.5999 39.2971 44.7115 39.3166 44.8256C39.3481 45.0311 39.3396 45.2407 39.2914 45.443C39.2223 45.7133 39.1077 45.9699 38.9526 46.2018C38.828 46.395 38.7034 46.5574 38.5802 46.7156C38.331 47.025 38.0832 47.305 37.834 47.5822C37.3888 48.075 36.945 48.5622 36.4914 49.0354C36.4452 49.0843 36.3834 49.1154 36.3166 49.1233C36.2498 49.1313 36.1824 49.1155 36.126 49.0788L35.72 48.8156C35.6756 48.786 35.6433 48.7414 35.6291 48.69C35.615 48.6385 35.6199 48.5837 35.643 48.5356C35.958 47.9154 36.2898 47.2756 36.6482 46.6974C36.8428 46.3824 37.0416 46.0716 37.2152 45.7734C37.2974 45.6373 37.3726 45.4971 37.4406 45.3534C37.4853 45.272 37.5134 45.1825 37.5232 45.0902C37.5232 45.0804 37.5092 45.1084 37.5134 45.156C37.5176 45.2036 37.5512 45.2792 37.5134 45.2148C37.4434 45.1154 37.3356 44.9712 37.2334 44.8368C37.0178 44.5568 36.7854 44.2768 36.5572 43.9968C36.0966 43.4368 35.6262 42.8642 35.1768 42.2902L36.6846 41.04Z" fill="#263238"/>
<path d="M35.6934 48.6644C35.6934 48.6644 35.1922 49.041 34.9934 49.454C34.7946 49.867 34.943 50.434 35.0144 50.6454C35.0858 50.8568 35.2832 50.959 35.5394 50.9688C35.7956 50.9786 35.8796 50.6244 35.9594 50.3836C35.9594 50.3836 35.9188 50.7014 36.0098 50.7266C36.1008 50.7518 36.2744 50.2576 36.3206 49.8642C36.3668 49.4708 36.4522 49.132 36.4312 48.873C36.4102 48.614 36.014 48.4908 35.6934 48.6644Z" fill="#FFC3BD"/>
<path d="M33.3092 39.3992L34.4432 35.2594C34.4432 35.2594 33.2056 34.2402 32.1052 35.3994C31.1686 36.3906 31.8336 37.526 31.2274 38.5956C31.0202 38.9624 30.8466 39.1332 30.7304 39.3978C31.2988 39.661 32.2382 39.5098 33.3092 39.3992Z" fill="#407BFF"/>
<path d="M33.7054 39.5154C34.3088 39.4342 35.0676 39.6148 35.8264 39.6932C35.811 39.6596 35.7228 39.4482 35.706 39.4132C35.5086 38.9666 36.2282 38.4178 36.0014 37.8116C35.7746 37.2054 35.7984 37.2684 35.8502 36.511C35.916 35.538 34.1982 34.607 33.8832 35.2412C33.8832 35.2412 33.557 35.7438 33.9224 36.7098C34.2878 37.6758 34.3284 37.9894 33.9448 38.3576C33.6662 38.625 33.6592 39.0576 33.7054 39.5154Z" fill="#407BFF"/>
<path d="M32.9648 40.6326L32.899 40.6228C32.8192 40.6068 32.7451 40.5702 32.6839 40.5165C32.6228 40.4629 32.5769 40.3941 32.5508 40.317C32.5247 40.24 32.5193 40.1574 32.5352 40.0776C32.5511 39.9979 32.5878 39.9237 32.6414 39.8626C32.7324 39.7452 32.786 39.6033 32.7954 39.4552C32.809 39.3039 32.8039 39.1515 32.78 39.0016L33.0152 38.842L34.201 38.1588C34.0064 38.779 33.7684 39.7674 34.1646 40.242C33.9017 40.4519 33.5867 40.5865 33.2532 40.6312C33.1574 40.6407 33.0608 40.6412 32.9648 40.6326Z" fill="#FFC3BD"/>
<path d="M32.6946 41.5216C32.6343 41.5213 32.5743 41.5119 32.5168 41.4936C32.4486 41.4734 32.3859 41.4376 32.3339 41.389C32.2819 41.3404 32.242 41.2803 32.2172 41.2136C32.0226 40.7138 32.535 39.7996 32.556 39.7618C32.5582 39.7577 32.5612 39.7542 32.5648 39.7513C32.5684 39.7484 32.5725 39.7462 32.5769 39.7449C32.5814 39.7436 32.586 39.7432 32.5906 39.7437C32.5952 39.7442 32.5996 39.7456 32.6036 39.7478C32.6116 39.7525 32.6174 39.76 32.62 39.7688C32.6226 39.7777 32.6218 39.7872 32.6176 39.7954C32.6176 39.8052 32.0996 40.7194 32.2816 41.1884C32.3029 41.2453 32.3374 41.2964 32.3821 41.3375C32.4269 41.3786 32.4807 41.4086 32.5392 41.425C33.2588 41.6588 34.1912 40.1272 34.201 40.1118C34.2059 40.1038 34.2137 40.0981 34.2227 40.0958C34.2318 40.0936 34.2414 40.0951 34.2493 40.0999C34.2573 40.1047 34.2631 40.1125 34.2653 40.1216C34.2675 40.1306 34.2661 40.1402 34.2612 40.1482C34.2248 40.2098 33.424 41.5216 32.6946 41.5216Z" fill="white"/>
<g opacity="0.2">
<path d="M32.7954 39.4552C32.809 39.3039 32.8039 39.1516 32.78 39.0016L33.0152 38.842L33.557 38.9204C33.557 38.9204 33.214 39.3992 32.7954 39.4552Z" fill="black"/>
</g>
<path d="M34.775 37.1466C34.4572 38.1644 34.3662 38.4234 33.7222 38.8266C32.7534 39.4342 31.5746 39.003 31.5872 37.911C31.5998 36.931 32.1192 35.4274 33.214 35.2608C34.3088 35.0942 35.0942 36.126 34.775 37.1452" fill="#FFC3BD"/>
<path d="M34.74 35.86C34.74 35.86 34.32 35.3 33.9672 36.224C33.8552 36.5124 32.5672 36.0406 32.1472 35.9174C31.7272 35.7942 32.6484 35.1166 33.1146 34.9892C33.5808 34.8618 34.6574 35.5478 34.74 35.86Z" fill="#407BFF"/>
<path d="M31.982 37.7289C32.2696 37.7928 32.5661 37.8065 32.8584 37.7695C32.8584 37.7695 32.612 38.1657 32.2984 38.1265C31.9848 38.0873 31.982 37.7289 31.982 37.7289Z" fill="white"/>
<path d="M33.0516 36.9548C33.0306 37.0388 32.969 37.0948 32.9116 37.0822C32.8542 37.0696 32.829 36.9898 32.85 36.9058C32.871 36.8218 32.9326 36.7658 32.99 36.777C33.0474 36.7882 33.0726 36.8708 33.0516 36.9548Z" fill="#263238"/>
<path d="M32.1682 36.7588C32.1472 36.8428 32.0856 36.8988 32.0282 36.8876C31.9708 36.8764 31.9456 36.7938 31.9666 36.7098C31.9876 36.6258 32.0492 36.5698 32.1066 36.5824C32.164 36.595 32.1892 36.6748 32.1682 36.7588Z" fill="#263238"/>
<path d="M32.129 36.5922L31.9414 36.4844C31.9414 36.4844 32.0058 36.6678 32.129 36.5922Z" fill="#263238"/>
<path d="M32.4146 36.84C32.4146 36.84 32.2144 37.0276 32.0086 37.183C31.9932 37.195 31.9807 37.2104 31.9721 37.228C31.9636 37.2456 31.9591 37.2649 31.9591 37.2845C31.9591 37.304 31.9636 37.3233 31.9721 37.3409C31.9807 37.3585 31.9932 37.3739 32.0086 37.386C32.0823 37.4462 32.1626 37.4979 32.248 37.54L32.4146 36.84Z" fill="#ED847E"/>
<path d="M33.34 36.7C33.333 36.6992 33.3263 36.6968 33.3205 36.6929C33.3146 36.689 33.3098 36.6838 33.3064 36.6776C33.2725 36.6234 33.2263 36.578 33.1716 36.5449C33.1169 36.5119 33.0552 36.4921 32.9914 36.4872C32.984 36.4884 32.9764 36.488 32.9692 36.486C32.9619 36.484 32.9552 36.4805 32.9495 36.4756C32.9437 36.4707 32.9391 36.4647 32.936 36.4579C32.9328 36.451 32.9312 36.4436 32.9312 36.4361C32.9312 36.4286 32.9328 36.4211 32.936 36.4143C32.9391 36.4075 32.9437 36.4014 32.9495 36.3966C32.9552 36.3917 32.9619 36.3881 32.9692 36.3861C32.9764 36.3841 32.984 36.3837 32.9914 36.385C33.0722 36.3896 33.1507 36.4135 33.2204 36.4546C33.29 36.4958 33.3488 36.553 33.3918 36.6216C33.3992 36.6331 33.4018 36.6471 33.3989 36.6605C33.396 36.6738 33.3879 36.6855 33.3764 36.693C33.3711 36.6965 33.3652 36.699 33.3589 36.7002C33.3527 36.7014 33.3463 36.7013 33.34 36.7Z" fill="#263238"/>
<path d="M31.8868 36.3654C31.8743 36.3616 31.8638 36.353 31.8574 36.3416C31.854 36.3357 31.8518 36.3293 31.8509 36.3225C31.85 36.3158 31.8505 36.309 31.8523 36.3024C31.8542 36.2959 31.8573 36.2898 31.8615 36.2845C31.8658 36.2792 31.8711 36.2748 31.877 36.2716C31.9466 36.2306 32.0249 36.2068 32.1055 36.2021C32.1861 36.1975 32.2667 36.2122 32.3404 36.245C32.3465 36.248 32.3519 36.2521 32.3563 36.2572C32.3607 36.2623 32.364 36.2682 32.3661 36.2746C32.3682 36.281 32.369 36.2877 32.3684 36.2944C32.3679 36.3011 32.366 36.3076 32.3628 36.3136C32.3566 36.3255 32.3459 36.3345 32.3331 36.3387C32.3203 36.3429 32.3063 36.3419 32.2942 36.336C32.2354 36.3105 32.1713 36.2993 32.1073 36.3035C32.0433 36.3076 31.9811 36.3269 31.926 36.3598C31.9199 36.3625 31.9132 36.3639 31.9064 36.3639C31.8997 36.3639 31.893 36.3625 31.8868 36.3598" fill="#263238"/>
<path d="M33.0138 36.7882L32.8262 36.679C32.8262 36.679 32.8906 36.8638 33.0138 36.7882Z" fill="#263238"/>
<path d="M35.601 36.5488C35.433 37.0696 35.475 37.225 35.5912 37.4532L34.6 37.9124C34.5916 37.8844 34.5244 37.834 34.4376 37.7612C34.4054 37.736 34.3718 37.7066 34.3368 37.6744C34.1282 37.484 33.8874 37.19 33.984 36.798C34.0106 36.6874 34.0302 36.5824 34.0442 36.4844C34.0582 36.3864 34.0652 36.2912 34.0694 36.2044C34.0975 35.8718 34.0315 35.5381 33.879 35.2412C34.1058 34.8646 35.916 35.58 35.601 36.5488Z" fill="#407BFF"/>
<path d="M34.74 37.729L34.4376 37.7612C34.4054 37.736 34.3718 37.7066 34.3368 37.6744C34.1282 37.484 33.8874 37.19 33.984 36.798C34.0106 36.6874 34.0302 36.5824 34.0442 36.4844C34.3535 36.5029 34.6538 36.5961 34.9192 36.756C35.3378 37.0458 34.74 37.729 34.74 37.729Z" fill="#FFC3BD"/>
<g opacity="0.2">
<path d="M34.74 37.729L34.4376 37.7612C34.4054 37.736 34.3718 37.7066 34.3368 37.6744C34.1282 37.484 33.8874 37.19 33.984 36.798C34.0106 36.6874 34.0302 36.5824 34.0442 36.4844C34.3535 36.5029 34.6538 36.5961 34.9192 36.756C35.3378 37.0458 34.74 37.729 34.74 37.729Z" fill="black"/>
</g>
<path d="M34.9654 37.96C34.906 38.0368 34.831 38.1001 34.7453 38.1457C34.6597 38.1913 34.5652 38.2182 34.4684 38.2246C34.222 38.2246 34.1702 37.9446 34.299 37.7122C34.4138 37.4952 34.6798 37.232 34.8982 37.3384C35.1166 37.4448 35.1278 37.7584 34.9654 37.96Z" fill="#FFC3BD"/>
<path d="M34.404 38.3142C34.4283 38.3383 34.4593 38.3548 34.4929 38.3614C34.5266 38.3679 34.5614 38.3644 34.593 38.3513C34.6247 38.3381 34.6517 38.3158 34.6708 38.2873C34.6898 38.2588 34.6999 38.2253 34.6999 38.191C34.6999 38.1567 34.6898 38.1232 34.6708 38.0947C34.6517 38.0662 34.6247 38.0439 34.593 38.0307C34.5614 38.0176 34.5266 38.014 34.4929 38.0206C34.4593 38.0272 34.4283 38.0436 34.404 38.0678C34.3878 38.0839 34.3749 38.1031 34.3661 38.1243C34.3573 38.1454 34.3527 38.1681 34.3527 38.191C34.3527 38.2139 34.3573 38.2366 34.3661 38.2577C34.3749 38.2789 34.3878 38.2981 34.404 38.3142Z" fill="white"/>
<path d="M31.5424 36.3556L32.4216 36.5572C32.4216 36.5572 32.2718 37.1326 31.8392 37.1172C31.4066 37.1018 31.5424 36.3556 31.5424 36.3556Z" fill="#263238"/>
<path d="M32.598 36.6104L33.578 36.7728C33.578 36.7728 33.438 37.3524 32.969 37.3566C32.5 37.3608 32.598 36.6104 32.598 36.6104Z" fill="#263238"/>
<path d="M32.6176 36.7405C32.5839 36.7007 32.5402 36.6705 32.491 36.6531C32.4418 36.6356 32.3889 36.6315 32.3376 36.6411L32.3236 36.5795C32.387 36.5667 32.4527 36.5714 32.5136 36.5931C32.5746 36.6148 32.6284 36.6527 32.6694 36.7027L32.6176 36.7405Z" fill="#263238"/>
<path d="M34.6238 37.3524C34.5797 37.2688 34.5185 37.1955 34.4442 37.1372C34.3699 37.0788 34.2842 37.0367 34.1926 37.0136C33.851 36.9156 33.522 36.8302 33.5178 36.8288L33.5346 36.7686C33.5346 36.7686 33.8664 36.8554 34.2094 36.9534C34.3106 36.9782 34.4053 37.0246 34.4869 37.0894C34.5686 37.1541 34.6353 37.2357 34.6826 37.3286L34.6238 37.3524Z" fill="#263238"/>
</svg>
