<svg width="93" height="47" viewBox="0 0 93 47" fill="none" xmlns="http://www.w3.org/2000/svg">
<g clip-path="url(#clip0_63_851)">
<path d="M7.57 15.053C7.57 11.348 10.268 7.7 14.467 7.7C16.671 7.7 18.533 8.479 18.533 10.778C18.533 12.412 17.298 13.856 15.569 13.856C13.745 13.856 12.985 11.31 14.657 11.31C15.645 11.31 15.721 11.728 15.854 12.716H16.006C16.899 12.716 17.051 11.975 17.051 11.348C17.051 9.904 15.892 9.391 14.524 9.391C11.408 9.391 10.211 12.659 10.211 15.11C10.211 17.39 11.047 19.86 14.087 19.86C16.5 19.86 16.5 15.3 18.096 16.554C18.229 16.744 18.628 17.029 18.628 17.314C17.83 19.1 15.949 20.981 13.194 20.981C9.584 20.981 7.57 18.245 7.57 15.053ZM20.9004 14.692C20.9004 12.469 22.4014 9.695 24.9094 9.695C27.3414 9.695 28.2724 11.994 28.4624 14.103L23.0094 15.319C23.0094 16.554 23.2374 17.618 23.8454 18.701C24.7004 20.259 27.5124 19.955 27.5504 17.922V17.846C27.2844 18.169 26.9614 18.245 26.5624 18.245C25.7454 18.245 25.2134 17.808 25.2134 16.972C25.2894 16.155 25.9544 15.3 26.8094 15.3H26.9234C27.9874 15.3 28.7854 15.946 28.7854 17.029C28.7854 18.91 27.6644 20.829 25.5934 20.829H25.4224C22.0784 20.829 21.0144 17.523 20.9004 14.692ZM25.1184 11.253C23.8644 11.253 23.1234 13.077 23.1234 14.141L26.9424 13.609C26.9424 12.678 26.1824 11.253 25.1184 11.253ZM33.5494 20.924L30.4524 21.228C30.6614 21.228 31.2694 16.231 30.1674 9.638L31.8394 9.752L31.9154 10.588C32.8654 9.676 34.1574 8.973 35.4304 8.973C37.3684 8.973 37.7484 10.854 37.7484 12.773C37.7484 15.566 33.9864 15.433 33.9864 13.058C33.9864 11.937 34.6324 11.31 35.8484 11.31C36.1524 11.31 36.3044 11.329 36.6274 11.424V11.386C36.4184 10.759 35.5824 10.474 35.0124 10.474C30.0534 10.474 33.8154 21.19 33.5494 20.924ZM36.6844 11.462C36.6654 11.462 36.6654 11.519 36.6844 11.519C36.7224 11.519 36.7224 11.462 36.6844 11.462ZM39.7765 20.772C40.5175 16.763 39.6435 14.597 39.5105 11.728H42.1895C41.4485 14.768 42.3225 17.865 42.4555 20.772H39.7765ZM38.6365 8.213C38.6365 7.168 39.4915 6.294 40.7075 6.294C41.9235 6.294 42.7215 7.168 42.7215 8.213C42.7215 9.258 41.9235 10.132 40.7075 10.132C39.4915 10.132 38.6365 9.258 38.6365 8.213ZM44.2738 14.54L43.9698 13.172L45.4138 13.058C45.5088 11.082 45.4138 10.664 45.2238 6.712L47.9218 6.864L47.1618 12.982L50.1258 12.488L49.7078 14.008L47.1618 14.122C47.1998 16.25 47.3708 20.81 49.6888 21.057C51.1518 21.057 52.1778 20.316 51.7978 18.948C50.9428 20.278 49.1378 19.86 49.1378 18.188C49.1378 15.775 52.2538 16.174 52.5958 18.378C52.9568 20.677 51.8358 22.254 49.6508 22.254C45.5468 22.254 44.6728 18.378 45.3378 14.274L44.2738 14.54ZM54.6695 19.252C53.6245 15.224 57.6525 13.514 60.9395 14.844C60.9395 13.229 60.8255 10.265 58.3935 10.265C57.4815 10.265 56.5695 10.873 56.5695 11.899C56.5695 12.431 56.9685 12.545 57.3295 12.545C57.3295 11.956 57.3675 11.405 58.1085 11.405C58.5835 11.405 58.9445 11.728 58.9445 12.222C58.9445 13.153 58.2415 13.514 57.3675 13.514C56.4365 13.514 55.6005 12.982 55.6005 11.937C55.6005 10.132 57.5195 9.125 59.0965 9.125C60.5785 9.125 62.6685 9.98 62.6685 11.766C62.6685 13.21 63.0295 19.746 63.1245 20.525V20.62C62.5355 20.696 61.2815 20.905 60.7685 20.886V19.537C58.9635 21.513 55.2205 21.912 54.6695 19.252ZM56.5695 17.637C56.5695 18.473 56.9115 19.518 57.9185 19.518C59.1535 19.518 61.0725 18.435 61.0725 17.105C61.0725 16.079 59.7995 15.338 58.7735 15.338C57.3485 15.338 56.5695 16.288 56.5695 17.637Z" fill="#37E1A0"/>
<path d="M24.5029 25.7505C24.1162 25.8911 23.8042 25.8911 23.5669 25.7505C23.3296 25.6099 23.1714 25.3945 23.0923 25.1045C23.0132 24.8057 23.0132 24.498 23.0923 24.1816C23.1802 23.8652 23.3472 23.5972 23.5933 23.3774C23.9712 23.0874 24.3843 22.9336 24.8325 22.916C25.4917 22.916 26.0103 23.1533 26.3882 23.6279C26.7749 24.1025 27.0562 24.7485 27.2319 25.5659C27.645 25.1177 28.1284 24.6914 28.6821 24.2871C29.2358 23.8828 29.8203 23.5532 30.4355 23.2983C31.0596 23.0435 31.6792 22.916 32.2944 22.916C33.3052 22.9336 34.0918 23.1929 34.6543 23.6938C35.1553 24.1509 35.4585 24.7617 35.564 25.5264C35.6782 26.291 35.6343 27.126 35.4321 28.0312C35.23 28.9277 34.9048 29.811 34.4565 30.6812C34.0171 31.5425 33.4985 32.2983 32.9009 32.9487C32.312 33.5903 31.688 34.043 31.0288 34.3066C30.5103 34.5 30.0093 34.5747 29.5259 34.5308C29.0425 34.478 28.6294 34.2847 28.2866 33.9507C27.9438 33.6079 27.7153 33.0981 27.6011 32.4214C27.522 31.7974 27.5483 31.1821 27.6802 30.5757C27.8208 29.9692 28.0449 29.4902 28.3525 29.1387C28.7832 28.6992 29.2402 28.4443 29.7236 28.374C30.207 28.2949 30.6421 28.3784 31.0288 28.6245C31.4243 28.8706 31.688 29.2485 31.8198 29.7583C31.9517 30.2593 31.8857 30.8657 31.6221 31.5776C31.4727 31.9468 31.2793 32.228 31.042 32.4214C30.8047 32.606 30.5498 32.6631 30.2773 32.5928C30.0049 32.5225 29.7412 32.2939 29.4863 31.9072C29.627 31.7666 29.7588 31.5601 29.8818 31.2876C30.0137 31.0151 30.1147 30.7383 30.1851 30.457C30.2729 30.0615 30.2642 29.8066 30.1587 29.6924C30.0532 29.5693 29.9126 29.5913 29.7368 29.7583C29.561 29.9165 29.416 30.2153 29.3018 30.6548C29.0645 31.6128 29.0161 32.3071 29.1567 32.7378C29.3062 33.1597 29.5654 33.353 29.9346 33.3179C30.3037 33.2827 30.7124 33.0586 31.1606 32.6455C31.6704 32.1621 32.1494 31.4634 32.5977 30.5493C33.0459 29.6353 33.3843 28.6992 33.6128 27.7412C33.8413 26.7832 33.8721 25.9922 33.7051 25.3682C33.5029 24.7705 33.1953 24.4277 32.7822 24.3398C32.3691 24.2432 31.8989 24.3311 31.3716 24.6035C30.8442 24.876 30.3081 25.2583 29.7632 25.7505C29.2183 26.2427 28.7173 26.7744 28.2603 27.3457C27.9878 27.6797 27.7417 28.0312 27.522 28.4004C27.5396 29.209 27.5308 30.0352 27.4956 30.8789C27.4692 31.7227 27.4341 32.5488 27.3901 33.3574C27.3198 34.5439 27.2803 35.5942 27.2715 36.5083C27.2715 37.4224 27.3594 38.0728 27.5352 38.4595C27.333 38.688 27.0913 38.8506 26.8101 38.9473C26.5288 39.0352 26.2476 39.0176 25.9663 38.8945C25.6938 38.7715 25.4829 38.7188 25.3335 38.7363C25.1841 38.7539 25.0522 38.7935 24.938 38.855C24.8149 38.9341 24.6567 38.9824 24.4634 39C24.0854 39 23.7778 38.8945 23.5405 38.6836C23.312 38.4727 23.1626 38.2222 23.0923 37.9321C23.0308 37.6333 23.0571 37.3521 23.1714 37.0884C23.2856 36.8159 23.501 36.6226 23.8174 36.5083C23.9844 36.4468 24.1558 36.4336 24.3315 36.4688C24.5073 36.5039 24.6963 36.6182 24.8984 36.8115C24.8193 36.8994 24.7754 37.0049 24.7666 37.1279C24.7578 37.2422 24.7754 37.3477 24.8193 37.4443C24.8633 37.5322 24.9248 37.5762 25.0039 37.5762C25.0303 37.5762 25.0654 37.5674 25.1094 37.5498C25.1533 37.5322 25.1929 37.4927 25.228 37.4312C25.272 37.3696 25.3027 37.2817 25.3203 37.1675C25.417 36.5259 25.4741 35.5239 25.4917 34.1616C25.5093 32.7993 25.5049 31.4238 25.4785 30.0352C25.4609 28.6377 25.439 27.5742 25.4126 26.8447C25.395 26.4141 25.3643 26.0054 25.3203 25.6187C25.2764 25.2231 25.2192 24.9023 25.1489 24.6562C25.0874 24.4102 25.0039 24.2915 24.8984 24.3003C24.8369 24.3179 24.771 24.4233 24.7007 24.6167C24.6392 24.8013 24.5864 25.0078 24.5425 25.2363C24.5073 25.4561 24.4941 25.6274 24.5029 25.7505ZM40.6644 39.0132C39.9086 39.022 39.2714 38.8638 38.7528 38.5386C38.2343 38.2046 37.8168 37.7651 37.5004 37.2202C37.184 36.6753 36.9598 36.0776 36.828 35.4272C36.6962 34.7681 36.6434 34.1133 36.6698 33.4629C36.6962 32.7861 36.8016 32.1182 36.9862 31.459C37.1708 30.7998 37.4432 30.1978 37.8036 29.6528C38.1639 29.1079 38.6166 28.6641 39.1615 28.3213C39.7152 27.9785 40.37 27.7896 41.1259 27.7544C41.7587 27.7456 42.2553 27.8906 42.6156 28.1895C42.976 28.4883 43.2221 28.8794 43.3539 29.3628C43.4857 29.8462 43.5253 30.356 43.4725 30.8921C43.3934 31.5513 43.1781 32.2148 42.8265 32.8828C42.4838 33.5508 42.0619 34.1704 41.5609 34.7417C41.0599 35.3042 40.5414 35.77 40.0053 36.1392C39.8734 36.2271 39.6405 36.3105 39.3065 36.3896C39.5175 36.7852 39.7504 37.0928 40.0053 37.3125C40.2601 37.5234 40.515 37.6245 40.7699 37.6157C41.0512 37.6069 41.3016 37.4355 41.5214 37.1016C41.7499 36.7588 41.9081 36.1919 41.996 35.4009C42.5233 35.269 42.91 35.3086 43.1561 35.5195C43.411 35.7305 43.5516 36.0776 43.578 36.561C43.5956 36.939 43.5165 37.3125 43.3407 37.6816C43.1737 38.0508 42.8705 38.3628 42.431 38.6177C42.0004 38.8638 41.4115 38.9956 40.6644 39.0132ZM38.7133 33.7134C38.7045 34.2319 38.7572 34.7197 38.8715 35.1768C39.6801 34.5176 40.4052 33.6738 41.0468 32.6455C41.3544 32.1445 41.5741 31.6567 41.7059 31.1821C41.8378 30.7075 41.8905 30.29 41.8641 29.9297C41.829 29.5342 41.7103 29.2749 41.5082 29.1519C41.306 29.0288 41.0687 29.0112 40.7963 29.0991C40.5326 29.1782 40.2821 29.3276 40.0448 29.5474C39.7196 29.8813 39.4603 30.3032 39.267 30.813C39.0736 31.314 38.933 31.8281 38.8451 32.3555C38.7572 32.874 38.7133 33.3267 38.7133 33.7134ZM45.6067 38.4858C45.7297 38.2222 45.822 37.8838 45.8836 37.4707C45.9451 37.0488 45.9802 36.5698 45.989 36.0337C45.9978 35.0142 45.9758 33.8804 45.9231 32.6323C45.8792 31.4897 45.8572 30.3472 45.8572 29.2046C45.8572 28.062 45.9275 27.0161 46.0681 26.0669C46.2087 25.1177 46.4724 24.3574 46.8591 23.7861C47.2459 23.2148 47.804 22.9292 48.5335 22.9292C48.9905 22.9556 49.4036 23.1094 49.7727 23.3906C50.0188 23.6104 50.1814 23.8828 50.2605 24.208C50.3484 24.5244 50.3528 24.8276 50.2737 25.1177C50.1946 25.4077 50.0364 25.623 49.7991 25.7637C49.5706 25.9043 49.2629 25.9087 48.8762 25.7769C48.8762 25.6538 48.8543 25.4824 48.8103 25.2627C48.7752 25.0342 48.7268 24.8232 48.6653 24.6299C48.6038 24.4365 48.5379 24.3311 48.4675 24.3135C48.3709 24.3135 48.2874 24.4365 48.2171 24.6826C48.1467 24.9287 48.0896 25.2495 48.0457 25.645C48.0017 26.0317 47.971 26.4404 47.9534 26.8711C47.9446 27.5479 47.9622 28.585 48.0061 29.9824C48.0325 30.8877 48.0545 31.8281 48.072 32.8037C48.0984 33.7793 48.0984 34.7021 48.072 35.5723C48.0632 36.1172 48.072 36.5391 48.0984 36.8379C48.1248 37.1279 48.1599 37.3301 48.2039 37.4443C48.2566 37.5498 48.3093 37.6025 48.3621 37.6025C48.4412 37.5938 48.5027 37.5454 48.5466 37.4575C48.5906 37.3608 48.6082 37.2554 48.5994 37.1411C48.5906 37.0181 48.5466 36.9126 48.4675 36.8247C48.7488 36.561 49.0256 36.4248 49.2981 36.416C49.5706 36.3984 49.7991 36.4819 49.9837 36.6665C50.1682 36.8511 50.2649 37.106 50.2737 37.4312C50.2913 37.73 50.2517 38.0156 50.155 38.2881C50.0584 38.5518 49.8518 38.7539 49.5354 38.8945C49.1311 39.0615 48.7268 39.0527 48.3225 38.8682C48.3049 38.8594 48.283 38.8506 48.2566 38.8418C48.1511 38.7715 48.0193 38.7319 47.8611 38.7231C47.7117 38.7056 47.4832 38.7671 47.1755 38.9077C46.8855 39.0308 46.5999 39.0483 46.3186 38.9604C46.0462 38.8726 45.8088 38.7144 45.6067 38.4858ZM53.2648 38.4858C52.9484 38.2573 52.6891 37.9805 52.487 37.6553C52.2936 37.3389 52.1618 36.9873 52.0914 36.6006C52.0123 36.1699 52.0255 35.7217 52.131 35.2559C52.2453 34.7812 52.4606 34.311 52.777 33.8452C53.1461 33.3354 53.6032 32.9004 54.1481 32.54C54.7018 32.1797 55.2775 31.8721 55.8751 31.6172C56.4816 31.3623 57.0529 31.1382 57.589 30.9448L57.8659 30.8394C57.8395 30.2769 57.7033 29.8418 57.4572 29.5342C57.2111 29.2266 56.8419 29.0771 56.3497 29.0859C55.9894 29.0859 55.5851 29.165 55.1369 29.3232C54.6974 29.4814 54.3634 29.7056 54.1349 29.9956C53.9591 30.2505 53.8976 30.4043 53.9503 30.457C54.0119 30.501 54.1217 30.4702 54.2799 30.3647C54.359 30.3032 54.4381 30.2285 54.5172 30.1406C54.6051 30.0439 54.6798 29.9604 54.7413 29.8901C54.7765 29.8462 54.8029 29.8154 54.8204 29.7979C55.1456 29.8506 55.3786 29.9692 55.5192 30.1538C55.6598 30.3384 55.7257 30.5449 55.7169 30.7734C55.7081 30.9932 55.6378 31.1953 55.506 31.3799C55.3038 31.6348 55.0314 31.8281 54.6886 31.96C54.3546 32.0918 54.0163 32.1094 53.6735 32.0127C53.3307 31.9072 53.0495 31.6392 52.8297 31.2085C52.6627 30.8394 52.6188 30.4307 52.6979 29.9824C52.777 29.5254 52.9967 29.1035 53.3571 28.7168C53.7174 28.3564 54.1481 28.106 54.6491 27.9653C55.15 27.8247 55.6554 27.7676 56.1652 27.7939C56.6574 27.8027 57.1364 27.8687 57.6022 27.9917C58.068 28.106 58.4811 28.3037 58.8414 28.585C59.2018 28.8662 59.4611 29.2617 59.6193 29.7715C59.8126 30.4395 59.9181 31.1646 59.9357 31.9468C59.9533 32.729 59.9445 33.5156 59.9093 34.3066C59.8829 34.9043 59.8698 35.48 59.8698 36.0337C59.8698 36.5874 59.9093 37.0928 59.9884 37.5498C59.9884 37.5586 59.9884 37.563 59.9884 37.563C59.9972 37.5981 60.006 37.6333 60.0148 37.6685C60.0148 37.6685 60.0148 37.6729 60.0148 37.6816C60.0236 37.708 60.028 37.7388 60.028 37.7739C60.0368 37.7827 60.0412 37.7915 60.0412 37.8003C60.0412 37.8267 60.0455 37.853 60.0543 37.8794C60.0631 37.8882 60.0675 37.897 60.0675 37.9058C60.0763 37.9321 60.0807 37.9585 60.0807 37.9849C60.0807 37.9849 60.0851 37.9849 60.0939 37.9849C60.0939 37.9937 60.0939 38.0024 60.0939 38.0112C60.1027 38.0288 60.1115 38.0508 60.1203 38.0771C60.1203 38.0859 60.1203 38.0903 60.1203 38.0903C60.1203 38.0991 60.1203 38.1035 60.1203 38.1035C60.129 38.1299 60.1378 38.1562 60.1466 38.1826C60.1554 38.1914 60.1598 38.2002 60.1598 38.209C60.1686 38.2266 60.1774 38.2485 60.1862 38.2749C60.1862 38.2749 60.1862 38.2793 60.1862 38.2881C60.1862 38.2881 60.1906 38.2925 60.1994 38.3013C60.2081 38.3276 60.2169 38.3496 60.2257 38.3672C60.2257 38.376 60.2257 38.3804 60.2257 38.3804C60.2257 38.3892 60.2301 38.3936 60.2389 38.3936C60.2477 38.4199 60.2609 38.4507 60.2785 38.4858C59.9972 38.7935 59.6896 38.9692 59.3556 39.0132C59.0216 39.0659 58.7228 38.9868 58.4591 38.7759C58.2042 38.5649 58.0416 38.2222 57.9713 37.7476C57.945 37.7739 57.9098 37.8003 57.8659 37.8267C57.8659 37.8354 57.8659 37.8398 57.8659 37.8398C57.8571 37.8398 57.8527 37.8442 57.8527 37.853C57.8175 37.8794 57.7868 37.9014 57.7604 37.9189C57.7516 37.9189 57.7472 37.9233 57.7472 37.9321C57.7384 37.9321 57.734 37.9365 57.734 37.9453C57.734 37.9453 57.734 37.9409 57.734 37.9321C56.987 38.4771 56.2575 38.8154 55.5455 38.9473C55.0973 39.0264 54.6798 39.022 54.2931 38.9341C53.9064 38.8462 53.5636 38.6968 53.2648 38.4858ZM57.9977 32.8696C57.5846 33.0278 57.1056 33.2344 56.5607 33.4893C56.0158 33.7354 55.4928 34.0298 54.9918 34.3726C54.4909 34.7153 54.091 35.1064 53.7921 35.5459C53.4933 35.9766 53.379 36.4512 53.4494 36.9697C53.5197 37.2861 53.6998 37.4839 53.9899 37.563C54.2799 37.6333 54.6227 37.6201 55.0182 37.5234C55.4225 37.418 55.8136 37.2642 56.1915 37.062C56.5695 36.8511 56.8771 36.627 57.1144 36.3896C57.4044 36.0732 57.611 35.7261 57.734 35.3481C57.8659 34.9614 57.945 34.5571 57.9713 34.1353C57.9977 33.7134 58.0065 33.2915 57.9977 32.8696ZM63.7573 29.4683C63.4409 29.6001 63.1377 29.6177 62.8477 29.521C62.5664 29.4243 62.3511 29.2354 62.2017 28.9541C62.0435 28.6729 61.9995 28.3257 62.0698 27.9126C62.3511 27.9565 62.6763 27.9741 63.0454 27.9653C63.4234 27.9565 63.7881 27.9258 64.1397 27.873C64.166 27.873 64.1924 27.8687 64.2188 27.8599C64.4649 27.8159 64.6758 27.7939 64.8516 27.7939C64.9658 27.7939 65.0669 27.8159 65.1548 27.8599C65.2427 27.895 65.3174 27.9653 65.3789 28.0708C65.4404 28.1675 65.4844 28.3125 65.5108 28.5059C65.669 29.6309 65.7744 30.9712 65.8272 32.5269C65.8887 34.0737 65.8755 35.6118 65.7876 37.1411C65.7085 38.6616 65.5371 39.9448 65.2735 40.9907C65.1328 41.5269 64.9307 42.0103 64.667 42.4409C64.4121 42.8804 64.0694 43.2275 63.6387 43.4824C63.208 43.7461 62.6719 43.8779 62.0303 43.8779C61.3272 43.8604 60.7735 43.6934 60.3692 43.377C59.9561 43.0605 59.6836 42.6694 59.5518 42.2036C59.4112 41.7378 59.398 41.2676 59.5122 40.793C59.6177 40.3271 59.8374 39.9316 60.1714 39.6064C60.5054 39.2812 60.9361 39.1011 61.4634 39.0659C61.9116 39.0571 62.2852 39.1934 62.584 39.4746C62.8828 39.7646 63.0674 40.1118 63.1377 40.5161C63.2168 40.9292 63.1465 41.3159 62.9268 41.6763C62.8213 41.8345 62.6631 41.9575 62.4522 42.0454C62.25 42.1333 62.0303 42.1465 61.793 42.085C61.5557 42.0322 61.3447 41.8608 61.1602 41.5708C61.3887 41.2192 61.5073 40.9556 61.5161 40.7798C61.5161 40.6128 61.4634 40.5249 61.3579 40.5161C61.2525 40.5161 61.147 40.5864 61.0415 40.7271C60.9273 40.8677 60.8701 41.0786 60.8701 41.3599C60.8789 41.6411 60.9756 41.896 61.1602 42.1245C61.336 42.3618 61.626 42.4849 62.0303 42.4937C62.4522 42.4761 62.7774 42.2871 63.0059 41.9268C63.2432 41.5664 63.4146 41.1182 63.52 40.582C63.6958 39.7119 63.8189 38.6221 63.8892 37.3125C63.9683 36.0029 63.9946 34.6802 63.9683 33.3442C63.9507 31.9995 63.8936 30.8438 63.7969 29.877C63.7881 29.7363 63.7749 29.6001 63.7573 29.4683ZM62.94 24.6299V24.6167V24.5903V24.5771V24.564V24.5376V24.5244V24.498V24.4585L62.9531 24.4321V24.4189V24.4058V24.3794V24.3662V24.353V24.3398V24.3135V24.3003V24.2739C62.9619 24.1685 62.9751 24.063 62.9927 23.9575C63.0718 23.6323 63.2608 23.3994 63.5596 23.2588C63.8584 23.1182 64.1529 23.1006 64.4429 23.2061C64.7417 23.3027 64.9351 23.5576 65.023 23.9707C65.0845 24.3838 65.0845 24.8145 65.023 25.2627V25.2891V25.3022H65.0098V25.3154V25.3418V25.355V25.3682V25.3813V25.3945L64.9966 25.4077V25.4209V25.4341V25.4473V25.4604V25.4736V25.4868H64.9834V25.5132V25.5264V25.5396V25.5527L64.9702 25.5791V25.5923V25.6055V25.6187V25.6318L64.9571 25.6582V25.6714V25.6846V25.6978L64.9439 25.7109V25.7241V25.7505V25.7637V25.7769L64.9307 25.79V25.8032V25.8164V25.8296L64.9175 25.8428V25.856V25.8691V25.8823L64.9043 25.9087V25.9219V25.9351V25.9482L64.8911 25.9614V25.9746V25.9878V26.001L64.8779 26.0142V26.0273V26.0405V26.0537L64.8648 26.0669V26.0801V26.0933L64.8516 26.1064V26.1196V26.1328L64.8384 26.146V26.1592V26.1724C64.7066 26.5239 64.5396 26.7437 64.3374 26.8315C64.1441 26.9106 63.9463 26.8843 63.7442 26.7524C63.542 26.6206 63.3706 26.4053 63.23 26.1064L63.2168 26.0933L63.2036 26.0801V26.0669V26.0537H63.1904V26.0405V26.0273L63.1773 26.001L63.1641 25.9878V25.9614L63.1509 25.9351V25.9087H63.1377V25.8955V25.8823V25.8691L63.1245 25.856V25.8428V25.8164H63.1113V25.79L63.0982 25.7637V25.7505V25.7373L63.085 25.7109V25.6978V25.6846V25.6714L63.0718 25.6582V25.6318L63.0586 25.6055V25.5791V25.5659V25.5527L63.0454 25.5396V25.5264V25.5V25.4868L63.0322 25.4736V25.4604V25.4341L63.0191 25.4077V25.3945V25.3682V25.3418L63.0059 25.3286V25.3154V25.2891V25.2759V25.2495H62.9927V25.2231V25.21V25.1836L62.9795 25.1572V25.144V25.1177V25.1045V25.0913V25.0649V25.0518L62.9663 25.0254V24.999V24.9858V24.9595V24.9199L62.9531 24.8936V24.8804V24.854V24.8408V24.8276V24.8013V24.7881V24.7617V24.7222V24.6958V24.6826V24.6562V24.6431L62.94 24.6299ZM69.372 38.4858C69.0556 38.2573 68.7963 37.9805 68.5941 37.6553C68.4008 37.3389 68.2689 36.9873 68.1986 36.6006C68.1195 36.1699 68.1327 35.7217 68.2382 35.2559C68.3524 34.7812 68.5678 34.311 68.8842 33.8452C69.2533 33.3354 69.7104 32.9004 70.2553 32.54C70.809 32.1797 71.3847 31.8721 71.9823 31.6172C72.5888 31.3623 73.1601 31.1382 73.6962 30.9448L73.973 30.8394C73.9467 30.2769 73.8104 29.8418 73.5644 29.5342C73.3183 29.2266 72.9491 29.0771 72.4569 29.0859C72.0966 29.0859 71.6923 29.165 71.244 29.3232C70.8046 29.4814 70.4706 29.7056 70.2421 29.9956C70.0663 30.2505 70.0048 30.4043 70.0575 30.457C70.119 30.501 70.2289 30.4702 70.3871 30.3647C70.4662 30.3032 70.5453 30.2285 70.6244 30.1406C70.7123 30.0439 70.787 29.9604 70.8485 29.8901C70.8837 29.8462 70.9101 29.8154 70.9276 29.7979C71.2528 29.8506 71.4857 29.9692 71.6264 30.1538C71.767 30.3384 71.8329 30.5449 71.8241 30.7734C71.8153 30.9932 71.745 31.1953 71.6132 31.3799C71.411 31.6348 71.1386 31.8281 70.7958 31.96C70.4618 32.0918 70.1234 32.1094 69.7807 32.0127C69.4379 31.9072 69.1566 31.6392 68.9369 31.2085C68.7699 30.8394 68.726 30.4307 68.8051 29.9824C68.8842 29.5254 69.1039 29.1035 69.4643 28.7168C69.8246 28.3564 70.2553 28.106 70.7562 27.9653C71.2572 27.8247 71.7626 27.7676 72.2724 27.7939C72.7645 27.8027 73.2436 27.8687 73.7094 27.9917C74.1752 28.106 74.5883 28.3037 74.9486 28.585C75.309 28.8662 75.5683 29.2617 75.7265 29.7715C75.9198 30.4395 76.0253 31.1646 76.0429 31.9468C76.0604 32.729 76.0517 33.5156 76.0165 34.3066C75.9901 34.9043 75.977 35.48 75.977 36.0337C75.977 36.5874 76.0165 37.0928 76.0956 37.5498C76.0956 37.5586 76.0956 37.563 76.0956 37.563C76.1044 37.5981 76.1132 37.6333 76.122 37.6685C76.122 37.6685 76.122 37.6729 76.122 37.6816C76.1308 37.708 76.1352 37.7388 76.1352 37.7739C76.1439 37.7827 76.1483 37.7915 76.1483 37.8003C76.1483 37.8267 76.1527 37.853 76.1615 37.8794C76.1703 37.8882 76.1747 37.897 76.1747 37.9058C76.1835 37.9321 76.1879 37.9585 76.1879 37.9849C76.1879 37.9849 76.1923 37.9849 76.2011 37.9849C76.2011 37.9937 76.2011 38.0024 76.2011 38.0112C76.2099 38.0288 76.2187 38.0508 76.2274 38.0771C76.2274 38.0859 76.2274 38.0903 76.2274 38.0903C76.2274 38.0991 76.2274 38.1035 76.2274 38.1035C76.2362 38.1299 76.245 38.1562 76.2538 38.1826C76.2626 38.1914 76.267 38.2002 76.267 38.209C76.2758 38.2266 76.2846 38.2485 76.2934 38.2749C76.2934 38.2749 76.2934 38.2793 76.2934 38.2881C76.2934 38.2881 76.2978 38.2925 76.3065 38.3013C76.3153 38.3276 76.3241 38.3496 76.3329 38.3672C76.3329 38.376 76.3329 38.3804 76.3329 38.3804C76.3329 38.3892 76.3373 38.3936 76.3461 38.3936C76.3549 38.4199 76.3681 38.4507 76.3856 38.4858C76.1044 38.7935 75.7968 38.9692 75.4628 39.0132C75.1288 39.0659 74.83 38.9868 74.5663 38.7759C74.3114 38.5649 74.1488 38.2222 74.0785 37.7476C74.0521 37.7739 74.017 37.8003 73.973 37.8267C73.973 37.8354 73.973 37.8398 73.973 37.8398C73.9643 37.8398 73.9599 37.8442 73.9599 37.853C73.9247 37.8794 73.8939 37.9014 73.8676 37.9189C73.8588 37.9189 73.8544 37.9233 73.8544 37.9321C73.8456 37.9321 73.8412 37.9365 73.8412 37.9453C73.8412 37.9453 73.8412 37.9409 73.8412 37.9321C73.0941 38.4771 72.3646 38.8154 71.6527 38.9473C71.2045 39.0264 70.787 39.022 70.4003 38.9341C70.0136 38.8462 69.6708 38.6968 69.372 38.4858ZM74.1049 32.8696C73.6918 33.0278 73.2128 33.2344 72.6679 33.4893C72.1229 33.7354 71.6 34.0298 71.099 34.3726C70.598 34.7153 70.1981 35.1064 69.8993 35.5459C69.6005 35.9766 69.4862 36.4512 69.5565 36.9697C69.6269 37.2861 69.807 37.4839 70.0971 37.563C70.3871 37.6333 70.7299 37.6201 71.1254 37.5234C71.5297 37.418 71.9208 37.2642 72.2987 37.062C72.6767 36.8511 72.9843 36.627 73.2216 36.3896C73.5116 36.0732 73.7182 35.7261 73.8412 35.3481C73.973 34.9614 74.0521 34.5571 74.0785 34.1353C74.1049 33.7134 74.1137 33.2915 74.1049 32.8696ZM80.8665 28.6509C81.262 28.3521 81.6883 28.1191 82.1453 27.9521C82.6111 27.7852 83.055 27.7324 83.4768 27.7939C84.2151 27.9258 84.7029 28.3257 84.9402 28.9937C85.0633 29.3892 85.094 29.8374 85.0325 30.3384C84.9798 30.8306 84.8304 31.2832 84.5843 31.6963C84.347 32.1094 84.0174 32.3774 83.5955 32.5005C83.1824 32.5884 82.8177 32.5005 82.5013 32.2368C82.1848 31.9644 82.031 31.5908 82.0398 31.1162C82.4793 30.9844 82.8133 30.7954 83.0418 30.5493C83.2791 30.2944 83.4197 30.0439 83.4637 29.7979C83.5164 29.543 83.49 29.3496 83.3846 29.2178C83.2791 29.0771 83.1121 29.0552 82.8836 29.1519C82.6551 29.2485 82.3782 29.5254 82.053 29.9824C81.7366 30.4395 81.4597 30.936 81.2224 31.4722C80.9851 32.0083 80.8401 32.4478 80.7874 32.7905C80.7171 33.3882 80.6687 34.0474 80.6424 34.7681C80.6072 35.5151 80.6072 36.2095 80.6424 36.8511C80.6863 37.4839 80.8138 38.0288 81.0247 38.4858C80.6731 38.8726 80.2908 39.0571 79.8777 39.0396C79.4734 39.022 79.157 38.811 78.9285 38.4067C78.7176 37.9673 78.5945 37.3081 78.5594 36.4292C78.533 35.5503 78.5506 34.6011 78.6121 33.5815C78.6824 32.562 78.7571 31.6304 78.8362 30.7866C78.8889 30.1978 78.9285 29.7188 78.9549 29.3496C78.6736 29.3848 78.4627 29.3013 78.3221 29.0991C78.1726 28.897 78.1331 28.563 78.2034 28.0972C78.511 28.0972 78.7879 28.0752 79.034 28.0312C79.2801 27.9873 79.4998 27.9434 79.6931 27.8994C80.0008 27.8115 80.2469 27.7764 80.4314 27.7939C80.616 27.8115 80.7434 27.9478 80.8138 28.2026C80.8401 28.3081 80.8577 28.4443 80.8665 28.6113V28.6245V28.6509Z" fill="#37E1A0"/>
</g>
<defs>
<clipPath id="clip0_63_851">
<rect width="93" height="47" fill="white"/>
</clipPath>
</defs>
</svg>
