<svg width="40" height="40" viewBox="0 0 40 40" fill="none" xmlns="http://www.w3.org/2000/svg">
<rect width="40" height="40" rx="20" fill="#37E1A0"/>
<path d="M28.9469 16.305C28.9369 15.5476 28.7951 14.7977 28.5279 14.089C28.2963 13.4911 27.9425 12.9482 27.4891 12.4948C27.0358 12.0414 26.4928 11.6876 25.8949 11.456C25.1953 11.1933 24.4561 11.0513 23.7089 11.036C22.7469 10.993 22.4419 10.981 19.9999 10.981C17.5579 10.981 17.2449 10.981 16.2899 11.036C15.5431 11.0514 14.8043 11.1934 14.1049 11.456C13.507 11.6874 12.964 12.0412 12.5106 12.4946C12.0572 12.948 11.7034 13.491 11.4719 14.089C11.2088 14.7881 11.0671 15.5271 11.0529 16.274C11.0099 17.237 10.9969 17.542 10.9969 19.984C10.9969 22.426 10.9969 22.738 11.0529 23.694C11.0679 24.442 11.2089 25.18 11.4719 25.881C11.7038 26.4787 12.0578 27.0215 12.5114 27.4747C12.9649 27.9279 13.508 28.2815 14.1059 28.513C14.8034 28.7862 15.5423 28.9383 16.2909 28.963C17.2539 29.006 17.5589 29.019 20.0009 29.019C22.4429 29.019 22.7559 29.019 23.7109 28.963C24.4581 28.9482 25.1973 28.8066 25.8969 28.544C26.4946 28.312 27.0375 27.9581 27.4908 27.5048C27.9441 27.0515 28.298 26.5086 28.5299 25.911C28.7929 25.211 28.9339 24.473 28.9489 23.724C28.9919 22.762 29.0049 22.457 29.0049 20.014C29.0029 17.572 29.0029 17.262 28.9469 16.305ZM19.9939 24.602C17.4399 24.602 15.3709 22.533 15.3709 19.979C15.3709 17.425 17.4399 15.356 19.9939 15.356C21.22 15.356 22.3959 15.843 23.2629 16.71C24.1299 17.577 24.6169 18.7529 24.6169 19.979C24.6169 21.2051 24.1299 22.3809 23.2629 23.2479C22.3959 24.1149 21.22 24.602 19.9939 24.602ZM24.8009 16.263C24.6593 16.2631 24.5191 16.2353 24.3883 16.1812C24.2574 16.127 24.1385 16.0476 24.0384 15.9475C23.9383 15.8474 23.8589 15.7285 23.8047 15.5976C23.7506 15.4668 23.7228 15.3266 23.7229 15.185C23.7229 15.0435 23.7508 14.9033 23.805 14.7726C23.8591 14.6419 23.9385 14.5231 24.0385 14.423C24.1386 14.323 24.2574 14.2436 24.3881 14.1895C24.5188 14.1353 24.6589 14.1075 24.8004 14.1075C24.9419 14.1075 25.0821 14.1353 25.2128 14.1895C25.3435 14.2436 25.4623 14.323 25.5624 14.423C25.6624 14.5231 25.7418 14.6419 25.7959 14.7726C25.8501 14.9033 25.8779 15.0435 25.8779 15.185C25.8779 15.781 25.3959 16.263 24.8009 16.263Z" fill="white"/>
<path d="M19.994 22.9821C21.6525 22.9821 22.997 21.6376 22.997 19.9791C22.997 18.3206 21.6525 16.9761 19.994 16.9761C18.3355 16.9761 16.991 18.3206 16.991 19.9791C16.991 21.6376 18.3355 22.9821 19.994 22.9821Z" fill="white"/>
</svg>
